<svg width="903" height="531" viewBox="0 0 903 531" fill="none" xmlns="http://www.w3.org/2000/svg">
<g clip-path="url(#clip0_1784_2173)">
<path d="M902.416 529.694L565.1 530.249V392.319L902.416 391.764V529.694Z" fill="#101820"/>
<path d="M571.034 397.478H614.55C640.033 397.478 657.511 414.737 657.511 439.098C657.511 453.453 650.953 465.275 640.218 472.354L660.241 524.696H624.741L611.092 481.076H602.902V524.696H571.045V397.467L571.034 397.478ZM602.89 456.541H610.351C619.64 456.541 625.643 449.821 625.643 440.544C625.643 431.267 619.998 424.731 610.71 424.731H602.879V456.541H602.89Z" fill="white"/>
<path d="M662.983 397.478H695.753V524.708H662.983V397.478Z" fill="white"/>
<path d="M703.064 397.478H759.143C781.896 397.478 795.73 411.475 795.73 430.376C795.73 442.371 789.9 452.366 780.068 458.369C791.716 464.187 798.46 475.454 798.46 488.907C798.46 509.08 782.983 524.708 758.958 524.708H703.064V397.478ZM734.921 448.363H751.312C759.143 448.363 763.874 442.915 763.874 435.095C763.874 427.276 759.501 422.013 751.682 422.013H734.921V448.363ZM734.921 500.162H752.769C761.329 500.162 766.604 493.985 766.604 485.437C766.604 476.888 761.688 471.082 753.128 471.082H734.909V500.162H734.921Z" fill="white"/>
<path d="M832.294 470.735C817.361 461.469 805.354 449.104 805.354 431.29C805.354 410.029 823.561 395.662 844.857 395.662C878.356 395.662 885.273 424.384 885.273 424.384L859.605 434.737C859.605 434.737 855.776 422.013 845.585 422.013C841.213 422.013 837.211 424.916 837.211 429.832C837.211 436.738 842.67 441.099 854.145 448.19C869.622 457.825 883.816 469.636 883.816 488.907C883.816 512.898 865.25 526.536 842.312 526.536C808.084 526.536 799.351 494.182 799.351 494.182L825.019 483.817C825.019 483.817 831.207 500.174 842.127 500.174C848.13 500.174 851.959 496.542 851.959 490.908C851.959 483.089 845.042 478.554 832.294 470.735Z" fill="white"/>
<path d="M900.195 0H0.923828V141.145H900.195V0Z" fill="#101820"/>
<path d="M116.459 136.137H82.3927L76.4008 112.77H44.9491L39.1422 136.137H6.9502L46.2562 5.30945H77.1411L116.459 136.137ZM60.6807 49.7976L50.941 88.4905H70.4089L60.6691 49.7976H60.6807Z" fill="white"/>
<path d="M106.858 83.1117V55.7664H159.27V83.1117H106.858Z" fill="white"/>
<path d="M197.095 68.2939V136.137H166.765V5.30945H199.524L223.862 71.0932L248.2 5.30945H279.084V136.137H248.755V68.2939L230.594 117.444H215.244L197.083 68.2939H197.095Z" fill="white"/>
<path d="M390.444 136.137H356.378L350.386 112.77H318.934L313.127 136.137H280.924L320.241 5.30945H351.126L390.444 136.137ZM334.654 49.786L324.915 88.4789H344.383L334.643 49.786H334.654Z" fill="white"/>
<path d="M391.843 5.30945H425.539V136.137H391.843V5.30945Z" fill="white"/>
<path d="M432.78 136.137V111.845L478.645 33.3488H433.058V5.30945H517.026V29.6125L471.161 108.109H517.026V136.148H432.792L432.78 136.137Z" fill="white"/>
<path d="M524.718 136.137V5.30945H598.669V34.2742H557.489V55.7664H591.184V82.8688H557.489V107.16H599.605V136.125H524.718V136.137Z" fill="white"/>
<path d="M600.785 83.1117V55.7664H653.197V83.1117H600.785Z" fill="white"/>
<path d="M662.324 5.30945H696.019V136.137H662.324V5.30945Z" fill="white"/>
<path d="M733.486 64.3725V136.137H703.538V5.30945H735.36L765.308 72.9671V5.30945H795.256V136.137H765.308L733.486 64.3725Z" fill="white"/>
<path d="M847.552 138.01C821.155 138.01 802.058 121.006 802.058 93.5338V48.6755C802.058 21.203 821.907 3.44702 848.292 3.44702C874.678 3.44702 893.787 20.4511 893.787 47.9236V51.1046H861.028V47.3684C861.028 37.8369 855.788 32.4118 847.922 32.4118C840.056 32.4118 834.816 37.8369 834.816 47.3684V93.1521C834.816 104.361 840.427 109.971 848.859 109.971C857.292 109.971 862.902 104.361 862.902 93.1521V86.6165H847.922V63.2504H893.787V92.7819C893.787 120.254 873.937 138.01 847.552 138.01Z" fill="white"/>
<path d="M900.195 84.4998H0.923828V225.645H900.195V84.4998Z" fill="#101820"/>
<path d="M116.459 220.636H82.3927L76.4008 197.27H44.9491L39.1422 220.636H6.9502L46.2562 89.8092H77.1411L116.459 220.636ZM60.6807 134.297L50.941 172.99H70.4089L60.6691 134.297H60.6807Z" fill="white"/>
<path d="M106.858 167.611V140.266H159.27V167.611H106.858Z" fill="white"/>
<path d="M197.095 152.794V220.636H166.765V89.8092H199.524L223.862 155.593L248.2 89.8092H279.084V220.636H248.755V152.794L230.594 201.943H215.244L197.083 152.794H197.095Z" fill="white"/>
<path d="M390.444 220.636H356.378L350.386 197.27H318.934L313.127 220.636H280.924L320.241 89.8092H351.126L390.444 220.636ZM334.654 134.286L324.915 172.979H344.383L334.643 134.286H334.654Z" fill="white"/>
<path d="M391.843 89.8092H425.539V220.636H391.843V89.8092Z" fill="white"/>
<path d="M432.78 220.636V196.345L478.645 117.849H433.058V89.8092H517.026V114.101L471.161 192.597H517.026V220.636H432.792H432.78Z" fill="white"/>
<path d="M524.718 220.636V89.8092H598.669V118.774H557.489V140.266H591.184V168.78H557.489V191.66H599.605V220.625H524.718V220.636Z" fill="white"/>
<path d="M600.785 167.611V140.266H653.197V167.611H600.785Z" fill="white"/>
<path d="M662.324 89.8092H696.019V220.636H662.324V89.8092Z" fill="white"/>
<path d="M733.486 148.872V220.636H703.538V89.8092H735.36L765.308 157.467V89.8092H795.256V220.636H765.308L733.486 148.872Z" fill="white"/>
<path d="M847.552 222.51C821.155 222.51 802.058 205.506 802.058 178.034V133.175C802.058 105.703 821.907 87.9469 848.292 87.9469C874.678 87.9469 893.787 104.951 893.787 132.423V135.605H861.028V131.868C861.028 122.337 855.788 116.912 847.922 116.912C840.056 116.912 834.816 122.337 834.816 131.868V177.652C834.816 188.861 840.427 194.471 848.859 194.471C857.292 194.471 862.902 188.861 862.902 177.652V171.116H847.922V147.75H893.787V177.282C893.787 204.754 873.937 222.51 847.552 222.51Z" fill="white"/>
<path d="M900.195 169H0.923828V310.145H900.195V169Z" fill="#101820"/>
<path d="M116.459 305.136H82.3927L76.4008 281.77H44.9491L39.1422 305.136H6.9502L46.2677 174.309H77.1526L116.47 305.136H116.459ZM60.6691 218.785L50.9294 257.478H70.3973L60.6576 218.785H60.6691Z" fill="white"/>
<path d="M106.858 252.111V224.766H159.27V252.111H106.858Z" fill="white"/>
<path d="M197.095 237.293V305.136H166.765V174.309H199.524L223.862 240.093L248.2 174.309H279.084V305.136H248.755V237.293L230.594 286.443H215.244L197.083 237.293H197.095Z" fill="white"/>
<path d="M390.444 305.136H356.378L350.386 281.77H318.934L313.127 305.136H280.924L320.241 174.309H351.126L390.444 305.136ZM334.654 218.785L324.915 257.478H344.383L334.643 218.785H334.654Z" fill="white"/>
<path d="M391.843 174.309H425.539V305.136H391.843V174.309Z" fill="white"/>
<path d="M432.78 305.136V280.844L478.645 202.348H433.058V174.309H517.026V198.6L471.161 277.097H517.026V305.136H432.792H432.78Z" fill="white"/>
<path d="M524.718 305.136V174.309H598.669V203.274H557.489V224.766H591.184V259.19H557.489V276.16H599.605V305.124H524.718V305.136Z" fill="white"/>
<path d="M600.785 252.111V224.766H653.197V252.111H600.785Z" fill="white"/>
<path d="M662.324 174.309H696.019V305.136H662.324V174.309Z" fill="white"/>
<path d="M733.486 233.372V305.136H703.538V174.309H735.36L765.308 241.966V174.309H795.256V305.136H765.308L733.486 233.372Z" fill="white"/>
<path d="M847.552 307.01C821.155 307.01 802.058 290.006 802.058 262.533V217.675C802.058 190.202 821.907 172.447 848.292 172.447C874.678 172.447 893.787 189.451 893.787 216.923V220.104H861.028V216.368C861.028 206.836 855.788 201.411 847.922 201.411C840.056 201.411 834.816 206.836 834.816 216.368V262.152C834.816 273.36 840.427 278.971 848.859 278.971C857.292 278.971 862.902 273.36 862.902 262.152V255.616H847.922V232.25H893.787V261.781C893.787 289.254 873.937 307.01 847.552 307.01Z" fill="white"/>
<path d="M900.195 253.499H0.923828V394.645H900.195V253.499Z" fill="#101820"/>
<path d="M116.459 389.636H82.3927L76.4008 366.27H44.9491L39.1422 389.636H6.9502L46.2677 258.809H77.1526L116.47 389.636H116.459ZM60.6691 303.285L50.9294 341.978H70.3973L60.6576 303.285H60.6691Z" fill="white"/>
<path d="M106.858 336.611V309.266H159.27V336.611H106.858Z" fill="white"/>
<path d="M197.095 321.793V389.636H166.765V258.809H199.524L223.862 324.592L248.2 258.809H279.084V389.636H248.755V321.793L230.594 370.943H215.244L197.083 321.793H197.095Z" fill="white"/>
<path d="M390.444 389.636H356.378L350.386 366.27H318.934L313.127 389.636H280.924L320.241 258.809H351.126L390.444 389.636ZM334.654 303.285L324.915 341.978H344.383L334.643 303.285H334.654Z" fill="white"/>
<path d="M391.843 258.809H425.539V389.636H391.843V258.809Z" fill="white"/>
<path d="M432.78 389.636V365.344L478.645 286.848H433.058V258.809H517.026V283.1L471.161 361.597H517.026V389.636H432.792H432.78Z" fill="white"/>
<path d="M524.718 389.636V258.809H598.669V287.773H557.489V309.266H591.184V336.368H557.489V360.66H599.605V389.624H524.718V389.636Z" fill="white"/>
<path d="M600.785 336.611V309.266H653.197V336.611H600.785Z" fill="white"/>
<path d="M662.324 258.809H696.019V389.636H662.324V258.809Z" fill="white"/>
<path d="M733.486 317.872V389.636H703.538V258.809H735.36L765.308 326.466V258.809H795.256V389.636H765.308L733.486 317.872Z" fill="white"/>
<path d="M847.552 391.51C821.155 391.51 802.058 374.506 802.058 347.033V302.175C802.058 274.702 821.907 256.946 848.292 256.946C874.678 256.946 893.787 273.95 893.787 301.423V304.604H861.028V300.868C861.028 291.336 855.788 285.911 847.922 285.911C840.056 285.911 834.816 291.336 834.816 300.868V346.651C834.816 357.86 840.427 363.47 848.859 363.47C857.292 363.47 862.902 357.86 862.902 346.651V340.116H847.922V316.75H893.787V346.281C893.787 373.754 873.937 391.51 847.552 391.51Z" fill="white"/>
</g>
<defs>
<clipPath id="clip0_1784_2173">
<rect width="901.493" height="530.249" fill="white" transform="translate(0.923828)"/>
</clipPath>
</defs>
</svg>
