<svg width="566" height="545" viewBox="0 0 566 545" fill="none" xmlns="http://www.w3.org/2000/svg">
<g clip-path="url(#clip0_1784_2150)">
<path d="M339.663 370.762C337.411 322.773 336.134 276.409 345.243 236.658L345.922 233.698L343.139 233.676C336.348 233.632 308.674 229.048 286.573 219.001L284.115 217.886L283.598 220.743C271.367 288.138 293.224 345.258 304.961 375.944C307.958 383.783 310.328 389.969 311.368 394.251C315.901 412.838 314.506 422.08 312.431 426.597C305.758 415.532 298.325 392.752 298.244 392.501L295.859 385.156L294.08 392.708C294.036 392.907 290.463 407.899 285.628 419.695C286.994 401.315 288.168 365.779 280.889 332.842L280.321 330.273L278.047 331.151C260.685 337.861 243.87 351.879 243.161 352.477L241.773 353.651L242.512 355.393C242.615 355.629 252.632 379.745 252.012 425.268C251.473 464.879 241.626 505.227 227.512 525.675L225.032 529.262L229.129 529.506C244.143 530.406 282.838 532.776 282.838 532.776L283.584 532.82L284.196 532.355C285.385 531.455 295.631 521.873 300.761 458.346C302.186 461.07 303.625 465.115 304.828 472.076C312.417 516.115 313.007 537.618 313.014 537.832L313.081 540.637L315.598 540.121C315.834 540.069 352.654 532.244 352.654 532.244C352.654 532.244 352.92 530.901 352.285 525.948C347.229 486.441 342.977 434.223 339.663 370.754V370.762Z" fill="white" stroke="#101820" stroke-width="2.32524" stroke-miterlimit="10"/>
<path d="M80.3796 195.128C99.5942 211.516 116.867 217.562 130.62 217.562C139.441 217.562 146.808 215.074 152.322 211.228C162.937 203.817 167.558 191.046 164.664 177.051C159.866 154.027 144.106 127.165 143.442 126.028L141.832 123.297L114.04 139.035L116.565 142.46C123.828 152.322 134.783 171.005 133.233 179.162C132.974 180.52 132.376 181.398 131.299 182.019C119.82 188.61 93.7774 151.052 82.6532 135.004C80.3205 131.66 77.9805 128.545 75.7143 125.526C68.8051 116.321 62.8406 108.378 63.9331 102.746C64.5237 99.7197 67.4025 96.7818 72.4516 94.0358C82.9558 88.4773 100.177 114.158 105.389 123.592L106.983 126.486L136.429 109.5L134.997 106.356C134.429 105.116 121.031 75.8694 109.028 60.6704C107.183 57.8432 90.8026 33.8304 65.8893 28.2351C51.6425 25.0388 37.5065 28.4787 23.8651 38.4735C15.2876 44.8144 5.84633 52.6465 2.45812 65.439C-1.3287 79.7448 3.3144 97.2616 16.6532 118.971C39.5144 156.655 63.9405 181.192 80.4017 195.128H80.3796Z" fill="white" stroke="#101820" stroke-width="2.32524" stroke-miterlimit="10"/>
<path d="M161.32 136.769C179.073 181.037 171.204 205.935 166.997 214.594C166.997 214.594 165.41 217.864 165.395 217.894C169.721 218.588 175.906 218.152 177.287 218.049C183.62 217.584 189.954 216.417 196.081 214.624L197.136 214.314L197.55 213.206C206.769 188.367 202.119 161.483 198.421 150.617C202.673 149.915 209.294 148.889 211.782 148.993C219.673 183.2 212.904 210.674 212.837 210.947L212.055 214.04L214.978 214.003C238.722 213.718 250.878 213.305 251.444 212.763C253.614 210.497 256.109 202.473 256.611 186.758C257.032 173.655 256.094 150.617 249.259 115.251C231.151 24.0201 198.118 -0.383897 190.862 1.24008C185.289 2.48759 166.384 8.53322 150.122 13.9809C142.379 16.5719 135.314 19.0005 127.239 22.433C124.596 23.555 114.468 27.866 114.468 27.866C114.468 27.866 132.937 65.9926 161.32 136.769ZM168.886 53.8053C183.857 55.2374 196.029 75.4633 202.68 110.187C197.542 111.08 193.276 112.246 190.544 113.088C189.873 110.15 188.418 105.167 185.584 96.5086C182.321 86.5654 176.844 71.3295 168.886 53.8053V53.8053Z" fill="white" stroke="#101820" stroke-width="2.32524" stroke-miterlimit="10"/>
<path d="M251.082 77.4491L251.724 79.9441C258.67 106.806 260.486 122.537 264.458 157.017C265.233 163.741 266.089 171.16 267.078 179.479C268.348 190.146 270.26 206.268 283.045 211.095C290.67 213.974 297.122 215.413 302.378 215.413C308.859 215.413 313.517 213.221 316.292 208.844C322.544 198.982 326.42 186.765 330.17 174.954C330.871 172.732 331.572 170.54 332.273 168.399C334.798 160.708 337.249 152.846 339.611 145.243C341.626 138.776 343.641 132.31 345.723 125.873L346.675 122.913C355.452 95.7262 369.071 48.9999 383.621 24.7214L384.507 23.2377C384.507 23.2377 382.801 20.9715 358.693 13.4717C341.279 8.05349 332.982 5.66919 332.982 5.66919C332.982 5.66919 332.31 8.02396 332.045 9.55198C331.882 10.4747 331.653 11.8255 331.366 13.5455C330.79 16.978 329.978 21.9016 328.996 27.8513C327.047 39.7358 319.104 76.7699 316.454 93.1426C311.487 123.814 305.692 159.91 304.732 166.384C304.23 169.809 302.747 171.175 301.61 171.005C300.429 170.828 299.388 169.108 299.698 166.177C300.539 158.198 301.558 118.521 302.267 86.6393C302.658 69.1742 302.99 52.1888 303.234 39.5587C303.352 33.2473 303.367 28.021 303.507 24.3745C303.677 20.1374 302.724 16.6901 302.724 16.6901L302.695 16.727C301.396 15.9962 296.295 15.1695 269.189 12.1061C253.902 10.3787 234.658 8.45948 229.793 9.12384L226.353 9.59627L228.228 12.7999C239.293 31.7341 245.56 56.0125 251.097 77.4343L251.082 77.4491Z" fill="white" stroke="#101820" stroke-width="2.32524" stroke-miterlimit="10"/>
<path d="M327.49 219.163L329.616 219.599C330.723 219.828 331.949 220.093 333.277 220.389C340.408 221.961 350.337 224.146 360.996 224.146C368.592 224.146 376.556 223.039 384.137 219.806C399.646 214.838 414.565 199.462 428.479 174.083C438.755 155.341 444.653 137.765 444.704 137.588L445.627 134.82L442.97 134.399C442.748 134.362 420.463 130.826 409.405 129.254L407.515 128.944L406.917 131.469C404.806 141.072 395.336 175.331 384.019 181.494C377.944 184.801 374.025 185.001 370.016 185.045C385.784 144.239 427.852 87.2225 478.35 47.3464C479.568 46.3868 480.41 45.715 480.838 45.3533L483.06 43.4562L480.838 41.5665C480.491 41.2713 445.192 11.9806 430.465 7.92063L429.351 7.6106L428.487 8.45211C371.987 63.4681 332.967 185.414 327.881 216.831L327.505 219.163H327.49Z" fill="white" stroke="#101820" stroke-width="2.32524" stroke-miterlimit="10"/>
<path d="M408.497 212.69L406.829 213.62L407.412 215.568C410.402 225.549 413.923 235.669 417.872 245.642L419.016 248.535L421.245 246.542C427.645 240.829 448.174 223.031 466.104 209.471C480.676 198.45 494.989 192.405 507.619 187.068C519.887 181.886 530.487 177.405 538.157 169.713L540.187 167.683L537.441 165.609C527.284 157.807 507.324 148.956 492.361 142.895C483.569 139.337 475.885 136.481 470.976 134.709C461.188 131.173 461.136 131.21 460.221 131.668L456.56 133.491L458.545 134.886C456.906 140.238 450.455 159.231 435.898 180.823C419.917 204.717 411.413 211.066 408.497 212.69V212.69Z" fill="white" stroke="#101820" stroke-width="2.32524" stroke-miterlimit="10"/>
<path d="M80.2467 392.457C80.6526 392.789 81.1398 393.099 81.6861 393.387C83.192 394.191 84.8086 394.745 86.4178 395.232C91.6219 396.797 97.0622 397.439 102.436 397.713C115.937 398.399 129.527 396.465 142.667 393.165C169.388 386.463 189.253 389.142 201.211 392.567C214.151 396.273 220.883 401.632 220.942 401.684L222.751 403.16L224.035 401.13C224.574 400.281 237.278 380.159 242.49 370.548L243.324 368.732L241.943 367.418C241.235 366.746 240.504 366.052 239.655 365.425C207.803 341.921 166.569 355.423 146.749 361.911C142.711 363.232 138.562 364.591 136.473 364.908C137.529 355.888 151.716 313.384 165.424 275.515L166.783 271.758L163.129 272.26C162.966 272.282 147.022 274.43 136.252 273.087L134.871 272.917L134.148 274.224C133.831 274.792 133.181 275.862 132.229 277.413C120.986 295.786 110.659 314.823 101.299 334.429C96.6415 344.195 92.2198 354.101 88.0491 364.133C85.9675 369.138 83.9523 374.172 82.0035 379.229C81.0291 381.753 77.7147 389.718 77.7147 389.718C77.7147 389.718 78.6227 391.15 80.2393 392.464L80.2467 392.457Z" fill="white" stroke="#101820" stroke-width="2.32524" stroke-miterlimit="10"/>
<path d="M235.898 465.706C238.666 449.503 238.599 435.795 235.691 424.958C229.498 401.868 198.901 401.189 189.673 401.529C180.749 401.861 172.88 404.098 166.93 408.003C151.968 417.828 144.866 437.699 139.16 453.666L138.983 454.168C133.107 470.614 122.175 501.219 132.849 518.492C139.537 529.321 152.086 535.839 168.17 536.858C169.603 536.947 171.057 536.991 172.518 536.991C185.436 536.991 199.129 533.507 209.921 527.365C227.084 517.606 232.362 486.492 235.514 467.898L235.89 465.698L235.898 465.706ZM195.062 471.862C194.833 473.058 194.634 474.076 194.494 474.859C193.357 481.067 190.33 497.572 183.458 502.496C181.613 503.817 179.627 504.194 177.39 503.655C175.242 503.138 173.729 501.965 172.762 500.06C168.894 492.449 174.305 475.597 176.342 469.249C176.711 468.097 177.184 466.458 177.752 464.488C179.309 459.069 181.664 450.876 184.587 443.738C188.861 433.3 192.25 430.214 194.339 429.469C195.446 429.07 196.494 429.225 197.646 429.941C199.484 431.093 201.588 438.068 195.069 471.854L195.062 471.862Z" fill="white" stroke="#101820" stroke-width="2.32524" stroke-miterlimit="10"/>
<path d="M272.6 277.627C274.334 256.81 273.5 234.193 254.094 224.286C245.044 219.665 238.363 219.03 227.682 219.392C220.071 219.658 212.675 221.208 205.699 223.998C193.158 229.018 177.73 259.844 170.621 285.518C167.299 297.513 162.797 319.237 169.92 329.941C178.697 343.125 193.785 346.934 204.902 347.812C206.836 347.967 208.792 348.041 210.763 348.041C222.256 348.041 234.193 345.494 243.649 340.918C265.513 330.347 270.607 301.543 272.6 277.619V277.627ZM220.876 259.689C224.869 250.72 227.601 245.324 232.163 246.24C235.196 246.845 237.551 248.513 235.558 262.782C235.196 265.38 234.857 267.964 234.525 270.525C232.82 283.584 231.21 295.911 226.973 304.821C224.877 309.228 218.388 312.86 214.136 312.018C212.291 311.656 210.97 310.785 210.091 309.375C207.581 305.33 209.036 297.336 209.508 294.708C211.162 285.577 216.048 270.525 220.869 259.689H220.876Z" fill="white" stroke="#101820" stroke-width="2.32524" stroke-miterlimit="10"/>
<path d="M438.622 455.305C437.249 448.048 430.391 408.283 430.325 407.877L429.808 404.865L407.87 415.99L408.231 417.857C408.298 418.219 415.155 454.323 412.188 470.747C411.214 476.158 406.74 480.86 402.134 481.561C401.588 480.085 400.591 476.195 398.879 466.097C398.753 465.351 398.657 464.79 398.584 464.399C396.605 455.135 390.818 412.646 389.88 402.577C391.504 400.001 403.736 394.287 409.686 391.512C412.469 390.213 414.868 389.091 416.602 388.19L417.842 387.548V386.042C417.879 382.026 412.291 349.916 411.649 346.269L411.125 343.272L396.066 350.853C391.187 353.311 388.079 354.876 386.094 355.917C385.119 349.584 383.045 335.145 381.473 316.949C379.731 297.351 379.206 280.077 379.059 273.84C381.436 273.5 385.798 273.766 387.784 279.701C391.726 291.859 393.97 334.842 393.992 335.278L394.169 338.666L416.322 328.405L416.292 326.781C416.292 326.523 415.739 300.421 412.491 275.316C407.951 240.799 402.141 226.427 401.019 225.541C400.104 224.692 399.705 224.825 397.114 225.667C391.379 227.527 373.929 233.203 360.162 235.58L359.025 235.78L358.53 236.924C351.03 254.263 343.42 318.735 353.215 425.276C355.969 455.223 361.572 484.012 365.786 502.88C368.267 513.989 370.481 522.663 371.899 527.985C374.615 538.179 376.416 539.464 376.416 539.464L377.405 539.109C378.631 538.674 379.849 538.283 381.067 537.891C384.13 536.902 387.304 535.884 390.633 534.193C392.088 533.455 393.653 532.791 395.173 532.148C395.993 531.801 396.819 531.454 397.624 531.093C404.061 528.229 411.657 524.826 419.238 521.246C422.736 519.592 438.674 511.347 446.971 504.105L447.347 503.773L447.879 502.378L447.701 501.544C446.867 497.535 443.737 482.366 438.629 455.29L438.622 455.305Z" fill="white" stroke="#101820" stroke-width="2.32524" stroke-miterlimit="10"/>
<path d="M552.079 421.437L550.448 418.463L548.492 421.186C546.89 423.416 541.855 428.871 537.766 427.357C534.119 426.014 527.919 418.101 527.313 380.269C527.062 366.938 524.339 359.202 518.979 356.626C510.018 352.308 497.366 364.561 488.131 373.515C486.758 374.851 485.215 376.335 483.879 377.56C486.072 372.836 490.434 364.975 494.694 357.305C510.594 328.656 534.629 285.363 535.551 256.124C536.024 226.707 526.723 214.321 518.839 209.102C508.468 202.244 494.051 203.44 479.34 212.335C458.39 224.139 423.918 259.623 422.463 261.128L421.829 261.785L421.777 262.738C421.71 264.103 420.367 297.557 444.144 419.799C453.755 469.204 470.659 539.013 472.371 542.461L473.08 543.789L474.438 543.716C475.464 543.664 476.21 543.62 490.597 528.406C499.816 518.655 504.652 513.31 504.969 512.52L505.412 511.398L504.843 510.343C489.659 482.226 476.557 422.574 474.682 413.746C475.575 412.823 477.31 411.383 479.199 411.745C480.956 412.077 484.426 414.299 487.88 425.483C489.519 430.775 491.099 436.171 492.627 441.383C502.326 474.445 511.509 505.663 532.429 501.75L532.872 501.61C548.167 494.871 562.118 456.818 564.001 449.525L564.082 449.562C564.48 448.447 565.41 445.849 552.072 421.43L552.079 421.437ZM465.167 369.684C462.14 353.43 454.633 307.715 452.743 285.798C455.519 283.325 463.89 277.162 468.931 278.276C470.526 278.623 471.626 279.694 472.379 281.598C479.48 300.266 473.043 349.311 465.167 369.684V369.684Z" fill="white" stroke="#101820" stroke-width="2.32524" stroke-miterlimit="10"/>
<path d="M128.641 426.56C119.407 407.294 94.2867 399.012 59.7255 403.832L58.3968 404.017L57.9465 405.404C41.4852 456.198 13.0582 509.265 12.7703 509.797L11.6335 511.908L49.6568 535.227L50.5721 532.68C50.6829 532.37 55.4145 519.171 61.3568 502.075C74.9613 503.736 99.6754 502.777 116.092 482.602C131.623 463.513 136.311 442.564 128.641 426.56ZM83.1403 435.197C94.7444 434.82 99.0331 437.847 100.583 440.49C102.34 443.487 101.853 448.049 99.1143 454.042C95.6449 461.653 89.0604 467.411 81.5163 469.433C78.3274 470.29 75.1902 470.423 72.3187 469.869C76.7625 456.486 80.7929 443.811 83.1403 435.197V435.197Z" fill="white" stroke="#101820" stroke-width="2.32524" stroke-miterlimit="10"/>
<path d="M475.922 116.513C484.765 129.682 503.168 136.983 514.477 141.892C523.15 145.656 532.148 147.981 540.586 146.313C549.082 144.638 561.461 137.152 561.033 122.433C560.812 114.867 556.065 108.312 551.385 103.898C545.288 98.14 537.744 92.9212 529.668 88.8907C512.306 80.2172 492.516 76.9914 479.413 85.5247C470.895 91.0684 467.927 104.599 475.929 116.521L475.922 116.513Z" fill="white" stroke="#101820" stroke-width="2.32524" stroke-miterlimit="10"/>
<path d="M26.6038 371.042L57.7989 384.056L58.6921 382.152C71.7135 354.33 78.3718 327.446 81.7157 305.411C91.4448 308.128 101.24 309.818 101.883 309.929L102.783 310.084L103.514 309.493C107.847 305.987 116.58 285.495 118.285 281.421L119.399 278.763L84.8456 269.795C84.971 263.764 84.8456 259.084 84.7053 256.101C125.762 271.736 166.377 261.483 168.134 261.032L169.049 260.796L187.422 225.755L183.104 226.324C96.6489 237.677 34.5982 185.923 33.9855 185.399L29.0102 181.17L30.5382 187.872C56.2192 300.643 27.9177 368.038 27.6298 368.702L26.6185 371.042H26.6038Z" fill="white" stroke="#101820" stroke-width="2.32524" stroke-miterlimit="10"/>
</g>
<defs>
<clipPath id="clip0_1784_2150">
<rect width="565.44" height="545" fill="white"/>
</clipPath>
</defs>
</svg>
