<svg width="581" height="650" viewBox="0 0 581 650" fill="none" xmlns="http://www.w3.org/2000/svg">
<path d="M299.682 348.981C299.682 348.981 299.697 348.981 299.712 348.973C299.712 348.973 299.712 348.973 299.682 348.981Z" fill="#101820"/>
<path d="M306.019 264.663C306.019 264.663 306.041 264.663 306.048 264.655C306.048 264.655 306.049 264.655 306.019 264.663Z" fill="#101820"/>
<path d="M5.81709 398.959C35.3787 379.346 65.3707 360.319 95.7633 341.884C102.493 343.76 109.209 345.651 115.909 347.557C117.823 366.814 119.723 386.071 121.607 405.314C108.333 412.106 95.1326 419.002 81.9917 426.002C82.103 430.815 82.2143 435.627 82.3256 440.44C87.8906 437.088 93.4705 433.751 99.0579 430.436C105.595 432.09 112.117 433.751 118.632 435.427C120.086 455.159 121.526 474.891 122.958 494.615C110.915 500.94 98.9243 507.354 86.9928 513.85C89.0407 545.016 91.0813 576.182 93.107 607.34C77.5174 621.363 62.0984 635.585 46.8501 650C40.8028 648.843 34.7554 647.701 28.6932 646.567C21.1841 564.088 13.5562 481.549 5.80225 398.959H5.81709Z" fill="white"/>
<path d="M109.765 557.555C104.371 488.905 98.8577 420.196 93.2258 351.428C108.652 340.965 125.689 328.671 141.352 318.534C143.972 319.565 146.584 320.595 149.196 321.634C163.947 312.847 178.802 304.2 193.738 295.703C199.719 297.794 205.692 299.892 211.65 301.998C213.387 366.481 215.093 430.956 216.785 495.416C209.098 510.335 201.5 525.329 193.991 540.404C181.094 551.615 163.85 566.779 151.177 578.258C145.671 576.768 119.085 562.353 109.765 557.57V557.555Z" fill="white"/>
<path d="M260.17 484.36C260.423 491.315 260.682 498.263 260.935 505.219C245.746 515.726 230.683 526.396 215.746 537.23C210.292 535.584 202.761 530.022 197.292 528.398C194.814 452.289 194.354 380.087 191.794 303.933C205.677 295.191 219.657 286.567 233.718 278.084C239.171 280.071 244.618 282.066 250.049 284.068C250.072 282.489 250.086 280.909 250.109 279.33C267.034 270.439 284.07 261.726 301.211 253.199C307.288 255.535 313.357 257.87 319.412 260.221C320.147 330.532 320.815 400.805 321.423 471.035C307.97 481.001 294.614 491.107 281.362 501.348C275.812 499.635 262.144 497.18 256.586 495.49C255.08 491.53 261.684 488.327 260.178 484.367L260.17 484.36Z" fill="white"/>
<path d="M300.506 265.241C335.9 247.541 371.754 230.612 408.038 214.477C414.115 216.998 420.192 219.534 426.247 222.077C426.41 238.606 426.566 255.134 426.707 271.655C406.035 279.99 385.488 288.577 365.083 297.415C365.001 301.761 364.927 306.106 364.846 310.451C378.039 302.606 391.298 294.887 404.64 287.272C410.583 289.585 416.512 291.899 422.44 294.234C422.188 335.426 421.906 376.602 421.594 417.756C386.683 437.785 352.298 458.636 318.478 480.289C312.912 478.509 307.347 476.729 301.768 474.965C301.382 405.077 300.959 335.166 300.506 265.241V265.241Z" fill="white"/>
<path d="M399.853 430.614C401.567 362.714 403.274 294.813 404.973 226.905C421.809 220.149 438.727 213.565 455.726 207.143C457.96 208.129 460.193 209.115 462.419 210.102C479.397 203.969 496.455 198.008 513.581 192.209C519.636 194.893 525.683 197.592 531.723 200.299C527.738 262.853 523.776 325.415 519.829 387.992C503.668 396.43 487.618 405.047 471.665 413.826C468.074 412.499 464.482 411.179 460.891 409.859C445.954 418.602 431.121 427.493 416.385 436.539C410.879 434.559 405.366 432.587 399.853 430.614V430.614Z" fill="white"/>
<path d="M510.999 202.316C528.228 196.851 545.539 191.549 562.91 186.425C568.95 189.183 574.982 191.942 581 194.715C575.932 254.541 570.909 314.389 565.915 374.259C549.005 382.475 532.198 390.876 515.495 399.463C509.982 397.32 504.462 395.185 498.934 393.056C502.926 329.456 506.948 265.879 510.999 202.316V202.316Z" fill="white"/>
<path d="M0 132.235C33.5388 116.307 67.4263 101.002 101.663 86.3276C109.201 88.8414 116.725 91.3625 124.234 93.906C126.275 112.726 128.293 131.538 130.304 150.35C115.367 155.511 100.483 160.798 85.65 166.189C85.7465 170.853 85.8355 175.51 85.932 180.174C92.2168 177.52 98.5165 174.88 104.824 172.262C112.162 174.546 119.486 176.845 126.802 179.151C128.323 198.386 129.844 217.613 131.35 236.848C117.764 241.668 104.222 246.592 90.7254 251.612C92.8401 281.955 94.9548 312.29 97.0621 342.626C79.3578 354.49 61.8019 366.57 44.4092 378.849C37.5605 377.084 30.7043 375.334 23.8333 373.592C15.968 293.174 8.02111 212.719 0 132.235Z" fill="white"/>
<path d="M116.354 304.564C110.507 237.671 105.091 167.984 99.0508 100.995C116.065 92.6972 133.176 84.5702 150.383 76.6063C153.254 77.904 156.126 79.209 158.99 80.5141C175.196 73.7515 191.468 67.1297 207.814 60.6562C214.359 63.3776 220.896 66.1064 227.411 68.8426C229.347 131.427 231.277 194.003 233.206 256.58C224.784 270.076 216.444 283.653 208.185 297.304C193.998 306.559 179.9 315.946 165.906 325.475C159.829 323.354 155.384 326.416 149.292 324.31C139.082 318.519 126.653 310.318 116.354 304.556V304.564Z" fill="white"/>
<path d="M280.761 251.204C281.058 257.974 281.355 264.737 281.644 271.507C265.031 279.812 248.521 288.287 232.108 296.934C226.105 294.672 220.102 292.418 214.077 290.171C211.287 216.249 208.49 142.327 205.67 68.3976C220.866 61.5682 236.144 54.8723 251.482 48.3025C257.432 50.8681 263.383 53.4338 269.312 56.0143C269.327 54.4867 269.349 52.9592 269.364 51.4317C287.81 44.8174 306.346 38.3736 324.963 32.1226C331.574 35.096 338.178 38.0844 344.767 41.0727C345.761 109.344 346.726 177.594 347.646 245.821C333.006 253.837 318.448 261.993 303.979 270.276C297.902 267.933 291.817 265.597 285.725 263.269C284.071 259.25 282.408 255.231 280.746 251.204H280.761Z" fill="white"/>
<path d="M322.915 39.4339C340.775 32.9456 358.717 26.6279 376.733 20.4881C381.118 22.6237 385.496 24.7592 389.866 26.9022C390.326 26.2868 390.786 25.6639 391.246 25.0484C412.223 18.968 433.296 13.1174 454.458 7.4967C460.943 10.6926 467.406 13.8886 473.869 17.0994C455.734 52.9963 438.022 89.2787 420.748 125.925C435.418 153.168 449.806 180.337 463.911 207.425C447.127 214.15 430.424 221.039 413.811 228.098C407.645 225.585 401.471 223.078 395.29 220.579C395.312 222.107 395.342 223.634 395.364 225.162C378.15 235.121 361.061 245.272 344.099 255.609C338.022 253.199 331.937 250.796 325.838 248.409C324.881 178.765 323.902 109.107 322.907 39.4413L322.915 39.4339Z" fill="white"/>
<path d="M462.679 155.889C454.413 110.13 445.858 64.2155 436.991 18.1672C455.281 13.896 473.639 9.79545 492.041 5.85799C494.845 7.36328 497.658 8.87597 500.455 10.3887C519.376 6.74782 538.357 3.28493 557.389 0C563.815 3.33683 570.233 6.68108 576.637 10.0327C561.945 56.7632 547.639 103.805 533.734 151.173C533.074 165.522 530.536 185.817 529.883 200.165C511.949 208.396 495.995 210.88 478.276 219.497C472.222 216.879 466.159 214.269 460.082 211.666C460.943 193.069 461.811 174.479 462.679 155.889Z" fill="white"/>
<path d="M30.6447 364.352L32.9226 362.743C45.0619 354.134 57.4312 345.525 69.6743 337.161L70.446 336.634L70.3718 335.7C67.9232 305.024 65.4745 274.339 63.0111 243.655C76.1001 238.739 89.382 233.853 102.516 229.129L103.688 228.706L103.577 227.468C102.412 214.306 101.239 201.144 100.06 187.982L99.8592 185.758L97.8113 186.648C85.2565 192.075 72.5607 197.681 60.0282 203.324C59.0784 188.079 58.1286 172.84 57.1789 157.595C71.4922 152.352 86.0504 147.147 100.46 142.112L101.677 141.689L101.529 140.406C100.037 127.571 98.5384 114.728 97.0247 101.885L96.7724 99.7268L94.7765 100.594C66.4837 112.918 38.0054 125.865 10.1355 139.094L9.11157 139.576L9.22287 140.703C16.3313 214.291 23.4472 288.606 30.3775 361.572L30.6372 364.345L30.6447 364.352Z" fill="#101820"/>
<path d="M123.277 298.165L123.344 298.965L124.041 299.358C132.322 304 140.551 308.635 148.483 313.128L149.299 313.588L150.071 313.062C162.21 304.846 174.617 296.607 186.927 288.569L187.216 288.376L187.394 288.08C194.666 275.978 202.086 263.788 209.461 251.857L209.706 251.464L209.691 251.004C207.465 192.787 205.239 134.571 203.006 76.3468L202.924 74.2112L200.936 75.0046C188.982 79.7874 176.813 84.7482 164.778 89.7608L163.783 90.1761L163.85 91.2513C167.063 141.808 170.276 192.884 173.4 243.055C170.714 248.624 168.057 254.178 165.483 259.591C162.277 257.922 159.072 256.261 155.866 254.593C152.609 201.463 149.255 147.021 145.879 92.7565L145.738 90.5394L143.727 91.4811C131.803 97.087 119.797 102.834 108.029 108.566L107.101 109.018L107.19 110.049C112.585 172.195 117.994 235.484 123.27 298.15L123.277 298.165Z" fill="#101820"/>
<path d="M220.54 280.435L220.621 282.815L222.744 281.725C234.141 275.845 245.761 269.964 257.269 264.24L258.145 263.802L258.108 262.824C256.891 232.718 255.659 202.612 254.42 172.492C266.173 200.188 277.867 228.21 289.235 255.883L289.881 257.448L291.365 256.632C300.617 251.516 310.063 246.369 319.457 241.327L324.065 238.754L324.043 237.849C322.744 175.154 321.386 111.116 319.999 47.5165L319.954 45.4476L317.995 46.1224C304.936 50.6383 291.721 55.3172 278.721 60.0259L277.66 60.4115L277.726 61.5386C279.403 88.8487 281.065 116.359 282.69 143.461C271.998 116.492 261.031 89.2639 250.035 62.3913L249.448 60.9676L248.031 61.5831C236.901 66.4104 225.66 71.3711 214.619 76.3393L213.698 76.7545L213.736 77.763C216.014 145.315 218.284 212.875 220.547 280.427L220.54 280.435Z" fill="#101820"/>
<path d="M332.872 238.339L332.902 240.979L335.165 239.614C347.03 232.459 359.08 225.318 370.974 218.392L371.724 217.954L371.687 161.525C380.554 179.433 389.428 197.548 398.102 215.463L398.725 216.753L400.046 216.197C412.096 211.11 424.31 206.06 436.353 201.181L437.896 200.558L437.117 199.083C423.687 173.56 409.87 147.718 396.047 122.254C410.976 89.8942 426.454 57.3786 442.051 25.5823L443.513 22.6014L440.3 23.469C426.299 27.2433 412.148 31.166 398.251 35.1331L397.59 35.3185L397.301 35.9414C388.671 54.3162 380.042 72.995 371.627 91.5626V34.31L369.639 34.9996C357.062 39.3301 344.373 43.8014 331.922 48.2802L330.913 48.6436V49.7113C331.589 112.592 332.234 175.465 332.872 238.339V238.339Z" fill="#101820"/>
<path d="M470.047 159.575C469.298 174.212 468.556 188.85 467.814 203.495L467.71 205.571L469.713 205.03C481.89 201.73 491.877 198.163 505.018 193.114L505.946 192.758L505.983 191.771C506.25 185.298 507.111 177.245 507.942 169.459C508.773 161.71 509.633 153.694 509.908 147.162C522.507 103.56 535.633 59.581 548.93 16.4469L549.65 14.1111L547.238 14.5189C534.402 16.6842 521.409 18.9606 508.609 21.289L507.615 21.4669L507.407 22.4606C502.755 44.543 498.103 66.9294 493.554 89.1453C491.603 66.4252 489.592 43.4826 487.566 20.7847L487.41 19.0793L485.733 19.45C473 22.2455 460.134 25.1597 447.505 28.1109L446.095 28.4372L446.362 29.8535C454.465 72.9431 462.434 116.589 470.04 159.59L470.047 159.575Z" fill="#101820"/>
<path d="M95.0513 447.506L94.8361 444.904L92.6175 446.283C81.6655 453.097 70.5947 460.105 59.6798 467.127L56.8379 420.107C69.5411 413.204 82.4446 406.322 95.2145 399.649L96.1791 399.145L96.0604 398.062C94.6506 384.907 93.2408 371.76 91.8161 358.598L91.5416 356.077L89.3824 357.419C64.2951 373.05 39.1558 389.312 14.6547 405.759L13.8682 406.285L13.9572 407.227C20.8208 482.447 27.6918 558.808 34.3773 634.191L34.6741 637.498L37.0708 635.199C47.6889 625.026 58.5148 614.83 69.2442 604.894L69.8082 604.374L69.7488 603.611C67.3818 571.985 65 540.367 62.6033 508.726C74.1192 502.305 85.8801 495.868 97.5667 489.58L98.4868 489.083L98.3978 488.045C97.2847 474.535 96.1643 461.017 95.0365 447.499L95.0513 447.506Z" fill="#101820"/>
<path d="M189.242 312.001L189.153 309.48L186.971 310.748C175.975 317.155 164.896 323.717 154.048 330.257L153.269 330.724L153.321 331.629C156.297 383.513 159.272 436.124 162.151 488.008C159.739 494.066 157.313 500.191 154.939 506.242C152.149 504.952 149.351 503.654 146.554 502.364C143.519 447.232 140.388 391.151 137.249 335.648L137.101 333.023L134.904 334.484C124.145 341.64 113.26 348.995 102.545 356.359L101.826 356.856L101.892 357.723C106.96 421.931 111.999 487.007 116.866 551.126L116.933 551.971L117.69 552.357C125.221 556.205 132.656 560.017 139.787 563.702L140.722 564.184L141.501 563.48C152.445 553.499 163.665 543.459 174.832 533.626L175.054 533.426L175.188 533.159C181.777 519.723 188.515 506.19 195.207 492.946L195.378 492.605L195.363 492.22C193.33 431.845 191.275 371.211 189.234 312.016L189.242 312.001Z" fill="#101820"/>
<path d="M296.321 268.452L296.276 266.027L294.117 267.139C282.141 273.331 270.016 279.723 258.07 286.137L257.224 286.589L257.276 287.546C258.768 315.36 260.252 343.516 261.699 371.382C252.052 345.036 242.139 318.408 232.181 292.091L231.536 290.379L229.978 291.343C219.79 297.645 209.513 304.104 199.451 310.533L198.732 310.993L198.754 311.845C200.817 380.621 202.894 450.984 204.935 520.983L205.017 523.823L207.324 522.162C217.735 514.651 228.308 507.154 238.741 499.872L239.416 499.405L239.386 498.589C238.31 467.475 237.212 436.317 236.122 405.825C246.747 432.898 257.284 460.231 267.501 487.2L268.213 489.083L269.824 487.86C278.342 481.401 286.979 474.928 295.527 468.61C296.692 467.72 297.857 466.83 299.022 465.94L299.63 465.481L299.615 464.717C298.584 399.767 297.471 333.728 296.313 268.444L296.321 268.452Z" fill="#101820"/>
<path d="M403.148 229.159L403.111 226.868L401.018 227.809C369.913 241.854 338.675 256.706 308.163 271.959L307.325 272.375V273.309C307.495 336.583 307.651 400.739 307.777 463.99V466.734L310.1 465.258C338.979 446.839 368.667 428.768 398.332 411.543L399.171 411.009L398.978 409.133C399.23 374.14 399.46 338.414 399.683 302.947L399.697 300.307L397.412 301.635C382.564 310.274 367.605 319.187 352.936 328.129L352.246 328.552L352.216 329.36C351.771 340.335 351.326 351.309 350.888 362.291L350.777 365.109L353.181 363.641C358.546 360.363 364.051 357.026 369.579 353.712C369.55 363.233 369.52 372.746 369.49 382.268C360.571 387.243 351.637 392.308 342.874 397.343C342.704 361.794 342.518 325.534 342.31 289.518C362.256 280.895 382.594 272.404 402.769 264.27L403.726 263.884L403.712 262.846C403.526 251.627 403.341 240.4 403.148 229.181V229.159Z" fill="#101820"/>
<path d="M507.882 204.362L505.76 205.097C493.621 209.286 481.392 213.609 469.394 217.947L468.452 218.288L468.407 219.289C467.361 241.142 466.307 262.994 465.261 284.847C459.436 286.582 453.56 288.347 447.765 290.119L450.221 219.497L448.091 220.32C436.315 224.865 424.406 229.559 412.697 234.275L411.785 234.646L411.755 235.632C409.915 296.978 408.075 358.324 406.234 419.662L406.153 422.421L408.52 421.004C420.147 414.027 431.982 407.064 443.698 400.294L444.426 399.871L444.448 399.033C445.123 376.365 445.791 353.697 446.459 331.029C452.061 328.374 457.745 325.712 463.399 323.094C462.234 348.21 461.069 373.332 459.911 398.447L459.785 401.132L462.145 399.841C473.69 393.509 485.496 387.154 497.22 380.962L497.976 380.562L498.021 379.709C501.256 322.004 504.506 264.307 507.763 206.617L507.89 204.37L507.882 204.362Z" fill="#101820"/>
<path d="M554.955 199.083C542.912 202.679 530.729 206.416 518.73 210.191L517.751 210.502L517.677 211.525C513.67 268.674 509.663 326.401 505.768 383.098L505.582 385.745L507.949 384.544C519.606 378.641 531.486 372.746 543.254 367.022L544.033 366.644L544.1 365.784C548.084 314.211 549.294 298.765 550.31 285.737C551.475 270.891 552.388 259.175 556.892 200.64L557.063 198.453L554.955 199.083V199.083Z" fill="#101820"/>
</svg>
