<svg width="16" height="5" viewBox="0 0 16 5" fill="none" xmlns="http://www.w3.org/2000/svg">
<path d="M0.59539 0.124445C0.75539 0.0844457 0.91539 0.124445 0.95539 0.0044443C0.835391 0.0044443 0.63539 -0.0355552 0.59539 0.124445Z" fill="white"/>
<path d="M14.7954 1.04445V1.24444H14.8754C14.9154 1.44444 15.1554 1.36444 15.3554 1.36444C15.7154 1.64444 14.5154 1.32444 14.5554 1.60444C14.6754 1.84445 14.9954 1.44444 15.1154 1.84445C15.1554 1.44444 15.5154 2.08444 15.4754 1.72445C15.8754 1.92445 15.1954 2.04445 15.1154 1.84445C14.9154 2.00445 14.5954 2.04444 14.1954 2.08444C14.3954 2.32444 14.9954 2.12444 15.2354 2.28445C14.7554 2.56445 14.1554 2.64444 13.6354 2.88445C13.9154 3.08445 14.2754 2.92445 14.5554 2.88445C14.5554 3.00445 14.7154 3.00444 14.8754 3.00444C14.8754 3.40445 14.1554 3.08444 13.9554 3.32445C14.0354 3.80444 14.5154 3.20445 14.7954 3.56444C14.6754 3.92444 13.6354 3.36444 13.7554 3.92444C13.5954 3.76445 13.5154 3.56445 13.2754 3.80445C13.2754 4.08445 12.8754 4.04445 12.5954 4.04445C12.5954 4.60444 13.6354 3.88444 13.5154 4.36444C12.3554 4.40445 10.8354 4.28444 10.1554 4.48444C7.31539 4.24445 3.95539 5.16444 1.99539 4.24444C1.91539 4.28444 1.87539 4.36444 1.87539 4.48444C1.39539 4.24445 1.47539 3.40444 0.95539 3.20445V3.12445C0.47539 3.16444 1.07539 2.80445 0.59539 2.76445C0.63539 2.68445 0.715391 2.64444 0.835391 2.64444C0.79539 2.36444 0.875391 2.20445 0.95539 2.08444C0.79539 1.80444 0.47539 2.24444 0.395391 1.84445C0.43539 1.48445 0.63539 1.96444 0.835391 1.84445C0.835391 1.44444 0.63539 1.28444 0.275391 1.24444C0.35539 1.04444 0.59539 1.16444 0.395391 0.924445C0.54917 0.770666 0.739899 0.321287 0.328338 0.322087C0.310704 0.322863 0.293055 0.323648 0.275391 0.324444C0.294053 0.322889 0.311688 0.32212 0.328338 0.322087C4.7431 0.127936 8.21337 0.563967 12.7154 0.444445C12.8354 0.484444 12.9954 0.484445 12.9154 0.684445C13.3154 0.564445 16.1954 0.764445 13.8754 0.804445C14.1954 1.08445 14.4354 0.884445 14.7954 1.04445Z" fill="white"/>
<path d="M13.6354 4.36444C13.7154 4.36444 13.8354 4.36444 13.8754 4.24444C13.7554 4.28444 13.6354 4.24444 13.6354 4.36444Z" fill="white"/>
<path d="M14.5554 4.36444C14.6754 4.36444 14.8754 4.40445 14.8754 4.24444C14.7554 4.28444 14.5554 4.24444 14.5554 4.36444Z" fill="white"/>
<path d="M12.4754 4.60445C12.5554 4.56444 12.7154 4.60445 12.7154 4.48444C12.5954 4.52445 12.4754 4.48444 12.4754 4.60445Z" fill="white"/>
</svg>
