<svg width="16" height="5" viewBox="0 0 16 5" fill="none" xmlns="http://www.w3.org/2000/svg">
<path d="M11.9154 1.7201C11.9154 1.3601 11.4354 1.5201 11.3154 1.2801C11.2354 1.6401 10.1554 1.1601 9.71539 1.1601C9.87539 1.1601 10.1554 1.2001 10.1554 1.0401C9.79539 1.1201 9.59539 1.0001 9.47539 0.800103C9.67539 1.1601 8.87539 1.1201 8.91539 0.920103C9.07539 0.920103 9.23539 0.960103 9.23539 0.800103C6.63539 0.760104 3.11539 0.440102 0.955386 1.0401C1.07539 1.0801 1.27539 1.0401 1.31539 1.1601H0.955386C0.955386 1.2801 0.795386 1.2401 0.715386 1.2801C1.03539 1.6401 0.915386 1.9201 0.475386 2.0801C0.915386 2.0801 0.475385 2.3601 0.715386 2.6401C0.555386 2.8001 0.555386 2.6801 0.395386 2.6401C0.555386 3.4001 0.275386 3.7601 0.475386 4.6001C4.47539 5.3601 9.55539 4.7601 14.7954 4.6001C14.4754 4.5601 13.8754 4.7601 13.7554 4.4801C13.9554 4.4401 14.4354 4.6401 14.4354 4.4001C13.6354 4.2001 13.1954 4.5201 12.5954 4.1601C12.8754 3.9601 14.3154 4.4401 14.4354 4.0401C14.2354 3.9601 13.7554 4.1601 13.7554 3.9201C13.9554 3.8801 14.4354 4.0801 14.3154 3.6801C13.8754 3.5201 13.4354 3.7201 13.1554 3.4801C13.4754 3.2401 15.8354 3.3601 14.1954 3.2401C13.9154 3.1601 13.3954 3.0001 12.9154 3.2401C12.9554 3.0801 12.9154 3.0401 12.8354 3.0001C12.3554 3.2001 11.2754 3.0001 10.7554 2.8801C12.1954 2.9201 12.4754 2.8001 13.5154 2.5201V2.3201C12.7154 2.1601 12.1154 2.5601 11.6754 2.0801C11.8754 2.0401 12.2354 2.2001 12.1154 1.8401C12.0354 1.8401 11.9954 1.7201 11.9154 1.7201C11.9154 1.8001 11.7954 1.8801 11.7954 1.7201H11.9154ZM3.03539 0.800103C3.03539 0.920103 2.87539 0.920103 2.79539 0.920103C2.79539 0.800103 2.95539 0.840104 3.03539 0.800103ZM11.3154 1.7201C11.3154 1.8401 11.1954 1.8401 11.0754 1.8401C11.0754 1.7201 11.2354 1.7601 11.3154 1.7201ZM10.7554 2.0801C10.8354 2.1601 10.7154 2.0401 10.7554 2.0801ZM11.7954 2.5201C11.7154 2.4801 11.8754 2.6001 11.7954 2.5201ZM12.2354 2.5201C12.3154 2.6001 12.1954 2.4801 12.2354 2.5201ZM12.5954 2.5201C12.6754 2.6001 12.5554 2.4801 12.5954 2.5201ZM10.3954 3.0001C10.4754 3.0801 10.3554 2.9601 10.3954 3.0001ZM11.7954 3.4801C11.7154 3.1601 12.3154 3.5601 12.2354 3.2401C12.5154 3.5201 12.1154 3.5601 11.7954 3.4801ZM9.35539 3.4801C9.43539 3.5201 9.31539 3.4001 9.35539 3.4801ZM9.95539 3.3601C9.95539 3.4401 9.79539 3.4401 9.71539 3.4801C9.71539 3.3601 9.83539 3.3601 9.95539 3.3601ZM10.6354 3.4801C10.7154 3.5201 10.5954 3.4001 10.6354 3.4801ZM11.5554 3.3601C11.5154 3.4801 11.3554 3.4401 11.1954 3.4801C11.2354 3.3201 11.4354 3.3601 11.5554 3.3601ZM13.0354 3.3601C12.3154 3.2001 12.7954 3.6801 13.0354 3.3601ZM13.5154 3.9201C13.5154 4.0401 13.3554 4.0001 13.2754 4.0401C13.2754 3.9201 13.4354 3.9601 13.5154 3.9201ZM11.9954 4.1601C11.9954 4.2801 11.8754 4.2401 11.7954 4.2801C11.7954 4.1601 11.9154 4.1601 11.9954 4.1601ZM12.2354 4.2801C12.3154 4.3601 12.1954 4.2001 12.2354 4.2801ZM12.4754 4.4001C12.4754 4.4801 12.3154 4.4801 12.2354 4.4801C12.2354 4.4001 12.3954 4.4001 12.4754 4.4001ZM12.9154 4.4801C12.9154 4.6001 12.7954 4.6001 12.7154 4.6001C12.7154 4.5201 12.8354 4.5201 12.9154 4.4801ZM13.0354 4.6001C13.1154 4.6801 12.9954 4.5601 13.0354 4.6001ZM13.6354 4.4801C13.6354 4.6001 13.4754 4.6001 13.3954 4.6001C13.3954 4.5201 13.5554 4.5201 13.6354 4.4801ZM9.83539 0.920103C9.79539 0.880104 9.91539 1.0001 9.83539 0.920103ZM0.955386 1.0401C0.835386 1.0801 0.875386 1.1601 0.955386 1.1601V1.0401ZM10.2754 1.1601C10.3554 1.1201 10.5154 1.1601 10.5154 1.0401C10.4354 1.0801 10.2754 1.0401 10.2754 1.1601ZM10.7554 1.1601C10.7154 1.1201 10.8354 1.2401 10.7554 1.1601ZM12.8354 1.4001C12.8754 1.4801 12.7554 1.3201 12.8354 1.4001ZM12.3554 2.0801C12.6754 2.0001 13.2754 2.2401 13.3954 1.9601C12.8354 2.1601 12.5954 1.1601 12.3554 1.7201C12.5554 1.6801 12.5954 1.8401 12.5954 1.9601C12.4354 1.9601 12.3954 2.0001 12.3554 2.0801ZM0.475386 2.0801C0.515386 2.2001 0.315386 2.1601 0.475386 2.0801ZM12.3554 2.0801C12.3554 2.2001 12.1954 2.1601 12.3554 2.0801ZM13.7554 2.5201C13.6354 2.0001 14.2754 2.6801 13.7554 2.5201ZM13.5154 2.5201C13.4354 2.9201 13.7554 2.7201 13.7554 2.5201H13.5154ZM14.4354 3.9201C14.5154 3.8801 14.6754 3.9201 14.6754 3.8001C14.5554 3.8401 14.4354 3.8001 14.4354 3.9201ZM14.8754 3.9201C14.8354 3.8801 14.9554 4.0001 14.8754 3.9201ZM14.8754 4.6001C15.2754 4.3201 14.3954 4.3201 14.7954 4.6001H14.8754ZM15.7954 4.4801C15.7554 4.4401 15.8754 4.5601 15.7954 4.4801ZM14.8754 4.6001C15.0354 4.6001 14.9554 4.8001 14.8754 4.6001Z" fill="white"/>
</svg>
