<svg width="96" height="100" viewBox="0 0 96 100" fill="none" xmlns="http://www.w3.org/2000/svg">
<path fill-rule="evenodd" clip-rule="evenodd" d="M71.0502 4.84322L93.8717 47.7972C94.9772 49.9773 95.3746 52.771 94.6667 55.0351L83.7741 93.6067C82.4293 98.3168 77.6238 101.018 73.0437 99.6396L7.19762 80.7155C2.61355 79.3327 -0.0126965 74.3988 1.33009 69.6948L12.5391 30.3578C13.3381 27.6681 15.0922 25.7696 16.9729 24.6826L58.7417 1.15032C63.1378 -1.3256 68.6455 0.327023 71.0502 4.84322ZM30.7628 41.7958C35.4438 41.7958 42.6857 56.0658 42.6857 56.0658C42.6857 56.0658 35.3845 67.9785 30.7509 67.9818C27.3416 67.9818 26.8439 64.3449 26.8294 55.0067C26.8195 45.6725 27.1339 41.7991 30.7628 41.7958ZM51.9964 44.1599C51.9965 44.1601 51.9966 44.1601 51.9967 44.16L51.9964 44.1599ZM52.5091 43.4117C52.3387 43.6605 52.1679 43.91 51.9963 44.1597C51.9665 44.0631 51.9999 26.5548 51.9999 26.5548L44.0757 37.3397L44.0741 44.0741C44.0741 44.0741 37.8704 33.4404 30.6482 33.447C21.1538 33.455 19.1814 40.9707 19.1959 55.0169C19.2177 69.7605 22.2236 75.915 31.0813 75.9133C38.8888 75.9033 44.1038 66.6591 44.1038 66.6591L44.1135 75.9034L52.0001 75.8952V55.9239L52.0703 55.8273C57.439 48.4443 62.2575 41.8178 64.8842 41.8178H64.8844C64.9409 41.8177 68.2026 41.8169 68.2026 45.9243L68.2362 75.8832H76.0359L76.0655 44.2337C76.0418 39.2899 72.2785 33.4155 65.3331 33.4188C59.3504 33.4188 56.0227 38.2794 52.5091 43.4117Z" fill="#00A0E2"/>
</svg>
