<svg width="122" height="144" viewBox="0 0 122 144" fill="none" xmlns="http://www.w3.org/2000/svg">
<path d="M100.662 3.88647C84.7022 16.2187 58.0866 13.7295 45.4332 4.53078C44.1787 5.26112 44.8563 9.21069 42.9909 8.09573C44.3787 11.5739 43.2172 13.061 41.7936 15.5405C41.2261 15.6103 41.3223 14.8303 41.0866 14.4752C39.9018 15.7731 37.4657 16.2646 37.1307 18.2262L37.6983 18.1564C37.6285 17.5889 38.4085 17.685 37.6983 18.1564C37.7448 18.5348 37.6021 18.9364 37.2005 18.7937C36.8687 19.2186 36.7493 19.8094 36.8423 20.5661C37.5758 20.2839 37.3137 21.2763 36.8423 20.5661C36.8298 26.713 34.5704 33.3281 36.7986 42.0801C36.9877 42.0569 37.3661 42.0104 37.4359 42.5779C37.6251 42.5547 38.0034 42.5082 37.884 43.0989C38.4516 43.0292 38.6873 43.3843 38.5679 43.9751C38.1895 44.0216 37.9538 43.6665 37.884 43.0989C37.6948 43.1222 37.2932 42.9795 37.4359 42.5779C37.0575 42.6244 36.6559 42.4818 36.7986 42.0801L36.231 42.1499C35.1237 51.8881 33.4054 59.781 34.7311 70.5644C32.8362 72.3337 34.6985 74.9854 33.7727 76.8275C33.3478 76.4957 32.143 76.0677 32.2593 77.0136C33.3478 76.4957 34.1216 79.6653 33.033 80.1832C32.9167 79.2373 33.1555 78.0557 32.3755 77.9595C31.8979 80.3227 33.0531 81.9091 31.3474 83.6551C20.9424 84.9343 3.9951 82.9848 3.90034 94.711C2.6691 95.6305 2.10155 95.7003 3.54211 96.4834C-2.35064 111.035 0.261832 140.096 18.1984 143.844C25.6758 140.62 43.1208 141.933 44.2715 134.109C44.1288 134.511 44.1521 134.7 43.7737 134.747C43.8435 135.314 42.8511 135.052 43.7737 134.747C43.7272 134.368 43.6807 133.99 44.2715 134.109L44.2017 133.542C43.8234 133.588 43.3985 133.257 44.132 132.974C43.614 131.886 44.9848 132.101 44.8686 131.155C44.6794 131.179 44.2545 130.847 44.822 130.777C44.4701 129.476 45.0143 129.217 45.1105 128.437C41.3564 126.018 47.9902 119.057 45.2781 115.742C47.1203 116.668 45.9884 115.27 45.6364 113.969C47.5282 113.737 47.2755 110.119 46.6149 109.432C45.4566 109.382 46.1234 106.996 46.9266 107.281C47.046 106.691 48.1377 104.636 48.4897 105.937C48.1579 106.362 47.4678 108.559 48.8153 108.585C49.4589 106.01 50.3149 103.6 49.2589 99.697C48.7147 99.956 49.2093 100.855 48.4526 100.948L48.1037 98.1107C46.4011 98.32 48.2263 95.9832 48.1037 98.1107C48.4356 97.6858 49.6002 94.662 47.7781 95.4621C47.8246 95.8405 47.2803 96.0994 47.2106 95.5319L47.7781 95.4621C47.9937 94.0913 47.7611 92.1995 48.8264 91.4924C48.0697 91.5855 47.6511 88.1802 48.431 88.2763C48.5505 87.6855 48.9288 87.639 48.8591 87.0715C48.4574 86.9288 48.2217 86.5737 48.152 86.0061L48.7195 85.9364C48.6963 85.7472 49.2173 85.2991 49.2871 85.8666C50.1864 85.372 49.3599 84.8974 49.0777 84.164C48.8886 84.1872 48.4637 83.8554 49.0312 83.7856L48.8917 82.6505C48.3241 82.7203 48.4203 81.9403 48.8917 82.6505L49.4592 82.5807C49.1072 81.2797 49.3926 80.4765 50.3152 80.171C50.4548 81.3061 49.9105 81.5651 50.0268 82.511C50.4051 82.4644 50.5943 82.4412 50.6641 83.0087L51.2316 82.939C51.7558 80.9541 51.4736 80.2206 52.6753 82.1854C52.7746 79.8687 51.9016 79.0158 51.5031 77.3364C51.3139 77.3597 50.889 77.0278 51.4333 76.7688C51.1511 76.0354 49.6842 76.5998 50.2316 74.8041C50.9852 76.2478 52.5483 74.9034 53.3779 73.8412C51.9575 74.784 50.7325 72.6301 52.0335 72.2781C51.5187 69.6528 52.3452 70.1273 53.5966 70.9337C53.7191 68.8062 51.8273 69.0388 51.9266 66.7221C53.4168 66.3468 52.7499 68.7333 53.9083 68.7829C55.6404 65.6894 52.9346 59.3006 55.7057 56.8474C58.8923 59.3363 63.6218 58.7549 66.6456 59.9195C65.3276 57.0088 67.6179 58.4557 69.7454 58.5782C75.6132 56.3205 82.3307 54.7265 87.1502 56.4385C86.5594 56.3191 86.2043 56.5548 86.0616 56.9564C88.5474 55.3065 90.7679 56.1858 93.1342 55.1267C92.1651 55.0538 91.0765 55.5717 90.7943 54.8383L93.632 54.4894L93.8878 56.5704C94.4554 56.5006 94.1499 55.578 94.7175 55.5082C94.7609 57.4233 94.6616 59.74 93.8552 60.9914C94.1343 63.2616 94.201 65.3658 92.7573 66.1194C93.1388 64.5362 92.8597 62.266 93.8552 60.9914C93.0551 59.1693 94.522 58.6049 93.4598 57.7753C92.0828 60.6331 93.2551 65.4821 90.8158 67.5103C89.2093 66.9397 88.1905 68.0251 86.3251 66.9102C83.2718 68.6298 75.5153 69.5834 71.1409 69.9291C71.068 70.8983 71.8247 70.8053 71.9177 71.562C66.8765 74.2942 64.5504 78.8051 63.5455 84.6898C62.1049 83.9067 60.4068 93.5255 60.0222 96.6455C59.3661 105.368 62.0501 122.514 69.6344 124.846C70.8393 125.274 76.296 127.484 82.4693 126.149C89.9435 124.462 104.278 120.779 103.016 113.637C103.607 113.756 104.032 114.088 104.788 113.995C104.602 112.482 103.241 107.656 105.627 108.323C106.172 108.064 106.125 107.685 106.693 107.616C106.772 103.573 106.4 100.546 106.618 97.6386C105.862 97.7316 105.271 97.6122 105.344 96.643C104.776 96.7128 104.66 95.7669 105.227 95.6971C105.134 94.9404 104.331 94.655 105.655 94.4922C105.513 94.8938 105.772 95.4381 105.227 95.6971L105.344 96.643C106.124 96.7392 106.691 96.6694 106.618 97.6386C108.699 97.3827 106.694 95.1327 109.127 96.1779C108.493 94.1434 110.932 92.1151 109.02 90.6218C109.064 92.5369 108.895 94.286 108.065 95.3482C108.091 94.0007 107.597 93.1013 107.149 92.5803C109.16 91.7569 108.244 88.9889 108.555 86.8382C108.011 87.0971 108.273 86.1047 108.555 86.8382C109.385 85.776 108.701 84.8998 108.09 83.0545C110.407 83.1538 108.664 79.9113 110.532 79.4896C110.549 82.7522 108.814 87.3825 110.109 90.1039C109.952 85.7062 112.634 80.9596 111.837 77.6009C111.292 77.8598 111.554 76.8674 111.837 77.6009C111.863 76.2533 112.6 74.4344 111.799 72.6123C112.649 73.276 113.193 73.0171 113.432 71.8355C112.865 71.9053 111.64 69.7514 112.609 69.8243C112.987 69.7777 113.246 70.322 113.814 70.2523C113.226 68.5961 114.693 68.0317 113.418 67.0362C112.662 67.1292 112.924 66.1368 113.418 67.0362C113.774 66.8005 113.916 66.3988 114.295 66.3523C113.66 64.3178 114.726 63.6108 114.327 61.9314C111.938 62.8013 114.758 59.1898 114.327 61.9314C115.203 61.2475 114.782 59.379 115.044 58.3865L114.476 58.4563C114.523 58.8347 114.191 59.2596 113.909 58.5261L114.476 58.4563C113.626 57.7926 114.2 54.6494 115.425 56.8033C116.536 45.5284 120.464 32.1787 119.467 22.5072C120.057 22.6266 119.985 23.5958 120.741 23.5027C119.304 21.1829 119.566 20.1905 120.634 17.9467C118.746 16.6425 122.087 12.5829 120.388 11.2555C120.079 11.8696 119.96 12.4604 119.392 12.5302C119.485 13.2869 119.578 14.0436 119.034 14.3026C119.13 13.5226 118.848 12.7891 119.392 12.5302C118.543 11.8665 118.712 10.1173 117.862 9.45362C115.854 8.74028 117.716 11.392 116.558 11.3423C116.252 10.4197 116.491 9.23806 115.711 9.14191C115.19 9.59004 115.519 10.7019 114.785 10.9841C113.75 8.80693 112.469 10.8848 111.639 11.947L111.43 10.2444C109.561 10.6661 110.693 12.0633 109.16 10.5235C107.975 11.8214 110.385 12.6774 108.35 13.3116C107.928 11.443 107.268 10.756 107.815 8.96036C107.271 9.21932 106.869 9.07665 106.799 8.50911C107.841 7.61284 110.281 5.58459 107.848 4.5394C107.941 5.29613 105.714 7.4903 105.836 5.36278C105.458 5.4093 105.033 5.07745 105.767 4.79523C105.72 4.41687 105.697 4.22769 106.264 4.15792C105.959 3.23527 108.704 2.12968 106.885 1.39308C107.144 1.93737 105.604 3.47096 105.441 2.14668L103.171 2.42577C103.217 2.80414 103.241 2.99332 102.673 3.06309C102.813 4.19818 99.1919 5.98761 100.662 3.88647ZM95.0035 7.8468C94.791 7.68088 95.4283 8.17866 95.0035 7.8468V7.8468ZM106.162 8.01133C105.95 7.84541 106.587 8.34318 106.162 8.01133V8.01133ZM39.6397 16.7655C39.4273 16.5996 40.0646 17.0973 39.6397 16.7655V16.7655ZM113.72 11.6912C113.484 11.3361 114.122 11.8338 113.72 11.6912V11.6912ZM37.0283 22.0796C36.8159 21.9137 37.4532 22.4114 37.0283 22.0796V22.0796ZM107.922 14.5164C107.71 14.3505 108.347 14.8483 107.922 14.5164V14.5164ZM39.7172 25.2058C38.748 25.1329 38.2766 24.4227 38.303 23.0751C39.1062 23.3605 39.3884 24.094 39.7172 25.2058ZM118.653 15.8858C118.44 15.7199 119.078 16.2177 118.653 15.8858V15.8858ZM38.9077 27.9939C39.2194 25.8431 39.731 30.0051 38.9077 27.9939V27.9939ZM97.2456 21.3981C97.1525 20.6414 97.9558 20.9268 97.2456 21.3981C97.3153 21.9657 96.3694 22.082 95.6127 22.175L95.6825 22.7426C96.5819 22.2479 97.2889 23.3132 97.3851 22.5332C99.2273 23.459 96.9772 25.464 97.9898 27.452C99.7622 27.8102 97.7711 30.3595 97.9898 27.452C96.8283 28.939 97.3896 31.9427 96.4406 33.5957C92.3716 34.8641 89.0857 34.6919 86.4341 36.5543L86.5038 37.1218C88.7043 36.2752 86.6899 38.6353 86.5038 37.1218C86.1255 37.1683 85.6773 36.6473 86.4341 36.5543L86.2945 35.4192C82.2689 38.6026 71.1103 38.4381 67.964 39.401C64.6115 37.1246 57.6319 39.711 56.1076 33.561C63.1973 34.994 66.556 34.1969 74.4986 34.7569C74.5482 33.5985 73.7682 33.5023 72.8456 33.8078C74.953 32.2045 81.1928 32.9737 82.9916 31.9844C82.9451 31.606 82.5435 31.4633 81.976 31.5331C85.4076 29.767 88.6935 29.9391 92.4337 27.5589C91.4677 25.9493 90.4225 28.3823 88.6501 28.024C87.1335 29.7468 84.5842 27.7557 88.6501 28.024C89.2905 26.9851 90.4024 26.6564 91.7266 26.4936C91.6801 26.1152 91.5871 25.3585 91.0195 25.4283C92.8912 23.4698 94.7567 24.5847 95.6825 22.7426C93.8371 23.3535 93.6743 22.0292 95.6127 22.175C95.7088 21.395 96.4888 21.4912 97.2456 21.3981ZM115.785 19.1189C116.9 17.2535 116.108 23.3042 115.785 19.1189V19.1189ZM118.504 19.3609C118.268 19.0058 118.929 19.6927 118.504 19.3609V19.3609ZM39.1635 30.0749C39.0937 29.5073 39.897 29.7927 39.1635 30.0749C40.1729 33.5996 37.6237 31.6085 39.1635 30.0749ZM99.204 23.2698C99.6289 23.6017 98.8024 23.1272 99.204 23.2698V23.2698ZM117.883 22.1257C118.119 22.4808 117.482 21.983 117.883 22.1257V22.1257ZM88.5105 26.8889C87.7337 25.2561 89.5293 25.8035 90.6412 25.4748C90.3558 26.278 89.4332 26.5835 88.5105 26.8889ZM37.312 33.7593L37.1724 32.6242L38.3075 32.4846L38.447 33.6197L37.312 33.7593ZM85.2944 27.2843C87.3088 24.9242 87.5615 28.542 85.2944 27.2843C85.3875 28.0411 84.395 27.779 84.2989 28.559C86.3535 29.6507 81.624 30.2321 84.2989 28.559C82.7389 28.3667 84.0896 26.8563 85.2944 27.2843ZM81.013 28.3868C80.2563 28.4798 80.5416 27.6766 81.013 28.3868C83.2134 27.5402 81.1991 29.9002 81.013 28.3868ZM42.868 33.6523C42.6323 33.2972 43.2929 33.9842 42.868 33.6523V33.6523ZM37.4515 34.8943C37.2158 34.5392 37.8531 35.037 37.4515 34.8943V34.8943ZM81.7666 29.8305C82.0023 30.1856 81.365 29.6878 81.7666 29.8305V29.8305ZM101.89 27.9327C102.391 25.7587 102.926 30.1099 101.89 27.9327V27.9327ZM117.781 25.9791C118.206 26.311 117.379 25.8365 117.781 25.9791V25.9791ZM38.3447 37.4731C39.4596 35.6077 38.8563 41.6351 38.3447 37.4731V37.4731ZM97.9572 31.8729C97.0175 28.9158 99.5668 30.9069 97.9572 31.8729C98.8038 34.0733 96.4437 32.059 97.9572 31.8729ZM42.3376 38.7106C42.1019 38.3555 42.7392 38.8533 42.3376 38.7106V38.7106ZM37.4654 39.6937C37.9663 37.5196 38.5012 41.8708 37.4654 39.6937V39.6937ZM95.6342 34.8471C95.4218 34.6812 96.0591 35.1789 95.6342 34.8471V34.8471ZM97.1477 34.661C96.9352 34.4951 97.5725 34.9929 97.1477 34.661V34.661ZM95.0667 34.9169C94.9473 35.5077 94.1673 35.4115 93.4338 35.6937C93.53 34.9137 94.3099 35.0099 95.0667 34.9169ZM116.395 33.4471C116.159 33.092 116.819 33.779 116.395 33.4471V33.4471ZM88.6546 37.4335C88.4189 37.0784 89.0562 37.5762 88.6546 37.4335V37.4335ZM86.6201 38.0677C86.4511 39.8169 85.4385 37.8289 84.3499 38.3468C84.3763 36.9993 86.2418 38.1142 86.6201 38.0677ZM96.836 36.8118C96.6235 36.6459 97.2608 37.1437 96.836 36.8118V36.8118ZM81.7712 39.2399C81.5587 39.074 82.196 39.5718 81.7712 39.2399V39.2399ZM83.2846 39.0539C83.0722 38.888 83.7095 39.3857 83.2846 39.0539V39.0539ZM95.89 36.9281C94.7751 38.7935 92.2258 36.8024 95.89 36.9281V36.9281ZM116.083 35.5979C115.425 33.3742 117.786 35.3886 116.083 35.5979C117.282 39.0993 114.543 37.1315 116.083 35.5979ZM37.1939 45.2962C36.4605 45.5785 36.7225 44.586 37.1939 45.2962C37.7615 45.2265 37.4761 46.0297 37.1939 45.2962ZM42.1127 44.6916C41.4396 50.1515 42.3314 41.784 42.1127 44.6916V44.6916ZM36.9753 48.2037C38.0204 45.7708 37.9413 49.8134 36.9753 48.2037V48.2037ZM88.3599 42.8469C88.5956 43.202 87.9583 42.7042 88.3599 42.8469V42.8469ZM94.7456 41.6778C94.7921 42.0561 94.2245 42.1259 93.657 42.1957C93.6105 41.8173 94.3672 41.7243 94.7456 41.6778ZM36.0262 49.8568C35.8138 49.6908 36.4511 50.1886 36.0262 49.8568V49.8568ZM38.6748 49.5311C38.5786 50.3111 38.2964 49.5777 37.7289 49.6474C37.6591 49.0799 38.605 48.9636 38.6748 49.5311ZM92.7809 42.8795C93.0926 40.7287 93.6275 45.0799 92.7809 42.8795V42.8795ZM37.9382 51.3501C38.3631 51.6819 37.5366 51.2074 37.9382 51.3501V51.3501ZM115.314 41.8378C115.739 42.1696 114.912 41.6951 115.314 41.8378V41.8378ZM40.1587 52.2293C39.5912 52.2991 39.6641 51.3299 40.1587 52.2293C40.5371 52.1828 40.7728 52.5379 40.2285 52.7969C40.4875 53.3412 39.495 53.0791 40.2285 52.7969L40.1587 52.2293ZM43.1825 53.3939C41.9048 53.9351 41.9544 52.7767 41.8614 52.02C42.4522 52.1394 43.0662 52.448 43.1825 53.3939ZM39.847 54.3801C40.3479 52.2061 40.8828 56.5573 39.847 54.3801V54.3801ZM114.574 45.1934C114.362 45.0275 114.999 45.5253 114.574 45.1934V45.1934ZM37.8358 55.2035C38.1475 53.0527 38.6592 57.2147 37.8358 55.2035V55.2035ZM41.6892 55.3059L41.5496 54.1708L42.6847 54.0312L42.8243 55.1663L41.6892 55.3059ZM114.146 46.3983C113.934 46.2324 114.571 46.7301 114.146 46.3983V46.3983ZM42.4661 56.9388C40.7402 56.9589 42.7545 54.5988 42.4661 56.9388C44.2881 56.1386 43.6445 58.7143 42.0148 57.9544C41.945 57.3869 42.3234 57.3404 42.4661 56.9388ZM44.6633 57.6288C43.8834 57.5327 44.1222 56.3511 43.84 55.6176C44.8556 56.0689 45.3503 56.9683 44.6633 57.6288ZM66.8008 53.371C66.5651 53.0159 67.2257 53.7028 66.8008 53.371V53.371ZM114.286 47.5334C114.05 47.1783 114.71 47.8652 114.286 47.5334V47.5334ZM115.988 47.3241C115.706 46.5906 116.698 46.8527 115.988 47.3241C116.058 47.8916 115.065 47.6295 115.988 47.3241ZM50.0799 56.3868C49.8674 56.2209 50.5047 56.7187 50.0799 56.3868V56.3868ZM89.8081 51.5028C89.5957 51.3368 90.233 51.8346 89.8081 51.5028V51.5028ZM63.2032 55.3496C62.9908 55.1837 63.6281 55.6815 63.2032 55.3496V55.3496ZM94.7966 51.4656C95.2975 49.2916 95.8324 53.6428 94.7966 51.4656V51.4656ZM37.7334 59.0569C38.0451 56.9061 38.58 61.2573 37.7334 59.0569V59.0569ZM39.8144 58.8011C39.6019 58.6351 40.2393 59.1329 39.8144 58.8011V58.8011ZM45.3007 58.1266C45.8016 55.9526 46.3365 60.3038 45.3007 58.1266V58.1266ZM76.3265 54.3124C76.8274 52.1384 77.3624 56.4895 76.3265 54.3124V54.3124ZM114.044 50.2517C113.197 48.0513 115.746 50.0424 114.044 50.2517C114.16 51.1976 114.064 51.9776 113.755 52.5917C112.408 52.5653 113.688 50.4874 114.044 50.2517ZM42.2939 60.2246C41.869 59.8928 41.6101 59.3485 41.517 58.5918C43.505 57.5792 42.0086 61.0279 43.4988 60.6526C43.1669 61.0775 42.4567 61.5489 41.9357 61.997C41.9822 62.3754 42.7389 62.2824 43.1173 62.2358C42.1418 65.2364 40.4951 61.2139 42.2939 60.2246ZM50.2892 58.0895C51.4041 56.224 50.8008 62.2515 50.2892 58.0895V58.0895ZM53.1269 57.7406C53.3626 58.0957 52.7253 57.5979 53.1269 57.7406V57.7406ZM76.018 54.9265C75.8985 55.5173 75.3077 55.3978 74.9526 55.6335C74.8829 55.066 75.4737 55.1854 76.018 54.9265ZM79.8016 54.4613C79.8714 55.0289 79.0914 54.9327 78.7363 55.1684C78.6665 54.6008 79.2573 54.7203 79.8016 54.4613ZM80.4389 54.9591C80.6746 55.3142 80.0373 54.8164 80.4389 54.9591V54.9591ZM44.9424 59.899C45.4201 57.5358 45.955 61.887 44.9424 59.899V59.899ZM48.9153 59.4106C50.4551 57.877 47.8236 61.4652 48.9153 59.4106V59.4106ZM53.2665 58.8757C53.5021 59.2308 52.8648 58.733 53.2665 58.8757V58.8757ZM38.0125 61.3271C37.9194 60.5704 38.7227 60.8557 38.0125 61.3271C38.0822 61.8946 37.3023 61.7985 38.0125 61.3271ZM47.3522 60.755C47.6406 58.4151 48.1755 62.7663 47.3522 60.755V60.755ZM64.6872 58.0478C64.7569 58.6153 63.7878 58.5424 63.0543 58.8247C63.1504 58.0447 64.1196 58.1176 64.6872 58.0478ZM50.3961 63.6455C49.3339 62.8159 50.5651 61.8964 50.638 60.9272C51.9856 60.9536 51.5544 63.6952 50.3961 63.6455C49.6859 64.1169 50.655 64.1898 50.3961 63.6455ZM53.164 62.7291C51.9887 59.4169 54.538 61.408 53.164 62.7291L53.6292 66.5127C52.567 65.6831 52.5236 63.768 51.9592 62.3011C52.5267 62.2313 52.5732 62.6097 53.164 62.7291ZM110.655 53.933C110.967 51.7822 111.502 56.1334 110.655 53.933V53.933ZM113.304 53.6074C113.091 53.4414 113.729 53.9392 113.304 53.6074V53.6074ZM112.946 55.3798C112.733 55.2138 113.37 55.7116 112.946 55.3798V55.3798ZM42.2613 64.6456C43.3297 62.4018 43.2273 66.2552 42.2613 64.6456V64.6456ZM43.9639 64.4363C43.7515 64.2703 44.3888 64.7681 43.9639 64.4363V64.4363ZM112.893 58.0748C111.717 54.7626 114.267 56.7537 112.893 58.0748C112.843 59.2332 113.809 60.8428 112.037 60.4846C112.747 60.0132 111.781 58.4036 112.893 58.0748ZM43.0381 66.2784C44.1298 64.2238 44.688 68.7642 43.0381 66.2784V66.2784ZM42.1589 68.499C41.2362 68.8045 40.8408 65.5884 42.4706 66.3482C42.776 67.2709 42.0426 67.5531 42.1589 68.499C42.6303 69.2092 42.9156 68.406 42.1589 68.499ZM50.1541 66.3638C49.9417 66.1979 50.579 66.6957 50.1541 66.3638V66.3638ZM51.8568 66.1545C51.6444 65.9886 52.2817 66.4864 51.8568 66.1545V66.1545ZM47.1474 68.4618C47.4591 66.3111 47.9707 70.4731 47.1474 68.4618V68.4618ZM45.2059 69.8528C44.9237 69.1193 45.9161 69.3814 45.2059 69.8528C45.0632 70.2544 44.7081 70.4901 44.1406 70.5599C44.2104 71.1274 43.4071 70.8421 44.1406 70.5599C44.0708 69.9923 44.4259 69.7566 45.2059 69.8528ZM112.176 61.6196C112.465 59.2797 113 63.6309 112.176 61.6196V61.6196ZM41.3029 70.9087C41.7805 68.5455 42.3154 72.8967 41.3029 70.9087V70.9087ZM42.5542 71.7151C42.4845 71.1475 43.2877 71.4329 42.5542 71.7151C42.6008 72.0935 42.6473 72.4718 42.0565 72.3524C42.2922 72.7075 42.196 73.4875 42.7636 73.4177C42.8101 73.7961 42.8333 73.9853 42.2658 74.0551L41.3199 74.1713L41.1803 73.0362C41.5587 72.9897 41.7014 72.5881 42.0565 72.3524C42.0099 71.9741 42.1759 71.7616 42.5542 71.7151ZM111.795 63.2029C111.582 63.037 112.22 63.5347 111.795 63.2029V63.2029ZM45.4617 71.9338C45.6974 72.2889 45.0601 71.7911 45.4617 71.9338V71.9338ZM46.9752 71.7477C46.7628 71.5818 47.4001 72.0796 46.9752 71.7477V71.7477ZM49.8827 71.9664L49.7432 70.8313L50.6891 70.715L50.8286 71.8501L49.8827 71.9664ZM111.367 64.4077C111.154 64.2418 111.792 64.7396 111.367 64.4077V64.4077ZM45.6013 73.0689C45.3423 72.5246 46.3115 72.5975 45.6013 73.0689C46.2587 75.2925 43.9219 73.4674 45.6013 73.0689ZM43.4009 73.9155C43.1884 73.7496 43.8258 74.2474 43.4009 73.9155V73.9155ZM111.506 65.5428C111.294 65.3769 111.931 65.8747 111.506 65.5428V65.5428ZM41.5292 75.874L41.3896 74.7389C42.4782 74.221 42.4286 75.3793 42.5216 76.1361C42.1433 76.1826 41.8843 75.6383 41.5292 75.874ZM109.565 66.9338C109.801 67.2889 109.14 66.6019 109.565 66.9338V66.9338ZM111.078 66.7477C113.346 68.0053 109.585 68.6597 111.078 66.7477V66.7477ZM44.7918 75.857C44.5794 75.691 45.2167 76.1888 44.7918 75.857V75.857ZM48.5754 75.3918C48.363 75.2259 49.0003 75.7237 48.5754 75.3918V75.3918ZM106.346 68.8659C106.847 66.6918 107.382 71.043 106.346 68.8659V68.8659ZM37.3641 77.9224C37.5998 78.2775 36.9624 77.7797 37.3641 77.9224V77.9224ZM43.2287 77.2014C43.3512 75.0739 43.2457 80.464 43.2287 77.2014V77.2014ZM47.0123 76.7362C47.5132 74.5622 48.0482 78.9134 47.0123 76.7362V76.7362ZM105.539 70.1172C105.775 70.4723 105.138 69.9746 105.539 70.1172V70.1172ZM112.539 69.2567C112.327 69.0908 112.964 69.5886 112.539 69.2567V69.2567ZM51.3806 79.4639C49.2266 80.6889 50.9123 77.217 49.4221 77.5922C50.3013 75.3717 50.6006 79.3678 51.3806 79.4639C51.686 80.3866 51.9481 79.3941 51.3806 79.4639ZM110.356 73.366C110.595 72.1843 110.385 70.4817 110.837 69.466C111.829 69.7281 111.703 73.3923 110.356 73.366ZM107.76 70.9965C107.548 70.8306 108.185 71.3283 107.76 70.9965V70.9965ZM45.2104 79.2622C44.9747 78.9071 45.6353 79.5941 45.2104 79.2622V79.2622ZM109.035 71.992C109.323 69.6521 109.858 74.0033 109.035 71.992V71.992ZM107.448 73.1473C107.949 70.9732 108.484 75.3244 107.448 73.1473V73.1473ZM46.9797 81.1572C48.0947 79.2917 47.4914 85.3192 46.9797 81.1572V81.1572ZM109.928 74.5708C109.171 74.6638 109.456 73.8606 109.928 74.5708C110.495 74.501 111.275 74.5972 111.013 75.5896L110.067 75.7059L109.928 74.5708ZM43.4054 83.325C43.193 83.159 43.8303 83.6568 43.4054 83.325V83.325ZM44.7265 84.6989C44.4211 83.7762 45.1545 83.494 45.0383 82.5481C46.3625 82.3853 45.46 84.4167 45.2941 84.6291L44.7265 84.6989C44.0163 85.1703 44.8196 85.4556 44.7265 84.6989ZM108.932 75.8455C109.221 73.5055 109.756 77.8567 108.932 75.8455V75.8455ZM46.1081 91.2505C46.9176 88.4624 46.5222 85.2463 46.8804 83.4739C47.6341 84.9176 48.3085 90.4039 46.1081 91.2505ZM84.7339 82.085C84.7603 80.7375 84.5742 79.224 86.1109 79.2272C86.0582 81.9222 87.522 82.8945 87.4692 85.5896C88.9362 85.0251 87.9437 84.7631 87.7809 83.4388C92.3057 90.5642 86.0672 100.741 85.9322 109.016C84.0404 109.248 84.1629 107.121 83.2666 106.079C81.6091 95.72 82.2356 89.8818 84.1663 82.1548L84.7339 82.085ZM109.686 77.2891C110.801 75.4237 110.032 81.6636 109.686 77.2891V77.2891ZM44.4381 87.0388C44.2256 86.8729 44.863 87.3707 44.4381 87.0388V87.0388ZM89.6526 81.4803C89.4402 81.3144 90.0775 81.8122 89.6526 81.4803V81.4803ZM111.03 78.8522C111.266 79.2074 110.629 78.7096 111.03 78.8522V78.8522ZM89.2246 82.6852C90.4822 80.4181 90.3798 84.2715 89.2246 82.6852V82.6852ZM44.6474 88.7415C45.125 86.3783 45.66 90.7295 44.6474 88.7415V88.7415ZM30.0773 92.069C28.5638 92.2551 30.3657 89.7291 30.0773 92.069C30.834 91.976 30.5486 92.7792 30.0773 92.069ZM89.4107 84.1986C89.5332 82.0711 89.4277 87.4613 89.4107 84.1986V84.1986ZM104.734 82.3148C104.522 82.1489 105.159 82.6466 104.734 82.3148V82.3148ZM44.8335 90.2549C44.621 90.089 45.2583 90.5868 44.8335 90.2549V90.2549ZM105.939 82.7428C106.251 80.592 106.786 84.9432 105.939 82.7428V82.7428ZM27.4985 92.9622C27.286 92.7962 27.9234 93.294 27.4985 92.9622V92.9622ZM28.6336 92.8226C28.4211 92.6567 29.0584 93.1545 28.6336 92.8226V92.8226ZM28.7033 93.3902C28.7731 93.9577 27.9931 93.8616 27.638 94.0973C27.5682 93.5297 28.3482 93.6259 28.7033 93.3902ZM30.8541 93.7019C30.6417 93.536 31.279 94.0337 30.8541 93.7019V93.7019ZM107.284 84.3059C107.519 84.661 106.882 84.1632 107.284 84.3059V84.3059ZM26.1055 126.933C21.1388 116.213 22.2292 103.212 25.9354 94.3066C34.5027 101.511 28.8658 118.144 26.1055 126.933ZM98.4619 85.9665C98.9396 83.6033 99.4745 87.9545 98.4619 85.9665V85.9665ZM46.643 95.6017C45.0598 95.2202 47.1904 93.806 46.2476 92.3856C47.8541 92.9563 47.071 94.3968 46.643 95.6017ZM106.288 85.5805C106.052 85.2254 106.713 85.9124 106.288 85.5805V85.5805ZM28.4149 95.7301C28.1792 95.375 28.8165 95.8728 28.4149 95.7301V95.7301ZM29.0987 96.6063C29.4104 94.4555 29.9454 98.8067 29.0987 96.6063V96.6063ZM105.907 87.1638C105.694 86.9978 106.332 87.4956 105.907 87.1638V87.1638ZM90.0851 89.6849C89.8727 89.519 90.51 90.0168 90.0851 89.6849V89.6849ZM107.749 88.0895C107.985 88.4446 107.347 87.9469 107.749 88.0895V88.0895ZM105.944 92.1523C105.731 91.9863 106.369 92.4841 105.944 92.1523V92.1523ZM104.948 93.4269C106.017 91.1831 105.938 95.2257 104.948 93.4269V93.4269ZM41.7288 105.616C42.2297 103.442 42.7414 107.604 41.7288 105.616V105.616ZM104.488 99.0527C104.395 98.296 105.387 98.5581 104.488 99.0527C104.747 99.597 103.777 99.5241 104.488 99.0527ZM44.3246 107.985C44.1122 107.819 44.7495 108.317 44.3246 107.985V107.985ZM105.241 100.496C105.171 99.9289 106.164 100.191 105.241 100.496C105.523 101.23 104.531 100.968 105.241 100.496ZM39.0476 110.362C38.8352 110.196 39.4725 110.694 39.0476 110.362V110.362ZM45.1712 110.186C44.8859 110.989 44.6037 110.255 44.0361 110.325C44.1323 109.545 45.1015 109.618 45.1712 110.186ZM103.439 103.022C103.227 102.857 103.864 103.354 103.439 103.022V103.022ZM102.374 103.73C102.162 103.564 102.799 104.061 102.374 103.73V103.73ZM43.0406 111.6C42.8049 111.245 43.4655 111.932 43.0406 111.6V111.6ZM45.8783 111.251C46.1668 108.911 46.7017 113.262 45.8783 111.251V111.251ZM41.0759 112.802C41.5007 113.133 40.6742 112.659 41.0759 112.802V112.802ZM44.9991 113.472C44.9293 112.904 43.9834 113.02 43.864 113.611C41.4806 111.408 48.1221 112.319 44.9991 113.472C43.3197 113.87 45.8457 115.672 44.9991 113.472ZM105.846 105.415C103.934 103.922 107.811 104.213 105.846 105.415C106.693 107.616 104.356 105.79 105.846 105.415ZM42.1613 113.82C41.9489 113.655 42.5862 114.152 42.1613 113.82V113.82ZM102.769 106.946C103.838 104.702 103.759 108.744 102.769 106.946V106.946ZM44.1431 115.881C43.9306 115.715 44.5679 116.213 44.1431 115.881V115.881ZM38.3451 118.707C38.4148 119.274 37.824 119.155 37.4689 119.39C37.3991 118.823 37.9899 118.942 38.3451 118.707ZM42.6667 121.056C42.6202 120.678 42.9521 120.253 43.0451 121.009C45.2455 120.163 43.4204 122.5 43.0451 121.009L42.6667 121.056C41.7441 121.361 42.7365 121.623 42.6667 121.056ZM42.2853 122.639C42.7101 122.971 41.8836 122.496 42.2853 122.639V122.639ZM43.2312 122.523C43.7321 120.349 44.267 124.7 43.2312 122.523V122.523ZM41.8573 123.844C42.169 121.693 42.6806 125.855 41.8573 123.844V123.844ZM41.5688 126.184C41.3331 125.829 41.9704 126.327 41.5688 126.184V126.184ZM42.6713 130.465C42.4356 130.11 43.0961 130.797 42.6713 130.465V130.465ZM103.599 1.22091C104.309 0.749519 103.529 0.653356 103.599 1.22091V1.22091ZM103.599 1.22091C102.275 1.38371 101.989 2.18695 101.727 3.17938L102.673 3.06309C102.627 2.68473 102.769 2.2831 103.171 2.42577C103.29 1.83497 103.669 1.78846 103.599 1.22091ZM105.441 2.14668C106.151 1.67529 105.159 1.41321 105.441 2.14668V2.14668ZM100.662 3.88647C101.017 3.65077 101.585 3.581 101.727 3.17938C100.947 3.08323 100.592 3.31892 100.662 3.88647ZM107.848 4.5394C108.18 4.11453 108.608 2.90966 107.662 3.02595C107.542 3.61675 107.21 4.04163 106.264 4.15792C106.122 4.55954 106.168 4.93791 105.767 4.79523L105.836 5.36278C106.806 5.43567 106.902 4.65569 107.848 4.5394ZM108.983 4.39985C109.829 6.60027 109.295 2.24908 108.983 4.39985V4.39985ZM41.0866 14.4752C41.7968 14.0038 40.9935 13.7184 41.0866 14.4752V14.4752ZM36.2376 15.6474C36.6625 15.9792 36.0019 15.2923 36.2376 15.6474V15.6474ZM38.01 16.0056C38.4116 16.1483 37.7743 15.6505 38.01 16.0056V16.0056ZM108.313 8.32305C109.046 8.04083 108.243 7.7555 108.313 8.32305V8.32305ZM107.815 8.96036C108.406 9.07978 108.359 8.70141 108.313 8.32305C107.934 8.36957 107.958 8.55875 107.815 8.96036ZM37.1307 18.2262C36.5865 18.4851 36.8222 18.8402 37.2005 18.7937L37.1307 18.2262ZM120.272 10.3096C120.697 10.6415 120.036 9.95451 120.272 10.3096V10.3096ZM121.132 17.3094C122.622 16.9341 120.286 15.1089 121.132 17.3094V17.3094ZM120.634 17.9467C121.013 17.9002 121.179 17.6877 121.132 17.3094C120.565 17.3791 120.588 17.5683 120.634 17.9467ZM95.7987 23.6885C96.081 24.4219 96.0081 25.3911 96.5756 25.3213C96.5291 24.943 96.695 24.7305 97.0734 24.684C97.0036 24.1165 96.7214 23.383 95.7987 23.6885ZM94.4248 25.0096C94.2124 24.8437 94.8497 25.3415 94.4248 25.0096V25.0096ZM92.792 25.7865C92.5795 25.6206 93.2168 26.1183 92.792 25.7865V25.7865ZM93.927 25.6469L94.0666 26.782L95.2017 26.6425L95.0622 25.5074L93.927 25.6469ZM87.8406 30.8121C87.6282 30.6462 88.2655 31.144 87.8406 30.8121V30.8121ZM85.2618 31.7053C85.0494 31.5394 85.6867 32.0371 85.2618 31.7053V31.7053ZM77.2665 33.8404C74.4319 32.6526 76.1516 35.7059 77.2665 33.8404V33.8404ZM66.9313 35.6872C67.3329 35.8298 66.6956 35.332 66.9313 35.6872V35.6872ZM78.2822 34.2917C78.6838 34.4344 78.0465 33.9366 78.2822 34.2917V34.2917ZM33.1264 57.5108C33.5512 57.8427 32.8907 57.1557 33.1264 57.5108V57.5108ZM32.8844 60.2291C32.672 60.0632 33.3093 60.561 32.8844 60.2291V60.2291ZM72.394 58.2526C73.5492 59.8389 73.6283 55.7963 72.394 58.2526V58.2526ZM67.2132 59.8497C68.6801 59.2853 68.6305 60.4436 69.9315 60.0916C70.4789 58.296 66.931 59.1162 67.2132 59.8497ZM70.499 60.0219C71.0666 59.9521 72.0358 60.025 71.9427 59.2683C71.3984 59.5272 70.4293 59.4543 70.499 60.0219ZM81.2824 58.6962C81.07 58.5303 81.7073 59.0281 81.2824 58.6962V58.6962ZM93.8878 56.5704C93.3203 56.6402 93.4133 57.3969 93.4598 57.7753C94.0274 57.7055 93.7452 56.972 93.8878 56.5704ZM74.3524 60.1243C74.14 59.9584 74.7773 60.4561 74.3524 60.1243V60.1243ZM78.1361 59.6591C78.4912 59.4234 79.2712 59.5196 79.2014 58.952C78.8463 59.1877 78.0663 59.0916 78.1361 59.6591ZM115.044 58.3865C115.777 58.1043 114.974 57.819 115.044 58.3865V58.3865ZM32.8192 69.0711C33.855 71.2482 33.3201 66.897 32.8192 69.0711V69.0711ZM32.7168 72.9245C32.5043 72.7586 33.1416 73.2563 32.7168 72.9245V72.9245ZM32.4283 75.2644C32.2159 75.0985 32.8532 75.5963 32.4283 75.2644V75.2644ZM52.0335 72.2781C52.5049 72.9883 52.7902 72.1851 52.0335 72.2781V72.2781ZM69.08 71.9108C69.5049 72.2427 68.8443 71.5557 69.08 71.9108V71.9108ZM51.5031 77.3364C53.6306 77.4589 52.2164 75.3283 51.4333 76.7688L51.5031 77.3364ZM52.8475 78.8995C53.2491 79.0422 52.6118 78.5444 52.8475 78.8995V78.8995ZM49.4592 82.5807L49.5988 83.7158C51.4642 84.8308 49.7088 87.7352 50.3197 89.5805C51.2688 87.9275 52.0783 85.1394 50.6641 83.0087C50.2857 83.0553 49.8841 82.9126 50.0268 82.511L49.4592 82.5807ZM52.6753 82.1854C53.1467 82.8956 53.432 82.0923 52.6753 82.1854V82.1854ZM49.0777 84.164C49.6685 84.2834 49.622 83.905 49.5988 83.7158L49.0312 83.7856L49.0777 84.164ZM48.7195 85.9364L48.8591 87.0715C49.4266 87.0017 49.1444 86.2682 49.2871 85.8666L48.7195 85.9364ZM84.7339 82.085L85.013 84.3552C86.0054 84.6173 85.6333 81.5904 84.7339 82.085ZM51.7666 87.2902C52.5899 89.3014 52.055 84.9502 51.7666 87.2902V87.2902ZM48.431 88.2763C48.9024 88.9866 49.1645 87.9941 48.431 88.2763V88.2763ZM50.3197 89.5805C48.0961 90.2379 51.9866 95.3288 50.3197 89.5805V89.5805ZM50.3569 94.569C52.0595 94.3597 49.5103 92.3686 50.3569 94.569V94.569ZM48.6542 94.7783C48.4418 94.6124 49.0791 95.1102 48.6542 94.7783V94.7783ZM50.3569 94.569L49.7893 94.6388C49.6467 95.0404 48.9799 97.4269 50.1382 97.4765C49.5505 95.8204 50.7089 95.87 50.3569 94.569ZM26.7959 101.306C26.5835 101.14 27.2208 101.638 26.7959 101.306V101.306ZM49.1194 98.562C48.907 98.396 49.5443 98.8938 49.1194 98.562V98.562ZM49.2589 99.697C50.1583 99.2024 49.1892 99.1295 49.2589 99.697V99.697ZM28.1403 102.869C27.6689 102.159 27.5728 102.939 28.1403 102.869V102.869ZM28.1403 102.869C28.6117 103.58 28.897 102.776 28.1403 102.869V102.869ZM107.893 98.6341C107.82 99.6033 106.609 102.249 107.791 102.488C107.863 101.518 109.31 99.228 107.893 98.6341ZM46.9266 107.281C47.398 107.992 47.6601 106.999 46.9266 107.281V107.281ZM46.6149 109.432C48.2943 109.034 45.9575 107.208 46.6149 109.432V109.432ZM48.0291 111.563C49.6387 110.597 47.0894 108.606 48.0291 111.563V111.563ZM48.0291 111.563C46.5358 113.475 49.2742 115.443 48.0291 111.563V111.563ZM47.4289 116.053C47.8538 116.385 47.1932 115.698 47.4289 116.053V116.053ZM105.627 108.323C103.57 108.768 106.096 110.57 105.627 108.323V108.323ZM46.4504 120.591C46.3605 118.297 46.2782 123.877 46.4504 120.591V120.591ZM46.2084 123.309C47.6986 122.934 45.3618 121.109 46.2084 123.309V123.309ZM46.2084 123.309C45.475 123.591 45.8037 124.703 45.92 125.649C46.6535 125.367 46.1123 124.089 46.2084 123.309ZM45.92 125.649L45.3524 125.719C45.7044 127.02 44.5461 126.97 45.1105 128.437C45.8207 127.966 46.0828 126.973 45.92 125.649ZM45.3896 130.707C46.0998 130.236 45.2966 129.951 45.3896 130.707V130.707ZM44.8686 131.155C45.4594 131.275 45.4128 130.896 45.3896 130.707L44.822 130.777L44.8686 131.155ZM46.0734 131.583C45.861 131.418 46.4983 131.915 46.0734 131.583V131.583ZM44.5103 132.928C45.4097 132.433 44.4406 132.36 44.5103 132.928V132.928ZM44.2017 133.542C44.5801 133.495 44.5568 133.306 44.5103 132.928L44.132 132.974L44.2017 133.542Z" fill="#FFFF00"/>
</svg>
