<svg width="164" height="168" viewBox="0 0 164 168" fill="none" xmlns="http://www.w3.org/2000/svg">
<path d="M75.9493 9.19404C76.5168 9.12427 76.5633 9.50263 76.5866 9.69181C75.9927 11.1091 74.5722 12.0519 72.5145 12.4969C71.429 11.4781 72.3517 11.1726 72.1656 9.65919C69.0457 9.27458 69.9808 2.82225 67.1959 0.476045C47.7566 3.24992 38.8199 14.9108 28.2303 25.6227L28.3698 26.7578C28.7482 26.7113 28.9839 27.0664 28.4396 27.3254C28.5093 27.8929 28.4132 28.6729 27.444 28.6C27.4673 28.7892 27.5138 29.1675 26.923 29.0481C26.7539 30.7973 24.7195 31.4315 25.9771 29.1644C25.5987 29.2109 25.1738 28.8791 25.9306 28.7861C25.8143 27.8401 27.0223 26.7314 26.8765 28.6698L27.444 28.6C27.5402 27.82 27.8953 27.5843 28.4396 27.3254L28.3698 26.7578C25.3925 25.9716 25.4824 28.265 23.7069 29.4435C24.2744 29.3737 24.6032 30.4856 23.8464 30.5786L23.7069 29.4435C23.375 29.8684 22.8308 30.1273 22.7113 30.7182C23.4681 30.6251 23.1827 31.4284 22.7113 30.7182C22.3562 30.9538 21.8352 31.402 21.905 31.9695C22.4725 31.8998 22.1872 32.703 21.905 31.9695C16.3163 36.4974 13.9142 43.5142 10.2375 49.5354C11.7742 49.5385 9.80948 50.7402 10.4933 51.6164C11.2268 51.3342 11.1338 50.5774 11.8672 50.2952C11.7975 49.7277 12.0828 48.9244 12.365 49.6579C12.4115 50.0363 12.458 50.4146 11.8672 50.2952C12.2192 51.5962 11.3198 52.0909 10.6329 52.7515L10.4933 51.6164C9.94903 51.8753 9.99554 52.2537 9.42799 52.3235C9.73346 53.2461 8.97673 53.3391 9.06976 54.0959L10.2049 53.9563C9.92265 53.2229 10.9151 53.4849 10.2049 53.9563C9.56129 56.532 7.24147 57.9694 7.21197 60.8537L7.59033 60.8071C7.733 60.4055 7.70974 60.2163 8.0881 60.1698C7.97182 59.2239 8.49285 58.7758 9.03714 58.5168C8.94411 57.7601 9.74735 58.0454 9.03714 58.5168C9.15343 59.4627 8.82158 59.8876 8.0881 60.1698C8.13462 60.5482 8.18113 60.9266 7.59033 60.8071C7.63684 61.1855 7.72988 61.9422 7.35151 61.9888L7.21197 60.8537C5.55272 62.9781 4.29509 65.2451 4.12292 68.531C5.23476 68.2023 4.43464 66.3802 5.54647 66.0515C5.68914 65.6499 5.40693 64.9164 5.97448 64.8466C6.11714 64.445 5.85819 63.9007 6.42573 63.8309C6.28307 64.2326 6.54202 64.7769 5.97448 64.8466C5.83181 65.2482 6.11402 65.9817 5.54647 66.0515C5.32154 72.0324 3.30719 74.3925 4.21423 81.7706C4.75851 81.5117 4.68562 82.4808 4.21423 81.7706L3.07913 81.9102C3.73659 84.1338 3.34885 88.7905 3.40926 93.9682C2.51611 91.3894 3.4884 89.9256 2.09747 87.9841C1.31436 89.4247 2.84483 92.5012 1.82603 93.5867C0.959257 89.6604 1.90829 88.0074 0.89573 86.0194C0.15289 90.9118 0.47537 95.097 2.07249 100.278C1.48168 100.158 1.43517 99.7801 0.867625 99.8498C7.75354 143.365 43.4264 167.978 82.232 163.399C81.4752 163.492 81.7606 162.689 82.232 163.399C85.0635 166.124 87.5693 166.2 90.9715 167.318C90.4567 164.692 91.2832 165.167 92.5346 165.973C92.8928 164.201 92.3284 162.734 94.3598 163.636C93.8186 162.359 92.4711 162.332 91.9299 161.055C91.1732 161.148 91.4585 160.344 91.9299 161.055L93.065 160.915C92.7363 159.803 91.412 159.966 91.1065 159.043C90.3498 159.136 90.6119 158.144 91.1065 159.043C92.5502 158.29 92.3579 159.85 93.3038 159.733C93.234 159.166 94.2265 159.428 93.3038 159.733C93.4899 161.247 95.6438 160.022 95.2855 161.794C95.6174 161.369 96.1617 161.11 96.9184 161.017C98.6009 159.082 93.5194 158.363 96.4533 157.234L96.3835 156.666C95.6268 156.759 95.036 156.64 95.1089 155.671C94.3521 155.764 93.7613 155.644 93.8342 154.675C93.4559 154.722 93.2667 154.745 93.2202 154.367C92.6526 154.436 92.9147 153.444 93.2202 154.367C93.5985 154.32 93.9769 154.273 93.8342 154.675C94.425 154.795 94.8732 155.316 95.1089 155.671C95.6997 155.79 95.9354 156.145 96.3835 156.666L97.3294 156.55C96.5293 154.728 92.9612 153.822 93.5086 152.027C95.5167 152.74 96.506 154.539 98.325 155.275C97.6442 152.862 95.1384 152.786 93.9366 150.822C93.1334 150.536 92.1409 150.274 91.9781 148.95C92.9241 148.834 93.0171 149.59 93.8203 149.876C93.7738 149.497 94.1057 149.073 94.3879 149.806C94.7662 149.76 94.9554 149.736 95.0019 150.115C96.2564 149.384 97.8598 151.492 98.218 149.719C96.6147 147.612 93.2358 146.683 93.1459 144.39C74.8434 134.541 70.9098 104.106 69.1082 83.2028C70.0774 83.2757 69.9844 82.519 69.9146 81.9514C69.9875 80.9823 69.4199 81.052 69.3269 80.2953C68.5934 80.5775 68.8555 79.5851 69.3269 80.2953C68.0759 56.0598 74.6354 39.122 89.2011 26.385L92.9847 25.9198C93.0809 25.1398 94.6641 25.5213 94.5711 24.7646C92.7986 24.4063 94.5277 22.8495 94.6703 22.4479C92.0745 20.0784 93.3353 16.2746 89.6773 13.0756C91.8638 7.4296 82.4203 0.908889 75.9493 9.19404ZM38.7904 17.7951C38.8369 18.1735 38.2694 18.2432 37.9143 18.4789C37.8445 17.9114 38.4121 17.8416 38.7904 17.7951ZM34.7648 20.9786C35.0502 20.1753 35.382 19.7504 36.3279 19.6341C36.2318 20.4141 35.7108 20.8623 34.7648 20.9786C34.8114 21.3569 34.8346 21.5461 34.4563 21.5926C34.1709 22.3959 33.8391 22.8207 32.8932 22.937C32.9164 23.1262 32.7737 23.5278 32.3954 23.5743C32.11 24.3776 31.848 25.37 30.5004 25.3436C30.5903 27.6371 28.0411 25.646 30.5004 25.3436C30.7858 24.5404 31.0479 23.548 32.3954 23.5743C32.3489 23.196 32.3024 22.8176 32.8932 22.937C32.9893 22.157 33.5103 21.7089 34.4563 21.5926C34.4097 21.2142 34.3632 20.8359 34.7648 20.9786ZM62.6986 26.3784C61.1153 25.9969 62.7746 23.8725 63.9562 24.1113C63.8833 25.0805 62.559 25.2433 62.6986 26.3784ZM59.5026 28.4997C57.7302 28.1414 60.0733 26.8932 59.791 26.1597C61.5635 26.5179 59.4096 27.7429 59.5026 28.4997ZM61.1355 27.7228C61.0424 26.9661 61.8457 27.2514 61.1355 27.7228C61.182 28.1012 61.016 28.3136 60.6377 28.3601C60.6609 28.5493 60.7075 28.9277 60.1399 28.9974C60.2097 29.565 59.4064 29.2796 60.1399 28.9974C60.0934 28.6191 60.2361 28.2174 60.6377 28.3601C60.5912 27.9817 60.5446 27.6034 61.1355 27.7228ZM28.9096 121.752C29.4741 123.219 31.6977 122.561 32.0962 124.241C31.4915 119.322 28.3112 113.76 25.7914 108.884C13.0548 70.8897 35.4949 45.6621 57.9891 28.6857C45.4719 45.5878 45.8544 78.3799 48.3197 98.4332C49.0098 96.2359 49.3121 98.6953 49.7634 97.6796C51.3203 99.4086 50.6968 103.71 51.8986 105.675C52.6352 103.856 51.1838 96.7368 52.429 100.617C53.0399 102.462 53.1499 106.481 53.429 108.751C53.3329 109.531 54.302 109.604 53.5686 109.887C54.1795 111.732 55.6031 109.252 55.4309 112.538C53.8539 109.083 53.7918 116.388 55.8263 115.754C55.1688 113.531 57.5057 115.356 55.8263 115.754C55.3285 116.392 56.0821 117.835 54.5221 117.643C54.8509 118.755 54.184 121.141 55.5548 121.357L55.1362 117.952C56.4573 119.325 56.4046 122.021 57.3939 123.819C58.7182 123.657 57.4932 121.503 57.5661 120.533C56.693 119.681 56.507 118.167 55.9658 116.889C57.1474 117.128 57.5459 118.808 57.5661 120.533C59.0997 122.073 59.9199 125.621 59.1337 128.599C60.7263 124.37 61.886 135.366 64.6245 137.334C64.7703 135.395 63.1638 134.825 64.1593 133.55C62.7885 133.334 62.7684 131.608 62.0613 130.543C63.4088 130.57 63.6182 132.272 64.1593 133.55C65.9783 134.287 64.7439 136.743 66.5364 138.827C67.3862 139.491 67.5722 141.004 67.9475 142.494C68.681 142.212 68.4189 143.204 67.9475 142.494C66.9318 142.043 66.5566 140.553 66.5364 138.827C65.2122 138.99 65.7596 137.194 64.6245 137.334C64.857 139.225 65.9658 140.433 66.3643 142.113C60.4097 140.54 53.3201 139.107 47.9594 136.118C47.8168 136.519 48.0757 137.064 47.5082 137.133C47.6012 137.89 48.192 138.009 48.7828 138.129C48.4246 139.901 47.1996 137.747 46.4429 137.84L46.3731 137.273C45.9947 137.319 45.8055 137.343 45.759 136.964C44.6472 137.293 42.7384 134.263 43.0407 136.722C43.4191 136.676 43.6082 136.653 43.678 137.22C43.8672 137.197 44.2456 137.15 44.2921 137.529C44.5045 137.695 44.8829 137.648 44.7402 138.05C45.331 138.169 45.8753 137.91 45.9451 138.478C46.7018 138.385 46.4165 139.188 45.9451 138.478C45.5667 138.524 44.81 138.617 44.7402 138.05C44.551 138.073 44.1727 138.119 44.2921 137.529C43.9137 137.575 43.5354 137.622 43.678 137.22C43.2764 137.077 42.898 137.124 43.0407 136.722C40.6542 136.055 38.9082 134.35 37.0195 133.046C37.1125 133.802 36.9699 134.204 36.638 134.629C39.4494 135.627 41.9521 137.24 43.4361 139.938C44.0036 139.869 43.9075 140.649 43.4361 139.938C40.7906 138.727 39.164 136.431 36.7078 135.196L36.638 134.629C35.1742 133.656 33.591 133.275 32.9568 131.241C32.5784 131.287 32.2 131.334 32.3194 130.743C31.9411 130.789 31.7519 130.813 31.6821 130.245C30.8324 129.581 29.9594 128.728 29.2755 127.852C28.6847 127.733 28.4723 127.567 28.5684 126.787C28.1901 126.833 27.7652 126.502 28.4987 126.219L28.3824 125.273C27.6024 125.177 26.6797 125.483 26.61 124.915C25.6873 125.221 25.2919 122.005 26.8984 122.575C26.8286 122.008 27.6086 122.104 26.8984 122.575C27.2271 123.687 26.4937 123.969 26.61 124.915C27.2737 124.065 27.8645 124.185 28.3824 125.273C28.7607 125.227 28.9964 125.582 29.0662 126.15C29.4678 126.292 29.7035 126.647 29.5841 127.238C30.5533 127.311 30.6463 128.068 31.4263 128.164C31.3829 126.249 29.4678 126.292 29.2585 124.59C27.2969 124.255 28.4584 122.768 28.9096 121.752C28.7205 121.775 28.3421 121.822 28.4615 121.231C27.728 121.513 27.9901 120.521 28.4615 121.231C28.6739 121.397 29.0523 121.35 28.9096 121.752ZM22.5624 34.1932C22.3267 33.8381 22.9641 34.3359 22.5624 34.1932V34.1932ZM13.314 48.0049C13.1016 47.839 13.7389 48.3367 13.314 48.0049V48.0049ZM48.252 61.9537C48.6769 62.2855 47.8504 61.811 48.252 61.9537V61.9537ZM49.3375 62.9725C49.1018 62.6174 49.7391 63.1151 49.3375 62.9725V62.9725ZM50.0213 63.8486C50.0911 64.4162 49.5235 64.4859 49.1452 64.5324C49.0754 63.9649 49.6662 64.0843 50.0213 63.8486ZM4.64223 80.5658C4.87792 80.9209 4.24061 80.4231 4.64223 80.5658V80.5658ZM4.53983 84.4192C4.32739 84.2532 4.96471 84.751 4.53983 84.4192V84.4192ZM50.7871 82.5745C51.2119 82.9064 50.3854 82.4319 50.7871 82.5745V82.5745ZM52.5796 84.6586C52.3672 84.4927 53.0045 84.9905 52.5796 84.6586V84.6586ZM6.48581 92.4377C6.27337 92.2718 6.91069 92.7696 6.48581 92.4377V92.4377ZM4.68389 94.9637L4.54435 93.8286L5.67944 93.6891L5.81899 94.8242L4.68389 94.9637ZM4.18612 95.601C4.23263 95.9794 3.66509 96.0492 3.1208 96.3081C3.05103 95.7406 3.80775 95.6476 4.18612 95.601ZM18.9097 98.2079C19.1982 95.868 19.7331 100.219 18.9097 98.2079V98.2079ZM19.7331 100.219C19.5206 100.053 20.158 100.551 19.7331 100.219V100.219ZM49.6239 96.5445C49.4114 96.3786 50.0487 96.8763 49.6239 96.5445V96.5445ZM51.5358 98.0378C51.3234 97.8719 51.9607 98.3697 51.5358 98.0378V98.0378ZM20.1517 103.624C18.4258 103.645 20.4402 101.284 20.1517 103.624C20.7193 103.555 21.476 103.462 21.4031 104.431L20.268 104.57L20.1517 103.624ZM21.1146 106.771C21.4031 104.431 21.938 108.782 21.1146 106.771V106.771ZM54.2913 103.268C54.3378 103.647 53.7703 103.716 53.4151 103.952C53.3454 103.385 53.9129 103.315 54.2913 103.268ZM55.0123 109.133C54.2323 109.037 54.4711 107.855 54.3781 107.098C55.5364 107.148 55.6992 108.472 55.0123 109.133ZM56.6451 108.356C56.9568 106.205 57.4918 110.556 56.6451 108.356V108.356ZM57.3894 114.41C57.1769 114.244 57.8142 114.742 57.3894 114.41V114.41ZM27.0706 119.289C25.3447 119.31 27.359 116.949 27.0706 119.289C28.584 119.103 26.7821 121.629 27.0706 119.289ZM57.7382 117.248C58.7834 114.815 58.7043 118.857 57.7382 117.248V117.248ZM30.1145 122.18C29.9021 122.014 30.5394 122.512 30.1145 122.18V122.18ZM58.4918 118.691C58.2794 118.525 58.9167 119.023 58.4918 118.691V118.691ZM60.1618 122.903C61.3233 121.416 60.4114 128.057 60.1618 122.903V122.903ZM26.5773 129.336C26.0098 129.406 26.1059 128.626 26.5773 129.336C26.9557 129.29 27.3341 129.243 27.2146 129.834C27.593 129.787 27.8287 130.143 27.8985 130.71C28.725 131.185 29.7174 131.447 29.8802 132.771C30.0694 132.748 30.4478 132.701 30.3283 133.292C31.0618 133.01 30.7997 134.002 30.3283 133.292C30.1392 133.315 29.7375 133.173 29.8802 132.771C28.8645 132.32 27.8954 132.247 27.8985 130.71C27.5201 130.757 27.2844 130.402 27.2146 129.834C26.813 129.691 26.6238 129.715 26.5773 129.336ZM28.28 129.127C28.0675 128.961 28.7048 129.459 28.28 129.127V129.127ZM61.1945 126.617C61.4302 126.972 60.7929 126.474 61.1945 126.617V126.617ZM30.0493 131.022C29.8368 130.856 30.4741 131.354 30.0493 131.022V131.022ZM31.3937 132.585C31.1812 132.419 31.8185 132.917 31.3937 132.585V132.585ZM31.7193 135.233C31.5068 135.068 32.1441 135.565 31.7193 135.233V135.233ZM64.6571 132.913C64.4447 132.747 65.082 133.244 64.6571 132.913V132.913ZM67.0637 135.305C66.8513 135.139 67.4886 135.637 67.0637 135.305V135.305ZM37.88 140.045C37.6676 139.879 38.3049 140.377 37.88 140.045V140.045ZM49.8683 139.148C49.938 139.715 49.3472 139.596 48.9921 139.831C48.9224 139.264 49.5132 139.383 49.8683 139.148ZM45.1588 141.455C44.9231 141.1 45.5837 141.787 45.1588 141.455V141.455ZM51.85 141.209C51.6143 140.853 52.2516 141.351 51.85 141.209V141.209ZM47.4988 141.743C47.5453 142.122 46.7886 142.215 46.4102 142.261C46.3637 141.883 47.1204 141.79 47.4988 141.743ZM48.2524 143.187C48.04 143.021 48.6773 143.519 48.2524 143.187V143.187ZM59.3319 147.394C59.5676 147.749 58.9303 147.252 59.3319 147.394V147.394ZM60.3476 147.845C60.1351 147.68 60.7725 148.177 60.3476 147.845V147.845ZM92.3735 152.166C92.1611 152 92.7984 152.498 92.3735 152.166V152.166ZM91.3252 156.136C91.1128 155.97 91.7501 156.468 91.3252 156.136V156.136ZM92.5999 157.131L92.4603 155.996L93.4062 155.88L93.5458 157.015L92.5999 157.131ZM87.1136 157.806C86.9011 157.64 87.5384 158.138 87.1136 157.806V157.806ZM93.6853 158.15C94.1629 155.787 94.6979 160.138 93.6853 158.15V158.15ZM75.9493 9.19404C73.6326 9.09476 76.1586 10.8967 75.9493 9.19404V9.19404ZM74.0078 10.585C73.6062 10.4423 74.4327 10.9168 74.0078 10.585V10.585ZM72.9425 11.2921C72.73 11.1261 73.3674 11.6239 72.9425 11.2921V11.2921ZM92.3661 16.2017C92.7678 16.3444 92.1304 15.8466 92.3661 16.2017V16.2017ZM25.9771 29.1644L26.923 29.0481L26.8765 28.6698L25.9306 28.7861L25.9771 29.1644ZM94.461 20.7452C94.2486 20.5793 94.8859 21.0771 94.461 20.7452V20.7452ZM95.0657 25.664C94.8533 25.4981 95.4906 25.9958 95.0657 25.664V25.664ZM92.9847 25.9198C93.4794 26.8192 93.5523 25.85 92.9847 25.9198V25.9198ZM136.402 32.2968C135.307 35.8881 136.124 40.9728 134.392 44.0663C129.281 46.231 122.022 46.5472 117.973 49.5415C119.839 50.6565 118.654 51.9544 118.508 53.8927C121.439 54.3006 130.566 53.5626 135.153 53.3828C134.935 56.2903 136.85 56.2469 137.271 58.1155C139.352 57.8596 138.791 54.856 140.418 57.1525C140.623 49.4457 151.024 49.7033 152.504 42.992C150.542 42.657 148.514 40.2178 148.753 39.0362C145.845 38.8175 144.02 41.1543 142.39 40.3945C143.104 38.3864 141.62 35.6882 142.476 33.2784C138.104 32.0875 139.731 34.384 136.402 32.2968ZM10.2375 49.5354C9.31483 49.8408 10.3073 50.1029 10.2375 49.5354V49.5354ZM9.28845 51.1884C9.07601 51.0224 9.71333 51.5202 9.28845 51.1884V51.1884ZM9.42799 52.3235C8.9566 51.6132 8.67127 52.4165 9.42799 52.3235V52.3235ZM9.06976 54.0959L8.50222 54.1656C8.17037 54.5905 7.90829 55.5829 8.68828 55.6791C9.02013 55.2542 9.16279 54.8526 9.06976 54.0959ZM7.69273 56.9537C8.40294 56.4823 7.5997 56.197 7.69273 56.9537V56.9537ZM7.19495 57.5911C7.7625 57.5213 7.73924 57.3321 7.69273 56.9537C7.29111 56.8111 7.33762 57.1894 7.19495 57.5911ZM7.19495 57.5911C6.48474 58.0624 7.45391 58.1353 7.19495 57.5911V57.5911ZM6.4351 59.2208C7.16857 58.9386 6.17615 58.6765 6.4351 59.2208V59.2208ZM6.4351 59.2208C5.53571 59.7154 6.52813 59.9775 6.4351 59.2208V59.2208ZM5.50933 61.063C6.21954 60.5916 5.43955 60.4954 5.50933 61.063V61.063ZM5.50933 61.063C4.94178 61.1327 5.22399 61.8662 5.08132 62.2678C5.64887 62.1981 5.36666 61.4646 5.50933 61.063ZM4.58355 62.9052C5.1511 62.8354 5.12784 62.6462 5.08132 62.2678C4.6797 62.1252 4.53704 62.5268 4.58355 62.9052ZM4.58355 62.9052C3.07009 63.0912 5.43018 65.1056 4.58355 62.9052V62.9052ZM2.60947 68.7171C3.01109 68.8597 2.37377 68.3619 2.60947 68.7171V68.7171ZM4.12292 68.531C3.74456 68.5775 2.65286 70.6321 3.81121 70.6818C4.30898 70.0444 4.42839 69.4536 4.12292 68.531ZM3.88098 71.2493C1.46813 71.93 4.20658 73.8979 3.88098 71.2493V71.2493ZM116.934 72.3302C117.289 72.0945 117.432 71.6928 117.999 71.6231C117.176 69.6118 115.404 69.2536 115.59 70.7671C112.4 69.8149 109.595 65.7428 106.283 66.9182C105.413 64.5286 106.149 62.7097 104.855 59.9882C101.048 60.2642 100.221 59.7897 96.7896 61.5558C97.1152 64.2044 97.6532 67.0188 95.8777 68.1973C91.7854 69.2765 87.6699 70.1666 84.8756 72.4305C85.9874 72.1018 86.5782 72.2212 86.6945 73.1671C86.1037 73.0477 85.6788 72.7158 84.9221 72.8089C85.533 74.6542 84.8693 75.5039 84.843 76.8515C85.2213 76.805 85.457 77.1601 84.8895 77.2298L85.0988 78.9325C89.3771 79.3667 94.3222 77.4145 97.1568 78.6024C95.727 84.1553 101.399 84.9943 104.639 84.7881C104.878 83.6065 105.495 82.3784 106.793 83.5631C106.042 80.5827 107.227 79.2848 106.287 76.3276C109.317 74.4188 115.159 73.5087 116.934 72.3302C116.556 72.3767 116.297 71.8324 116.864 71.7626L116.934 72.3302ZM3.26067 74.0141C3.99414 73.7319 3.00172 73.4699 3.26067 74.0141V74.0141ZM3.26067 74.0141C2.5272 74.2964 2.87919 75.5974 2.97222 76.3541C3.70569 76.0719 3.18778 74.9833 3.26067 74.0141ZM1.1998 75.9959C0.987364 75.83 1.62468 76.3277 1.1998 75.9959V75.9959ZM2.97222 76.3541L2.40467 76.4239C3.2513 78.6243 0.715917 81.4325 3.07913 81.9102C2.39842 79.4973 3.62967 78.5778 2.97222 76.3541ZM0.95786 78.7142C0.745421 78.5483 1.38274 79.046 0.95786 78.7142V78.7142ZM0.87872 82.7568C2.5581 82.3583 0.221266 80.5331 0.87872 82.7568V82.7568ZM0.87872 82.7568C-0.256373 82.8963 0.968626 85.0502 0.89573 86.0194C2.00757 85.6907 0.805825 83.726 0.87872 82.7568ZM2.06033 82.9956C2.07734 86.2582 2.18286 80.8681 2.06033 82.9956V82.9956ZM152.739 66.7762C153.094 66.5405 153.874 66.6366 153.805 66.0691C153.449 66.3048 152.669 66.2086 152.739 66.7762ZM150.3 68.8044L150.16 67.6693C148.216 70.597 147.971 74.852 147.702 78.9179C141.622 81.0096 135.263 80.8312 130.527 84.4861C129.767 86.1158 129.86 86.8725 129.688 90.1584C135.078 90.2639 142.311 91.2952 146.642 89.0344C147.147 96.2699 150.948 99.0673 153.444 103.753C156.62 99.9063 156.586 93.3811 156.977 87.1877C158.942 85.986 161.969 85.6139 163.721 84.2462C162.542 82.4706 163.654 82.1419 163.823 80.3928C158.34 79.5305 156.338 75.7437 155.923 70.8018C156.607 71.6779 155.279 73.3774 155.116 72.0531C155.783 69.6667 157.087 67.778 154.442 66.5669C154.744 69.0262 152.314 66.4443 150.728 67.5995C150.798 68.1671 150.655 68.5687 150.3 68.8044C150.157 69.206 150.416 69.7503 149.849 69.8201C149.802 69.4417 149.732 68.8742 150.3 68.8044ZM150.058 71.5227C149.846 71.3568 150.483 71.8546 150.058 71.5227V71.5227ZM1.98119 87.0382C2.38281 87.1809 1.74549 86.6831 1.98119 87.0382V87.0382ZM84.843 76.8515C84.2754 76.9212 84.5111 77.2763 84.8895 77.2298L84.843 76.8515ZM0.090761 98.217C-0.121679 98.051 0.51564 98.5488 0.090761 98.217V98.217ZM49.3354 98.8845C48.5957 102.24 51.7621 103.003 49.3354 98.8845V98.8845ZM50.2657 106.452C51.2783 108.44 50.7666 104.278 50.2657 106.452V106.452ZM52.0381 106.81C52.4536 111.752 53.1996 105.323 52.0381 106.81V106.81ZM52.3637 109.459C52.8584 110.358 52.145 112.366 53.2801 112.226C53.9438 111.377 53.2135 110.122 52.3637 109.459ZM51.5077 111.868C52.0194 116.03 52.6227 110.003 51.5077 111.868V111.868ZM52.7823 112.864C53.277 113.763 53.2506 115.111 54.243 115.373C53.7484 114.473 54.6044 112.064 52.7823 112.864ZM51.7635 113.949C51.9961 115.841 52.3946 117.52 53.4336 118.161C53.201 116.269 52.8257 114.779 51.7635 113.949ZM54.5221 117.643C54.4524 117.075 54.2632 117.099 53.8848 117.145C53.7421 117.547 54.1205 117.5 54.5221 117.643ZM53.0753 119.933C52.8629 119.767 53.5002 120.265 53.0753 119.933V119.933ZM29.2585 124.59C30.1579 124.095 29.1655 123.833 29.2585 124.59V124.59ZM53.922 122.134C54.7453 124.145 54.2104 119.794 53.922 122.134V122.134ZM55.5548 121.357L55.7409 122.87C56.3084 122.801 56.1224 121.287 55.5548 121.357ZM28.5684 126.787C28.7576 126.764 29.136 126.717 29.0662 126.15L28.4987 126.219L28.5684 126.787ZM54.7453 124.145C54.5329 123.979 55.1702 124.477 54.7453 124.145V124.145ZM29.2755 127.852C29.4647 127.829 29.8431 127.782 29.5841 127.238C29.2057 127.285 29.229 127.474 29.2755 127.852ZM32.4916 127.457C32.2792 127.291 32.9165 127.789 32.4916 127.457V127.457ZM58.101 124.885C57.8885 124.719 58.5259 125.217 58.101 124.885V124.885ZM31.4263 128.164C31.4728 128.542 31.6852 128.708 32.0636 128.662C31.9938 128.094 31.8047 128.117 31.4263 128.164ZM56.6573 125.638C56.2557 125.496 56.893 125.993 56.6573 125.638V125.638ZM32.0636 128.662C31.7318 129.087 31.5891 129.488 31.6821 130.245C32.0837 130.388 32.2729 130.364 32.3194 130.743C32.6978 130.696 32.9102 130.862 32.9568 131.241C33.5243 131.171 33.4778 130.792 34.0221 130.533C33.8593 129.209 32.8669 128.947 32.0636 128.662ZM58.2405 126.02C58.6654 126.352 58.0048 125.665 58.2405 126.02V126.02ZM34.0221 130.533C34.281 131.078 34.5167 131.433 35.1075 131.552C35.1804 130.583 34.6129 130.653 34.0221 130.533ZM57.431 128.808C57.2186 128.642 57.8559 129.14 57.431 128.808V128.808ZM35.1075 131.552C35.1541 131.931 35.3665 132.097 35.7449 132.05C35.8643 131.459 35.4859 131.506 35.1075 131.552ZM35.7449 132.05C35.672 133.019 36.2395 132.949 37.0195 133.046C36.7605 132.501 36.3357 132.169 35.7449 132.05ZM38.7221 132.836C38.2973 132.504 38.9578 133.191 38.7221 132.836V132.836ZM40.3519 133.596C39.8805 132.886 39.8076 133.855 40.3519 133.596V133.596ZM58.3242 131.387C58.1117 131.221 58.7491 131.718 58.3242 131.387V131.387ZM60.0268 131.177C60.8735 133.378 60.3385 129.027 60.0268 131.177V131.177ZM40.3519 133.596C40.4216 134.164 40.6108 134.14 40.9892 134.094C41.1319 133.692 40.7535 133.739 40.3519 133.596ZM40.9892 134.094C41.2915 136.553 43.0935 134.027 40.9892 134.094V134.094ZM44.8426 134.196L44.7728 133.629C44.2286 133.888 44.6534 134.22 44.8426 134.196ZM44.8426 134.196C44.9124 134.764 45.1016 134.741 45.4799 134.694C45.6226 134.292 45.221 134.15 44.8426 134.196ZM59.1011 133.02C58.8886 132.854 59.5259 133.351 59.1011 133.02V133.02ZM45.4799 134.694C45.5497 135.262 45.7389 135.238 46.1173 135.192C46.2367 134.601 45.8583 134.648 45.4799 134.694ZM61.5108 133.876C61.6101 131.559 59.7849 133.896 61.5108 133.876V133.876ZM46.1173 135.192C46.1638 135.57 46.3762 135.736 46.7546 135.69C46.6848 135.122 46.4956 135.145 46.1173 135.192ZM46.8243 136.257L47.9594 136.118C47.8897 135.55 47.1329 135.643 46.7546 135.69L46.8243 136.257ZM59.8779 134.652C60.3028 134.984 59.6422 134.297 59.8779 134.652V134.652ZM61.5108 133.876C61.793 134.609 62.0783 133.806 61.5108 133.876V133.876ZM45.759 136.964C46.1374 136.918 46.5157 136.871 46.3731 137.273L47.5082 137.133C47.4617 136.755 46.8709 136.636 46.8243 136.257C46.2335 136.138 45.8784 136.373 45.759 136.964ZM61.6968 135.389C61.2952 135.246 62.1217 135.721 61.6968 135.389V135.389ZM60.7711 137.231C60.5586 137.065 61.1959 137.563 60.7711 137.231V137.231ZM62.4737 137.022C62.0721 136.879 62.7094 137.377 62.4737 137.022V137.022ZM63.7685 139.743C64.1701 139.886 63.5328 139.388 63.7685 139.743V139.743ZM93.8203 149.876L93.9366 150.822C94.5274 150.941 94.8825 150.705 95.0019 150.115C94.6236 150.161 94.2452 150.208 94.3879 149.806L93.8203 149.876ZM95.709 151.18C96.5557 153.38 96.0207 149.029 95.709 151.18V151.18ZM98.325 155.275C98.7963 155.986 99.0817 155.182 98.325 155.275V155.275ZM97.3294 156.55C97.8008 157.26 98.0861 156.457 97.3294 156.55V156.55ZM96.4533 157.234C96.9247 157.944 97.0208 157.164 96.4533 157.234V157.234ZM98.6738 158.113C99.0754 158.256 98.4381 157.758 98.6738 158.113V158.113ZM93.065 160.915C92.9456 161.506 93.324 161.459 93.5131 161.436C93.6558 161.034 93.2542 160.892 93.065 160.915ZM93.5131 161.436C93.7721 161.98 94.3164 161.721 94.718 161.864C94.6482 161.296 94.1039 161.555 93.5131 161.436ZM94.718 161.864C94.977 162.408 95.3088 161.983 95.2855 161.794L94.718 161.864ZM94.3598 163.636C94.8312 164.347 95.0932 163.354 94.3598 163.636V163.636Z" fill="#FF8200"/>
</svg>
