<svg width="132" height="131" viewBox="0 0 132 131" fill="none" xmlns="http://www.w3.org/2000/svg">
<path d="M81.1655 1.00264C76.0955 0.742645 68.8155 -0.427356 65.4355 1.78265C65.9555 -0.297358 64.0055 2.43265 62.8355 2.17264C66.3455 2.69264 71.1555 0.742644 74.4055 2.17264C69.2055 2.56264 65.3055 2.17264 61.7955 3.99264C62.9655 4.25265 64.5256 2.82265 65.0455 3.73264C65.5655 3.73264 65.6955 3.08265 65.8255 3.73264C65.8255 3.99264 65.1755 4.12265 65.0455 3.73264C64.0055 4.25265 62.5755 4.51264 61.4055 4.77265C61.4055 4.38264 61.6655 4.38264 61.7955 3.99264H59.0655C59.4555 5.94265 57.6355 5.68264 56.0755 6.72264C56.5955 6.59265 57.3755 7.76265 56.4655 7.76265C56.0755 7.76265 56.0755 7.24265 56.0755 6.72264C55.1655 6.72264 55.6855 6.33264 55.6855 5.94265C54.2555 5.29265 54.9055 6.85264 54.2555 6.98264C54.3855 6.46265 53.9955 6.33264 53.4755 6.33264C51.6555 7.89264 47.4955 6.07265 46.7155 8.15264C45.9355 6.98264 44.7655 8.67264 43.3355 8.15264C21.3655 18.8126 2.38554 43.1226 0.305541 73.6726C0.0455419 78.6126 0.695541 84.5926 1.47554 89.0126C1.86554 89.4026 2.25554 89.7926 2.51554 90.1826C1.73554 91.4826 3.42554 93.0426 3.29554 93.9526C3.81554 93.3026 4.20554 95.9026 4.85554 96.5526C4.07554 96.2926 3.94554 97.2026 4.46554 97.3326C6.41554 98.1126 7.71554 102.793 9.27554 105.133C10.5755 105.783 10.5755 107.603 11.8755 108.123C11.8755 107.733 12.5255 107.863 11.8755 108.123C11.8755 109.033 12.5255 109.293 13.0455 109.683C13.1755 109.293 13.0455 108.903 13.4355 108.903V109.683C13.6955 109.683 13.8255 109.943 13.4355 109.943C16.9455 114.753 22.6655 117.223 26.9555 121.253H27.6055C33.4555 123.983 41.5155 129.573 49.3155 130.223C48.5355 129.703 47.3655 129.963 48.6655 129.053C47.2355 129.053 46.0655 128.923 45.6755 128.013C44.7655 128.013 43.8555 128.013 43.7255 127.233C43.3355 127.233 43.5955 126.713 43.7255 127.233C44.6355 127.103 45.5455 127.103 45.6755 128.013C54.5155 129.053 63.8755 129.313 71.8055 127.233C71.4155 127.103 70.8955 126.583 71.4155 126.453C71.8055 126.583 71.9355 126.843 71.8055 127.233C72.8455 127.103 73.8855 126.973 74.4055 126.453C74.1455 126.453 73.7555 126.453 73.7555 126.063C74.0155 126.193 74.4055 126.063 74.4055 126.453C75.1855 126.973 77.1355 126.323 77.7855 125.673C77.3955 125.803 77.6555 125.153 77.7855 125.673C79.4755 125.933 77.5255 125.023 78.5655 125.023C79.2155 126.193 81.9455 124.763 83.1155 124.243C82.5955 124.113 82.0755 124.243 81.9455 123.853C82.4655 123.333 84.0255 123.333 83.1155 124.243C84.5455 123.853 84.8055 124.373 85.7155 123.073C85.0655 123.203 84.8055 122.683 85.7155 122.683C85.9755 121.123 84.9355 123.073 84.9355 122.033C85.5855 120.863 87.5355 121.123 88.3155 120.083C87.1455 120.083 88.7055 118.523 88.3155 120.083C89.3555 120.213 89.4855 119.303 90.5255 119.303V118.653C90.2655 118.263 89.4855 118.393 89.4855 117.873C91.6955 117.093 94.4255 113.973 96.5055 114.883C96.8955 113.713 100.276 109.813 101.836 111.113C101.966 108.903 104.436 108.773 105.866 107.733C105.996 106.303 107.946 105.133 109.246 103.313H108.596C108.466 103.443 108.466 103.703 108.206 103.573C108.076 103.833 108.076 104.093 107.816 103.963C107.816 104.223 107.686 104.483 107.426 104.353C107.426 104.613 107.296 104.873 107.036 104.743C107.036 105.003 107.036 105.263 106.646 105.133C106.646 105.393 106.646 105.523 106.256 105.523C106.386 105.913 105.736 105.783 106.256 105.523C106.256 105.263 106.386 105.003 106.646 105.133C106.646 104.873 106.776 104.743 107.036 104.743C107.036 104.483 107.036 104.353 107.426 104.353C107.426 104.093 107.426 103.963 107.816 103.963C107.816 103.833 107.816 103.573 108.206 103.573C108.206 103.443 108.206 103.183 108.596 103.313C108.596 102.793 109.896 101.363 109.636 102.923C110.156 102.793 110.286 102.273 110.806 102.143C110.806 101.883 110.806 101.753 111.196 101.753V101.363H110.416C110.416 101.883 109.896 101.623 110.416 101.363C110.546 100.973 110.806 100.843 111.196 100.583C111.066 100.193 111.716 100.453 111.196 100.583V101.363H111.586C111.586 101.103 111.586 100.973 111.846 100.973C111.976 100.843 111.976 100.583 112.236 100.583C112.236 100.453 112.366 100.193 112.626 100.323C112.626 100.063 112.756 99.8026 113.016 99.9326C113.016 99.6726 113.146 99.4126 113.406 99.5426C113.406 99.2826 113.406 99.0226 113.796 99.1526C113.796 98.8926 113.796 98.7626 114.186 98.7626C114.056 98.1126 114.706 97.7226 114.836 98.3726C115.746 96.8126 117.826 94.0826 119.776 92.3926C120.166 90.1826 121.986 89.4026 122.766 87.5826C121.986 86.8026 122.896 86.8026 123.546 86.4126C123.286 84.8526 124.326 83.0326 124.976 84.5926C124.976 83.1626 127.056 81.9926 125.366 81.2126C125.886 80.6926 126.016 81.0826 126.536 81.2126C126.666 79.2626 128.096 78.2226 126.926 77.0526C127.446 76.9226 127.576 77.4426 127.966 77.4426C126.796 72.6326 130.826 70.1626 129.526 65.0926C131.086 66.2626 131.346 58.7226 129.916 62.1026V60.1526C130.436 60.1526 130.566 60.5426 130.956 60.5426C129.656 58.9826 131.216 55.6026 129.526 53.7826C129.266 53.7826 129.136 53.5226 129.526 53.5226C130.436 52.0926 129.786 51.3126 129.916 48.9726C129.266 48.8426 128.876 49.6226 128.746 48.9726C128.876 48.4526 129.396 48.3226 129.526 47.8026C127.966 47.9326 129.526 47.2826 129.136 46.3726C124.716 27.9126 113.926 15.8226 99.8855 6.98264C99.3655 6.98264 99.2355 7.37264 98.8455 7.37264C95.2055 3.86264 88.4455 1.65265 82.7255 1.39264C81.9455 1.13265 82.4655 0.352642 81.5555 1.00264C81.5555 1.26265 81.2955 1.52264 81.1655 1.00264ZM64.7855 1.78265C64.9155 2.04264 64.5255 1.65265 64.7855 1.78265V1.78265ZM75.1855 1.78265C76.4855 0.872643 74.2755 3.08265 75.1855 1.78265V1.78265ZM77.3955 1.78265C76.6155 2.95265 75.0555 1.39264 77.3955 1.78265V1.78265ZM79.7355 2.17264C78.3055 3.47265 77.7855 1.13265 79.7355 2.17264V2.17264ZM81.9455 2.95265C81.8155 2.82265 82.2055 3.21264 81.9455 2.95265V2.95265ZM70.3755 2.95265C70.3755 3.34264 69.8555 3.21264 69.5955 3.34264C69.5955 2.95265 70.1155 2.95265 70.3755 2.95265ZM74.1455 3.34264C74.2755 3.60265 73.8855 3.08265 74.1455 3.34264V3.34264ZM72.1955 3.99264C71.8055 4.90264 69.8555 4.12265 68.8155 4.38264C69.8555 3.60265 70.8955 3.86264 72.1955 3.99264C72.7155 3.86264 72.1955 3.60265 72.1955 3.99264ZM74.4055 3.99264C73.6255 5.29265 72.9755 2.69264 74.4055 3.99264V3.99264ZM74.7955 3.99264C74.6655 3.86264 75.0555 4.25265 74.7955 3.99264V3.99264ZM76.7455 3.99264C76.6155 3.86264 77.0055 4.25265 76.7455 3.99264V3.99264ZM66.9955 4.77265C67.2555 4.25265 67.7755 4.12265 68.4255 3.99264C68.8155 5.16264 67.6455 4.77265 66.9955 4.77265ZM77.7855 4.38264C77.6555 4.25265 78.0455 4.64265 77.7855 4.38264V4.38264ZM59.4555 5.16264C59.7155 4.64265 60.2355 4.51264 61.0155 4.38264C61.4055 5.55264 60.1055 5.03264 59.4555 5.16264ZM65.4355 4.77265C66.6055 3.47265 66.7355 5.94265 65.4355 4.77265C65.4355 5.94265 63.8755 4.38264 65.4355 4.77265ZM61.0155 5.94265C61.6655 5.16264 62.8355 4.77265 64.3955 4.77265C63.7455 5.68264 62.1855 5.68264 61.0155 5.94265ZM70.7655 5.55264C71.0255 5.81265 70.5055 5.42265 70.7655 5.55264V5.55264ZM81.1655 6.33264C81.0355 6.07265 81.4255 6.59265 81.1655 6.33264V6.33264ZM58.4155 6.72264C58.2855 6.20264 58.9355 6.46265 58.4155 6.72264C58.4155 7.11265 57.7655 6.85264 58.4155 6.72264ZM84.9355 6.72264C84.8055 6.46265 85.1955 6.85264 84.9355 6.72264V6.72264ZM88.7055 7.37264C87.5355 7.63265 87.2755 6.98264 86.4955 6.98264C86.8855 5.94265 87.7955 7.50264 88.7055 6.98264V7.37264C89.0955 8.54264 90.6555 6.98264 88.7055 7.37264ZM92.0855 8.15264C91.6955 9.32264 90.9155 7.89265 90.1355 8.15264C90.5255 7.11265 91.4355 8.41265 92.0855 8.15264ZM92.4755 10.3626C91.9555 10.4926 92.2155 9.84264 92.4755 10.3626C92.8655 10.3626 92.6055 11.0126 92.4755 10.3626ZM93.5155 10.7526C93.1255 10.8826 93.3855 10.2326 93.5155 10.7526C94.0355 10.7526 93.7755 11.2726 93.5155 10.7526ZM93.1255 14.5226C88.8355 11.9226 80.3855 12.9626 76.7455 11.5326C85.7155 11.2726 92.3455 12.9626 98.4555 15.3026C99.6255 15.4326 97.4155 16.7326 99.2355 16.3426C99.2355 16.0826 99.8855 15.9526 99.8855 16.3426C100.406 16.3426 100.146 16.9926 99.8855 16.3426H99.2355V17.1226C99.6255 17.1226 99.3655 17.6426 99.2355 17.1226C97.9355 18.8126 95.3355 17.1226 95.0755 19.3326C93.2555 18.4226 89.8755 21.8026 86.7555 22.0626C86.8855 22.7126 87.7955 22.4526 87.5355 23.4926C83.2455 24.4026 76.4855 24.7926 72.9755 20.1126C72.0655 20.3726 73.3655 20.7626 72.5855 21.2826C72.8455 21.2826 72.9755 21.2826 72.9755 21.6726C73.3655 21.5426 73.2355 22.1926 72.9755 21.6726C72.7155 21.6726 72.5855 21.5426 72.5855 21.2826C72.0655 21.2826 72.1955 20.6326 71.8055 20.5026C71.9355 21.0226 71.2855 20.7626 71.8055 20.5026V20.1126C71.6755 20.1126 71.4155 19.8526 71.8055 19.7226C71.5455 19.0726 70.8955 18.8126 69.9855 18.6826V19.0726C70.3755 18.9426 70.2455 19.5926 69.9855 19.0726C69.7255 18.9426 69.2055 19.0726 69.2055 18.6826C68.6855 19.0726 68.2955 19.0726 68.0355 18.2926C67.9055 18.2926 67.6455 18.1626 67.7755 17.9026C66.0855 17.9026 65.8255 16.3426 64.0055 16.3426C64.0055 16.8626 64.3955 16.9926 64.7855 17.1226C63.8755 18.2926 63.3555 16.0826 62.4455 16.0826C62.8355 14.9126 63.4855 16.4726 64.0055 16.3426C69.2055 11.9226 84.4155 12.1826 93.1255 14.5226ZM91.3055 11.9226C91.1755 11.7926 91.5655 12.1826 91.3055 11.9226V11.9226ZM95.4655 11.9226C95.3355 11.7926 95.7255 12.1826 95.4655 11.9226V11.9226ZM75.9655 12.3126C75.8355 12.1826 76.2255 12.5726 75.9655 12.3126V12.3126ZM103.266 16.3426C101.706 16.7326 103.266 15.3026 103.266 16.3426C103.786 16.3426 103.526 16.9926 103.266 16.3426ZM60.6255 16.7326C60.4955 16.6026 60.8855 16.9926 60.6255 16.7326V16.7326ZM61.7955 18.2926C60.7555 18.5526 61.0155 17.5126 60.2355 17.5126C60.7555 16.8626 62.7055 16.2126 62.4455 17.9026C62.3155 17.9026 62.0555 17.9026 62.0555 17.5126C61.7955 17.6426 61.6655 17.7726 61.7955 18.2926C61.9255 18.8126 62.1855 18.2926 61.7955 18.2926ZM102.486 17.9026C103.006 16.4726 103.006 19.3326 102.486 17.9026V17.9026ZM100.666 18.2926C100.536 18.1626 100.926 18.5526 100.666 18.2926V18.2926ZM99.8855 18.6826C99.7555 18.5526 100.146 18.9426 99.8855 18.6826V18.6826ZM57.6355 18.6826C57.6355 19.0726 57.1155 18.9426 56.8555 19.0726C56.8555 18.6826 57.3755 18.6826 57.6355 18.6826ZM98.8455 19.0726C99.7555 17.5126 99.3655 20.2426 98.8455 19.0726V19.0726ZM106.646 19.0726C106.516 18.8126 106.906 19.2026 106.646 19.0726V19.0726ZM58.4155 19.7226C58.2855 18.8126 60.8855 18.4226 60.2355 20.1126C59.1955 20.5026 59.3255 19.5926 58.4155 19.7226ZM57.2455 20.1126V19.3326H58.0255V20.1126H57.2455ZM93.5155 19.7226C93.3855 19.5926 93.7755 19.9826 93.5155 19.7226V19.7226ZM96.1155 19.7226C95.9855 19.5926 96.3755 19.9826 96.1155 19.7226V19.7226ZM105.476 19.7226C105.346 19.5926 105.736 19.9826 105.476 19.7226V19.7226ZM102.486 21.2826C102.616 20.1126 104.176 20.5026 104.826 19.7226C105.866 20.6326 103.266 21.0226 102.486 21.2826C102.356 21.6726 102.096 22.0626 101.446 22.0626C101.576 21.5426 101.966 21.2826 102.486 21.2826ZM93.9055 20.5026C93.9055 20.1126 94.4255 20.2426 93.9055 20.5026C93.9055 21.0226 93.3855 20.7626 93.9055 20.5026ZM107.036 20.5026C106.906 20.3726 107.296 20.7626 107.036 20.5026V20.5026ZM45.2855 26.0926C47.2355 24.1426 50.3555 21.2826 53.4755 21.6726C53.4755 22.1926 52.5655 21.9326 52.0455 22.0626C52.6955 22.4526 53.3455 23.2326 54.2555 23.4926C54.5155 24.6626 53.6055 24.6626 53.4755 25.4426C56.3355 25.8326 59.5855 26.0926 62.0555 26.8726C63.4855 28.9526 61.4055 31.5526 61.4055 32.0726C61.5355 32.0726 61.7955 32.4626 61.4055 32.4626C61.2755 32.9826 60.8855 32.9826 61.0155 33.6326C61.4055 33.6326 61.2755 34.1526 61.0155 33.6326C60.3655 33.6326 60.6255 34.5426 60.6255 35.0626C61.7955 35.1926 60.2355 36.6226 60.6255 35.0626C60.1055 36.2326 60.1055 37.7926 59.4555 38.8326C57.1155 38.7026 56.8555 43.7726 55.6855 45.9826C56.4655 45.7226 56.7255 44.9426 56.8555 44.1626C57.7655 45.4626 55.8155 47.0226 55.4255 48.1926H55.0355C54.9055 49.3626 54.1255 49.8826 53.8655 50.7926C53.3455 50.7926 53.6055 50.0126 53.8655 49.7526C51.6555 51.7026 50.6155 54.6926 49.3155 57.5526C50.6155 57.1626 50.3555 55.0826 51.6555 54.5626C51.2655 53.0026 52.6955 54.5626 51.6555 54.5626C51.1355 57.0326 49.3155 58.2026 49.0555 60.9326H49.3155C49.3155 60.5426 49.9655 60.6726 49.3155 60.9326C49.3155 61.1926 49.3155 61.7126 49.0555 61.7126V62.1026C50.0955 62.4926 48.7955 63.7926 48.2755 62.8826C48.2755 63.7926 48.0155 65.0926 49.0555 65.0926C48.9255 64.5726 49.5755 64.8326 49.0555 65.0926C53.8655 73.2826 59.9755 79.1326 71.8055 77.8326C71.0255 84.5926 68.0355 90.8326 69.5955 98.7626C72.3255 103.703 72.9756 112.283 72.1955 116.703C71.0255 116.573 70.8955 115.273 70.3755 114.493C69.4655 113.713 68.8155 112.803 68.0355 111.893C67.9055 111.893 67.6455 111.763 67.7755 111.503C67.2555 111.373 67.1255 111.113 66.9955 110.723C62.5755 105.783 58.2855 100.713 51.6555 97.9826C51.6555 98.3726 51.0055 98.5026 50.8755 97.9826C46.0655 96.4226 42.1655 94.4726 39.6955 92.3926C42.6855 87.8426 43.8555 81.3426 45.6755 75.4926C45.6755 75.1026 45.0255 75.2326 44.8955 74.8426C44.5055 63.2726 35.0155 60.6726 29.9455 53.7826C29.5555 50.9226 30.0755 48.8426 28.7755 45.9826C27.2155 46.5026 27.6055 45.2026 26.5655 45.2026C29.1655 39.3526 33.3255 35.0626 38.1355 31.4226C37.7455 31.4226 37.8755 30.7726 38.1355 31.4226H38.5255C38.5255 31.1626 38.5255 30.9026 38.9155 31.0326C38.9155 30.7726 38.9155 30.5126 39.3055 30.6426C39.3055 30.1226 39.4355 29.8626 39.6955 29.4726H39.9555C40.0855 29.2126 40.0855 29.0826 40.3455 29.0826C40.4755 28.9526 40.4755 28.6926 40.7355 28.6926C40.7355 28.5626 40.8655 28.3026 41.1255 28.4326C41.1255 28.1726 41.2555 27.9126 41.5155 28.0426C41.5155 27.5226 42.0355 27.7826 41.5155 28.0426C41.5155 28.1726 41.5155 28.4326 41.1255 28.4326C41.1255 28.5626 41.1255 28.8226 40.7355 28.6926C40.7355 28.9526 40.7355 29.2126 40.3455 29.0826C40.3455 29.3426 40.3455 29.6026 39.9555 29.4726C40.0855 30.1226 39.6955 30.5126 39.3055 30.6426C39.3055 30.9026 39.1755 31.0326 38.9155 31.0326C38.9155 31.2926 38.7855 31.4226 38.5255 31.4226C38.6555 32.5926 37.3555 32.2026 37.7455 33.6326C40.0855 31.9426 40.9955 28.9526 43.7255 27.6526C43.8555 27.2626 44.1155 27.0026 44.5055 26.8726C44.5055 26.4826 44.6355 25.9626 45.2855 26.0926ZM90.9155 21.6726C91.3055 20.1126 91.3055 23.1026 90.9155 21.6726V21.6726ZM75.5755 23.4926C75.4455 23.3626 75.8355 23.7526 75.5755 23.4926V23.4926ZM107.426 23.4926C107.426 23.1026 107.946 23.2326 107.426 23.4926C107.426 24.0126 106.906 23.7526 107.426 23.4926ZM77.3955 23.4926C77.3955 23.8826 77.0055 23.7526 76.7455 23.8826C76.7455 23.4926 77.1355 23.6226 77.3955 23.4926ZM97.2855 23.8826C97.1555 23.7526 97.5455 24.1426 97.2855 23.8826V23.8826ZM78.5655 23.8826C78.5655 24.2726 78.1755 24.1426 77.7855 24.2726C77.7855 23.8826 78.3055 24.0126 78.5655 23.8826ZM62.8355 28.0426C63.2255 26.4826 63.2255 29.4726 62.8355 28.0426V28.0426ZM116.006 28.6926C115.876 28.5626 116.266 28.9526 116.006 28.6926V28.6926ZM101.446 98.7626C99.4955 91.4826 91.0455 81.7326 92.0855 71.8526C92.7356 65.8726 97.6755 62.8826 99.2355 56.5126C90.3955 43.1226 106.776 31.2926 117.566 30.6426C132.646 53.0026 119.256 89.0126 102.226 99.9326C101.446 99.9326 101.316 99.5426 101.446 98.7626C101.186 98.2426 100.926 98.7626 101.446 98.7626ZM71.8055 46.3726C71.1555 44.4226 73.3655 42.2126 73.3655 39.6126C74.9255 41.0426 72.0655 44.2926 71.8055 46.3726ZM58.0255 42.9927C56.9855 42.4726 58.2855 41.0426 58.4155 40.3926C59.3255 40.9126 57.7655 42.0826 58.0255 42.9927ZM86.1055 41.4326C86.1055 41.8226 85.5855 41.8226 85.3255 41.8226C85.3255 41.4326 85.7155 41.5626 86.1055 41.4326ZM73.3655 44.1626C73.7555 42.6026 73.7555 45.5926 73.3655 44.1626V44.1626ZM72.5855 45.9826C72.9755 44.5526 72.9755 47.4126 72.5855 45.9826V45.9826ZM72.1955 47.4126C72.1955 47.0226 72.7155 47.2826 72.1955 47.4126C72.1955 47.9326 71.6755 47.6726 72.1955 47.4126ZM87.9255 48.5826C87.7955 48.4526 88.1855 48.8426 87.9255 48.5826V48.5826ZM71.4155 48.9726C71.2855 48.8426 71.6755 49.2326 71.4155 48.9726V48.9726ZM87.5355 49.3626C87.4055 49.2326 87.7955 49.6226 87.5355 49.3626V49.3626ZM87.1455 52.7426C87.2755 51.7026 87.0155 50.2726 87.5355 49.7526C88.0555 49.8826 88.4455 53.1326 87.1455 52.7426ZM70.7655 50.5326C70.5055 50.2726 71.0255 50.6626 70.7655 50.5326V50.5326ZM88.3155 50.7926C88.1855 50.6626 88.5755 51.0526 88.3155 50.7926V50.7926ZM128.746 51.1826C128.616 51.0526 129.006 51.4426 128.746 51.1826V51.1826ZM52.6955 53.1326C51.6555 52.8726 53.0855 52.3526 52.6955 51.5726C53.7355 51.7026 52.8255 52.8726 52.6955 53.1326ZM88.7055 51.9626C89.0955 50.5326 89.0955 53.3926 88.7055 51.9626V51.9626ZM69.5955 52.3526C69.8555 52.3526 69.9855 52.2226 69.9855 51.9626C70.6355 51.8326 70.5055 53.6526 69.5955 53.1326V52.3526ZM69.2055 54.5626C68.8155 53.0026 70.3755 54.5626 69.2055 54.5626C69.2055 55.0826 68.6855 54.8226 69.2055 54.5626ZM19.4155 54.5626C19.2855 54.4326 19.6755 54.8226 19.4155 54.5626V54.5626ZM20.9755 54.9526C21.1055 55.2126 20.7155 54.8226 20.9755 54.9526V54.9526ZM87.1455 55.3426C87.6655 53.9126 87.6655 56.7726 87.1455 55.3426V55.3426ZM129.136 55.7326C129.006 55.6026 129.396 55.9926 129.136 55.7326V55.7326ZM67.3855 56.5126C67.2555 56.2526 67.6455 56.6426 67.3855 56.5126V56.5126ZM68.4255 56.5126C68.2955 56.2526 68.6855 56.6426 68.4255 56.5126V56.5126ZM68.0355 57.5526C67.7755 55.9926 69.2055 57.5526 68.0355 57.5526C68.1655 58.0726 67.5155 57.8126 68.0355 57.5526ZM50.4855 58.7226C50.3555 58.5926 50.7455 58.9826 50.4855 58.7226V58.7226ZM65.8255 59.5026C66.3456 57.9426 66.3456 60.9326 65.8255 59.5026V59.5026ZM49.7055 59.8926C49.5755 59.6326 49.9655 60.0226 49.7055 59.8926V59.8926ZM12.6555 60.5426C12.5255 60.4126 12.9155 60.8026 12.6555 60.5426V60.5426ZM65.0455 60.9326C64.7855 59.3726 66.2155 60.9326 65.0455 60.9326C65.1755 61.4526 64.5256 61.1926 65.0455 60.9326ZM64.3955 62.4926C64.1355 62.2326 64.6555 62.7526 64.3955 62.4926V62.4926ZM14.2155 63.1426C13.8255 61.5826 15.2555 63.1426 14.2155 63.1426C14.6055 65.2226 13.0455 63.6626 14.2155 63.1426ZM129.916 63.5326C129.526 61.5826 130.956 63.1426 129.916 63.5326C129.916 64.0526 129.266 63.7926 129.916 63.5326ZM65.0455 63.1426C65.3055 61.7126 64.7855 65.3526 65.0455 63.1426V63.1426ZM128.746 63.5326C128.616 63.4026 129.006 63.7926 128.746 63.5326V63.5326ZM17.5955 65.4826C17.4655 64.9626 18.1155 65.2226 17.5955 65.4826C17.8555 67.0426 16.4255 65.4826 17.5955 65.4826ZM49.3155 65.8726C49.5755 66.0026 49.1855 65.6126 49.3155 65.8726V65.8726ZM71.4155 67.3026C71.9355 65.8726 71.9355 68.8626 71.4155 67.3026V67.3026ZM77.3955 69.2526C77.9155 67.6926 77.9155 70.6826 77.3955 69.2526V69.2526ZM14.9955 69.5126C15.3855 68.0826 15.3855 71.0726 14.9955 69.5126V69.5126ZM75.1855 70.6826C75.0555 70.5526 75.4455 70.9426 75.1855 70.6826V70.6826ZM16.0355 71.0726C15.9055 70.9426 16.2955 71.3326 16.0355 71.0726V71.0726ZM19.0255 72.2426C18.8955 71.9826 19.2855 72.3726 19.0255 72.2426V72.2426ZM75.9655 72.2426C75.8355 71.9826 76.2255 72.3726 75.9655 72.2426V72.2426ZM43.7255 73.2826C44.2455 71.8526 44.2455 74.8426 43.7255 73.2826V73.2826ZM82.3355 75.8826C81.1655 75.8826 82.7255 74.3226 82.3355 75.8826C82.5955 76.0126 82.7255 76.2726 82.7255 76.6626C83.1155 76.6626 82.9855 77.1826 82.7255 76.6626C82.4655 76.5326 82.2055 76.4026 82.3355 75.8826ZM126.146 80.0426C126.016 79.9126 126.406 80.3026 126.146 80.0426V80.0426ZM43.0755 82.2526C43.2055 82.5126 42.8155 82.1226 43.0755 82.2526V82.2526ZM124.976 82.2526C124.846 82.1226 125.236 82.5126 124.976 82.2526V82.2526ZM124.586 83.0326C125.106 81.6026 125.106 84.4626 124.586 83.0326V83.0326ZM25.7855 86.4126C25.3955 86.4126 25.5255 85.8926 25.7855 86.4126C26.9555 86.5426 25.3955 87.9726 25.7855 86.4126ZM41.1255 87.9726C40.7355 86.4126 42.2955 87.8426 41.1255 87.9726C41.5155 89.4026 39.9555 87.9726 41.1255 87.9726ZM1.86554 88.6226C1.73554 88.4926 2.12554 88.8826 1.86554 88.6226V88.6226ZM26.5655 89.0126C26.0455 89.0126 26.3055 88.4926 26.5655 89.0126C27.6055 89.1426 26.1755 90.5726 26.5655 89.0126ZM41.1255 89.0126C41.1255 89.4026 40.7355 89.2726 40.3455 89.4026C40.3455 89.0126 40.8655 89.1426 41.1255 89.0126ZM26.9555 90.5726C27.3455 89.0126 27.3455 92.0026 26.9555 90.5726V90.5726ZM2.51554 90.9626C2.38554 90.7026 2.77554 91.0926 2.51554 90.9626V90.9626ZM27.6055 92.0026C26.5655 92.0026 27.9955 90.4426 27.6055 92.0026C28.2555 92.3926 28.2555 93.1726 28.3855 93.9526C27.6055 93.8226 27.6055 92.9126 27.6055 92.0026ZM26.5655 93.5626C26.4355 93.4326 26.8255 93.8226 26.5655 93.5626V93.5626ZM16.0355 96.5526C15.9055 96.4226 16.2955 96.8126 16.0355 96.5526V96.5526ZM112.626 99.1526C112.496 99.0226 112.886 99.4126 112.626 99.1526V99.1526ZM43.3355 99.9326C42.9455 99.9326 43.2055 99.2826 43.3355 99.9326C44.7655 100.583 46.9755 100.583 47.4955 102.143C47.2355 102.273 47.1055 102.403 47.1055 102.923C45.6755 102.013 43.9855 101.493 43.3355 99.9326ZM31.7655 102.143C31.6355 102.013 32.0255 102.403 31.7655 102.143V102.143ZM32.1555 103.313C31.7655 103.313 31.8955 102.663 32.1555 103.313C32.5455 103.183 32.4155 103.833 32.1555 103.313ZM94.2955 103.963C94.6855 102.533 94.6855 105.523 94.2955 103.963V103.963ZM32.5455 104.353C32.4155 104.223 32.8055 104.613 32.5455 104.353V104.353ZM19.4155 104.743C19.2855 104.613 19.6755 105.003 19.4155 104.743V104.743ZM86.7555 105.133C87.2755 103.703 87.2755 106.563 86.7555 105.133V105.133ZM94.6855 105.133C94.5555 105.003 94.9455 105.393 94.6855 105.133V105.133ZM95.0755 105.913C94.9455 105.783 95.3355 106.173 95.0755 105.913V105.913ZM84.5455 106.303C84.4155 106.043 84.8055 106.563 84.5455 106.303V106.303ZM87.1455 106.693C87.0155 106.433 87.4055 106.823 87.1455 106.693V106.693ZM93.5155 106.693C93.3855 106.433 93.7755 106.823 93.5155 106.693V106.693ZM86.1055 110.333C85.1955 109.423 84.6755 108.253 84.5455 106.693C85.5855 107.343 85.7155 109.033 86.1055 110.333C85.7155 111.893 87.1455 110.463 86.1055 110.333ZM86.1055 108.903C85.9755 108.773 86.3655 109.163 86.1055 108.903V108.903ZM87.5355 108.903C87.4055 108.773 87.7955 109.163 87.5355 108.903V108.903ZM83.5055 109.293C83.6355 109.553 83.2455 109.033 83.5055 109.293V109.293ZM101.056 109.683C100.926 109.423 101.316 109.813 101.056 109.683V109.683ZM23.9655 109.943C24.2255 110.203 23.7055 109.813 23.9655 109.943V109.943ZM84.1555 109.943C83.7655 110.073 84.0255 109.423 84.1555 109.943C85.0655 110.073 84.9355 110.983 84.9355 111.893C83.6355 112.283 84.4155 110.723 84.1555 109.943ZM86.7555 110.333C87.2755 108.903 87.2755 111.893 86.7555 110.333V110.333ZM99.8855 110.333C99.8855 109.943 100.406 110.203 99.8855 110.333C100.016 110.853 99.3655 110.593 99.8855 110.333ZM25.0055 110.723C24.8755 110.593 25.2655 110.983 25.0055 110.723V110.723ZM24.3555 111.503C24.4855 111.763 24.0955 111.373 24.3555 111.503V111.503ZM97.2855 112.283C97.1555 112.153 97.5455 112.543 97.2855 112.283V112.283ZM96.1155 112.933C95.9855 112.803 96.3755 113.193 96.1155 112.933V112.933ZM94.6855 114.103C94.5555 113.973 94.9455 114.363 94.6855 114.103V114.103ZM62.8355 116.053C62.7055 115.793 63.0955 116.183 62.8355 116.053V116.053ZM90.9155 116.053C91.0455 114.883 92.4755 116.313 90.9155 116.053C90.9155 116.443 90.3955 116.183 90.9155 116.053ZM62.4455 116.053C62.4455 116.313 62.0555 116.313 61.7955 116.313C61.7955 116.053 62.1855 116.053 62.4455 116.053ZM64.3955 118.263C64.5255 117.353 63.6155 117.483 64.0055 116.313C64.9155 117.613 65.4355 116.833 66.6055 117.873C65.9555 118.653 65.3055 118.523 64.3955 118.263C64.2655 118.783 63.4855 118.523 62.8355 118.653C62.4455 119.303 60.3655 118.653 61.4055 117.483C60.8855 117.483 61.1455 116.963 61.4055 117.483C61.9255 117.613 61.9255 118.133 62.4455 118.263V117.483C63.6155 117.223 63.6155 118.133 64.3955 118.263ZM62.8355 117.093C62.7055 116.963 63.0955 117.353 62.8355 117.093V117.093ZM60.2355 117.873C60.6255 116.443 60.6255 119.303 60.2355 117.873V117.873ZM88.3155 118.653C89.2255 117.093 88.8355 119.823 88.3155 118.653V118.653ZM59.4555 119.043C59.3255 118.783 59.7155 119.173 59.4555 119.043V119.043ZM87.5355 119.043C87.5355 118.523 88.0555 118.783 87.5355 119.043C87.5355 119.693 87.2755 119.823 86.7555 119.303C86.2355 119.953 85.5855 120.343 84.5455 120.473C84.9355 119.693 85.4555 119.173 86.7555 119.303C86.8855 119.043 87.1455 118.913 87.5355 119.043ZM78.5655 122.683C78.4355 122.553 78.8255 122.943 78.5655 122.683V122.683ZM82.7255 123.073C82.5955 122.943 82.9855 123.333 82.7255 123.073V123.073ZM81.1655 123.463C81.2955 122.293 82.7255 123.853 81.1655 123.463C81.1655 124.633 79.6055 123.073 81.1655 123.463ZM73.7555 123.853C74.0155 124.113 73.4955 123.723 73.7555 123.853V123.853ZM79.3455 124.633C78.9555 124.633 78.8255 124.243 78.5655 124.243C78.5655 123.723 79.2155 123.853 79.3455 123.463C79.8655 123.593 79.6055 124.243 79.3455 124.633C79.3455 125.673 80.9055 124.243 79.3455 124.633ZM72.5855 124.243C72.4555 124.113 72.8455 124.503 72.5855 124.243V124.243ZM81.1655 124.243C81.1655 124.633 80.7755 124.503 80.5155 124.633C80.5155 124.243 80.9055 124.373 81.1655 124.243ZM69.9855 124.633C69.8555 125.023 69.3355 124.893 68.8155 125.023C68.9455 124.503 69.4655 124.633 69.9855 124.633ZM72.1955 125.673C72.0655 125.543 72.4555 125.933 72.1955 125.673V125.673ZM39.3055 126.843C39.1755 126.713 39.5655 127.103 39.3055 126.843V126.843ZM40.3455 126.843C40.2155 126.713 40.6055 127.103 40.3455 126.843V126.843ZM72.1955 126.843C72.0655 126.713 72.4555 127.103 72.1955 126.843V126.843ZM67.7755 127.233C68.6855 125.803 68.2955 128.403 67.7755 127.233V127.233ZM70.3755 126.843C70.3755 127.233 69.8555 127.103 69.5955 127.233C69.5955 126.843 70.1155 126.973 70.3755 126.843ZM66.9955 127.623C66.8655 127.493 67.2555 127.883 66.9955 127.623V127.623ZM81.5555 1.00264C81.6855 0.0926452 81.1655 0.352642 81.1655 1.00264H81.5555ZM61.0155 1.78265C61.5355 1.52264 60.8855 1.39264 61.0155 1.78265V1.78265ZM62.8355 2.17264C64.1355 1.00264 61.5355 1.52264 62.8355 2.17264V2.17264ZM61.0155 1.78265C60.4955 2.04264 61.0155 2.30265 61.0155 1.78265V1.78265ZM59.8455 2.56264C59.7155 2.43265 60.1055 2.82265 59.8455 2.56264V2.56264ZM61.0155 2.95265C61.2755 2.82265 61.6655 2.95265 61.7955 2.56264C61.4055 2.69264 61.0155 2.56264 61.0155 2.95265ZM57.6355 3.73264C57.8955 3.60265 58.4155 3.60265 58.4155 3.34264C58.0255 3.34264 57.6355 3.34264 57.6355 3.73264ZM52.4355 5.16264C52.1755 5.03264 52.5655 5.42265 52.4355 5.16264V5.16264ZM57.6355 5.16264C57.8955 5.03264 58.4155 5.16264 58.4155 4.77265C58.0255 4.90264 57.6355 4.77265 57.6355 5.16264ZM56.8555 5.55264C57.3755 5.29265 56.8555 5.03264 56.8555 5.55264V5.55264ZM51.6555 5.94265C52.1755 5.68264 51.5255 5.42265 51.6555 5.94265V5.94265ZM55.6855 5.94265C56.3355 5.94265 56.8555 5.94265 56.8555 5.55264C56.3355 5.55264 55.8155 5.42265 55.6855 5.94265ZM51.2655 6.33264C51.5255 6.33264 51.6555 6.20264 51.6555 5.94265C51.2655 5.81265 51.2655 6.07265 51.2655 6.33264ZM51.2655 6.33264C50.7455 6.46265 51.2655 6.72264 51.2655 6.33264V6.33264ZM69.5955 14.5226C69.4655 14.3926 69.8555 14.7826 69.5955 14.5226V14.5226ZM93.1255 14.5226C93.2555 14.9126 93.9055 14.7826 94.2955 14.9126C94.2955 14.5226 93.6455 14.5226 93.1255 14.5226ZM95.4655 15.3026C95.3355 14.1326 93.9055 15.6926 95.4655 15.3026V15.3026ZM95.4655 15.3026C95.4655 16.3426 97.0255 14.9126 95.4655 15.3026V15.3026ZM96.8955 16.0826C97.1555 16.2126 96.7655 15.8226 96.8955 16.0826V16.0826ZM66.6055 16.7326C66.3455 16.2126 66.0855 16.8626 66.6055 16.7326V16.7326ZM66.6055 16.7326C66.6055 17.1226 66.9955 17.1226 67.3855 17.1226C67.3855 16.7326 66.8655 16.8626 66.6055 16.7326ZM67.3855 17.1226C67.3855 17.5126 67.7755 17.5126 67.7755 17.9026H68.0355C68.2955 17.2526 67.7755 17.2526 67.3855 17.1226ZM68.0355 18.2926C68.5555 18.2926 69.2055 18.1626 69.2055 18.6826H69.9855C69.8555 17.7726 69.0755 17.9026 68.0355 17.9026V18.2926ZM91.6955 19.7226C91.9555 19.7226 92.4755 19.7226 92.4755 19.3326C92.0855 19.4626 91.6955 19.4626 91.6955 19.7226ZM71.8055 20.1126C72.3255 20.1126 72.0655 19.7226 71.8055 19.7226V20.1126ZM90.5255 20.1126C92.0855 20.5026 90.6555 19.0726 90.5255 20.1126V20.1126ZM90.5255 20.1126C88.5755 19.7226 90.1355 21.2826 90.5255 20.1126V20.1126ZM85.3255 23.1026C85.8455 22.9726 85.3255 22.7126 85.3255 23.1026V23.1026ZM85.3255 23.1026C83.7655 22.8426 85.1955 24.2726 85.3255 23.1026V23.1026ZM48.6655 23.8826C48.5355 23.7526 48.9255 24.1426 48.6655 23.8826V23.8826ZM45.2855 26.0926C45.6755 26.0926 45.5455 26.7426 45.2855 26.0926V26.0926ZM44.5055 26.8726C44.7655 27.3926 45.0255 26.8726 44.5055 26.8726V26.8726ZM43.7255 27.6526C44.2455 27.6526 43.9855 28.1726 43.7255 27.6526V27.6526ZM43.0755 28.6926C42.8155 28.5626 43.2055 28.9526 43.0755 28.6926V28.6926ZM61.0155 31.0326C61.2755 30.9026 61.6655 31.0326 61.7955 30.6426C61.4055 30.7726 61.0155 30.6426 61.0155 31.0326ZM61.4055 32.0726V32.4626C61.1455 32.4626 60.8855 32.2026 61.4055 32.0726ZM38.1355 34.8026C38.3955 34.9326 38.0055 34.5426 38.1355 34.8026V34.8026ZM58.6755 37.7926C58.9355 37.9226 58.5455 37.5326 58.6755 37.7926V37.7926ZM56.8555 40.3926C56.7255 40.2626 57.1155 40.6526 56.8555 40.3926V40.3926ZM56.4655 41.1726C56.7255 41.3026 56.3355 40.9126 56.4655 41.1726V41.1726ZM56.0755 42.2126C56.5955 43.7726 56.5955 40.7826 56.0755 42.2126V42.2126ZM55.0355 44.8126C54.7755 44.6826 55.2955 45.0726 55.0355 44.8126V44.8126ZM54.6455 45.5926C54.5155 45.4626 54.9055 45.8526 54.6455 45.5926V45.5926ZM54.2555 46.3726C54.1255 46.2426 54.5155 46.6326 54.2555 46.3726V46.3726ZM55.6855 45.9826C54.7755 46.2426 54.7755 47.5426 54.2555 48.1926H55.0355C54.9055 47.1526 55.8155 47.0226 55.6855 45.9826ZM54.2555 48.1926C53.8655 48.4526 53.7355 48.8426 53.4755 49.3626C54.2555 49.4926 54.2555 48.8426 54.2555 48.1926ZM52.6955 49.3626C53.8655 49.2326 52.4355 47.8026 52.6955 49.3626V49.3626ZM52.6955 49.3626C52.1755 49.6226 52.8255 49.7526 52.6955 49.3626V49.3626ZM51.6555 51.1826C51.5255 51.0526 51.9155 51.4426 51.6555 51.1826V51.1826ZM50.8755 52.7426C51.3955 52.4826 50.8755 52.2226 50.8755 52.7426V52.7426ZM50.8755 52.7426C50.4855 52.7426 50.6155 53.1326 50.4855 53.5226C50.8755 53.3926 50.7455 53.0026 50.8755 52.7426ZM129.916 53.5226C130.436 53.2626 129.786 53.0026 129.916 53.5226V53.5226ZM50.4855 53.5226C49.9655 53.6526 50.4855 53.9126 50.4855 53.5226V53.5226ZM129.526 53.7826C129.786 53.9126 129.916 53.6526 129.916 53.5226H129.526V53.7826ZM49.7055 54.5626C49.5755 54.4326 49.9655 54.8226 49.7055 54.5626V54.5626ZM48.6655 56.7726C48.5355 56.6426 48.9255 57.0326 48.6655 56.7726V56.7726ZM48.2755 57.5526C48.1455 57.4226 48.5355 57.8126 48.2755 57.5526V57.5526ZM49.3155 57.5526C48.7955 57.8126 49.4455 58.0726 49.3155 57.5526V57.5526ZM47.8855 58.3326C47.7555 58.2026 48.1455 58.5926 47.8855 58.3326V58.3326ZM48.6655 59.5026C49.7055 58.9826 48.2755 57.4226 48.6655 59.5026V59.5026ZM48.6655 59.5026H48.2755C48.0155 59.7626 47.6255 60.5426 48.2755 60.5426C48.4055 60.2826 48.6655 60.0226 48.6655 59.5026ZM49.0555 60.9326V61.7126C48.6655 61.7126 48.5355 61.0626 49.0555 60.9326ZM49.0555 62.1026C49.0555 62.4926 48.4055 62.3626 49.0555 62.1026V62.1026ZM130.956 64.3126C130.826 64.1826 131.216 64.5726 130.956 64.3126V64.3126ZM130.566 65.0926C130.826 65.6126 130.176 67.0426 130.956 66.9126C131.346 66.6526 131.996 64.7026 130.566 65.0926ZM130.566 67.3026C131.086 68.2126 129.526 68.8626 130.566 69.2526C130.826 68.9926 131.476 67.4326 130.566 67.3026ZM130.566 69.5126C130.566 70.0326 129.916 70.4226 130.566 70.6826C130.696 70.2926 131.346 69.9026 130.566 69.5126ZM130.306 71.8526C130.046 71.5926 130.436 72.1126 130.306 71.8526V71.8526ZM129.136 75.8826C130.306 75.1026 128.746 73.5426 129.136 75.8826V75.8826ZM129.136 75.8826C128.746 76.1426 128.616 76.6626 128.356 77.0526C129.136 77.1826 129.136 76.5326 129.136 75.8826ZM128.356 77.4426C128.876 78.3526 127.316 79.0026 128.356 79.2626C128.616 79.1326 129.266 77.5726 128.356 77.4426ZM45.2855 78.2226C45.5455 78.4826 45.1555 77.9626 45.2855 78.2226V78.2226ZM66.2155 78.6126C66.6055 78.4826 67.2555 78.6126 67.3855 78.2226C66.8655 78.2226 66.3455 78.0926 66.2155 78.6126ZM68.0355 78.6126C68.4255 78.4826 68.8155 78.4826 68.8155 78.2226C68.5555 78.2226 68.1655 78.2226 68.0355 78.6126ZM69.5955 78.8726C69.4655 78.7426 69.8555 79.1326 69.5955 78.8726V78.8726ZM44.8955 78.8726C45.4155 80.3026 43.7255 81.4726 44.8955 82.2526C44.6355 80.9526 46.3255 79.2626 44.8955 78.8726ZM127.316 81.2126C127.836 80.9526 127.186 80.6926 127.316 81.2126V81.2126ZM127.316 81.2126C125.756 82.1226 126.406 84.9826 124.976 86.0226C126.796 85.5026 127.056 83.2926 127.316 81.2126ZM124.196 85.6326C125.366 85.6326 123.936 84.0726 124.196 85.6326V85.6326ZM124.196 85.6326C123.676 85.8926 124.326 86.1526 124.196 85.6326V85.6326ZM123.546 86.4126V87.1926C123.936 87.0626 123.936 86.4126 123.546 86.4126ZM123.936 89.4026C124.456 88.8826 125.236 87.8426 124.586 87.1926C125.106 87.1926 125.236 87.0626 125.366 86.8026C124.326 86.0226 123.286 88.3626 123.936 89.4026ZM123.546 87.1926C123.156 87.1926 123.156 87.5826 122.766 87.5826C122.636 87.9726 122.896 88.2326 123.156 88.2326C123.286 87.9726 123.546 87.7126 123.546 87.1926ZM121.986 89.7926C122.506 89.5326 121.986 89.2726 121.986 89.7926V89.7926ZM123.936 89.4026C123.546 89.4026 123.546 89.9226 123.546 90.1826C123.936 90.1826 123.806 89.6626 123.936 89.4026ZM121.596 90.1826C121.986 90.1826 121.986 90.0526 121.986 89.7926C121.726 89.6626 121.596 89.9226 121.596 90.1826ZM121.596 90.1826C120.556 90.1826 121.986 91.7426 121.596 90.1826V90.1826ZM123.546 90.1826C123.026 90.4426 123.546 90.5726 123.546 90.1826V90.1826ZM120.556 91.6126C121.076 92.9126 121.466 90.1826 120.556 91.6126V91.6126ZM122.376 91.2226C122.376 91.7426 121.726 92.1326 122.376 92.3926C122.376 92.0026 123.026 91.6126 122.376 91.2226ZM119.776 92.3926C119.386 94.2126 121.466 92.0026 119.776 92.3926V92.3926ZM118.996 93.9526C119.516 93.6926 118.996 93.4326 118.996 93.9526V93.9526ZM118.996 93.9526C118.606 93.9526 118.736 94.3426 118.606 94.6026C118.996 94.6026 118.996 94.2126 118.996 93.9526ZM120.556 94.6026C121.076 94.4726 120.426 94.2126 120.556 94.6026V94.6026ZM118.606 94.6026C118.086 94.8626 118.736 95.1226 118.606 94.6026V94.6026ZM120.556 94.6026C119.906 94.8626 120.556 95.1226 120.556 94.6026V94.6026ZM46.0655 95.7726C45.8055 95.6426 46.1955 96.0326 46.0655 95.7726V95.7726ZM119.776 95.7726C120.296 95.5126 119.776 95.3826 119.776 95.7726V95.7726ZM117.566 96.1626C117.306 96.0326 117.826 96.4226 117.566 96.1626V96.1626ZM119.776 95.7726C119.256 96.0326 119.776 96.1626 119.776 95.7726V95.7726ZM117.176 96.9426C117.696 96.6826 117.046 96.4226 117.176 96.9426V96.9426ZM116.786 97.3326C117.046 97.3326 117.176 97.0726 117.176 96.9426C116.786 96.8126 116.786 97.0726 116.786 97.3326ZM50.8755 97.5926V97.3326C50.4855 97.3326 50.6155 97.5926 50.8755 97.5926ZM116.396 97.5926C116.656 97.7226 116.786 97.4626 116.786 97.3326C116.396 97.2026 116.396 97.4626 116.396 97.5926ZM50.8755 97.9826H51.6555C51.6555 97.5926 51.1355 97.7226 50.8755 97.5926V97.9826ZM116.396 97.5926H116.006C115.876 97.9826 115.616 98.2426 115.616 98.7626C116.136 98.6326 116.396 98.2426 116.396 97.5926ZM4.85554 98.7626C4.72554 98.6326 5.11554 99.0226 4.85554 98.7626V98.7626ZM114.576 98.7626C114.836 98.8926 114.836 98.6326 114.836 98.3726C114.576 98.3726 114.576 98.5026 114.576 98.7626ZM114.186 99.1526C114.446 99.1526 114.446 99.0226 114.576 98.7626H114.186V99.1526ZM115.616 98.7626C115.096 99.0226 115.746 99.2826 115.616 98.7626V98.7626ZM113.796 99.5426C114.056 99.5426 114.186 99.4126 114.186 99.1526H113.796V99.5426ZM113.406 99.9326C113.666 99.9326 113.796 99.8026 113.796 99.5426H113.406V99.9326ZM114.836 99.9326C115.096 100.193 114.706 99.6726 114.836 99.9326V99.9326ZM5.63554 100.323C5.37554 100.063 5.76554 100.453 5.63554 100.323V100.323ZM113.016 100.323C113.406 100.323 113.406 100.063 113.406 99.9326H113.016V100.323ZM112.626 100.583C113.016 100.713 113.016 100.453 113.016 100.323H112.626V100.583ZM112.236 100.973C112.626 101.103 112.626 100.843 112.626 100.583H112.236V100.973ZM113.796 100.973C114.316 100.843 113.796 100.583 113.796 100.973V100.973ZM6.28554 101.363C6.80554 102.923 6.80554 99.9326 6.28554 101.363V101.363ZM111.846 101.363C112.236 101.493 112.236 101.233 112.236 100.973H111.846V101.363ZM113.796 100.973C113.276 101.233 113.796 101.493 113.796 100.973V100.973ZM111.586 101.363C111.586 101.753 111.326 101.753 111.196 101.753V102.143C111.846 102.273 111.846 101.883 111.846 101.363H111.586ZM110.806 102.143C110.806 102.533 111.196 102.403 111.196 102.143H110.806ZM111.846 102.923C112.496 102.663 111.846 102.403 111.846 102.923V102.923ZM109.246 103.313H109.636V102.923C109.376 102.793 109.246 103.053 109.246 103.313ZM111.586 103.313C111.846 103.313 111.846 103.053 111.846 102.923C111.586 102.793 111.586 103.053 111.586 103.313ZM109.636 103.313C109.896 103.833 110.156 103.183 109.636 103.313V103.313ZM111.196 103.573C111.456 103.703 111.456 103.443 111.586 103.313C111.196 103.183 111.196 103.443 111.196 103.573ZM110.806 103.963C111.066 104.093 111.196 103.833 111.196 103.573C110.806 103.573 110.806 103.833 110.806 103.963ZM110.416 104.353C110.676 104.483 110.806 104.223 110.806 103.963C110.416 103.963 110.416 104.093 110.416 104.353ZM110.026 104.743C110.286 104.873 110.416 104.613 110.416 104.353C110.026 104.353 110.026 104.483 110.026 104.743ZM109.636 105.133C110.026 105.263 110.026 105.003 110.026 104.743C109.766 104.743 109.636 104.873 109.636 105.133ZM9.27554 105.133C8.75554 105.393 9.40554 105.523 9.27554 105.133V105.133ZM109.246 105.523C109.636 105.523 109.636 105.393 109.636 105.133C109.376 105.003 109.246 105.263 109.246 105.523ZM109.246 105.523C108.726 105.783 109.376 105.913 109.246 105.523V105.523ZM107.816 106.953C107.686 106.823 108.076 107.213 107.816 106.953V106.953ZM110.026 106.953C109.896 106.823 110.286 107.213 110.026 106.953V106.953ZM107.036 107.733C107.556 107.473 107.036 107.343 107.036 107.733V107.733ZM107.036 107.733C106.516 107.993 107.036 108.253 107.036 107.733V107.733ZM104.046 109.943C104.696 110.073 104.956 109.683 105.216 109.293C104.566 109.293 104.176 109.553 104.046 109.943ZM13.0455 109.683C13.0455 109.943 13.1755 109.943 13.4355 109.943V109.683H13.0455ZM108.206 109.943C108.726 109.813 108.076 109.553 108.206 109.943V109.943ZM103.656 110.333C104.046 110.463 104.046 110.203 104.046 109.943C103.786 109.943 103.656 110.203 103.656 110.333ZM108.206 109.943C107.556 110.203 108.206 110.463 108.206 109.943V109.943ZM66.9955 110.723C67.5155 110.463 66.9955 110.333 66.9955 110.723V110.723ZM103.266 110.723C103.656 110.853 103.656 110.593 103.656 110.333C103.396 110.333 103.266 110.463 103.266 110.723ZM103.266 110.723C102.746 110.983 103.266 111.243 103.266 110.723V110.723ZM67.7755 111.503H68.0355C68.0355 111.113 67.7755 111.243 67.7755 111.503ZM102.226 111.503C102.746 111.243 102.096 110.983 102.226 111.503V111.503ZM68.0355 111.893C68.5555 111.763 68.2955 111.503 68.0355 111.503V111.893ZM102.226 111.503C101.576 111.763 102.226 111.893 102.226 111.503V111.503ZM105.866 111.893C105.736 111.763 106.126 112.153 105.866 111.893V111.893ZM99.8855 112.283C99.7555 112.153 100.146 112.543 99.8855 112.283V112.283ZM100.666 112.673C100.926 112.803 100.536 112.413 100.666 112.673V112.673ZM98.8455 112.933C98.5855 112.803 99.1055 113.193 98.8455 112.933V112.933ZM99.4955 113.323C99.3655 113.193 99.7555 113.583 99.4955 113.323V113.323ZM70.3755 114.493C70.8955 114.233 70.2455 114.103 70.3755 114.493V114.493ZM98.0655 114.493C97.9355 114.363 98.3255 114.753 98.0655 114.493V114.493ZM101.836 114.883C101.576 114.753 102.096 115.143 101.836 114.883V114.883ZM71.1555 115.273C70.8955 115.143 71.2855 115.533 71.1555 115.273V115.273ZM96.5055 114.883C96.5055 115.143 96.1155 115.273 96.1155 115.663C97.0255 115.923 97.9355 114.623 96.5055 114.883ZM94.6855 115.663C95.2055 115.403 94.6855 115.143 94.6855 115.663V115.663ZM94.6855 115.663C94.2955 115.663 94.4255 116.053 94.6855 116.053V115.663ZM94.6855 116.313C95.5955 116.443 95.3355 115.923 94.6855 116.053V116.313ZM96.1155 116.313C96.7655 116.183 96.1155 115.923 96.1155 116.313V116.313ZM94.6855 116.313C94.0355 116.313 93.6455 116.703 93.5155 117.093C94.1655 117.093 94.5555 116.833 94.6855 116.313ZM96.1155 116.313C95.7255 116.443 95.9855 116.703 96.1155 116.703V116.313ZM96.8955 116.703C97.4155 116.573 96.8955 116.313 96.8955 116.703V116.703ZM95.0755 117.093C94.9455 116.963 95.3355 117.353 95.0755 117.093V117.093ZM96.1155 117.093C96.6355 117.223 96.8955 117.093 96.8955 116.703H96.1155V117.093ZM98.0655 117.093C97.9355 116.963 98.3255 117.353 98.0655 117.093V117.093ZM92.8655 117.483H93.5155V117.093C93.1255 117.093 92.8655 117.223 92.8655 117.483ZM96.1155 117.093C95.5955 117.353 96.2455 117.613 96.1155 117.093V117.093ZM92.8655 117.483C91.3055 117.093 92.7355 118.653 92.8655 117.483V117.483ZM93.5155 117.483C93.5155 117.743 93.6455 117.873 93.9055 117.873C94.0355 117.483 93.7755 117.483 93.5155 117.483ZM91.3055 118.263C91.8255 118.003 91.3055 117.743 91.3055 118.263V118.263ZM93.9055 117.873C93.9055 118.133 93.5155 118.263 93.5155 118.653H94.2955C94.4255 118.263 94.5555 118.133 95.0755 118.263C94.9455 117.743 94.4255 117.873 93.9055 117.873ZM95.8555 118.263C96.3755 118.003 95.7255 117.743 95.8555 118.263V118.263ZM62.4455 118.263C62.4455 118.523 62.5755 118.653 62.8355 118.653C62.9655 118.263 62.7055 118.263 62.4455 118.263ZM90.5255 118.653H91.3055V118.263C90.9155 118.133 90.6555 118.263 90.5255 118.653ZM95.0755 118.263C95.0755 118.653 94.5555 118.523 94.2955 118.653C94.2955 118.913 93.9055 119.043 93.9055 119.303C94.8155 119.173 95.5955 118.913 95.8555 118.263H95.0755ZM91.3055 118.653C91.5655 119.173 91.8255 118.523 91.3055 118.653V118.653ZM92.8655 119.043C93.2555 119.043 93.5155 118.913 93.5155 118.653C93.1255 118.523 92.8655 118.653 92.8655 119.043ZM92.0855 119.303C92.4755 119.433 92.7355 119.303 92.8655 119.043C92.3455 118.913 92.0855 119.043 92.0855 119.303ZM92.0855 119.303C91.5655 119.563 92.0855 119.823 92.0855 119.303V119.303ZM93.9055 119.303C92.3455 119.043 93.9055 120.473 93.9055 119.303V119.303ZM90.5255 120.083C90.3955 119.953 90.7855 120.343 90.5255 120.083V120.083ZM92.4755 120.083C92.9955 119.823 92.3455 119.693 92.4755 120.083V120.083ZM89.8755 120.473C90.3955 120.213 89.7455 120.083 89.8755 120.473V120.473ZM92.4755 120.083C91.5655 119.953 91.0455 120.213 90.9155 120.863C91.6955 120.863 92.2155 120.603 92.4755 120.083ZM89.8755 120.473C88.3155 120.083 89.7455 121.643 89.8755 120.473V120.473ZM88.3155 121.253C88.8355 120.993 88.3155 120.733 88.3155 121.253V121.253ZM90.9155 120.863C90.3955 121.123 90.9155 121.253 90.9155 120.863V120.863ZM27.6055 121.253C27.8655 121.773 28.1255 121.253 27.6055 121.253V121.253ZM88.3155 121.253C86.7555 120.863 88.1855 122.293 88.3155 121.253V121.253ZM86.1055 122.033C86.4955 121.903 87.1455 122.033 87.1455 121.643C86.7555 121.643 86.1055 121.513 86.1055 122.033ZM88.7055 122.033C88.9655 122.163 88.5755 121.773 88.7055 122.033V122.033ZM87.5355 122.293C87.7955 122.293 88.3155 122.293 88.3155 122.033C88.0555 122.033 87.5355 122.033 87.5355 122.293ZM85.7155 123.073C86.6255 123.203 86.3655 122.683 85.7155 122.683V123.073ZM49.7055 129.833C49.5755 129.703 49.9655 130.093 49.7055 129.833V129.833ZM50.8755 130.223C51.1355 130.093 51.6555 130.223 51.6555 129.833C51.3955 129.963 50.8755 129.833 50.8755 130.223ZM54.6455 130.613C54.9055 130.483 55.2955 130.613 55.4255 130.223C55.0355 130.353 54.6455 130.223 54.6455 130.613Z" fill="#C4D600"/>
</svg>
