<svg width="243" height="142" viewBox="0 0 243 142" fill="none" xmlns="http://www.w3.org/2000/svg">
<path d="M178.578 17.6193C179.15 16.0944 179.341 11.3292 180.865 13.2353C181.628 -2.58503 151.893 -1.25078 139.123 3.89559C139.504 4.0862 140.266 3.89559 140.266 4.46741C139.885 4.27681 139.123 4.46741 139.123 3.89559C137.217 4.0862 132.07 6.18287 132.07 8.27953C130.355 6.75469 130.736 9.80439 129.211 9.99499C129.211 10.1856 128.83 10.5668 128.639 9.99499C127.686 9.99499 127.305 10.3762 127.114 10.948C127.305 10.948 127.686 11.5198 127.114 11.5198C127.114 11.9011 126.924 12.2823 126.543 12.0917C126.543 12.8541 125.78 12.4729 126.543 12.0917C126.543 11.7105 126.543 11.5198 127.114 11.5198V10.948C125.208 11.5198 124.446 13.0447 123.302 14.3789H124.255C124.255 13.9977 124.446 13.6165 124.827 13.8071C124.827 13.0447 125.59 13.4259 124.827 13.8071C124.827 14.1883 124.827 14.3789 124.255 14.3789C124.065 15.1414 123.493 15.7132 122.731 15.9038C122.731 16.285 122.54 16.6662 122.159 16.4756C122.159 16.8568 121.968 17.238 121.587 17.0474C121.587 17.4286 121.396 17.8099 121.015 17.6193C121.015 18.0005 121.015 18.1911 120.443 18.1911C120.443 18.5723 120.443 18.7629 119.871 18.7629C120.062 19.3347 119.109 19.1441 119.871 18.7629C119.871 18.3817 120.062 18.0005 120.443 18.1911C120.443 17.8099 120.634 17.4286 121.015 17.6193C121.015 17.238 121.015 17.0474 121.587 17.0474C121.587 16.6662 121.587 16.4756 122.159 16.4756C122.159 16.0944 122.159 15.9038 122.731 15.9038V14.9508C121.015 16.285 118.918 17.4286 118.347 19.9065C118.918 19.9065 118.918 20.8596 118.347 20.8596C118.156 21.2408 118.156 21.622 117.775 21.4314C117.775 22.1938 117.012 21.8126 117.775 21.4314C117.775 21.0502 117.775 20.8596 118.347 20.8596V19.9065C115.297 22.3844 113.2 26.0059 110.532 29.0556C110.532 27.3402 109.388 29.0556 108.435 27.5308C108.435 27.7214 107.863 28.1026 107.863 27.5308H108.435C108.626 26.959 109.579 27.1496 109.579 26.3871C108.435 24.8623 104.242 23.5281 105.576 21.4314C103.86 14.7602 93.7583 6.37347 85.3717 14.3789C85.3717 14.9508 84.6092 14.5696 85.3717 14.3789V13.8071C80.6065 16.8568 74.1259 18.1911 70.5044 23.7187H71.0762C71.0762 23.3374 71.0762 22.9562 71.648 23.1468C71.648 22.7656 72.0292 22.575 72.2198 23.1468H71.648C71.648 23.528 71.4574 23.7187 71.0762 23.7187C70.8856 24.0999 71.0762 24.6717 70.5044 24.6717C70.5044 25.4341 69.7419 25.0529 70.5044 24.6717V23.7187C65.1674 30.3899 64.405 41.8263 63.4519 51.166C63.6425 55.9311 63.2613 66.6051 65.5486 71.3703C60.4022 74.0387 51.2531 75.1824 44.2007 77.4697C34.861 72.8951 26.0931 68.1299 18.85 61.4587C19.0406 62.0305 18.6594 62.0305 18.2782 62.0305V62.6024C18.6594 62.6024 19.0406 62.793 18.85 63.1742C19.6125 63.1742 19.2313 63.9366 18.85 63.1742C18.6594 63.1742 18.2782 63.1742 18.2782 62.6024C18.0876 62.6024 17.7064 62.6024 17.897 62.0305C14.4661 60.5057 15.6097 62.2211 11.2258 62.6024C11.0352 63.5554 12.1788 64.1272 11.2258 64.3178C10.2728 63.1742 9.89154 64.1272 8.55729 64.3178C8.55729 67.9393 2.26728 69.6548 0.742432 73.6575C5.6982 80.1381 13.1318 84.3315 18.85 90.0497C13.8943 97.1021 6.84184 102.058 2.45789 109.873C3.22032 110.635 5.50759 110.063 4.17335 111.398C8.36669 111.016 6.27002 113.685 9.12911 114.829C8.93851 114.066 9.89154 114.447 9.12911 114.829C9.12911 115.4 9.70093 115.21 10.0821 115.4C10.0821 114.638 10.8446 115.019 10.0821 115.4C10.0821 115.782 10.8446 115.782 11.2258 115.972C11.4164 114.257 13.5131 116.353 11.2258 115.972C11.2258 118.069 11.607 116.163 12.9412 116.353C12.7506 116.925 12.3694 116.925 12.3694 117.497C13.8943 117.497 13.5131 116.544 14.4661 117.497C14.6567 117.116 14.4661 116.353 15.0379 116.353C15.0379 117.116 15.8003 117.116 15.6097 118.069H16.1815C16.944 115.782 19.9937 115.591 19.9937 112.541C19.8031 112.541 19.4219 112.16 19.9937 111.969C19.9937 111.779 20.1843 111.398 20.5655 111.398C20.7561 111.016 20.5655 110.445 21.1373 110.445C20.9467 110.826 21.1373 111.398 20.5655 111.398C20.5655 111.779 20.5655 112.16 19.9937 111.969V112.541C20.3749 112.732 20.5655 113.113 21.1373 113.113C21.1373 112.16 21.5185 111.779 22.281 111.398C22.0903 112.16 22.281 112.541 22.8528 112.541V110.445C23.4246 110.445 23.4246 111.016 24.3776 111.016C24.3776 110.254 24.5682 109.682 24.9494 109.301C24.5682 109.11 24.3776 108.92 24.3776 108.157C24.7588 108.348 25.5213 108.157 25.5213 108.729H26.0931C26.0931 108.348 26.0931 108.157 26.6649 108.157C26.6649 107.776 26.6649 107.585 27.2367 107.585C27.0461 107.014 27.9991 107.395 27.2367 107.585C27.0461 107.967 27.0461 108.348 26.6649 108.157C26.6649 108.538 26.4743 108.92 26.0931 108.729V109.873C26.4743 109.873 26.6649 109.873 26.6649 110.445H27.2367C27.9991 109.11 28.3804 107.585 31.0488 108.157V106.061C32.1925 107.395 32.3831 105.108 33.7173 104.917C33.7173 104.536 33.9079 104.155 34.2892 104.345C38.4825 102.82 40.198 98.627 43.6289 96.1491C44.9631 94.4336 48.7752 93.4806 50.6813 93.8618C50.6813 93.29 52.2062 93.29 52.3968 93.8618H50.6813C48.5846 94.8148 46.1068 95.5773 43.6289 96.1491V97.2927C51.2531 96.1491 55.0652 93.6712 62.3083 92.9088C63.4519 91.9557 65.358 91.9557 67.2641 91.7651C67.2641 94.4336 68.7889 92.1464 69.9325 93.29C72.601 105.87 79.4629 119.784 85.9435 127.409C86.1341 131.03 89.9462 135.795 92.9959 138.464C94.1396 137.129 95.855 137.129 97.3799 137.892C98.3329 135.223 100.048 136.367 101.192 137.892C100.62 136.176 102.526 136.939 103.479 136.748C103.479 137.892 101.954 137.511 102.336 138.845C103.479 139.226 103.098 137.892 104.051 137.892C104.432 138.273 104.623 139.036 104.623 139.989C107.291 139.607 107.673 141.323 109.579 138.845C110.532 139.036 110.532 140.37 111.675 140.56V138.845C111.104 139.036 111.294 138.082 111.675 138.845C112.247 139.417 112.438 139.989 112.819 140.56C114.153 140.56 114.344 139.607 116.059 139.989C115.869 139.607 115.487 139.226 115.487 138.464C116.822 139.036 117.394 140.179 118.918 140.56C120.062 139.798 117.775 138.845 119.871 138.845C115.297 123.215 127.877 112.16 132.642 100.533C131.88 100.533 131.689 101.295 131.498 100.533C131.498 99.9612 132.07 99.58 132.642 99.3894C132.642 99.0082 132.642 98.2458 133.023 98.2458C133.214 98.0551 133.214 97.6739 133.595 97.6739C133.595 97.1021 134.358 97.4833 133.595 97.6739C133.595 98.0552 133.595 98.4364 133.023 98.2458V99.3894C134.929 97.8645 136.454 95.9585 137.407 93.29H137.026C137.026 93.6712 136.454 94.0524 136.454 93.29C136.454 92.5276 137.979 91.5745 137.407 93.29C138.17 93.0994 138.551 92.7182 138.551 91.7651C137.979 91.7651 137.979 90.8121 138.551 90.6215V91.7651C140.838 91.5745 138.17 90.0497 139.694 89.4779C139.504 88.906 139.885 88.5248 140.266 88.5248C140.266 88.1436 140.266 87.7624 140.838 87.953C141.982 85.4751 143.125 83.3785 145.222 81.8536H152.846C152.846 81.0912 152.846 80.3288 153.418 80.1381C153.228 81.2818 155.896 82.0442 156.087 80.71C155.515 80.71 154.562 80.9006 154.562 80.1381C155.134 80.3288 156.087 80.1381 156.087 80.71C164.473 78.9945 182.39 76.326 191.349 75.7542C190.968 76.326 189.062 79.3757 189.062 76.8978H188.49C188.871 78.6133 186.965 78.0415 187.537 79.5663H187.918C187.918 79.3757 188.49 78.9945 188.49 79.5663H187.918C188.109 80.5194 187.537 81.0912 186.965 81.2818C186.965 82.616 186.774 83.3785 185.821 83.5691C186.202 85.4751 183.343 87 185.249 88.5248C185.631 87.3812 185.821 88.7154 185.821 89.4779C187.346 91.1933 185.631 92.9088 187.537 93.8618C187.346 93.29 188.299 93.6712 187.537 93.8618C187.918 95.1961 188.49 96.5303 189.062 97.6739C189.062 96.5303 189.633 95.9585 190.777 96.1491C190.205 96.9115 190.205 98.0551 189.633 98.8176C190.586 98.627 190.586 99.1988 190.777 99.9612H191.921C191.921 99.58 192.302 99.3894 192.302 99.9612H192.874C192.874 99.3894 193.636 99.58 192.874 99.9612C192.874 100.533 193.064 100.914 193.445 101.105C194.589 99.9612 193.636 99.0082 193.445 97.6739C194.78 98.4364 195.923 95.9585 194.589 95.5773C194.589 96.1491 194.399 96.9115 193.445 96.7209C193.636 95.9585 194.017 95.7679 194.589 95.5773C195.923 94.6242 196.114 92.7182 197.258 91.7651C196.686 91.7651 197.067 91.0027 197.258 91.7651C197.829 91.5745 198.401 91.1933 198.401 90.6215C196.686 90.6215 198.973 88.3342 198.973 90.0497C199.545 90.0497 199.354 89.4779 199.545 88.906C198.211 88.906 199.164 86.6188 200.117 86.8094C200.117 87.7624 199.545 87.953 199.545 88.906C202.785 86.0469 205.263 82.2348 208.313 79.1851C207.932 79.1851 207.741 78.6133 208.313 78.6133C208.313 78.2321 208.694 77.8509 208.885 78.6133C209.456 77.4697 211.362 77.8509 212.125 76.8978C211.934 76.8978 211.553 76.5166 212.125 76.326C212.887 74.42 214.984 73.8481 215.937 71.9421C215.746 71.9421 215.365 71.5609 215.937 71.3703V71.9421C218.224 70.7984 219.368 68.5112 222.036 67.5581C222.036 67.1769 222.036 66.9863 222.608 66.9863C222.608 66.6051 222.608 66.4145 223.18 66.4145C223.561 65.6521 223.943 64.699 225.277 64.8896C225.277 64.5084 225.467 64.1272 225.849 64.3178C225.849 63.9366 226.039 63.5554 226.42 63.746C226.42 62.9836 227.183 63.3648 226.42 63.746C226.42 64.1272 226.42 64.3178 225.849 64.3178C225.849 64.699 225.849 64.8896 225.277 64.8896C224.896 65.6521 224.514 66.6051 223.18 66.4145C223.18 66.7957 222.989 67.1769 222.608 66.9863C222.608 67.3675 222.418 67.7487 222.036 67.5581V68.1299H223.18C223.18 67.7487 223.18 67.5581 223.752 67.5581C223.561 66.9863 224.514 67.1769 223.752 67.5581C223.561 67.9393 223.561 68.1299 223.18 68.1299C222.989 68.5112 222.608 68.7018 222.036 68.7018C222.036 69.4642 221.846 70.7984 222.608 70.7984C224.514 68.7018 227.945 68.1299 229.661 65.8427C229.47 65.8427 229.089 65.4615 229.661 65.4615V65.8427C233.663 62.4118 240.144 61.2681 242.431 56.1217C240.716 54.2157 241.097 50.2129 240.716 48.8787C240.716 49.2599 240.335 49.4505 240.144 48.8787H240.716C240.525 48.1163 241.288 47.9257 241.288 47.3538C239.191 46.5914 240.525 46.0196 239 45.0666C239.763 44.4948 240.716 44.3041 240.716 42.7793C238.429 41.0638 237.857 38.9672 238.429 35.155C221.274 32.6772 203.357 32.8678 190.205 28.1026C190.777 29.8181 188.49 28.865 187.537 29.0556C188.49 30.9617 188.49 30.5805 187.537 32.4865C189.252 32.4865 187.918 33.4396 188.49 35.155C188.109 34.7738 186.965 34.3926 186.965 35.155C189.062 35.7269 187.727 36.4893 189.062 38.0141C187.155 38.0141 189.062 38.9672 187.537 39.539C188.109 39.7296 188.871 40.492 187.918 40.6826C187.346 40.1108 186.774 40.1108 186.965 41.2544C187.537 41.2544 187.155 42.0169 186.965 41.2544H186.393C185.821 42.9699 188.109 42.0169 187.918 43.3511C186.774 43.3511 186.012 43.5417 185.821 44.4948C186.202 44.6854 186.774 45.0666 186.965 45.6384C187.155 45.6384 187.537 46.0196 186.965 46.2102C186.393 48.1163 186.774 47.5445 186.393 49.4505C187.918 50.7848 190.968 50.7848 191.921 52.6908C192.302 52.8814 192.874 52.6908 192.874 53.2626H193.445C193.445 52.6908 194.399 52.6908 194.589 53.2626H193.445C193.445 53.6439 193.064 53.8345 192.874 53.2626C192.492 53.2626 191.921 53.2626 191.921 52.6908C181.628 53.072 171.526 56.6936 162.186 56.1217C162.186 55.1687 162.567 54.5969 163.33 54.4063C162.948 54.0251 162.758 53.4533 162.758 52.6908C161.042 53.4533 162.948 54.9781 160.089 54.9781C159.899 55.3593 159.899 56.1217 159.518 56.1217C159.518 57.2654 158.946 57.8372 157.802 57.6466C158.374 57.2654 157.993 55.7405 159.518 56.1217C159.518 55.5499 159.518 54.9781 160.089 54.9781C161.614 52.8814 162.377 49.6411 164.855 48.3069C164.855 44.6854 169.429 43.1605 168.285 40.1108H169.81C170.001 39.1578 169.238 38.9672 169.238 38.0141C170.763 38.3954 170.382 36.8705 171.526 36.8705C173.622 31.5335 173.813 24.8623 176.482 19.3347C174.957 16.4756 175.338 12.0917 173.241 8.85136C177.244 10.1856 174.957 17.6192 178.197 19.9065C178.006 18.3817 177.053 18.0005 178.578 17.6193ZM169.81 3.32378C169.62 3.13317 170.192 3.70498 169.81 3.32378V3.32378ZM173.813 3.32378C173.622 4.65801 171.907 3.51438 171.526 3.32378C171.907 1.60832 172.669 3.89559 173.813 3.32378ZM141.41 3.89559C141.601 4.27681 141.029 3.70498 141.41 3.89559V3.89559ZM175.91 8.27953C176.482 8.27953 176.482 7.3265 176.482 6.56408C178.006 6.75469 177.435 9.04196 175.91 8.85136V8.27953C175.528 7.51712 175.338 8.27953 175.91 8.27953ZM154.562 7.70772C154.371 7.1359 155.324 7.3265 154.562 7.70772C154.371 8.08893 153.99 8.27953 153.418 8.27953C153.418 8.85136 153.037 8.85136 152.846 9.42318C154.752 9.23258 155.324 7.70772 157.802 8.27953C159.136 10.3762 159.708 13.2353 160.471 15.9038C157.04 34.5832 146.938 46.782 137.979 59.9339C138.36 59.9339 138.741 60.3151 137.979 60.5057C136.073 61.8399 134.929 63.746 133.595 65.8427C133.976 65.8427 134.358 66.4145 133.595 66.4145C133.595 66.7957 133.595 67.1769 133.023 66.9863C132.261 68.1299 130.355 68.3206 130.355 70.2266C130.736 70.2266 130.927 70.7984 130.355 70.7984C128.639 72.5139 126.352 73.4669 126.543 76.8978C125.399 75.7542 125.399 77.0884 124.255 77.4697C125.018 80.71 118.918 84.3315 118.918 86.8094C118.728 86.0469 119.681 86.4282 118.918 86.8094C113.963 92.7182 109.96 99.0082 105.576 106.632C106.338 106.442 105.957 107.395 105.576 106.632C104.623 108.348 102.907 109.682 102.907 112.541C94.7114 100.914 89.9462 85.4751 86.5153 70.7984C86.1341 70.7984 85.7529 70.4172 86.5153 70.2266C82.8938 55.3593 82.1314 42.3981 85.3717 29.0556C95.0926 38.7766 96.9987 55.9311 104.051 68.1299C104.432 67.7487 105.957 66.7957 105.576 68.7018C106.338 68.5112 106.338 67.7487 106.148 66.9863C107.291 69.083 111.485 67.1769 111.675 64.8896C112.247 64.8896 112.247 65.6521 112.247 66.4145C113.391 64.5084 114.916 66.0333 115.487 63.1742C116.822 63.1742 117.203 64.1272 118.918 63.746C116.059 61.2681 121.015 64.5084 120.443 61.4587C118.918 61.4587 121.015 59.1714 120.443 61.4587C127.496 59.1714 124.446 42.5887 128.067 37.4423C129.021 33.249 129.592 33.8208 130.927 30.7711C130.164 30.7711 130.545 30.0087 130.927 30.7711C134.739 26.1965 137.407 20.2877 142.363 17.0474C143.507 15.332 144.841 13.9977 146.747 13.2353C146.938 12.4729 147.509 12.4729 147.319 11.5198C149.415 10.7574 150.75 12.0917 151.703 9.99499C150.178 9.23258 152.465 8.08893 153.418 8.27953C153.609 7.89833 153.799 7.70772 154.562 7.70772ZM177.625 9.42318C177.625 9.04196 178.006 8.85136 178.197 9.42318C178.578 10.5668 178.388 12.4729 179.15 14.3789C177.053 13.9977 178.197 10.5668 176.482 9.99499C176.672 9.42318 176.863 9.23258 177.625 9.42318ZM173.241 13.2353C172.669 10.948 174.766 13.0447 173.241 13.2353C173.622 15.5226 171.526 13.4259 173.241 13.2353ZM177.053 13.8071C177.625 11.5198 177.625 15.9038 177.053 13.8071V13.8071ZM173.813 14.3789C174.385 12.0917 174.385 16.4756 173.813 14.3789V14.3789ZM172.669 15.9038C173.241 13.8071 173.241 18.1911 172.669 15.9038V15.9038ZM177.625 15.9038C178.197 13.8071 178.197 18.1911 177.625 15.9038V15.9038ZM171.526 29.6275C172.288 24.0999 174.385 20.8596 173.813 15.9038C175.719 19.3347 173.432 26.7684 171.526 29.6275C171.526 30.9617 171.145 31.9147 170.382 32.4865C170.192 34.7738 168.857 35.9175 168.285 38.0141C167.332 36.6799 169.048 33.249 170.382 32.4865C169.429 31.5335 170.573 30.7711 170.954 29.6275H171.526ZM177.053 17.6193C176.863 17.4286 177.435 18.0005 177.053 17.6193V17.6193ZM172.669 18.1911C172.479 18.0005 173.051 18.5723 172.669 18.1911V18.1911ZM172.098 20.2877C171.907 20.0971 172.479 20.669 172.098 20.2877V20.2877ZM172.098 23.1468C171.907 22.9562 172.479 23.528 172.098 23.1468V23.1468ZM116.059 23.7187C116.059 22.9562 116.822 23.3374 116.059 23.7187C116.059 24.2905 115.297 23.9093 116.059 23.7187ZM134.739 23.7187C134.548 23.3374 135.12 24.0999 134.739 23.7187V23.7187ZM133.023 25.8153C132.833 25.6247 133.404 26.1965 133.023 25.8153V25.8153ZM169.238 26.959C168.667 24.0999 170.954 26.3871 169.238 26.959C169.429 27.5308 168.476 27.3402 169.238 26.959ZM69.3607 26.3871C69.1701 26.1965 69.7419 26.7684 69.3607 26.3871V26.3871ZM105.195 26.3871C105.385 26.7684 104.814 26.1965 105.195 26.3871V26.3871ZM113.963 26.3871C114.153 26.7684 113.581 26.1965 113.963 26.3871V26.3871ZM106.148 27.5308C105.576 27.5308 105.767 26.7684 106.148 27.5308C106.91 27.5308 106.529 28.2932 106.148 27.5308ZM112.819 28.1026C112.247 25.8153 114.344 27.912 112.819 28.1026C113.391 30.3899 111.104 28.1026 112.819 28.1026ZM68.4077 28.6744C68.9795 26.3871 68.9795 30.7711 68.4077 28.6744V28.6744ZM107.291 29.0556C106.72 29.2462 106.91 28.2932 107.291 29.0556C108.054 29.0556 107.673 30.0087 107.291 29.0556ZM168.285 29.6275C168.667 30.0087 167.904 29.4368 168.285 29.6275V29.6275ZM68.7889 30.1993C68.5983 30.0087 69.1701 30.5805 68.7889 30.1993V30.1993ZM111.104 30.1993C111.866 28.1026 111.866 32.4865 111.104 30.1993V30.1993ZM167.714 31.3429C167.142 29.0556 169.238 31.1523 167.714 31.3429C167.523 31.9147 167.714 32.8678 167.142 33.0584C167.142 35.3456 165.045 33.0584 167.142 33.0584C167.142 32.2959 166.951 31.3429 167.714 31.3429ZM107.291 31.3429C107.101 31.1523 107.673 31.7241 107.291 31.3429V31.3429ZM161.614 31.9147C161.424 31.7241 161.995 32.2959 161.614 31.9147V31.9147ZM81.5595 33.6302C81.1783 33.249 81.9407 33.8208 81.5595 33.6302V33.6302ZM162.186 34.0114C162.758 31.9147 162.758 36.2987 162.186 34.0114V34.0114ZM165.998 35.155C165.998 34.5832 166.761 34.7738 165.998 35.155C165.998 35.9175 165.236 35.5362 165.998 35.155ZM161.614 35.7269C162.186 33.6302 162.186 37.8235 161.614 35.7269V35.7269ZM78.7004 36.8705C78.5098 36.6799 79.0817 37.2517 78.7004 36.8705V36.8705ZM78.7004 38.0141C79.4629 35.7269 79.4629 40.1108 78.7004 38.0141V38.0141ZM160.471 38.0141C160.28 37.6329 160.852 38.2047 160.471 38.0141V38.0141ZM163.901 38.9672C164.283 39.3484 163.52 38.7766 163.901 38.9672V38.9672ZM166.57 40.1108C166.57 39.3484 166.761 38.9672 167.142 38.3953C168.285 38.2047 167.904 41.0638 166.57 40.1108C164.473 40.3014 166.761 42.5887 166.57 40.1108ZM65.5486 40.1108C66.1204 38.0141 66.1204 42.2075 65.5486 40.1108V40.1108ZM156.658 41.8263C156.468 41.6356 157.04 42.2075 156.658 41.8263V41.8263ZM78.1286 42.3981C78.5098 40.1108 77.7474 45.6384 78.1286 42.3981V42.3981ZM164.855 42.3981C166.379 40.1108 165.808 44.1135 164.855 42.3981V42.3981ZM156.087 42.7793C155.896 42.5887 156.468 43.1605 156.087 42.7793V42.7793ZM216.509 42.7793C215.365 44.4948 213.078 42.2075 216.509 42.7793V42.7793ZM218.224 43.9229C218.034 43.7323 218.606 44.3041 218.224 43.9229V43.9229ZM221.465 43.9229C221.274 44.6854 221.083 43.9229 220.321 43.9229C220.512 43.3511 221.465 43.3511 221.465 43.9229ZM163.33 46.2102C163.139 45.4478 164.092 45.829 163.33 46.2102C163.33 46.782 162.567 46.5914 163.33 46.2102ZM78.1286 47.3538C78.891 45.0666 78.891 49.4505 78.1286 47.3538V47.3538ZM76.6038 47.7351C76.4132 47.5445 76.985 48.1163 76.6038 47.7351V47.7351ZM163.33 47.7351C163.139 48.4975 162.377 48.3069 161.614 48.3069C161.805 47.7351 162.567 47.9257 163.33 47.7351ZM80.4159 51.166C79.8441 54.4063 80.7971 48.8787 80.4159 51.166V51.166ZM123.684 51.166C123.493 50.7848 124.065 51.5472 123.684 51.166V51.166ZM159.518 51.7378C159.136 51.3566 159.899 51.9284 159.518 51.7378V51.7378ZM78.1286 54.4063C78.5098 52.119 77.7474 57.6466 78.1286 54.4063V54.4063ZM80.9877 54.4063C82.322 52.3096 81.7501 56.1217 80.9877 54.4063V54.4063ZM200.689 54.4063C200.689 54.9781 199.926 54.7875 199.545 54.9781C199.545 54.4063 200.117 54.5969 200.689 54.4063ZM82.5126 55.5499C82.8938 53.2626 82.1314 58.7902 82.5126 55.5499V55.5499ZM203.929 55.5499C204.501 53.2626 204.501 57.6466 203.929 55.5499V55.5499ZM205.644 55.5499C205.835 55.9311 205.263 55.3593 205.644 55.5499V55.5499ZM161.042 56.1217C160.852 55.7405 161.424 56.3123 161.042 56.1217V56.1217ZM191.921 56.1217C191.539 55.7405 192.111 56.3123 191.921 56.1217V56.1217ZM202.213 56.1217C202.023 55.7405 202.595 56.3123 202.213 56.1217V56.1217ZM80.9877 56.503C80.7971 56.3123 81.3689 56.8842 80.9877 56.503V56.503ZM152.846 56.503C152.656 56.3123 153.228 56.8842 152.846 56.503V56.503ZM199.545 56.1217C199.354 56.6936 198.592 56.503 197.829 56.503C198.02 55.9311 198.782 56.1217 199.545 56.1217ZM155.134 57.0748C155.705 54.9781 155.705 59.362 155.134 57.0748V57.0748ZM220.321 57.0748C220.13 56.8842 220.702 57.456 220.321 57.0748V57.0748ZM78.7004 58.2184C78.3192 55.9311 80.4159 58.2184 78.7004 58.2184C78.8911 58.9808 77.938 58.5996 78.7004 58.2184ZM163.33 57.6466C163.139 57.456 163.711 58.0278 163.33 57.6466V57.6466ZM224.705 57.6466C224.514 57.456 225.086 58.0278 224.705 57.6466V57.6466ZM184.678 58.7902C184.487 58.5996 185.059 59.1714 184.678 58.7902V58.7902ZM82.1314 61.0775C81.3689 60.6963 80.9877 59.7433 80.9877 58.7902C81.9407 58.9808 82.1314 59.7433 82.1314 61.0775ZM83.0844 62.0305C82.8938 61.8399 83.4656 62.4117 83.0844 62.0305V62.0305ZM81.5595 62.6024C81.9407 62.9836 81.1783 62.4118 81.5595 62.6024V62.6024ZM82.1314 64.8896C82.322 65.2708 81.7501 64.5084 82.1314 64.8896V64.8896ZM83.6562 65.4615C83.4656 65.0802 84.0374 65.6521 83.6562 65.4615V65.4615ZM220.321 65.4615C220.13 65.0802 220.702 65.6521 220.321 65.4615V65.4615ZM225.849 65.8427C225.658 65.6521 226.23 66.2239 225.849 65.8427V65.8427ZM83.0844 65.8427C83.0844 66.4145 82.5126 66.4145 82.1314 66.4145C82.1314 66.0333 82.7032 66.0333 83.0844 65.8427ZM109.007 66.4145C109.388 66.7957 108.626 66.2239 109.007 66.4145V66.4145ZM221.465 66.4145C221.274 66.2239 221.846 66.7957 221.465 66.4145V66.4145ZM225.849 66.9863C225.849 66.4145 226.611 66.6051 225.849 66.9863C225.849 67.3675 225.849 67.7487 225.277 67.5581C225.467 68.3205 224.514 67.9393 225.277 67.5581C225.277 67.1769 225.467 66.9863 225.849 66.9863ZM217.081 68.7018C216.89 68.5112 217.462 69.083 217.081 68.7018V68.7018ZM215.365 69.2736C215.175 69.083 215.746 69.6548 215.365 69.2736V69.2736ZM208.885 75.7542C208.313 73.4669 210.409 75.7542 208.885 75.7542C208.885 76.5166 208.122 76.1354 208.885 75.7542ZM132.642 77.4697C132.833 77.8509 132.261 77.279 132.642 77.4697V77.4697ZM84.7998 78.0415C84.6092 77.8509 85.1811 78.4227 84.7998 78.0415V78.0415ZM206.026 78.6133C205.835 78.2321 206.407 78.9945 206.026 78.6133V78.6133ZM205.072 79.5663C205.454 79.9475 204.691 79.3757 205.072 79.5663V79.5663ZM202.213 82.9972C201.832 81.4724 203.357 81.8536 203.357 80.71C204.882 81.2818 202.976 82.8066 202.213 82.9972C202.213 83.1878 202.213 83.5691 201.642 83.5691C201.832 84.1409 200.879 83.7597 201.642 83.5691C201.832 83.1879 201.832 82.8066 202.213 82.9972ZM124.255 83.5691C124.065 83.1879 124.637 83.7597 124.255 83.5691V83.5691ZM203.357 83.5691C203.166 83.1879 203.738 83.7597 203.357 83.5691V83.5691ZM87.4683 83.9503C88.2308 81.8536 88.2308 86.2375 87.4683 83.9503V83.9503ZM199.545 83.9503C199.354 83.7597 199.926 84.3315 199.545 83.9503V83.9503ZM200.117 86.2376C199.164 85.8563 199.926 85.2845 200.117 84.5221C201.07 84.9033 200.117 85.6657 200.117 86.2376ZM201.642 85.0939C201.451 84.9033 202.023 85.4751 201.642 85.0939V85.0939ZM58.4962 91.7651C58.6868 91.0027 59.068 90.6215 60.021 90.6215C60.2116 91.5745 59.4492 91.9557 58.4962 91.7651C55.4465 91.1933 57.7337 93.4806 58.4962 91.7651ZM68.4077 91.1933C68.5983 91.5745 68.0265 91.0027 68.4077 91.1933V91.1933ZM55.6371 92.9088C54.684 92.337 55.6371 91.7651 55.6371 91.1933C56.5901 91.5745 55.8277 92.1463 55.6371 92.9088ZM118.347 91.7651C118.728 92.1464 117.965 91.5745 118.347 91.7651V91.7651ZM54.684 92.9088C54.4934 93.4806 53.5404 93.29 52.9686 93.29C52.9686 92.7182 53.9216 92.9088 54.684 92.9088ZM117.203 93.29C117.012 93.0994 117.584 93.6712 117.203 93.29V93.29ZM194.589 93.8618C194.589 93.29 195.352 93.6712 194.589 93.8618C194.589 94.6242 193.827 94.243 194.589 93.8618ZM134.167 96.7209C133.976 96.5303 134.548 97.1021 134.167 96.7209V96.7209ZM27.6179 103.773C27.4273 103.583 27.9991 104.155 27.6179 103.773V103.773ZM76.0319 103.773C75.8413 103.583 76.4132 104.155 76.0319 103.773V103.773ZM129.211 104.345C129.021 104.155 129.592 104.726 129.211 104.345V104.345ZM26.6649 104.917C27.0461 105.298 26.2837 104.726 26.6649 104.917V104.917ZM76.6038 104.917C77.1756 102.82 77.1756 107.014 76.6038 104.917V104.917ZM24.3776 107.014C24.187 106.823 24.7588 107.395 24.3776 107.014V107.014ZM77.1756 107.014C77.5568 107.395 76.7944 106.823 77.1756 107.014V107.014ZM21.7091 107.585C21.5185 107.014 22.4716 107.395 21.7091 107.585C21.7091 107.967 21.5185 108.348 21.1373 108.157C21.1373 108.538 20.9467 108.92 20.5655 108.729C20.5655 110.445 19.2313 110.826 18.2782 111.398C18.2782 111.779 18.2782 112.16 17.897 111.969C17.7064 112.351 17.7064 112.732 17.3252 112.541C17.3252 112.922 17.1346 113.304 16.7534 113.113C16.944 113.875 17.5158 114.257 17.3252 115.4C16.5628 115.21 16.3722 114.447 15.6097 114.257C15.6097 114.829 14.8473 114.638 15.6097 114.257C15.8003 113.685 16.1815 113.304 16.7534 113.113C16.7534 112.732 16.7534 112.541 17.3252 112.541C17.3252 112.16 17.3252 111.969 17.897 111.969C17.897 111.779 17.897 111.398 18.2782 111.398C18.0876 109.682 19.8031 110.063 19.9937 108.729H20.5655C20.5655 108.348 20.5655 108.157 21.1373 108.157C21.1373 107.776 21.1373 107.585 21.7091 107.585ZM29.9052 107.585C29.7146 107.395 30.2864 107.967 29.9052 107.585V107.585ZM5.6982 108.157C5.6982 107.585 6.46062 107.776 5.6982 108.157C5.8888 108.92 4.93577 108.538 5.6982 108.157ZM78.1286 109.301C77.938 109.11 78.5098 109.682 78.1286 109.301V109.301ZM126.543 109.301C126.352 109.11 126.924 109.682 126.543 109.301V109.301ZM3.60153 109.873C3.98274 110.254 3.22031 109.682 3.60153 109.873V109.873ZM79.8441 111.398C79.0817 111.207 78.7004 110.826 78.7004 109.873C79.4629 110.063 79.8441 110.635 79.8441 111.398C80.6065 111.779 80.7971 112.732 80.9877 113.685C80.0347 113.494 79.6535 112.732 79.8441 111.398ZM16.1815 111.969C16.1815 111.398 16.944 111.779 16.1815 111.969C16.1815 112.732 15.4191 112.351 16.1815 111.969ZM104.051 112.541C103.86 112.351 104.432 112.922 104.051 112.541V112.541ZM18.2782 113.685C18.2782 113.113 19.2313 113.304 18.2782 113.685C18.85 115.972 16.7534 113.875 18.2782 113.685ZM123.684 114.257C123.493 114.066 124.065 114.638 123.684 114.257V114.257ZM81.5595 114.829C80.7971 114.829 81.1783 114.066 81.5595 114.829C81.9407 114.829 82.1314 115.21 82.1314 115.972C83.6562 115.972 81.5595 118.069 82.1314 115.972C81.5595 115.782 81.3689 115.4 81.5595 114.829ZM83.0844 118.641C83.8468 116.544 83.8468 120.737 83.0844 118.641V118.641ZM84.7998 119.212C85.5623 117.306 86.1341 121.309 84.7998 119.212V119.212ZM84.7998 120.737C85.3717 118.641 85.3717 123.025 84.7998 120.737V120.737ZM85.3717 122.453C85.1811 122.262 85.7529 122.834 85.3717 122.453V122.453ZM93.5677 122.453C93.3771 122.262 93.949 122.834 93.5677 122.453V122.453ZM85.9435 123.596C86.3247 123.978 85.5623 123.406 85.9435 123.596V123.596ZM87.4683 124.168C87.2777 123.978 87.8495 124.549 87.4683 124.168V124.168ZM86.8965 125.121C86.7059 124.931 87.2777 125.502 86.8965 125.121V125.121ZM118.347 126.265C118.918 124.168 118.918 128.552 118.347 126.265V126.265ZM128.639 9.99499H129.211C129.211 9.23258 128.639 9.61378 128.639 9.99499ZM151.703 9.99499C152.465 9.99499 152.656 9.80439 152.846 9.42318C152.274 9.23258 151.893 9.42318 151.703 9.99499ZM177.625 9.42318H178.197C178.197 9.61378 177.625 9.99499 177.625 9.42318ZM146.747 13.2353C147.509 13.2353 147.128 13.9977 146.747 13.2353V13.2353ZM182.009 13.8071C181.628 13.6165 182.39 14.1883 182.009 13.8071V13.8071ZM180.865 14.3789C181.437 16.4756 181.437 12.0917 180.865 14.3789V14.3789ZM122.731 14.9508C122.921 14.7602 123.302 14.7602 123.302 14.3789C122.731 14.1883 122.731 14.5696 122.731 14.9508ZM142.363 17.0474C143.125 17.0474 142.744 17.8099 142.363 17.0474V17.0474ZM178.578 24.2905H179.15C178.959 22.1938 181.247 16.6662 178.578 17.6193V24.2905ZM181.437 18.1911C181.247 18.0005 181.818 18.5723 181.437 18.1911V18.1911ZM174.766 31.3429C174.766 30.7711 175.528 30.9617 175.91 30.7711C176.291 23.3374 177.435 25.0529 177.625 20.2877C177.244 21.2408 177.053 20.2877 176.482 20.2877C175.147 23.9093 174.957 29.2462 174.766 31.3429ZM105.576 21.4314C105.576 22.0032 105.957 22.0032 106.148 22.0032C106.338 21.622 105.957 21.4314 105.576 21.4314ZM106.72 22.0032C107.482 21.622 106.72 21.4314 106.72 22.0032V22.0032ZM106.148 22.0032C106.148 23.3374 106.91 22.9562 106.72 22.0032H106.148ZM178.578 24.2905H178.197C178.388 26.1965 176.1 28.4838 177.625 29.6275C177.816 27.7214 178.959 26.7683 178.578 24.2905ZM191.349 27.5308C190.968 27.3402 191.73 27.912 191.349 27.5308V27.5308ZM190.205 28.1026C189.824 27.3402 189.443 28.1026 190.205 28.1026V28.1026ZM65.5486 30.1993C66.1204 32.4865 66.1204 28.1026 65.5486 30.1993V30.1993ZM176.482 30.1993C177.053 31.3429 174.766 32.1053 176.482 32.4865C176.672 32.1053 177.816 30.3899 176.482 30.1993ZM174.766 31.3429C175.147 32.1053 175.528 31.3429 174.766 31.3429V31.3429ZM174.766 34.0114C174.004 33.8208 174.766 31.9147 173.813 31.9147C173.622 34.202 172.479 35.5362 171.526 36.8705C171.335 38.2047 170.763 39.3484 169.81 40.1108V41.2544C170.573 41.2544 170.573 40.492 171.526 40.6826C171.716 40.3014 171.526 39.539 172.098 39.539C171.907 39.9202 172.098 40.6826 171.526 40.6826C171.716 41.6356 170.954 41.8263 170.954 42.7793C172.86 41.445 173.622 38.7766 174.194 36.2987C173.813 36.1081 173.241 36.2987 173.241 35.7269C173.813 35.7269 173.622 34.7738 174.194 34.5832C174.385 34.3926 174.385 34.0114 174.766 34.0114ZM172.098 38.3953C172.669 36.2987 172.669 40.6826 172.098 38.3953V38.3953ZM175.338 34.0114C177.053 34.0114 174.766 31.7241 175.338 34.0114V34.0114ZM174.766 34.0114C174.957 34.5832 174.575 34.5832 174.194 34.5832V36.2987H174.766C174.766 35.3456 175.528 35.155 175.338 34.0114H174.766ZM186.393 37.4423C186.774 37.2517 187.346 37.4423 187.537 36.8705C186.965 36.8705 186.393 36.8705 186.393 37.4423ZM128.067 37.4423C128.449 38.2047 128.83 37.2517 128.067 37.4423V37.4423ZM169.81 41.2544C168.285 43.7323 166.761 46.2102 164.855 48.3069C165.045 50.5942 162.567 50.4035 162.758 52.6908C163.52 52.119 163.52 52.5002 164.473 52.6908V51.7378C163.711 51.7378 164.092 50.7848 164.473 51.7378C164.855 51.7378 165.045 52.119 164.855 52.6908C166.379 51.3566 167.142 49.4505 168.285 47.7351C167.714 47.7351 167.142 47.7351 167.142 47.3538C167.523 47.3538 168.285 47.3538 168.285 47.7351C168.667 47.7351 168.857 47.1632 169.238 47.3538V46.2102C168.857 46.0196 168.285 46.2102 168.285 45.6384C168.857 45.6384 168.857 45.2572 169.238 45.0666C169.62 43.9229 171.526 44.6854 170.954 42.7793H170.382C170.573 43.5417 169.62 43.1605 170.382 42.7793C170.573 42.0169 169.81 42.0169 169.81 41.2544ZM166.57 48.3069C165.998 48.4975 166.189 47.5445 166.57 48.3069C167.332 48.3069 166.951 49.0693 166.57 48.3069ZM169.238 45.0666V46.2102C170.001 46.0196 169.81 45.0666 169.238 45.0666ZM186.965 45.6384C185.44 45.6384 186.012 46.2102 186.965 46.2102V45.6384ZM185.249 48.3069C185.059 48.1163 185.631 48.6881 185.249 48.3069V48.3069ZM63.4519 51.166C63.0707 50.2129 62.6895 51.166 63.4519 51.166V51.166ZM164.473 52.6908C162.948 53.6439 165.236 54.5969 164.855 52.6908H164.473ZM163.33 54.4063C163.711 55.1687 163.901 54.4063 163.33 54.4063V54.4063ZM16.7534 59.362C16.7534 59.9339 16.1815 59.9339 16.1815 60.5057C16.944 60.5057 16.944 61.0775 17.897 61.0775C17.897 60.1245 17.3252 59.5526 16.7534 59.362ZM137.979 59.9339C137.407 59.9339 137.788 60.5057 137.979 60.5057V59.9339ZM17.897 62.0305H18.2782C18.2782 61.4587 17.897 61.8399 17.897 62.0305ZM133.023 66.4145H133.595V65.8427C133.214 65.8427 133.214 66.2239 133.023 66.4145ZM133.023 66.4145C132.451 66.6051 132.833 66.9863 133.023 66.9863V66.4145ZM222.036 68.1299C221.465 68.1299 221.655 68.7018 222.036 68.7018V68.1299ZM220.321 69.8454C221.083 69.4642 220.321 69.083 220.321 69.8454V69.8454ZM220.321 69.8454C219.559 70.036 220.512 70.4172 220.321 69.8454V69.8454ZM86.5153 70.7984C87.0871 70.7984 86.7059 70.2266 86.5153 70.2266V70.7984ZM130.355 70.2266V70.7984C129.974 70.7984 129.783 70.4172 130.355 70.2266ZM218.224 71.3703C218.987 70.989 218.034 70.7984 218.224 71.3703V71.3703ZM218.796 72.5139C219.177 72.7045 219.368 73.0857 219.749 73.0857C218.987 70.989 222.227 72.8951 221.465 70.7984C220.13 70.989 219.177 71.3702 218.796 72.5139ZM217.652 71.9421C218.034 72.1327 218.224 71.7515 218.224 71.3703C217.652 71.3703 217.652 71.5609 217.652 71.9421ZM217.081 72.5139C217.462 72.7045 217.652 72.3233 217.652 71.9421C217.081 71.9421 217.081 72.1327 217.081 72.5139ZM217.081 72.5139C216.318 72.8951 217.081 73.0857 217.081 72.5139V72.5139ZM218.224 73.0857C218.606 73.0857 218.796 72.8951 218.796 72.5139C218.224 72.3233 218.224 72.7045 218.224 73.0857ZM218.224 73.0857C217.652 73.2763 217.271 73.4669 217.081 74.2294C218.034 74.42 218.034 73.6575 218.224 73.0857ZM216.509 74.8012C217.081 74.8012 217.081 74.42 217.081 74.2294C216.699 74.0387 216.509 74.42 216.509 74.8012ZM216.509 74.8012C215.175 74.8012 214.412 75.5636 214.412 76.8978C214.984 76.7072 215.175 75.9448 215.937 75.7542C216.128 75.373 216.509 75.1824 216.509 74.8012ZM215.937 75.7542C216.318 76.5166 216.699 75.7542 215.937 75.7542V75.7542ZM189.062 76.8978C189.824 76.5166 189.062 76.326 189.062 76.8978V76.8978ZM212.125 76.8978C212.697 76.7072 212.506 76.326 212.125 76.326V76.8978ZM214.412 76.8978C212.125 76.326 214.222 78.6133 214.412 76.8978V76.8978ZM212.125 78.6133H213.269C213.078 77.8509 212.125 78.0415 212.125 78.6133ZM213.84 78.6133C214.603 78.2321 213.65 77.8509 213.84 78.6133V78.6133ZM208.313 79.1851C208.694 79.1851 208.885 78.8039 208.885 78.6133H208.313V79.1851ZM212.125 78.6133C211.362 78.8039 212.125 79.1851 212.125 78.6133V78.6133ZM213.269 79.1851C213.65 79.1851 213.84 78.8039 213.84 78.6133H213.269V79.1851ZM212.697 79.5663C213.078 79.7569 213.269 79.3757 213.269 79.1851C212.697 78.9945 212.697 79.3757 212.697 79.5663ZM186.965 80.1381C187.155 80.1381 187.537 80.1381 187.537 79.5663C186.965 79.5663 186.965 79.9475 186.965 80.1381ZM212.125 80.1381C212.697 80.3288 212.697 79.9475 212.697 79.5663C212.316 79.5663 212.125 79.9475 212.125 80.1381ZM186.965 80.1381C186.202 80.3288 186.393 81.2818 186.965 81.2818V80.1381ZM208.313 80.71C209.075 80.3288 208.313 80.1381 208.313 80.71V80.71ZM209.456 81.8536H210.028C210.409 81.4724 210.791 80.3288 210.028 80.1381C209.647 80.71 209.456 81.0912 209.456 81.8536ZM212.125 80.1381C211.362 80.5194 212.125 80.9006 212.125 80.1381V80.1381ZM157.23 81.2818C157.04 81.0912 157.611 81.663 157.23 81.2818V81.2818ZM208.313 80.71C207.55 81.0912 208.313 81.4724 208.313 80.71V80.71ZM185.821 82.4254C186.584 82.0442 185.821 81.663 185.821 82.4254V82.4254ZM209.456 81.8536C208.694 82.2348 209.456 82.4254 209.456 81.8536V81.8536ZM185.821 82.4254C185.249 82.4254 185.44 82.9972 185.249 83.5691H185.821V82.4254ZM144.65 83.5691C145.031 83.7597 144.46 83.1879 144.65 83.5691V83.5691ZM185.249 83.5691C183.534 83.5691 185.821 85.8563 185.249 83.5691V83.5691ZM208.313 83.9503C208.122 83.7597 208.694 84.3315 208.313 83.9503V83.9503ZM142.935 85.6657C142.744 85.4751 143.316 86.0469 142.935 85.6657V85.6657ZM203.929 85.6657C203.738 85.4751 204.31 86.0469 203.929 85.6657V85.6657ZM205.072 86.8094H205.644C206.026 86.4282 206.407 85.2845 205.644 85.0939C205.263 85.6657 205.072 86.0469 205.072 86.8094ZM183.534 86.2376C183.343 86.0469 183.915 86.6188 183.534 86.2376V86.2376ZM205.072 86.8094C204.119 87.1906 205.072 87.3812 205.072 86.8094V86.8094ZM140.838 87.953C140.838 88.3342 140.648 88.3342 140.266 88.5248C140.076 90.2403 142.554 87.7624 140.838 87.953ZM139.694 89.4779C140.076 90.2403 140.266 89.4779 139.694 89.4779V89.4779ZM185.821 89.4779C185.059 89.8591 185.821 90.2403 185.821 89.4779V89.4779ZM198.401 90.6215C198.973 90.8121 198.973 90.4309 198.973 90.0497C198.592 90.0497 198.401 90.2403 198.401 90.6215ZM66.1204 92.9088C65.7392 96.1491 66.5016 90.6215 66.1204 92.9088V92.9088ZM62.3083 92.9088C62.3083 94.4336 64.5956 92.337 62.3083 92.9088V92.9088ZM64.0238 93.29C63.6425 93.0994 64.2144 93.6712 64.0238 93.29V93.29ZM61.1647 93.8618C60.9741 93.6712 61.5459 94.243 61.1647 93.8618V93.8618ZM132.642 99.3894V100.533C133.023 100.533 133.023 99.7706 133.023 99.3894H132.642ZM191.921 99.9612C191.921 100.533 192.302 100.342 192.302 99.9612H191.921ZM34.2892 104.345C34.4798 104.726 34.0985 104.917 33.7173 104.917V106.061H34.2892C34.6704 105.489 35.0516 104.536 34.2892 104.345ZM33.1455 106.632C33.7173 106.632 33.7173 106.251 33.7173 106.061C33.3361 105.87 33.1455 106.251 33.1455 106.632ZM32.5737 107.014C33.1455 107.204 33.1455 106.823 33.1455 106.632C32.7643 106.442 32.7643 106.823 32.5737 107.014ZM32.0019 107.585C32.5737 107.776 32.5737 107.395 32.5737 107.014C32.1925 107.014 32.1925 107.395 32.0019 107.585ZM32.0019 107.585C31.2395 107.967 32.1925 108.348 32.0019 107.585V107.585ZM24.9494 109.301C25.3307 109.301 25.5213 109.301 25.5213 108.729C24.9494 108.729 24.9494 108.92 24.9494 109.301ZM25.5213 110.445H26.0931V109.873C25.5213 109.682 25.5213 110.063 25.5213 110.445ZM25.5213 110.445C25.14 110.445 24.9494 111.016 24.3776 111.016C24.187 111.779 23.6152 112.351 22.8528 112.541C22.4716 114.066 20.3749 113.875 20.5655 115.972C23.0434 115.782 24.5682 113.304 25.5213 110.445ZM26.0931 110.445C26.0931 111.016 26.6649 110.635 26.6649 110.445H26.0931ZM27.2367 110.445C27.4273 111.207 27.8085 110.254 27.2367 110.445V110.445ZM20.5655 115.972C19.0406 116.544 15.8003 118.259 17.3252 120.356C17.7064 118.069 20.9467 118.831 20.5655 115.972ZM22.281 116.925C21.8997 116.735 22.6622 117.306 22.281 116.925V116.925ZM14.4661 117.497C14.0849 118.641 15.9909 120.165 15.6097 118.069C15.2285 117.878 15.0379 117.497 14.4661 117.497ZM99.0953 138.464C99.4765 138.654 98.9047 138.082 99.0953 138.464V138.464ZM101.192 137.892C101.573 138.654 101.954 137.701 101.192 137.892V137.892ZM119.871 138.845C120.253 139.798 120.634 138.845 119.871 138.845V138.845ZM104.623 139.989C102.907 140.179 105.004 142.276 104.623 139.989V139.989ZM116.059 139.989C116.441 140.751 116.822 139.989 116.059 139.989V139.989ZM111.675 140.56C112.057 141.323 112.438 140.56 111.675 140.56V140.56Z" fill="#FF585D"/>
</svg>
