<svg width="121" height="196" viewBox="0 0 121 196" fill="none" xmlns="http://www.w3.org/2000/svg">
<path d="M89.2579 6.64255C88.8679 5.60255 87.5679 5.99255 88.8679 5.08255C88.6079 4.43255 86.7879 5.21255 86.6579 4.30255C87.3079 4.30255 88.0879 4.56255 88.2179 4.04255C87.1779 3.91255 86.3979 3.78255 85.8779 3.26255C86.2679 2.87255 87.3079 3.13255 87.0479 2.09255C85.0979 2.35255 86.2679 1.18254 86.6579 0.66255C74.5679 -1.28745 59.3579 6.90255 48.0479 7.42255C46.4879 8.20255 44.7979 8.98255 44.6679 11.4526C45.1879 11.4526 45.0579 10.8026 45.4479 10.6726C45.8379 11.7125 44.5379 13.0125 44.6679 11.4526C35.5679 30.4326 25.5579 48.5026 16.5879 67.6126C11.2579 78.0126 5.27791 87.7625 1.24791 99.4625C2.67791 99.3325 3.06791 100.373 2.02791 101.673C3.19791 102.063 2.54791 100.503 3.58791 100.633C3.97791 102.193 4.23791 101.673 5.01791 102.453C5.01791 102.063 5.14791 101.803 5.40791 101.673C5.40791 102.193 5.40791 102.713 5.79791 102.843C5.92791 102.323 6.31791 102.063 6.96791 102.063C6.83791 103.623 7.48791 102.063 8.00791 102.063C8.00791 104.273 10.8679 103.103 12.1679 104.273C12.5579 104.273 12.4279 103.623 12.9479 103.623C12.8179 105.313 13.5979 104.013 13.9879 105.443C14.1179 104.273 15.0279 103.623 15.5479 104.663C15.5479 104.013 15.8079 103.493 16.3279 103.233C21.1379 102.713 26.4679 100.893 30.1079 100.633C29.7179 102.713 27.3779 104.793 27.8979 106.613C26.8579 106.353 27.1179 107.263 26.3379 107.263C15.4179 133.003 5.14791 159.003 0.85791 189.683C2.93791 189.163 0.85791 192.933 2.02791 192.283C1.89791 191.503 2.15791 190.853 2.80791 190.853C2.80791 191.373 2.67791 192.283 3.19791 192.283C3.19791 191.763 3.06791 191.243 3.58791 191.243C3.97791 191.243 3.84791 191.893 4.23791 191.893C4.23791 191.763 4.62791 191.503 4.62791 191.893H5.40791C5.40791 191.763 5.40791 191.503 5.79791 191.503C5.79791 191.113 6.31791 191.373 5.79791 191.503V191.893C6.05791 192.023 6.18791 192.283 6.57791 192.283C6.44791 192.023 6.70791 192.023 6.96791 191.893C6.96791 191.763 7.22791 191.503 7.22791 191.893H6.96791C7.48791 192.933 8.65791 193.063 9.56791 192.283C9.95791 192.803 10.0879 193.453 10.6079 193.843C10.7379 193.453 10.9979 193.453 10.9979 193.063C10.8679 193.063 10.6079 192.803 10.9979 192.673V193.063C11.6479 192.933 11.7779 193.323 11.7779 193.843C12.4279 193.713 12.5579 194.233 13.3379 194.233C13.2079 193.713 13.2079 193.063 13.5979 193.063C14.3779 193.193 14.3779 194.103 15.1579 194.233C15.5479 192.933 15.9379 194.103 16.5879 193.453C16.7179 191.763 16.3279 189.553 17.7579 189.293C17.6279 190.463 18.6679 190.593 19.3179 190.073C19.1879 189.553 19.8379 189.813 19.3179 190.073C19.4479 190.593 19.9679 190.593 19.9679 191.243C20.6179 190.593 20.8779 190.853 20.7479 191.893C21.6579 192.153 21.2679 191.243 21.9179 191.243C21.9179 190.983 22.1779 190.723 22.3079 191.243C22.8279 191.243 22.4379 192.283 22.9579 192.283C25.8179 187.603 28.6779 182.533 30.4979 177.723C31.9279 177.073 34.7879 172.783 35.0479 170.963C34.5279 170.963 34.7879 170.443 35.0479 170.963C35.9579 171.093 35.9579 170.183 36.0879 169.533C35.6979 169.533 35.8279 168.883 36.0879 169.533C36.8679 168.233 38.2979 167.583 38.2979 165.763C38.0379 165.763 37.9079 165.113 38.2979 164.983V165.763H39.0779C39.0779 164.593 39.9879 164.593 39.8579 163.423C39.4679 163.423 39.3379 162.773 39.8579 162.773C39.8579 162.513 39.8579 162.253 40.2479 162.383C40.2479 161.863 40.7679 162.123 40.2479 162.383C40.2479 162.643 40.1179 162.773 39.8579 162.773V163.423C41.0279 162.773 41.5479 161.473 42.0679 160.173C41.6779 160.173 41.6779 160.433 41.4179 160.433C41.2879 160.693 41.2879 160.953 41.0279 160.823C40.8979 161.213 41.0279 161.603 40.6379 161.603C40.6379 161.343 40.6379 160.823 41.0279 160.823C41.0279 160.693 41.0279 160.433 41.4179 160.433C41.2879 159.783 41.6779 159.523 42.0679 159.393C42.1979 159.133 42.0679 158.613 42.4579 158.613C42.4579 158.353 42.5879 158.223 42.8479 158.223C42.8479 157.963 42.8479 157.833 43.2379 157.833C43.3679 157.573 43.2379 157.183 43.6279 157.183C43.6279 156.663 44.1479 156.923 43.6279 157.183V157.833C44.5379 156.923 45.3179 155.753 45.8379 154.453C45.3179 154.323 44.9279 156.013 44.6679 154.843C44.9279 154.323 45.3179 153.933 45.8379 153.803C45.9679 153.413 45.8379 153.023 46.2279 153.023C46.0979 153.283 46.2279 153.803 45.8379 153.803V154.453C46.6179 154.193 46.8779 153.543 47.0079 152.633C46.7479 152.633 46.4879 152.373 47.0079 152.243V152.633C47.3979 152.503 47.7879 152.113 47.6579 151.463H47.3979C47.3979 151.983 46.7479 151.723 47.3979 151.463C47.3979 151.203 47.3979 150.813 47.6579 150.813C48.3079 149.383 46.4879 150.553 46.6179 149.643C47.1379 149.643 46.8779 148.993 47.3979 148.863C47.3979 149.383 48.1779 149.253 48.4379 149.643V148.863C48.1779 148.863 48.0479 148.603 48.0479 148.083C47.6579 148.213 47.9179 147.563 48.0479 148.083C48.4379 148.213 48.5679 148.473 48.4379 148.863C48.9579 148.733 49.0879 148.213 49.6079 148.083C49.3479 147.433 48.4379 147.823 49.2179 147.043C48.8279 147.043 48.6979 146.393 49.2179 146.263C49.2179 146.003 49.2179 145.873 49.6079 145.873C49.7379 145.613 49.6079 145.093 49.9979 145.093C50.3879 144.053 52.3379 144.313 51.4279 145.873C53.8979 143.273 56.1079 140.283 57.7979 136.903C57.4079 136.903 57.4079 136.253 57.7979 136.123C57.7979 135.733 58.3179 135.863 57.7979 136.123V136.903C58.9679 135.863 60.0079 134.823 60.3979 133.133C60.1379 133.133 59.7479 133.133 59.7479 132.743C60.1379 132.743 60.5279 132.223 60.3979 133.133C65.9879 126.893 69.8879 119.743 75.0879 114.023V112.983C74.5679 112.983 74.8279 112.333 75.0879 112.983C76.6479 111.943 77.5579 110.253 78.4679 108.433C78.0779 108.433 77.9479 107.783 78.4679 107.653C78.5979 107.783 78.8579 107.783 78.8579 108.043H79.5079C79.6379 106.743 80.5479 106.743 79.8979 105.443C80.2879 105.573 80.2879 105.833 80.6779 105.833C80.6779 105.183 80.5479 104.403 81.0679 104.273V104.013C80.5479 104.013 80.8079 103.363 81.0679 104.013C81.1979 104.013 81.4579 104.273 81.0679 104.273C80.9379 104.793 81.0679 105.053 81.4579 105.053C81.5879 103.623 83.1479 103.493 83.2779 102.063H82.8879C82.8879 102.323 82.8879 102.583 82.4979 102.453C82.4979 102.713 82.4979 102.843 82.1079 102.843C82.1079 103.103 81.8479 103.233 81.8479 102.843H82.1079C82.2379 102.583 82.2379 102.323 82.4979 102.453C82.4979 102.193 82.6279 102.063 82.8879 102.063C82.8879 101.413 83.1479 101.153 83.6679 101.023C83.6679 100.763 83.9279 100.503 84.0579 101.023C85.0979 100.633 84.4479 100.373 84.4479 99.4625C84.7079 99.7225 84.9679 99.8525 85.4879 99.8525C86.3979 98.1625 87.4379 96.4726 89.2579 95.6926V93.8726H90.0379C90.1679 92.5726 91.5979 92.3125 92.2479 91.6625C91.4679 91.2725 92.8979 90.1025 93.0279 89.3226C92.6379 89.3226 92.5079 88.6725 93.0279 88.5426V89.3226H93.4179C93.5479 88.0225 95.1079 88.1526 95.2379 86.7226C94.8479 86.7226 94.9779 86.2026 95.2379 86.7226C96.1479 86.4626 96.2779 85.8125 96.7979 84.5125C96.5379 84.5125 96.4079 84.1225 96.7979 84.1225V84.5125C97.3179 83.9925 97.3179 84.3825 97.8379 84.5125C98.0979 83.7325 97.3179 82.1725 98.6179 82.5625C98.6179 82.0425 98.4879 81.1325 99.0079 81.1325C99.2679 81.9125 99.6579 80.6125 100.178 81.5225C101.348 80.0925 101.218 78.0126 102.778 78.1426C108.628 70.0826 111.878 64.8825 118.508 57.2125C118.508 56.9526 118.768 56.6925 118.898 57.2125H119.288C119.678 56.3026 121.108 54.4826 120.328 53.8326C120.458 54.2225 119.808 53.9625 120.328 53.8326C120.328 53.1825 120.068 52.7926 119.548 52.6626C119.678 53.5725 119.288 53.1825 118.898 53.0525C118.898 53.4426 118.248 53.3126 118.898 53.0525C118.508 52.4025 117.728 51.6225 116.948 51.8825C117.078 52.4025 116.428 52.1426 116.948 51.8825C116.948 50.9726 116.688 51.4926 116.298 51.4926C116.298 52.0126 115.648 51.7525 116.298 51.4926C116.298 49.9325 116.038 50.5825 115.518 51.1025C115.778 49.2825 114.608 48.7625 114.348 47.4625C114.478 47.0725 116.688 47.0725 115.518 46.6825C113.828 46.9425 113.698 46.0326 114.738 45.5126C113.828 45.5126 112.918 45.3825 112.528 44.8625C113.048 44.7325 113.958 44.9926 113.958 44.4726C113.828 43.8226 112.268 44.4725 112.138 43.6926C112.658 43.6926 113.178 43.6926 113.178 43.3025C111.488 43.5625 111.878 43.0426 112.528 42.1325C110.968 43.0426 110.318 42.9125 109.148 43.6926C108.368 44.3426 107.198 44.4725 106.548 45.1225C106.938 45.1225 106.938 46.1626 106.548 46.2926V45.1225C104.988 44.8626 100.048 44.9926 101.998 46.2926C101.478 46.5525 101.998 47.7225 101.218 47.8526C101.348 45.7725 100.568 47.3326 100.178 47.8526C99.6579 46.0326 96.1479 48.3725 95.6279 47.8526C96.0179 46.8125 97.8379 47.3326 98.2279 46.2926C93.8079 47.0725 91.8579 47.7225 88.2179 48.1125C88.4779 47.3326 87.1779 46.5525 87.0479 47.4625C87.4379 47.4625 87.3079 47.8526 87.4379 48.1125C87.8279 48.1125 87.6979 48.7625 87.4379 48.1125C86.3979 47.8526 86.3979 48.6325 85.4879 48.5025C85.4879 47.8525 86.0079 47.7225 85.8779 47.0725C84.0579 46.8125 79.7679 49.1526 78.0779 47.8526C78.7279 46.9425 79.6379 46.2925 79.5079 44.8625C79.1179 44.8625 79.3779 44.2126 79.5079 44.8625C82.3679 42.5225 82.7579 37.8426 85.4879 35.5025C85.0979 35.3726 85.0979 34.7226 85.4879 34.7226C86.3979 34.0726 86.7879 32.9026 87.4379 32.1225C86.6579 32.2526 86.2679 31.9925 86.2679 31.3425C87.1779 32.2526 87.1779 30.9525 87.8279 30.5626C90.5579 25.6226 93.5479 18.3425 97.5779 13.4025C96.5379 13.0125 97.8379 11.9726 98.2279 11.8426C97.7079 11.7125 97.3179 9.24255 96.4079 10.0226C96.9279 10.0226 96.7979 10.6726 96.4079 10.6726C96.0179 10.1526 96.0179 9.24255 95.2379 10.0226C95.2379 10.1526 95.2379 10.4125 94.8479 10.4125V12.2325H93.8079V13.0125C94.1979 13.0125 94.1979 13.6626 93.8079 13.6626V13.0125H93.4179C92.7679 13.9225 92.6379 15.4826 91.4679 16.0025C91.5979 14.8326 92.1179 14.0525 92.6379 13.4025C91.5979 13.0125 91.8579 14.0525 91.2079 14.0525C91.4679 14.7025 90.4279 15.7425 90.4279 14.8326C90.4279 14.4426 90.8179 14.3126 91.2079 14.0525C91.0779 13.4025 91.5979 13.2726 91.4679 12.6226C90.5579 12.8825 90.6879 14.3126 89.6479 14.4426C89.6479 14.0525 89.3879 14.0525 89.2579 13.6626C89.7779 12.8825 90.5579 12.7525 90.0379 11.4526C91.4679 11.3226 91.4679 9.63255 92.6379 9.24255V8.46255C92.2479 8.46255 92.3779 7.94255 92.6379 8.46255C93.0279 8.46255 92.8979 8.07255 93.0279 7.68255C92.5079 7.29255 92.3779 7.55255 91.8579 7.68255C91.8579 8.33255 91.5979 8.72255 91.2079 8.85255C90.9479 9.89255 90.4279 10.6726 89.6479 11.0625C89.5179 11.4526 89.6479 11.8426 89.2579 11.8426C89.3879 11.5825 89.2579 11.0625 89.6479 11.0625C89.7779 10.0226 90.2979 9.24255 91.2079 8.85255C91.0779 8.20255 91.4679 7.94255 91.8579 7.68255C91.3379 6.51255 90.6879 8.46255 90.0379 8.46255V7.68255C88.7379 7.55255 91.0779 6.25255 89.2579 6.64255C89.2579 6.77255 88.9979 7.03255 88.8679 6.64255H89.2579ZM96.7979 12.2325C96.6679 12.1026 97.0579 12.4926 96.7979 12.2325V12.2325ZM44.0179 14.4426C44.2779 14.7025 43.7579 14.3126 44.0179 14.4426V14.4426ZM88.8679 15.6126C88.6079 14.0525 90.0379 15.4826 88.8679 15.6126V17.0425C88.2179 16.7826 87.8279 15.7426 88.8679 15.6126ZM86.6579 16.3925C86.5279 16.1326 86.9179 16.6526 86.6579 16.3925V16.3925ZM84.8379 16.7826C84.7079 16.2626 85.3579 16.5225 84.8379 16.7826C84.8379 17.1725 84.1879 16.9126 84.8379 16.7826ZM89.6479 16.7826C89.5179 16.5225 89.9079 16.9126 89.6479 16.7826V16.7826ZM91.2079 16.7826C90.9479 16.5225 91.3379 16.9126 91.2079 16.7826V16.7826ZM33.8779 64.6226C33.8779 65.1425 34.0079 65.4026 34.2679 65.7926C41.6779 52.6626 49.7379 37.4525 56.3679 22.3725C62.4779 20.6825 68.9779 19.2526 74.3079 16.7826C74.9579 18.2125 76.1279 16.2626 78.0779 16.7826C74.1779 24.3225 69.7579 31.3425 66.1179 39.1425C66.3779 39.2725 66.5079 39.5326 66.3779 39.9225C67.5479 40.0526 66.1179 41.4826 66.3779 39.9225C66.1179 39.7925 65.9879 39.6626 66.1179 39.1425C65.5979 39.5326 65.3379 40.1825 64.9479 40.7026C66.5079 40.8325 64.6879 41.7425 64.5579 43.3025C65.0779 43.1726 65.3379 42.7825 65.3379 42.1325H65.7279C65.7279 42.0025 65.7279 41.7425 66.1179 41.7425C65.7279 40.3126 67.1579 41.7425 66.1179 41.7425C65.9879 42.0026 65.9879 42.2625 65.7279 42.1325V43.3025C66.2479 43.3025 65.9879 42.3925 66.7679 42.5225C66.6379 43.0426 66.2479 43.4325 66.1179 44.0825H65.7279C65.8579 44.8626 65.5979 45.5126 64.9479 45.5126C64.9479 45.7725 64.9479 46.0326 64.5579 45.9025C64.5579 46.4225 64.6879 46.9425 64.1679 47.0725C64.1679 47.5925 64.0379 47.8526 63.7779 48.1125C63.5179 48.1125 63.3879 47.8526 63.3879 47.4625H63.1279C62.9979 47.9825 62.4779 48.1125 62.7379 48.8925C63.7779 49.0226 62.3479 50.4525 62.7379 48.8925C62.2179 49.0226 61.9579 49.4125 61.9579 50.0625C61.5679 49.9325 61.5679 49.4125 61.5679 48.8925C61.4379 49.4125 59.6179 50.9726 61.1779 50.8426C61.1779 50.3226 61.6979 50.5825 61.1779 50.8426C60.5279 51.4926 60.7879 53.0525 59.7479 53.4425C59.8779 54.6125 58.5779 54.2225 58.9679 55.6526C59.6179 55.6526 59.2279 54.4826 60.1379 54.4826C60.1379 54.2225 60.1379 53.8326 60.3979 53.8326C60.3979 53.3125 61.0479 53.5725 60.3979 53.8326C60.3979 54.0925 60.3979 54.4826 60.1379 54.4826C60.1379 55.2625 59.6179 55.3925 59.7479 56.0425C60.2679 55.9125 60.3979 55.3925 60.7879 55.2625V54.4826C61.3079 54.4826 61.6979 54.4826 61.5679 53.8326C62.4779 53.8326 61.8279 55.3925 61.5679 55.6526H61.1779C61.1779 55.9125 61.1779 56.4325 60.7879 56.4325V57.2125C61.3079 57.0825 61.3079 56.6925 61.9579 56.8226C61.8279 57.3425 61.4379 57.4726 61.5679 58.2525C61.6979 59.2926 62.2179 57.7325 63.1279 58.2525C63.1279 58.6426 62.4779 58.9025 63.1279 59.0325C63.1279 59.6825 62.7379 59.9425 61.9579 59.8125C62.3479 60.3325 63.3879 62.2826 62.7379 62.8026C73.1379 68.7825 90.5579 59.0325 98.2279 60.2025C98.7479 60.0725 98.8779 59.5525 99.3979 59.4225C99.3979 58.9025 99.9179 59.1625 99.3979 59.4225C99.3979 60.7225 98.0979 60.5925 97.8379 61.6325C97.5779 61.5025 97.4479 61.3725 97.5779 60.8525C95.2379 62.0225 94.3279 66.3125 91.8579 66.1825V66.8326C92.1179 66.8326 92.3779 67.2226 91.8579 67.2226C91.4679 67.8726 91.5979 68.7825 90.8179 68.0025C85.4879 75.1525 79.6379 81.7825 74.6979 89.3226C74.8279 89.3226 75.0879 89.7125 74.6979 89.7125C74.6979 89.9726 74.4379 90.1025 74.3079 89.7125C72.4879 91.4025 71.0579 93.4826 69.7579 95.6926C70.2779 95.6926 70.0179 96.2125 69.7579 95.6926C68.9779 95.9526 68.7179 96.8626 68.3279 97.6425C69.8879 97.2526 68.3279 98.6826 68.3279 97.6425C52.4679 118.053 36.9979 138.983 23.3479 161.603C22.0479 160.303 24.3879 159.393 23.3479 158.223C22.9579 158.223 23.2179 157.703 23.3479 158.223C24.7779 156.923 23.8679 155.493 24.9079 154.063C27.3779 145.483 31.7979 134.953 35.0479 126.763C35.8279 123.253 39.5979 118.313 39.4679 114.803C39.0779 114.803 39.2079 114.283 39.4679 114.803C42.3279 111.813 42.8479 107.263 43.6279 104.013C44.2779 104.663 45.3179 103.753 45.0579 102.453H44.6679C45.0579 104.013 43.6279 102.583 44.6679 102.453C44.6679 100.113 47.2679 100.243 47.0079 97.6425C46.6179 97.6425 46.4879 96.9925 47.0079 96.8626C47.0079 96.2125 47.9179 96.6026 47.6579 95.6926H47.3979C47.3979 96.2125 46.7479 95.9526 47.3979 95.6926C47.3979 95.5626 47.6579 95.3025 47.6579 95.6926C49.0879 94.2626 51.9479 94.3926 54.0279 93.8726C54.2879 92.8326 53.2479 93.0926 52.9879 92.7026C53.3779 91.6626 53.8979 93.2226 54.4179 92.3125C54.4179 91.9225 53.8979 91.9225 53.3779 91.9225C53.3779 91.4025 54.4179 91.7926 54.4179 91.2726C54.2879 90.6226 54.0279 91.2726 53.3779 91.2726C53.3779 90.6226 54.9379 90.1025 53.3779 90.1025C53.3779 89.5825 53.5079 89.1925 54.0279 89.3226C52.9879 88.8025 52.7279 87.5025 53.3779 86.7226C53.2479 86.0726 52.7279 85.9425 51.8179 85.9425C52.2079 85.5525 52.2079 84.6425 52.5979 84.1225C51.8179 83.6025 49.4779 83.4725 52.2079 83.3425C52.0779 81.5225 51.0379 82.9525 49.9979 82.3025C50.2579 81.6525 50.9079 81.3925 51.8179 81.5225C51.0379 80.6125 47.9179 81.5226 49.2179 79.5726C39.5979 80.0926 31.7979 84.5125 22.9579 85.5525C22.6979 85.6825 22.5679 85.9425 22.6979 86.3326C22.1779 86.3326 22.1779 85.8126 22.3079 85.2926C21.7879 85.2926 22.0479 84.6426 22.3079 85.2926C22.6979 85.2926 22.6979 84.9026 22.9579 84.9026C23.0879 84.5125 22.9579 84.1225 23.3479 84.1225C23.0879 82.6925 24.2579 82.6925 24.1279 81.5225C23.7379 81.5225 23.8679 81.0025 24.1279 81.5225C24.6479 81.3925 24.5179 80.6125 24.9079 80.3525C25.8179 81.1325 23.9979 82.1725 24.1279 83.3425C25.1679 82.8225 25.2979 81.2625 26.3379 80.7425C25.5579 79.7025 27.3779 79.0525 27.1179 77.3626C26.3379 78.0126 26.2079 79.1826 25.6879 79.9626C25.0379 79.3126 26.0779 77.2325 27.1179 76.9725V77.3626C27.3779 77.2325 27.5079 77.1025 27.5079 76.5825C26.3379 76.3225 27.8979 75.8025 27.5079 75.1525C28.0279 75.1525 27.8979 75.8025 28.2879 75.9326C29.5879 72.4226 31.6679 69.5626 32.7079 65.7926C32.0579 65.9226 32.1879 64.1026 33.0979 64.6226C33.0979 65.1425 32.5779 65.1425 32.7079 65.7926H33.4879C33.6179 65.2726 33.4879 64.7526 33.8779 64.6226C35.0479 64.6226 33.4879 63.0626 33.8779 64.6226ZM92.6379 17.0425C92.5079 16.9125 92.8979 17.3026 92.6379 17.0425V17.0425ZM89.2579 17.4326C89.1279 17.3026 89.5179 17.6925 89.2579 17.4326V17.4326ZM84.0579 17.8226C83.9279 17.6925 84.3179 18.0825 84.0579 17.8226V17.8226ZM90.4279 18.6026C89.7779 18.3425 90.2979 17.9526 90.4279 17.4326C91.0779 17.6925 90.4279 18.2125 90.4279 18.6026ZM86.2679 17.8226C86.2679 18.2125 85.8779 18.0825 85.4879 18.2125C85.4879 17.8226 86.0079 17.9526 86.2679 17.8226ZM87.8279 18.2125C87.6979 17.8226 88.3479 17.9526 87.8279 18.2125C87.8279 18.8625 87.4379 19.1226 87.0479 19.3825C87.4379 20.9426 85.8779 19.3825 87.0479 19.3825C87.0479 18.8625 87.1779 18.4726 87.4379 18.2125H87.8279ZM82.8879 20.0325C82.7579 19.9025 83.1479 20.2926 82.8879 20.0325V20.0325ZM89.2579 20.0325C89.1279 19.9025 89.5179 20.2926 89.2579 20.0325V20.0325ZM86.2679 20.8126C87.5679 19.9026 85.3579 22.1126 86.2679 20.8126V20.8126ZM87.4379 20.8126C87.3079 20.6825 87.6979 21.0726 87.4379 20.8126V20.8126ZM88.8679 20.8126C88.7379 20.6825 89.1279 21.0726 88.8679 20.8126V20.8126ZM88.4779 21.5926C88.3479 21.4626 88.7379 21.8525 88.4779 21.5926V21.5926ZM85.4879 22.3725C85.4879 21.8525 86.1379 22.1126 85.4879 22.3725C85.8779 23.9326 84.4479 22.3725 85.4879 22.3725ZM90.0379 22.7626C89.9079 22.5025 90.2979 22.8925 90.0379 22.7626V22.7626ZM87.4379 23.8025C87.3079 23.0225 87.6979 22.6326 88.4779 22.7626C88.3479 23.2826 87.9579 23.6725 87.4379 23.8025C86.9179 24.0626 87.4379 24.3225 87.4379 23.8025ZM86.2679 26.1425C86.1379 25.8825 86.5279 26.2726 86.2679 26.1425V26.1425ZM86.2679 27.1825C86.1379 27.0526 86.5279 27.4426 86.2679 27.1825V27.1825ZM87.4379 27.5726C87.8279 26.1425 87.8279 29.0025 87.4379 27.5726V27.5726ZM85.4879 28.7426C85.3579 28.4825 85.7479 29.0025 85.4879 28.7426V28.7426ZM77.2979 30.9525C77.1679 30.8225 77.5579 31.2126 77.2979 30.9525V30.9525ZM85.8779 30.9525C85.7479 30.8225 86.1379 31.2126 85.8779 30.9525V30.9525ZM78.8579 31.7326C78.9879 31.9925 78.5979 31.6026 78.8579 31.7326V31.7326ZM85.0979 31.7326C85.6179 30.1725 85.6179 33.1625 85.0979 31.7326V31.7326ZM84.8379 33.1625C85.0979 33.4226 84.5779 33.0326 84.8379 33.1625V33.1625ZM79.1179 33.5526C78.9879 33.4226 79.3779 33.8125 79.1179 33.5526V33.5526ZM82.1079 33.5526C82.6279 32.1225 82.6279 34.9826 82.1079 33.5526V33.5526ZM82.8879 33.9425C82.7579 33.8125 83.1479 34.2025 82.8879 33.9425V33.9425ZM85.4879 33.9425C85.3579 33.8125 85.7479 34.2025 85.4879 33.9425V33.9425ZM70.9279 34.7226C70.7979 34.5925 71.1879 34.9825 70.9279 34.7226V34.7226ZM76.9079 35.1125C76.7779 34.8526 77.1679 35.3726 76.9079 35.1125V35.1125ZM81.8479 35.1125C81.9779 35.3726 81.5879 34.8526 81.8479 35.1125V35.1125ZM83.6679 35.1125C83.5379 34.8526 83.9279 35.3726 83.6679 35.1125V35.1125ZM78.4679 35.5025C78.2079 35.2426 78.7279 35.6325 78.4679 35.5025V35.5025ZM83.6679 35.7625C83.6679 36.1525 83.1479 36.1525 82.8879 36.1525C82.8879 35.7625 83.4079 35.8926 83.6679 35.7625ZM81.8479 37.3225C83.1479 38.4925 80.6779 38.6225 81.8479 37.3225V37.3225ZM75.4779 38.1025C75.3479 37.5825 75.9979 37.8426 75.4779 38.1025C75.4779 39.0126 74.8279 39.2725 74.6979 39.9225H74.3079C74.4379 41.6125 72.8779 40.0526 74.3079 39.9225C74.3079 39.0126 74.8279 38.7525 75.0879 38.1025H75.4779ZM67.9379 38.4925C67.8079 38.2326 68.1979 38.6225 67.9379 38.4925V38.4925ZM76.5179 38.7525C76.3879 38.6225 76.7779 39.0126 76.5179 38.7525V38.7525ZM81.0679 38.7525C80.9379 38.6225 81.3279 39.0126 81.0679 38.7525V38.7525ZM70.1479 39.1425C70.0179 39.0126 70.4079 39.4026 70.1479 39.1425V39.1425ZM67.1579 39.5326C67.0279 39.4026 67.4179 39.7925 67.1579 39.5326V39.5326ZM67.9379 40.3125C67.9379 39.6625 67.9379 39.0126 68.7179 39.1425V39.9225C68.4579 39.9225 68.1979 39.9225 68.3279 40.3125H67.9379C67.9379 40.5725 67.9379 40.7026 67.5479 40.7026C67.4179 40.9625 67.5479 41.4825 67.1579 41.4825C67.2879 41.8726 66.6379 41.6125 67.1579 41.4825C67.2879 41.0925 67.1579 40.7026 67.5479 40.7026C67.5479 40.4425 67.6779 40.1825 67.9379 40.3125ZM69.7579 39.5326C69.3679 39.5326 69.6279 39.0126 69.7579 39.5326C70.9279 39.6626 69.4979 41.0925 69.7579 39.5326ZM76.1279 39.5326C76.1279 39.1425 76.7779 39.2725 76.1279 39.5326C75.6079 40.9625 75.3479 42.7825 73.9179 43.3025C73.0079 45.3825 72.4879 47.8526 70.5379 48.8925C71.1879 46.5525 72.6179 44.8626 73.9179 43.3025C74.0479 41.4825 75.3479 40.9625 75.7379 39.5326H76.1279ZM80.2879 39.5326C79.8979 39.5326 80.0279 39.0126 80.2879 39.5326C80.8079 39.5326 80.5479 40.0526 80.2879 39.5326ZM70.9279 39.9225C70.7979 39.7925 71.1879 40.1826 70.9279 39.9225V39.9225ZM69.1079 40.7026C68.7179 39.1425 70.1479 40.5725 69.1079 40.7026C68.9779 41.3525 69.4979 42.5225 68.3279 42.1325C67.6779 45.2525 66.6379 45.7725 65.3379 48.1125C65.0779 46.4225 67.2879 43.8225 68.3279 42.1325C68.1979 41.4825 68.7179 41.3525 68.7179 40.7026H69.1079ZM70.5379 41.0925C70.1479 39.5326 71.7079 40.9625 70.5379 41.0925C70.5379 41.4825 70.0179 41.2226 70.5379 41.0925ZM79.8979 40.7026C79.7679 40.5725 80.1579 40.9625 79.8979 40.7026V40.7026ZM44.6679 41.0925C44.5379 40.9625 44.9279 41.3526 44.6679 41.0925V41.0925ZM76.9079 41.0925C77.2979 39.5326 77.2979 42.5226 76.9079 41.0925V41.0925ZM73.1379 41.7425C72.8779 40.3126 74.3079 41.7425 73.1379 41.7425C73.2679 42.7825 72.6179 42.9125 72.4879 43.6926H72.0979C72.0979 44.7325 71.1879 44.8626 71.3179 45.9025H70.9279C70.4079 47.3326 70.0179 48.7625 68.7179 49.2825C69.2379 47.9825 69.6279 46.5525 70.9279 45.9025C71.1879 44.9926 70.9279 43.6926 72.0979 43.6926C71.9679 42.7825 72.6179 42.5226 72.7479 41.7425H73.1379ZM69.7579 42.1325C69.6279 42.0025 70.0179 42.3925 69.7579 42.1325V42.1325ZM76.9079 43.3025C75.8679 42.5226 78.2079 40.9625 78.0779 42.9125C77.5579 42.9125 77.1679 43.0426 76.9079 43.3025C76.9079 43.5625 76.9079 43.6926 76.5179 43.6926C76.6479 44.0825 75.9979 43.9525 76.5179 43.6926C76.5179 43.4325 76.6479 43.1726 76.9079 43.3025ZM78.8579 42.1325C79.1179 42.2625 79.1179 42.0026 79.1179 41.7425C79.6379 41.8726 79.3779 42.5225 79.8979 42.5225C80.0279 42.9125 79.7679 42.9125 79.5079 42.9125H78.8579V42.1325ZM70.1479 42.9125C70.0179 42.7825 70.4079 43.1725 70.1479 42.9125V42.9125ZM69.1079 43.6926C69.3679 43.9525 68.8479 43.5625 69.1079 43.6926V43.6926ZM78.0779 43.6926C77.9479 43.5625 78.3379 43.9525 78.0779 43.6926V43.6926ZM69.4979 45.1225C68.9779 43.0426 71.0579 44.9925 69.4979 45.1225C69.4979 45.6425 68.8479 45.3825 69.4979 45.1225ZM75.0879 44.4726C74.9579 43.9525 75.6079 44.2126 75.0879 44.4726V44.8625H75.7379C75.7379 44.3425 76.3879 44.6025 75.7379 44.8625C75.6079 46.0326 75.0879 46.8126 75.0879 48.1125C76.6479 47.8526 75.0879 49.2826 75.0879 48.1125C72.8779 48.1125 75.9979 45.9025 74.6979 45.5126C74.6979 45.7725 74.5679 46.0326 74.3079 45.9025C74.3079 46.4225 73.7879 46.1626 74.3079 45.9025C74.3079 45.6426 74.3079 45.5126 74.6979 45.5126C74.6979 45.1225 74.9579 45.1225 75.0879 44.8625C74.8279 44.8625 74.5679 44.4726 75.0879 44.4726ZM68.3279 44.8625C69.6279 43.9525 67.4179 46.0326 68.3279 44.8625V44.8625ZM78.4679 45.1225C78.0779 43.5625 79.5079 45.1225 78.4679 45.1225C78.3379 45.5126 78.4679 45.9025 78.0779 45.9025C78.0779 46.1626 77.9479 46.4225 77.6879 46.2926C77.6879 46.8126 77.1679 46.5525 77.6879 46.2926C77.6879 46.0326 77.6879 45.9025 78.0779 45.9025C78.0779 45.6426 78.0779 45.1225 78.4679 45.1225ZM77.2979 45.1225C77.1679 44.9925 77.5579 45.3825 77.2979 45.1225V45.1225ZM109.148 45.1225C109.148 44.7325 109.668 44.9925 109.148 45.1225C108.888 46.2925 108.108 45.6425 107.198 45.5126C107.198 44.7325 108.628 45.3825 109.148 45.1225ZM110.188 45.1225C110.058 44.9925 110.448 45.3825 110.188 45.1225V45.1225ZM111.748 45.1225C111.618 44.9925 112.008 45.3825 111.748 45.1225V45.1225ZM42.4579 45.5126C42.3279 45.3825 42.7179 45.7725 42.4579 45.5126V45.5126ZM70.1479 45.5126C70.1479 45.1225 70.6679 45.3825 70.1479 45.5126C70.1479 45.7725 70.1479 46.0326 69.7579 45.9025C69.6279 46.4225 69.3679 46.6825 68.7179 46.6825C68.8479 46.1625 69.1079 45.9025 69.7579 45.9025C69.8879 45.6426 69.8879 45.5126 70.1479 45.5126ZM76.5179 45.5126C76.3879 45.3825 76.7779 45.7725 76.5179 45.5126V45.5126ZM102.778 46.2926C103.298 45.6426 105.898 44.8625 105.768 46.6825C104.858 46.4225 104.078 46.1626 102.778 46.2926ZM109.928 45.9025C110.058 46.1626 109.668 45.7725 109.928 45.9025V45.9025ZM76.1279 46.2926C76.1279 45.9025 76.7779 46.0326 76.1279 46.2926C76.2579 46.8126 75.6079 46.5525 76.1279 46.2926ZM72.7479 48.1125C72.6179 47.3326 73.0079 47.2026 73.1379 46.6825C74.3079 46.6825 73.9179 48.2425 72.7479 48.1125ZM76.5179 47.0725C76.5179 46.5525 77.0379 46.8125 76.5179 47.0725C76.3879 48.5025 74.9579 46.9425 76.5179 47.0725ZM66.7679 47.4625C66.6379 47.2026 67.0279 47.7225 66.7679 47.4625V47.4625ZM67.9379 47.4625C67.9379 46.9425 68.4579 47.2026 67.9379 47.4625C68.0679 49.0226 66.5079 47.4625 67.9379 47.4625ZM41.4179 47.8526C41.1579 47.5925 41.5479 47.9825 41.4179 47.8526V47.8526ZM94.4579 47.8526C94.4579 48.1125 94.0679 48.1125 93.8079 48.1125C93.8079 47.8526 94.1979 47.8526 94.4579 47.8526ZM98.6179 48.1125C98.4879 47.9826 98.8779 48.3725 98.6179 48.1125V48.1125ZM83.2779 48.5025C83.1479 48.3725 83.5379 48.7625 83.2779 48.5025V48.5025ZM92.2479 48.5025C93.1579 47.0725 92.7679 49.8025 92.2479 48.5025V48.5025ZM66.1179 48.8925C66.3779 49.1525 65.8579 48.7625 66.1179 48.8925V48.8925ZM90.0379 48.8925C90.9479 47.4625 90.5579 50.1926 90.0379 48.8925V48.8925ZM89.6479 48.8925C89.6479 49.2825 89.2579 49.1525 88.8679 49.2825C88.8679 48.8925 89.3879 49.0226 89.6479 48.8925ZM91.4679 49.2825C91.3379 49.1525 91.7279 49.5425 91.4679 49.2825V49.2825ZM93.0279 49.2825C92.8979 49.1525 93.2879 49.5425 93.0279 49.2825V49.2825ZM64.1679 49.6726C64.0379 49.5425 64.4279 49.9325 64.1679 49.6726V49.6726ZM86.6579 50.0625C86.5279 49.9325 86.9179 50.3226 86.6579 50.0625V50.0625ZM62.3479 50.4525C62.3479 49.9325 62.8679 50.1926 62.3479 50.4525C62.3479 50.9726 62.3479 51.7525 61.5679 51.4926C61.6979 51.1025 61.9579 50.7125 62.3479 50.4525ZM61.1779 52.2725C61.0479 52.1426 61.4379 52.5325 61.1779 52.2725V52.2725ZM60.7879 53.0525C60.6579 52.9225 61.0479 53.3126 60.7879 53.0525V53.0525ZM116.948 53.0525C117.468 51.4926 117.468 54.4826 116.948 53.0525V53.0525ZM62.3479 53.4425C62.7379 51.8825 62.7379 54.8725 62.3479 53.4425V53.4425ZM37.6479 55.2625C37.2579 53.7025 38.6879 55.2625 37.6479 55.2625C37.6479 55.7825 37.1279 55.5225 37.6479 55.2625ZM38.2979 56.8226C38.0379 55.2625 39.4679 56.6925 38.2979 56.8226C38.2979 56.9526 38.2979 57.2125 38.0379 57.2125C38.0379 57.6026 37.3879 57.3425 38.0379 57.2125C38.0379 56.9526 38.0379 56.6925 38.2979 56.8226ZM62.3479 56.0425C62.3479 56.4325 61.8279 56.3026 61.5679 56.4325C61.5679 56.0425 62.0879 56.1725 62.3479 56.0425ZM36.4779 57.2125C36.4779 56.6925 36.9979 56.9526 36.4779 57.2125C36.4779 57.6026 35.9579 57.3425 36.4779 57.2125ZM106.938 57.8625C107.068 58.1225 106.678 57.7325 106.938 57.8625V57.8625ZM108.368 57.8625C108.368 57.4726 108.888 57.7325 108.368 57.8625C108.368 58.3825 107.848 58.1225 108.368 57.8625ZM108.758 59.8125C107.848 58.7725 110.188 58.6426 110.188 57.4725C111.098 58.1225 109.538 59.5525 108.758 59.8125C108.758 60.7225 108.238 60.9825 107.588 61.2425C107.588 61.8925 107.328 62.2825 106.938 62.4125C106.808 62.6725 106.808 62.8026 106.548 62.8026C106.418 63.0625 106.418 63.1925 106.158 63.1925C106.158 63.5825 105.638 63.7125 105.768 64.2325C104.988 64.3625 105.248 62.5425 106.158 63.1925C106.158 62.9326 106.158 62.6725 106.548 62.8026C106.548 62.5425 106.548 62.2825 106.938 62.4125C106.808 61.8925 107.068 61.6325 107.198 61.2425H107.588C107.328 60.2025 108.368 60.4625 108.368 59.8125H108.758ZM105.768 59.0325H104.988C104.858 57.9926 105.768 58.1225 106.548 57.8625C106.678 58.6426 106.028 58.6426 105.768 59.0325C106.028 59.5525 106.158 59.0325 105.768 59.0325ZM111.358 58.6426V57.8625H112.138V58.6426H111.358ZM112.918 58.2525C113.308 56.8226 113.308 59.8126 112.918 58.2525V58.2525ZM114.348 58.2525C114.218 58.1226 114.608 58.5125 114.348 58.2525V58.2525ZM102.778 58.6426C102.778 58.2525 103.298 58.3825 102.778 58.6426C102.778 59.1625 102.258 58.9025 102.778 58.6426ZM104.208 58.6426C104.078 58.5125 104.468 58.9025 104.208 58.6426V58.6426ZM106.938 59.8125C106.808 59.2925 107.068 58.9025 107.198 58.6426C107.848 58.7726 107.458 59.4225 107.198 59.8125H106.938C106.938 60.7225 106.288 60.9825 105.768 61.2425C105.768 61.5025 105.638 61.7625 105.378 61.6325C105.378 62.2825 105.118 62.5425 104.598 62.8026C104.598 63.0625 104.598 63.1925 104.208 63.1925C104.468 64.1026 103.558 63.8425 103.558 64.6226C102.518 64.3626 103.818 63.3225 104.208 63.1925C104.338 62.9326 104.338 62.6725 104.598 62.8026C104.598 62.2826 104.858 61.8925 104.988 61.6325H105.378C105.378 61.3725 105.378 61.2425 105.768 61.2425C105.508 60.2025 106.548 60.4625 106.548 59.8125H106.938ZM110.578 59.4225C110.318 57.8625 111.748 59.2925 110.578 59.4225C110.708 59.8125 110.058 59.6825 110.578 59.4225ZM101.998 59.8125C101.868 59.6825 102.258 60.0725 101.998 59.8125V59.8125ZM104.598 59.8125C104.598 59.5525 104.988 59.2925 104.988 59.8125C105.508 59.6825 105.248 60.3325 104.988 59.8125H104.598C104.078 59.9425 104.728 60.2025 104.598 59.8125ZM111.748 59.8125C111.618 59.6825 112.008 60.0725 111.748 59.8125V59.8125ZM103.818 60.8525C103.818 60.7225 104.208 60.4626 104.208 60.8525C104.728 60.8525 104.468 61.5025 104.208 60.8525H103.818C103.818 61.1126 103.818 61.3725 103.558 61.2425C103.558 61.7625 102.908 61.5025 103.558 61.2425C103.558 60.9825 103.558 60.8525 103.818 60.8525ZM112.528 60.8525C112.528 59.8126 114.088 61.2425 112.528 60.8525V61.6325C114.088 61.2425 112.528 62.8025 112.528 61.6325C112.138 61.6325 112.008 60.9825 112.528 60.8525ZM110.578 61.6325C110.578 61.2425 111.228 61.3725 110.578 61.6325C110.708 62.1525 110.058 61.8925 110.578 61.6325ZM33.4879 62.4125C33.3579 62.2825 33.7479 62.6725 33.4879 62.4125V62.4125ZM35.0479 62.4125C35.9579 60.9825 35.5679 63.5825 35.0479 62.4125V62.4125ZM103.168 62.4125C102.648 62.4125 102.908 61.8925 103.168 62.4125C103.558 62.4125 103.428 62.9325 103.168 62.4125ZM109.538 62.8026C110.708 61.8925 108.628 63.9725 109.538 62.8026V62.8026ZM111.358 62.4125C111.358 62.8026 110.968 62.6725 110.578 62.8026C110.578 62.4125 111.098 62.5425 111.358 62.4125ZM101.998 63.1925C101.998 62.6725 102.518 62.9326 101.998 63.1925C101.868 63.4526 101.998 63.8425 101.608 63.8425C101.608 64.1025 101.608 64.3625 101.218 64.2325C101.218 64.4925 101.218 64.7526 100.828 64.6226C100.958 65.1425 100.308 64.8826 100.828 64.6226C100.958 64.3626 100.958 64.2325 101.218 64.2325C101.218 64.1025 101.348 63.8425 101.608 63.8425C101.738 63.5825 101.608 63.1925 101.998 63.1925ZM110.188 63.5826C110.448 62.0225 109.928 65.7926 110.188 63.5826V63.5826ZM33.0979 63.8425C34.3979 62.9325 32.1879 65.1425 33.0979 63.8425V63.8425ZM95.6279 63.8425C95.6279 63.4525 96.1479 63.7125 95.6279 63.8425C95.6279 64.3625 95.1079 64.1025 95.6279 63.8425ZM108.368 64.6226C108.238 64.4925 108.628 64.8826 108.368 64.6226V64.6226ZM109.148 65.7926C108.758 64.2325 110.188 65.6625 109.148 65.7926C109.148 66.1825 108.628 66.0525 109.148 65.7926ZM102.388 65.7926C102.258 65.6625 102.648 66.0525 102.388 65.7926V65.7926ZM99.7879 66.1825C99.6579 65.9225 100.048 66.4425 99.7879 66.1825V66.1825ZM32.0579 66.5726C31.9279 66.0526 32.5779 66.3125 32.0579 66.5726C31.9279 66.8326 31.9279 67.2226 31.6679 67.2226C31.6679 67.7426 31.0179 67.4826 31.6679 67.2226C31.6679 66.9626 31.6679 66.5726 32.0579 66.5726ZM103.558 66.8326C103.428 66.4426 104.078 66.7026 103.558 66.8326C103.558 67.3526 102.908 67.0926 103.558 66.8326ZM106.548 66.8326C106.808 67.0926 106.288 66.7026 106.548 66.8326V66.8326ZM101.608 66.8326C101.608 67.2226 101.218 67.2226 100.828 67.2226C100.958 66.9626 101.348 66.9626 101.608 66.8326ZM107.978 67.2226C107.848 67.0926 108.238 67.4826 107.978 67.2226V67.2226ZM102.778 68.0025C102.648 67.8725 103.038 68.2625 102.778 68.0025V68.0025ZM107.198 68.0025C107.068 67.8725 107.458 68.2625 107.198 68.0025V68.0025ZM30.8879 68.3926C32.1879 67.4826 29.9779 69.6925 30.8879 68.3926V68.3926ZM100.178 68.3926C100.438 68.6526 99.9179 68.2625 100.178 68.3926V68.3926ZM104.988 68.7826C106.288 67.8726 104.078 69.9526 104.988 68.7826V68.7826ZM106.938 68.7826C107.068 69.0426 106.678 68.6526 106.938 68.7826V68.7826ZM97.1879 69.5625C96.9279 69.3025 97.4479 69.6925 97.1879 69.5625V69.5625ZM101.218 69.5625C101.218 69.0425 101.868 69.3025 101.218 69.5625C101.608 71.1225 100.178 69.5625 101.218 69.5625ZM106.938 69.5625C106.678 69.3025 107.068 69.6925 106.938 69.5625V69.5625ZM30.1079 69.8225C30.4979 68.3925 30.4979 71.3825 30.1079 69.8225V69.8225ZM28.9379 70.2126C29.4579 68.7825 29.4579 71.7725 28.9379 70.2126V70.2126ZM98.6179 70.6026C98.2279 69.0426 99.7879 70.6026 98.6179 70.6026C98.6179 70.8626 98.6179 71.1226 98.2279 70.9925C98.2279 71.2526 98.2279 71.5125 97.8379 71.3825C97.8379 71.6425 97.8379 71.7725 97.5779 71.7725C97.5779 72.1625 96.9279 72.0325 97.5779 71.7725C97.5779 71.5125 97.5779 71.2525 97.8379 71.3825C97.9679 71.1225 97.9679 70.9925 98.2279 70.9925C98.2279 70.7326 98.3579 70.6026 98.6179 70.6026ZM103.818 70.6026C103.688 70.4726 104.078 70.8626 103.818 70.6026V70.6026ZM96.0179 70.9925C95.8879 70.8626 96.2779 71.2526 96.0179 70.9925V70.9925ZM95.2379 72.1625C95.2379 71.6426 95.7579 71.9025 95.2379 72.1625C95.3679 72.5526 94.7179 72.4225 95.2379 72.1625ZM102.778 72.1625C102.778 72.5526 102.258 72.4226 101.998 72.5526C101.998 72.1626 102.518 72.1625 102.778 72.1625ZM94.1979 73.2025C94.5879 71.7725 94.5879 74.7625 94.1979 73.2025V73.2025ZM27.5079 73.5925C27.8979 72.1625 27.8979 75.1525 27.5079 73.5925V73.5925ZM96.0179 73.5925C97.3179 72.6825 95.1079 74.8925 96.0179 73.5925V73.5925ZM103.168 73.5925C103.038 73.4625 103.428 73.8525 103.168 73.5925V73.5925ZM27.8979 74.7625C27.7679 74.6325 28.1579 75.0225 27.8979 74.7625V74.7625ZM90.4279 74.7625C90.2979 74.6325 90.6879 75.0225 90.4279 74.7625V74.7625ZM95.2379 74.7625C95.2379 74.2425 95.7579 74.5025 95.2379 74.7625C95.3679 75.1525 94.7179 75.0225 95.2379 74.7625ZM104.208 74.7625C104.078 74.6325 104.468 75.0225 104.208 74.7625V74.7625ZM26.7279 75.1525C27.2479 73.5925 27.2479 76.5825 26.7279 75.1525V75.1525ZM101.608 75.5426C101.218 73.9825 102.778 75.4126 101.608 75.5426C101.738 75.9326 101.088 75.6726 101.608 75.5426ZM92.6379 75.5426C92.6379 75.0226 93.1579 75.2826 92.6379 75.5426C92.6379 75.6726 92.6379 75.9326 92.2479 75.9326C92.3779 76.3226 91.7279 76.0625 92.2479 75.9326C92.2479 75.6726 92.3779 75.4126 92.6379 75.5426ZM96.0179 76.1926C96.0179 75.8026 96.5379 76.0626 96.0179 76.1926C95.8879 76.5826 96.0179 76.9725 95.6279 76.9725C95.6279 77.4925 95.1079 77.2325 95.6279 76.9725C95.7579 76.7125 95.6279 76.3226 96.0179 76.1926ZM99.0079 76.9725C98.8779 76.8425 99.2679 77.2325 99.0079 76.9725V76.9725ZM101.998 76.9725C101.868 76.8425 102.258 77.2325 101.998 76.9725V76.9725ZM25.6879 77.3626C25.8179 77.6225 25.4279 77.2325 25.6879 77.3626V77.3626ZM90.8179 77.7526C91.0779 78.0126 90.5579 77.6225 90.8179 77.7526V77.7526ZM93.0279 77.7526C93.0279 77.2326 93.5479 77.4926 93.0279 77.7526C93.0279 78.0126 93.0279 78.1426 92.6379 78.1426C92.6379 78.5326 92.1179 78.4026 92.6379 78.1426C92.6379 77.8826 92.7679 77.6225 93.0279 77.7526ZM99.7879 77.7526C99.6579 77.6225 100.048 78.0126 99.7879 77.7526V77.7526ZM94.4579 78.1426C95.4979 76.7125 95.1079 79.3126 94.4579 78.1426V78.1426ZM89.2579 79.5726C89.2579 79.1826 89.7779 79.4426 89.2579 79.5726C89.2579 80.0926 88.7379 79.8326 89.2579 79.5726ZM91.4679 79.5726C91.4679 79.1826 92.1179 79.4426 91.4679 79.5726C91.5979 80.0926 90.9479 79.8326 91.4679 79.5726ZM98.2279 79.5726C98.0979 79.4426 98.4879 79.8326 98.2279 79.5726V79.5726ZM99.3979 79.5726C99.2679 79.4426 99.6579 79.8326 99.3979 79.5726V79.5726ZM44.6679 80.7425C45.1879 79.3125 45.1879 82.1725 44.6679 80.7425V80.7425ZM97.1879 81.1325V80.3525H97.8379V81.1325H97.1879ZM87.8279 81.5225C87.6979 81.0025 88.3479 81.2625 87.8279 81.5225C87.8279 81.9125 87.1779 81.7825 87.8279 81.5225ZM91.8579 81.9125C91.5979 80.3525 93.0279 81.7825 91.8579 81.9125C91.9879 82.3025 91.3379 82.0425 91.8579 81.9125ZM41.4179 81.9125C41.8079 80.3525 41.8079 83.3425 41.4179 81.9125V81.9125ZM39.8579 82.3025C40.2479 81.1325 41.8079 82.6925 39.8579 82.3025V82.5625C40.2479 82.5625 40.1179 83.2125 39.8579 82.5625C39.2079 82.6925 38.9479 82.1725 39.8579 82.3025ZM42.0679 82.3025C41.9379 82.0425 42.3279 82.4325 42.0679 82.3025V82.3025ZM94.4579 82.3025C94.9779 80.7425 94.9779 83.7325 94.4579 82.3025V82.3025ZM96.4079 82.3025C96.4079 81.7825 96.9279 82.0425 96.4079 82.3025C96.4079 82.6925 95.8879 82.4325 96.4079 82.3025ZM22.9579 82.5625C22.8279 82.4326 23.2179 82.8225 22.9579 82.5625V82.5625ZM38.2979 82.5625C38.1679 82.4326 38.5579 82.8225 38.2979 82.5625V82.5625ZM37.2579 82.9525C37.1279 82.8225 37.5179 83.2125 37.2579 82.9525V82.9525ZM86.6579 82.9525C86.5279 82.8225 86.9179 83.2125 86.6579 82.9525V82.9525ZM44.6679 83.3425C44.5379 83.2125 44.9279 83.6025 44.6679 83.3425V83.3425ZM95.2379 83.3425C95.1079 83.2125 95.4979 83.6025 95.2379 83.3425V83.3425ZM22.3079 84.1225C22.6979 82.6925 22.6979 85.5525 22.3079 84.1225V84.1225ZM94.8479 84.1225C94.7179 83.9925 95.1079 84.3825 94.8479 84.1225V84.1225ZM92.2479 84.5125C92.1179 84.3825 92.5079 84.7725 92.2479 84.5125V84.5125ZM31.6679 84.9026C31.4079 84.6426 31.9279 85.1626 31.6679 84.9026V84.9026ZM89.2579 85.2926C89.2579 84.7726 89.7779 85.0326 89.2579 85.2926C89.2579 85.6826 88.7379 85.4226 89.2579 85.2926ZM93.0279 85.9425C93.5479 85.9425 93.4179 85.1626 93.8079 84.9026C94.7179 85.0326 93.9379 86.7226 93.0279 86.3326V85.9425C92.7679 85.4225 92.5079 86.0725 93.0279 85.9425ZM84.8379 85.5525C85.0979 85.8125 84.5779 85.4225 84.8379 85.5525V85.5525ZM86.6579 85.9425C86.2679 84.3825 87.8279 85.9425 86.6579 85.9425C86.6579 86.2025 86.6579 86.4626 86.2679 86.3326C86.6579 87.8926 85.2279 86.4626 86.2679 86.3326C86.2679 86.0726 86.3979 85.9425 86.6579 85.9425ZM82.1079 86.3326C81.9779 86.2026 82.3679 86.5925 82.1079 86.3326V86.3326ZM52.2079 87.1126C52.0779 86.9826 52.4679 87.3726 52.2079 87.1126V87.1126ZM88.2179 86.7226C88.0879 87.1126 87.6979 86.9826 87.4379 87.1126C87.4379 86.7226 87.8279 86.8526 88.2179 86.7226ZM94.1979 87.1126C94.4579 87.3726 93.9379 86.9826 94.1979 87.1126V87.1126ZM90.0379 90.4925C90.5579 88.9325 91.3379 87.6326 93.0279 87.1126C93.1579 88.2826 91.5979 87.8926 91.4679 88.9326C91.9879 88.9326 91.7279 89.5826 91.4679 88.9326C90.8179 89.3226 90.9479 90.3626 90.0379 90.4925C90.0379 90.7525 89.9079 90.8826 89.6479 90.8826C89.7779 91.7926 89.1279 92.0526 88.4779 92.3125C88.6079 92.8325 88.3479 93.2225 88.2179 93.4825C88.6079 93.4825 88.3479 94.0025 88.2179 93.4825C87.3079 93.3525 87.6979 94.5226 87.0479 94.6526C87.0479 94.7826 86.9179 95.0426 86.6579 94.9126C86.6579 95.4326 86.1379 95.1726 86.6579 94.9126C86.6579 94.7826 86.6579 94.5226 87.0479 94.6526C86.6579 93.0926 87.9579 93.2226 88.2179 92.3125H88.4779C88.2179 91.2725 89.2579 91.5326 89.2579 90.8826H89.6479C89.6479 90.6226 89.6479 90.3626 90.0379 90.4925ZM82.8879 87.8926C82.7579 87.7625 83.1479 88.1526 82.8879 87.8926V87.8926ZM82.4979 88.5426C82.4979 88.1526 83.1479 88.4125 82.4979 88.5426C82.6279 89.0626 81.9779 88.8026 82.4979 88.5426ZM83.6679 89.7125C83.5379 89.5825 83.9279 89.9726 83.6679 89.7125V89.7125ZM89.2579 89.3226C89.2579 89.7125 88.8679 89.5825 88.4779 89.7125C88.4779 89.3226 88.9979 89.4525 89.2579 89.3226ZM81.4579 90.1025C81.7179 90.3625 81.1979 89.9726 81.4579 90.1025V90.1025ZM82.8879 90.8826C82.8879 90.3626 83.4079 90.6226 82.8879 90.8826C83.0179 91.2726 82.3679 91.1426 82.8879 90.8826ZM84.0579 91.9225C84.1879 91.1426 84.3179 90.2326 85.4879 90.4925C85.2279 91.1426 84.7079 91.6625 84.0579 91.9225C84.0579 92.5725 83.7979 92.9626 83.2779 93.0926C82.8879 94.3926 81.8479 95.1726 81.0679 96.0826C81.0679 96.3426 80.9379 96.4726 80.6779 96.4726C80.6779 98.1626 79.2479 96.6026 80.6779 96.4726C80.6779 96.2126 80.6779 96.0826 81.0679 96.0826C80.8079 94.3926 82.1079 94.5226 82.8879 93.0926H83.2779C83.2779 92.5726 83.4079 92.3125 83.6679 91.9225H84.0579ZM81.8479 92.3125C81.7179 91.9225 82.3679 92.1825 81.8479 92.3125C81.8479 92.8325 81.1979 92.5725 81.8479 92.3125ZM75.4779 93.4825C75.7379 93.7425 75.2179 93.3525 75.4779 93.4825V93.4825ZM81.8479 93.4825C81.9779 93.7425 81.5879 93.3525 81.8479 93.4825V93.4825ZM84.0579 93.4825C83.9279 93.3525 84.3179 93.7425 84.0579 93.4825V93.4825ZM80.6779 93.8726C81.9779 92.9626 79.7679 95.0426 80.6779 93.8726V93.8726ZM78.0779 94.2626C77.9479 93.7426 78.5979 94.0026 78.0779 94.2626C78.0779 94.6526 77.5579 94.3926 78.0779 94.2626ZM83.6679 94.2626C83.5379 94.0026 83.9279 94.5226 83.6679 94.2626V94.2626ZM86.2679 94.2626C86.1379 94.0026 86.5279 94.5226 86.2679 94.2626V94.2626ZM84.8379 94.6526C84.5779 94.3926 85.0979 94.7826 84.8379 94.6526V94.6526ZM79.5079 95.3025C79.3779 95.1725 79.7679 95.5625 79.5079 95.3025V95.3025ZM71.7079 95.6926C71.7079 96.0826 71.1879 95.9526 70.9279 96.0826C70.9279 95.6926 71.4479 95.8226 71.7079 95.6926ZM85.0979 96.8626C85.2279 96.2125 85.0979 95.5626 85.8779 95.6926V96.4726C85.6179 96.4726 85.4879 96.4725 85.4879 96.8626H85.0979C84.0579 96.8626 85.4879 98.4225 85.0979 96.8626ZM45.0579 96.4726C45.0579 95.9526 45.7079 96.2126 45.0579 96.4726C45.1879 96.8626 44.5379 96.7326 45.0579 96.4726ZM78.4679 96.8626C78.3379 96.3425 78.9879 96.6026 78.4679 96.8626C78.3379 97.1226 78.3379 97.2526 78.0779 97.2526C77.9479 97.5126 78.0779 97.9026 77.6879 97.9026C77.6879 98.1626 77.5579 98.4226 77.2979 98.2926C77.4279 99.9826 75.8679 98.4226 77.2979 98.2926C77.2979 98.1626 77.2979 97.9026 77.6879 97.9026C77.8179 97.6426 77.6879 97.2526 78.0779 97.2526C78.0779 96.9925 78.0779 96.7325 78.4679 96.8626ZM39.4679 100.633C39.8579 99.2025 39.7279 97.3825 41.0279 96.8626C40.5079 98.1625 40.3779 99.7225 39.4679 100.633C38.9479 100.763 39.4679 101.023 39.4679 100.633ZM41.4179 97.2526C41.5479 97.5126 41.1579 97.1226 41.4179 97.2526V97.2526ZM81.4579 97.2526C81.7179 97.5126 81.1979 97.1226 81.4579 97.2526V97.2526ZM42.0679 97.6425C41.9379 97.3825 42.3279 97.7726 42.0679 97.6425V97.6425ZM43.2379 97.6425C42.7179 97.6425 42.9779 96.9926 43.2379 97.6425C44.7979 97.2526 43.3679 98.6826 43.2379 97.6425ZM79.5079 97.9026C79.5079 97.5126 80.0279 97.7726 79.5079 97.9026C79.8979 99.4626 78.4679 98.0326 79.5079 97.9026ZM37.2579 98.6826C36.8679 97.1226 38.2979 98.6826 37.2579 98.6826C37.2579 99.2025 36.7379 98.9426 37.2579 98.6826ZM41.4179 98.2926C41.5479 98.5526 41.1579 98.1626 41.4179 98.2926V98.2926ZM44.4079 98.2926C44.5379 98.5526 44.1479 98.1626 44.4079 98.2926V98.2926ZM46.2279 98.2926C46.0979 98.1626 46.4879 98.5526 46.2279 98.2926V98.2926ZM71.7079 98.2926C71.5779 98.1626 71.9679 98.5526 71.7079 98.2926V98.2926ZM75.0879 98.2926C75.4779 96.8626 75.4779 99.8526 75.0879 98.2926V98.2926ZM83.2779 99.0725V97.9026H84.4479C84.1879 98.5526 83.7979 98.8125 83.2779 99.0725C83.4079 99.3326 83.2779 99.8525 83.6679 99.8525C82.8879 100.373 82.1079 100.763 81.8479 101.673C82.2379 101.673 81.9779 102.193 81.8479 101.673C80.2879 101.413 82.1079 103.233 80.2879 103.233C80.8079 102.713 80.5479 101.413 81.0679 101.023C80.8079 100.893 80.5479 100.893 80.6779 100.633C80.1579 100.633 80.4179 99.9825 80.6779 100.633C80.9379 100.633 81.0679 100.633 81.0679 101.023C81.8479 100.503 82.7579 100.113 82.8879 99.0725H83.2779ZM35.6979 99.8525C35.6979 99.0725 36.2179 99.0726 36.0879 98.2926C36.6079 98.4226 36.4779 98.9425 36.4779 99.4625C37.3879 99.4625 36.6079 100.763 36.4779 101.023C35.3079 100.763 36.8679 100.113 36.4779 99.4625C36.0879 99.4625 36.0879 99.7225 35.6979 99.8525C35.1779 100.113 35.8279 100.243 35.6979 99.8525ZM38.0379 98.6826C37.6479 100.893 38.1679 97.2525 38.0379 98.6826V98.6826ZM42.8479 98.6826C43.1079 97.2525 42.5879 100.893 42.8479 98.6826V98.6826ZM70.5379 98.6826C70.4079 98.5525 70.7979 98.9426 70.5379 98.6826V98.6826ZM33.0979 101.673C32.5779 101.153 33.2279 98.6826 34.6579 98.6826C33.8779 99.4625 33.7479 100.763 33.0979 101.673ZM44.0179 99.0725C44.4079 97.6425 44.4079 100.503 44.0179 99.0725V99.0725ZM45.8379 99.0725C46.2279 97.6425 46.2279 100.503 45.8379 99.0725V99.0725ZM71.3179 99.0725C71.1879 98.9426 71.5779 99.3326 71.3179 99.0725V99.0725ZM78.4679 99.4625C78.0779 97.9025 79.5079 99.3325 78.4679 99.4625C78.4679 99.8525 77.8179 99.7225 78.4679 99.4625ZM74.6979 99.4625C74.5679 99.3325 74.9579 99.7225 74.6979 99.4625V99.4625ZM82.1079 99.0725C82.1079 99.4626 81.7179 99.3325 81.4579 99.4625C81.4579 99.0725 81.8479 99.2025 82.1079 99.0725ZM32.0579 101.023C32.0579 100.243 31.6679 99.0725 32.7079 99.4625C32.1879 99.7225 32.7079 100.893 32.0579 101.023C31.9279 101.283 31.9279 101.673 31.6679 101.673C31.9279 103.233 30.4979 101.803 31.6679 101.673C31.6679 101.413 31.6679 101.023 32.0579 101.023ZM75.7379 100.243C75.4779 98.6825 76.9079 100.113 75.7379 100.243C75.8679 100.763 75.6079 101.023 75.4779 101.283C75.0879 101.283 74.9579 101.023 75.0879 100.633C74.5679 100.633 74.8279 99.9825 75.0879 100.633C75.4779 100.633 75.4779 100.243 75.7379 100.243ZM30.8879 101.283C29.9779 101.283 30.7579 100.113 30.8879 99.8525C31.7979 99.8525 31.0179 101.153 30.8879 101.283ZM41.4179 100.633C41.5479 100.893 41.1579 100.373 41.4179 100.633V100.633ZM77.2979 101.023C77.1679 99.3326 78.7279 100.893 77.2979 101.023C77.1679 101.413 76.9079 101.543 76.5179 101.673C76.5179 102.063 76.5179 102.453 76.1279 102.453C75.7379 102.973 75.8679 103.883 75.0879 104.013C74.9579 105.443 73.3979 103.883 75.0879 104.013C74.9579 102.973 75.2179 102.323 76.1279 102.453C76.2579 102.193 76.1279 101.673 76.5179 101.673C76.6479 101.283 76.6479 100.763 77.2979 101.023ZM43.2379 101.023C43.6279 99.4626 43.6279 102.453 43.2379 101.023V101.023ZM5.40791 101.283C5.27791 101.153 5.66791 101.543 5.40791 101.283V101.283ZM42.0679 101.283C41.9379 101.153 42.3279 101.543 42.0679 101.283V101.283ZM38.6879 101.673C39.7279 100.243 39.3379 102.973 38.6879 101.673V101.673ZM69.4979 102.063C69.6279 102.323 69.2379 101.933 69.4979 102.063V102.063ZM74.6979 102.063C74.1779 102.063 74.4379 101.543 74.6979 102.063C75.0879 102.063 74.9579 102.583 74.6979 102.063ZM30.4979 102.063C30.4979 102.453 29.9779 102.323 29.7179 102.453C29.7179 102.063 30.2379 102.193 30.4979 102.063ZM32.3179 102.453C32.8379 101.023 32.8379 103.883 32.3179 102.453V102.453ZM35.3079 102.453C35.5679 100.893 35.0479 104.663 35.3079 102.453V102.453ZM41.6779 102.453C41.5479 102.323 41.9379 102.713 41.6779 102.453V102.453ZM77.2979 102.453C77.1679 102.323 77.5579 102.713 77.2979 102.453V102.453ZM64.9479 102.843C64.8179 102.713 65.2079 103.103 64.9479 102.843V102.843ZM78.0779 102.843C77.9479 102.713 78.3379 103.103 78.0779 102.843V102.843ZM30.8879 103.233C30.7579 103.103 31.1479 103.493 30.8879 103.233V103.233ZM36.4779 103.233C36.3479 103.103 36.7379 103.493 36.4779 103.233V103.233ZM38.2979 104.013C37.9079 103.883 38.0379 103.233 38.0379 102.843C38.6879 102.713 38.6879 103.103 38.6879 103.623C38.4279 103.493 38.4279 103.753 38.2979 104.013ZM41.6779 104.013C40.5079 104.663 41.2879 103.753 41.4179 102.843C41.8079 102.843 41.8079 103.363 41.6779 104.013C42.1979 103.883 42.1979 103.103 42.4579 102.843C43.2379 102.973 42.5879 104.663 41.6779 104.273V104.013ZM68.7179 103.233C68.5879 102.713 69.2379 102.973 68.7179 103.233C68.7179 103.623 68.1979 103.493 68.7179 103.233ZM15.1579 103.623C15.0279 103.363 15.4179 103.883 15.1579 103.623V103.623ZM29.3279 104.013C29.3279 102.323 30.8879 103.883 29.3279 104.013C29.7179 105.573 28.2879 104.013 29.3279 104.013ZM32.0579 104.013C31.6679 102.453 33.0979 103.883 32.0579 104.013C32.3179 105.573 30.8879 104.013 32.0579 104.013ZM73.1379 103.623C73.0079 103.363 73.3979 103.883 73.1379 103.623V103.623ZM77.2979 105.053C76.1279 104.533 78.0779 103.883 78.0779 103.233C79.2479 103.753 77.2979 104.403 77.2979 105.053ZM13.3379 104.013C13.0779 103.753 13.4679 104.143 13.3379 104.013V104.013ZM30.4979 104.013C30.3679 103.753 30.7579 104.143 30.4979 104.013V104.013ZM36.0879 104.013C35.9579 103.753 36.3479 104.143 36.0879 104.013V104.013ZM79.1179 104.273C77.8179 103.753 80.4179 103.103 79.1179 104.273C79.6379 104.403 80.0279 104.403 79.8979 105.053H79.1179C79.1179 105.313 79.1179 105.573 78.8579 105.443C80.0279 106.483 77.1679 106.483 78.4679 105.443C76.6479 105.833 78.8579 103.753 78.4679 105.443H78.8579C78.8579 105.183 78.8579 105.053 79.1179 105.053V104.273ZM39.8579 104.273C40.2479 102.843 40.2479 105.833 39.8579 104.273V104.273ZM67.1579 104.273C67.0279 104.143 67.4179 104.533 67.1579 104.273V104.273ZM37.6479 104.663C38.0379 103.233 38.0379 106.223 37.6479 104.663V104.663ZM73.5279 104.663C73.3979 104.533 73.7879 104.923 73.5279 104.663V104.663ZM41.6779 105.053C42.1979 103.623 42.1979 106.613 41.6779 105.053V105.053ZM64.5579 105.053C64.4279 104.923 64.8179 105.313 64.5579 105.053V105.053ZM76.1279 106.223C76.2579 105.443 75.7379 105.313 75.7379 104.663C76.5179 104.793 76.6479 105.313 76.5179 106.223H76.1279C75.6079 106.483 76.2579 106.613 76.1279 106.223ZM39.4679 105.443C39.8579 104.013 39.8579 106.873 39.4679 105.443V105.443ZM73.9179 105.443C73.9179 105.053 74.4379 105.183 73.9179 105.443C73.9179 105.963 73.3979 105.703 73.9179 105.443ZM75.0879 105.443C74.9579 105.313 75.3479 105.703 75.0879 105.443V105.443ZM33.4879 105.833C33.3579 105.703 33.7479 106.093 33.4879 105.833V105.833ZM71.3179 105.833C71.3179 105.313 71.8379 105.573 71.3179 105.833C71.1879 106.093 71.3179 106.613 70.9279 106.613C71.0579 108.173 69.4979 106.743 70.9279 106.613C71.0579 106.223 70.9279 105.833 71.3179 105.833ZM30.8879 106.223C30.7579 106.093 31.1479 106.483 30.8879 106.223V106.223ZM67.5479 106.613C67.4179 106.483 67.8079 106.873 67.5479 106.613V106.613ZM72.7479 107.003C72.6179 106.743 73.0079 107.133 72.7479 107.003V107.003ZM76.9079 107.003C77.2979 105.443 77.2979 108.433 76.9079 107.003V107.003ZM79.1179 107.003C78.9879 106.743 79.3779 107.133 79.1179 107.003V107.003ZM40.6379 107.653C40.5079 107.523 40.8979 107.913 40.6379 107.653V107.653ZM62.3479 107.653C62.2179 107.523 62.6079 107.913 62.3479 107.653V107.653ZM65.3379 107.653C65.2079 107.523 65.5979 107.913 65.3379 107.653V107.653ZM72.4879 107.263C72.3579 107.653 71.9679 107.653 71.7079 107.653C71.7079 107.393 72.0979 107.393 72.4879 107.263ZM76.1279 108.043C75.9979 109.083 74.9579 108.043 75.4779 107.263C75.8679 107.393 75.7379 108.043 76.1279 108.043ZM38.2979 108.043C38.1679 107.913 38.5579 108.303 38.2979 108.043V108.043ZM67.5479 108.043C67.4179 107.913 67.8079 108.303 67.5479 108.043V108.043ZM76.5179 108.043C77.0379 106.613 77.0379 109.603 76.5179 108.043V108.043ZM63.1279 108.433C63.2579 108.693 62.8679 108.303 63.1279 108.433V108.433ZM69.1079 108.823C68.9779 107.133 70.5379 108.693 69.1079 108.823C68.9779 109.083 69.1079 109.603 68.7179 109.603C68.7179 109.993 68.1979 109.863 68.7179 109.603C68.7179 109.343 68.7179 108.823 69.1079 108.823ZM70.9279 109.213C70.9279 108.693 71.0579 108.433 71.3179 108.043C71.8379 108.173 71.5779 108.953 71.3179 109.213H70.9279C70.9279 109.733 70.7979 109.993 70.5379 110.383C69.8879 110.513 70.0179 108.563 70.9279 109.213ZM74.3079 108.433C74.3079 108.043 74.8279 108.173 74.3079 108.433C74.6979 109.993 73.1379 108.563 74.3079 108.433ZM60.3979 108.823C60.2679 108.693 60.6579 109.083 60.3979 108.823V108.823ZM63.7779 108.823C64.4279 107.523 64.8179 110.253 63.7779 108.823V108.823ZM66.7679 108.823C67.2879 107.393 67.2879 110.253 66.7679 108.823V108.823ZM37.6479 109.213C38.0379 107.653 38.0379 110.643 37.6479 109.213V109.213ZM41.6779 109.213C41.2879 109.213 41.5479 108.693 41.6779 109.213C42.1979 109.213 41.9379 109.733 41.6779 109.213ZM66.3779 109.993C66.2479 109.733 66.6379 110.253 66.3779 109.993V109.993ZM75.0879 109.993C74.9579 109.733 75.3479 110.253 75.0879 109.993V109.993ZM29.3279 110.383C29.1979 110.123 29.5879 110.513 29.3279 110.383V110.383ZM76.1279 110.383C77.1679 108.823 76.7779 111.553 76.1279 110.383V110.383ZM34.2679 110.643C34.1379 110.513 34.5279 110.903 34.2679 110.643V110.643ZM39.4679 111.813C38.5579 111.813 39.3379 110.513 39.4679 110.383C40.6379 110.513 39.0779 111.163 39.4679 111.813ZM60.1379 110.643C60.2679 110.903 59.8779 110.513 60.1379 110.643V110.643ZM74.3079 111.033C74.1779 109.473 75.7379 110.903 74.3079 111.033C74.3079 111.293 74.3079 111.553 73.9179 111.423C73.9179 111.943 73.3979 111.683 73.9179 111.423C73.9179 111.163 74.0479 111.033 74.3079 111.033ZM63.3879 110.643C63.3879 111.033 62.9979 111.033 62.7379 111.033C62.7379 110.643 63.1279 110.773 63.3879 110.643ZM67.5479 111.033C67.5479 110.643 68.0679 110.903 67.5479 111.033C67.9379 112.593 66.5079 111.163 67.5479 111.033ZM72.0979 111.423C71.7079 109.863 73.1379 111.423 72.0979 111.423C72.0979 111.683 71.9679 111.943 71.7079 111.813C71.7079 112.333 71.1879 112.073 71.7079 111.813C71.7079 111.553 71.7079 111.423 72.0979 111.423ZM59.7479 111.423C60.0079 111.683 59.4879 111.293 59.7479 111.423V111.423ZM62.3479 111.813C62.2179 111.683 62.6079 112.073 62.3479 111.813V111.813ZM28.6779 112.203C28.9379 112.463 28.4179 112.073 28.6779 112.203V112.203ZM61.5679 112.203C61.5679 111.683 62.0879 111.943 61.5679 112.203V112.593C62.0879 112.463 61.8279 113.113 61.5679 112.593C61.3079 112.593 61.1779 112.203 61.5679 112.203ZM66.3779 112.593C66.3779 112.073 67.0279 112.333 66.3779 112.593C66.5079 112.983 65.8579 112.853 66.3779 112.593ZM73.1379 112.593C73.0079 112.463 73.3979 112.853 73.1379 112.593V112.593ZM70.9279 112.983C70.7979 112.723 71.1879 113.243 70.9279 112.983V112.983ZM67.9379 113.373C67.8079 113.113 68.1979 113.503 67.9379 113.373V113.373ZM72.0979 114.023C72.0979 113.503 72.2279 113.243 72.4879 112.983C73.0079 112.983 72.7479 113.763 72.4879 114.023H72.0979C72.0979 114.283 71.9679 114.543 71.7079 114.413C71.7079 115.063 71.4479 115.453 70.9279 115.583C70.9279 115.973 70.4079 115.843 70.9279 115.583C70.9279 115.063 71.0579 114.803 71.3179 114.413H71.7079C71.7079 114.153 71.7079 114.023 72.0979 114.023ZM39.4679 113.633C39.3379 113.503 39.7279 113.893 39.4679 113.633V113.633ZM56.7579 113.633C57.0179 113.893 56.4979 113.503 56.7579 113.633V113.633ZM57.7979 113.633C57.6679 113.503 58.0579 113.893 57.7979 113.633V113.633ZM60.7879 113.633C60.6579 113.503 61.0479 113.893 60.7879 113.633V113.633ZM60.1379 114.023C60.2679 114.283 59.8779 113.893 60.1379 114.023V114.023ZM61.9579 114.023C61.8279 113.893 62.2179 114.283 61.9579 114.023V114.023ZM36.8679 114.413C36.7379 114.283 37.1279 114.673 36.8679 114.413V114.413ZM57.0179 114.803C57.5379 113.373 57.5379 116.233 57.0179 114.803V114.803ZM60.1379 115.193C60.2679 115.453 59.8779 115.063 60.1379 115.193V115.193ZM68.7179 115.583C68.5879 115.453 68.9779 115.843 68.7179 115.583V115.583ZM57.4079 115.973C57.2779 115.843 57.6679 116.233 57.4079 115.973V115.973ZM55.9779 116.363C55.8479 116.103 56.2379 116.493 55.9779 116.363V116.363ZM69.1079 116.363C68.8479 116.103 69.3679 116.493 69.1079 116.363V116.363ZM58.5779 116.623C58.4479 116.493 58.8379 116.883 58.5779 116.623V116.623ZM60.7879 117.013C60.6579 116.883 61.0479 117.273 60.7879 117.013V117.013ZM68.7179 117.013C68.5879 116.883 68.9779 117.273 68.7179 117.013V117.013ZM69.7579 117.013C69.7579 116.623 70.4079 116.883 69.7579 117.013C69.8879 117.533 69.2379 117.273 69.7579 117.013ZM58.1879 117.403C58.0579 117.273 58.4479 117.663 58.1879 117.403V117.403ZM62.7379 117.793C62.3479 116.233 63.7779 117.793 62.7379 117.793C62.9979 119.353 61.5679 117.923 62.7379 117.793ZM70.9279 117.403C70.7979 117.273 71.1879 117.663 70.9279 117.403V117.403ZM34.6579 118.183C34.9179 118.443 34.3979 118.053 34.6579 118.183V118.183ZM68.7179 118.573C68.5879 118.443 68.9779 118.833 68.7179 118.573V118.573ZM69.7579 119.353C69.7579 118.833 70.4079 119.093 69.7579 119.353C69.8879 119.743 69.2379 119.483 69.7579 119.353ZM67.5479 120.003C67.9379 118.573 67.9379 121.563 67.5479 120.003V120.003ZM33.4879 120.783C33.3579 120.653 33.7479 121.043 33.4879 120.783V120.783ZM64.1679 121.173C64.0379 121.043 64.4279 121.433 64.1679 121.173V121.173ZM34.6579 121.953C34.9179 122.213 34.3979 121.823 34.6579 121.953V121.953ZM59.7479 121.953C59.6179 121.433 60.2679 121.693 59.7479 121.953C59.6179 122.213 59.6179 122.343 59.3579 122.343C59.3579 122.733 58.8379 122.473 59.3579 122.343C59.3579 122.083 59.3579 121.823 59.7479 121.953ZM53.7679 122.993C53.8979 123.253 53.5079 122.863 53.7679 122.993V122.993ZM64.9479 122.993C64.8179 122.863 65.2079 123.253 64.9479 122.993V122.993ZM58.1879 123.773C58.0579 123.643 58.4479 124.033 58.1879 123.773V123.773ZM33.4879 124.553C34.3979 123.123 34.0079 125.723 33.4879 124.553V124.553ZM62.7379 125.723C62.4779 125.463 62.9979 125.853 62.7379 125.723V125.723ZM33.8779 126.763C34.2679 125.333 34.2679 128.323 33.8779 126.763V126.763ZM56.3679 126.763C56.2379 126.373 56.8879 126.503 56.3679 126.763C56.3679 127.283 55.8479 127.023 56.3679 126.763ZM61.9579 126.763C62.3479 125.333 62.3479 128.323 61.9579 126.763V126.763ZM31.6679 127.153C31.9279 127.413 31.4079 127.023 31.6679 127.153V127.153ZM32.3179 127.153C32.1879 127.023 32.5779 127.413 32.3179 127.153V127.153ZM64.1679 127.153C64.1679 126.763 64.6879 126.893 64.1679 127.153C64.2979 127.673 63.6479 127.413 64.1679 127.153ZM57.0179 127.543C56.8879 127.413 57.2779 127.803 57.0179 127.543V127.543ZM60.1379 127.543C60.2679 127.803 59.8779 127.413 60.1379 127.543V127.543ZM24.5179 127.933C24.3879 127.803 24.7779 128.193 24.5179 127.933V127.933ZM31.2779 128.323C31.1479 128.193 31.5379 128.583 31.2779 128.323V128.323ZM61.1779 128.323C61.0479 128.193 61.4379 128.583 61.1779 128.323V128.323ZM60.1379 129.363C60.2679 129.623 59.8779 129.233 60.1379 129.363V129.363ZM55.5879 130.143C55.4579 130.013 55.8479 130.403 55.5879 130.143V130.143ZM61.5679 130.533C61.9579 129.103 61.9579 131.963 61.5679 130.533V130.533ZM57.4079 131.313C57.2779 131.183 57.6679 131.573 57.4079 131.313V131.313ZM57.0179 132.093C57.0179 131.573 57.6679 131.833 57.0179 132.093C57.1479 132.483 56.4979 132.223 57.0179 132.093ZM58.9679 132.353C58.8379 132.223 59.2279 132.613 58.9679 132.353V132.353ZM31.6679 132.743C32.8379 131.833 30.7579 134.043 31.6679 132.743V132.743ZM56.3679 133.133C56.2379 132.743 56.8879 132.873 56.3679 133.133C56.3679 133.653 55.8479 133.393 56.3679 133.133ZM58.9679 134.693C58.8379 134.563 59.2279 134.953 58.9679 134.693V134.693ZM29.7179 137.683C29.5879 137.553 29.9779 137.943 29.7179 137.683V137.683ZM54.4179 138.463C54.2879 138.203 54.6779 138.593 54.4179 138.463V138.463ZM28.2879 138.723C28.1579 138.593 28.5479 138.983 28.2879 138.723V138.723ZM55.9779 138.723C55.8479 138.593 56.2379 138.983 55.9779 138.723V138.723ZM54.8079 140.283C54.6779 140.153 55.0679 140.543 54.8079 140.283V140.283ZM52.5979 141.063C52.9879 139.503 52.9879 142.493 52.5979 141.063V141.063ZM53.7679 141.713C53.8979 141.973 53.5079 141.583 53.7679 141.713V141.713ZM51.8179 142.493C51.6879 142.363 52.0779 142.753 51.8179 142.493V142.493ZM53.3779 142.493C53.2479 142.103 53.8979 142.233 53.3779 142.493C53.3779 143.013 52.7279 142.753 53.3779 142.493ZM26.3379 142.883C26.2079 142.753 26.5979 143.143 26.3379 142.883V142.883ZM51.0379 143.663C50.9079 143.533 51.2979 143.923 51.0379 143.663V143.663ZM25.9479 144.053C26.4679 142.493 26.4679 145.483 25.9479 144.053V144.053ZM27.1179 144.703C27.5079 143.273 27.5079 146.263 27.1179 144.703V144.703ZM25.9479 148.083C25.8179 147.953 26.2079 148.343 25.9479 148.083V148.083ZM33.0979 149.253C32.9679 149.123 33.3579 149.513 33.0979 149.253V149.253ZM32.7079 150.033C32.5779 149.903 32.9679 150.293 32.7079 150.033V150.033ZM22.9579 150.813C22.8279 150.553 23.2179 150.943 22.9579 150.813V150.813ZM32.3179 150.813C32.1879 150.553 32.5779 150.943 32.3179 150.813V150.813ZM18.5379 151.463C18.4079 151.333 18.7979 151.723 18.5379 151.463V151.463ZM24.5179 152.243C24.9079 150.813 24.9079 153.673 24.5179 152.243V152.243ZM44.6679 152.633C45.7079 151.203 45.3179 153.803 44.6679 152.633V152.633ZM43.6279 153.413C43.4979 153.283 43.8879 153.673 43.6279 153.413V153.413ZM24.1279 153.803C23.9979 153.543 24.3879 153.933 24.1279 153.803V153.803ZM44.0179 154.063C44.2779 154.323 43.7579 153.933 44.0179 154.063V154.063ZM23.7379 154.843C24.2579 153.413 24.2579 156.403 23.7379 154.843V154.843ZM28.9379 156.013C28.9379 155.493 29.5879 155.753 28.9379 156.013C29.0679 156.403 28.4179 156.273 28.9379 156.013ZM42.8479 156.013C42.8479 155.493 43.3679 155.753 42.8479 156.013C42.8479 156.403 42.3279 156.273 42.8479 156.013ZM41.4179 158.223C41.2879 157.703 41.5479 157.443 41.6779 157.183C42.3279 157.183 41.9379 157.963 41.6779 158.223H41.4179C40.7679 158.483 41.4179 158.743 41.4179 158.223ZM40.2479 158.613C40.2479 158.223 40.7679 158.353 40.2479 158.613C40.2479 159.133 39.7279 158.873 40.2479 158.613ZM41.0279 159.393C41.2879 159.653 40.7679 159.263 41.0279 159.393V159.393ZM39.8579 160.433C39.8579 160.043 40.3779 160.303 39.8579 160.433C39.8579 160.953 39.3379 160.953 39.4679 161.603C38.8179 161.733 38.9479 159.913 39.8579 160.433ZM18.9279 161.213C18.7979 161.083 19.1879 161.473 18.9279 161.213V161.213ZM36.4779 161.603C36.3479 161.473 36.7379 161.863 36.4779 161.603V161.603ZM21.9179 161.993C21.7879 161.863 22.1779 162.253 21.9179 161.993V161.993ZM38.2979 163.423C37.7779 163.423 38.0379 162.643 38.2979 162.383C38.9479 162.513 38.5579 163.163 38.2979 163.423C38.5579 164.073 38.8179 163.423 38.2979 163.423ZM24.1279 163.423C24.1279 163.033 24.6479 163.293 24.1279 163.423C24.1279 163.943 23.6079 163.683 24.1279 163.423ZM21.5279 163.813C21.3979 163.683 21.7879 164.073 21.5279 163.813V163.813ZM37.2579 164.593C37.2579 164.203 37.7779 164.333 37.2579 164.593C37.2579 164.853 37.1279 165.113 36.8679 164.983C36.8679 165.373 36.3479 165.243 36.8679 164.983C36.8679 164.723 36.8679 164.593 37.2579 164.593ZM38.6879 164.593C38.5579 164.463 38.9479 164.853 38.6879 164.593V164.593ZM34.2679 164.983C34.1379 164.853 34.5279 165.243 34.2679 164.983V164.983ZM33.8779 166.153C34.2679 164.593 34.2679 167.583 33.8779 166.153V166.153ZM36.0879 166.543C35.9579 166.283 36.3479 166.673 36.0879 166.543V166.543ZM36.0879 168.753C35.0479 168.233 35.5679 167.583 35.6979 166.803C36.9979 167.193 35.9579 167.583 36.0879 168.753ZM33.8779 169.793C33.8779 169.403 34.3979 169.663 33.8779 169.793C33.8779 170.313 33.7479 170.703 33.4879 170.963C32.9679 170.833 33.2279 170.183 33.4879 169.793H33.8779ZM26.3379 171.353C26.2079 171.223 26.5979 171.613 26.3379 171.353V171.353ZM32.7079 171.743C32.7079 171.223 33.2279 171.483 32.7079 171.743C32.8379 172.133 32.1879 172.003 32.7079 171.743ZM33.8779 171.743C34.2679 170.183 34.2679 173.173 33.8779 171.743V171.743ZM28.9379 173.173C28.8079 173.043 29.1979 173.433 28.9379 173.173V173.173ZM32.7079 173.173C32.3179 173.303 32.5779 172.653 32.7079 173.173C33.2279 173.173 32.9679 173.823 32.7079 173.173ZM31.2779 173.953C30.7579 173.953 31.0179 173.433 31.2779 173.953C31.6679 173.953 31.5379 174.473 31.2779 173.953ZM30.4979 175.123C30.3679 174.993 30.7579 175.383 30.4979 175.123V175.123ZM32.0579 175.123C32.1879 175.383 31.7979 174.993 32.0579 175.123V175.123ZM30.1079 176.163C29.9779 176.033 30.3679 176.423 30.1079 176.163V176.163ZM28.9379 176.943C28.8079 176.813 29.1979 177.203 28.9379 176.943V176.943ZM28.2879 178.113C28.6779 176.553 28.6779 179.543 28.2879 178.113V178.113ZM29.3279 178.113C29.1979 177.983 29.5879 178.373 29.3279 178.113V178.113ZM27.5079 178.503C27.3779 178.243 27.7679 178.763 27.5079 178.503V178.503ZM27.8979 179.153C27.8979 178.763 28.4179 179.023 27.8979 179.153C27.8979 179.673 27.6379 180.063 27.5079 180.323C26.8579 180.193 27.2479 179.543 27.5079 179.153H27.8979ZM26.7279 181.103C26.5979 180.973 26.9879 181.363 26.7279 181.103V181.103ZM28.2879 181.103C28.1579 180.973 28.5479 181.363 28.2879 181.103V181.103ZM16.3279 189.293C16.1979 189.683 15.8079 189.553 15.5479 189.683C15.5479 189.293 15.9379 189.423 16.3279 189.293ZM90.4279 7.42255C90.9479 7.16255 90.4279 6.90255 90.4279 7.42255V7.42255ZM90.0379 7.68255C90.2979 7.81255 90.4279 7.55255 90.4279 7.42255C90.0379 7.29255 90.0379 7.55255 90.0379 7.68255ZM95.2379 10.0226C95.4979 8.72255 94.4579 9.37255 94.1979 9.63255C93.9379 8.85255 94.4579 8.59255 94.4579 8.07255C93.2879 7.81255 94.0679 9.63255 92.6379 9.24255C92.8979 10.2825 92.1179 10.1526 92.2479 11.0625C92.7679 11.0625 92.8979 10.5425 93.4179 10.4125C93.4179 9.89255 93.9379 10.1526 93.4179 10.4125V11.8426C94.3279 11.7125 94.1979 10.6726 94.8479 10.4125C94.9779 10.1526 94.9779 9.89255 95.2379 10.0226ZM97.5779 10.0226C97.3179 9.76255 97.7079 10.2826 97.5779 10.0226V10.0226ZM92.2479 11.0625C91.7279 11.3226 91.5979 11.8426 91.4679 12.6226C92.2479 12.4926 92.3779 11.9726 92.2479 11.0625ZM93.0279 12.2325C93.2879 12.2325 93.4179 12.1026 93.4179 11.8426C93.0279 11.8426 93.0279 11.9726 93.0279 12.2325ZM98.2279 11.8426C98.4879 12.3625 98.7479 11.8426 98.2279 11.8426V11.8426ZM93.0279 12.2325C92.5079 12.4926 93.0279 12.6226 93.0279 12.2325V12.2325ZM87.8279 30.5626C87.9579 31.0826 88.2179 30.5626 87.8279 30.5626V30.5626ZM85.4879 34.7226C85.7479 35.2426 86.0079 34.5925 85.4879 34.7226V34.7226ZM109.148 43.6926C109.538 42.1325 107.978 43.5625 109.148 43.6926V43.6926ZM64.5579 43.3025V44.4726C64.0379 44.4726 64.0379 43.4325 64.5579 43.3025ZM65.7279 43.3025V44.0825C65.2079 44.3426 64.9479 44.8626 64.9479 45.5126C64.6879 45.5126 64.5579 45.6426 64.5579 45.9025H64.1679C64.1679 45.2525 64.5579 45.1225 64.5579 44.4726H64.9479C64.9479 43.8226 65.2079 43.4325 65.7279 43.3025ZM113.568 43.6926C113.438 43.5625 113.828 43.9525 113.568 43.6926V43.6926ZM80.6779 44.4726C80.9379 44.7325 80.5479 44.2126 80.6779 44.4726V44.4726ZM100.178 46.2926C101.738 46.4225 100.308 44.8626 100.178 46.2926V46.2926ZM64.1679 45.9025C63.6479 46.1626 63.5179 46.6826 63.3879 47.4625C63.7779 47.4625 63.9079 47.0725 64.1679 47.0725V45.9025ZM98.2279 46.2926C98.8779 46.6826 99.2679 46.6826 99.7879 46.2926V45.9025C99.1379 45.9025 98.3579 45.7725 98.2279 46.2926ZM62.7379 46.6825C62.4779 46.5525 62.9979 46.9425 62.7379 46.6825V46.6825ZM90.4279 46.6825C90.2979 46.5525 90.6879 46.9425 90.4279 46.6825V46.6825ZM99.7879 46.2926C99.7879 46.6826 100.178 46.5525 100.178 46.2926H99.7879ZM62.3479 47.4625H63.1279C62.9979 46.9425 62.3479 47.0725 62.3479 47.4625ZM86.2679 47.4625C86.5279 47.7225 86.1379 47.2026 86.2679 47.4625V47.4625ZM62.3479 47.4625C61.9579 47.4625 62.0879 47.8526 61.9579 48.1125C62.2179 48.1125 62.3479 47.8526 62.3479 47.4625ZM61.9579 48.1125C61.5679 48.2425 61.6979 48.6325 61.5679 48.8925C61.9579 48.8925 61.8279 48.5026 61.9579 48.1125ZM60.1379 51.4926C60.6579 51.3625 60.0079 51.1025 60.1379 51.4926V51.4926ZM60.1379 51.4926C59.6179 51.6225 59.7479 52.2725 59.7479 52.6626C60.1379 52.6626 60.0079 52.0126 60.1379 51.4926ZM59.7479 52.6626C59.2279 52.7926 59.3579 53.4425 59.7479 53.4425V52.6626ZM60.7879 55.2625C60.7879 55.6525 60.9179 55.6526 61.1779 55.6526C61.3079 55.3925 61.0479 55.2625 60.7879 55.2625ZM58.9679 55.6526C58.8379 56.0425 58.3179 56.5625 58.1879 56.0425C58.3179 55.7825 58.5779 55.6526 58.9679 55.6526ZM59.7479 56.0425V56.8226C59.3579 56.8226 59.2279 57.0825 58.9679 57.2125C58.9679 56.5625 59.2279 56.1725 59.7479 56.0425ZM60.3979 56.4325H60.7879C60.7879 56.0425 60.3979 56.1725 60.3979 56.4325ZM60.1379 56.8226C60.3979 56.8226 60.3979 56.6925 60.3979 56.4325C60.1379 56.3026 60.1379 56.5625 60.1379 56.8226ZM57.7979 57.2125C58.0579 57.3425 57.6679 56.9526 57.7979 57.2125V57.2125ZM59.7479 56.8226C59.7479 57.2125 60.1379 56.9526 60.1379 56.8226H59.7479ZM58.9679 57.2125C58.5779 57.0825 58.5779 57.3425 58.5779 57.4725C58.8379 58.1225 58.9679 57.6026 58.9679 57.2125ZM60.3979 57.4725C60.7879 57.6025 60.7879 57.3425 60.7879 57.2125C60.5279 57.0825 60.5279 57.3425 60.3979 57.4725ZM118.508 57.2125C118.508 57.6026 118.898 57.3425 118.898 57.2125H118.508ZM60.3979 57.4725C59.8779 57.7325 60.5279 57.9926 60.3979 57.4725V57.4725ZM97.8379 60.4626C98.2279 60.5925 98.2279 60.3325 98.2279 60.2025C97.9679 60.0725 97.9679 60.3325 97.8379 60.4626ZM97.5779 60.8525C97.8379 60.9825 97.8379 60.7225 97.8379 60.4626C97.5779 60.4626 97.5779 60.7225 97.5779 60.8525ZM33.4879 65.7926V66.8326C34.0079 66.8326 34.0079 65.7926 33.4879 65.7926ZM91.8579 66.8326V67.2226C91.7279 67.2226 91.4679 66.9626 91.8579 66.8326ZM32.3179 68.7826C33.3579 69.0426 33.0979 68.0026 33.4879 67.6126C32.4479 67.3526 32.7079 68.3926 32.3179 68.7826ZM32.3179 68.7826H32.0579C32.3179 69.9526 31.4079 69.8225 31.6679 70.9925H32.0579C31.9279 70.0825 32.5779 69.9526 32.3179 68.7826ZM31.6679 70.9925C30.8879 71.3826 29.4579 73.3325 30.8879 73.5925C30.6279 72.2925 31.6679 72.1625 31.6679 70.9925ZM29.7179 73.9825C28.0279 76.0625 31.5379 73.3325 29.7179 73.5925V73.9825ZM28.2879 75.9326C28.1579 76.1926 28.4179 76.1926 28.6779 76.1926C28.6779 75.9326 28.4179 75.9326 28.2879 75.9326ZM27.5079 76.5825H27.8979C27.7679 76.1925 27.5079 76.4525 27.5079 76.5825ZM28.6779 76.1926C28.6779 76.8426 28.0279 77.2325 28.6779 77.3626C29.0679 77.2325 29.0679 76.1926 28.6779 76.1926ZM27.1179 79.9626C27.6379 79.7025 27.1179 79.5726 27.1179 79.9626V79.9626ZM27.1179 79.9626C26.5979 80.2226 27.1179 80.4826 27.1179 79.9626V79.9626ZM26.3379 80.7425C26.5979 81.2625 26.8579 80.7425 26.3379 80.7425V80.7425ZM25.6879 82.9525C25.4279 82.8225 25.8179 83.2125 25.6879 82.9525V82.9525ZM98.6179 82.5625C98.8779 83.2125 99.1379 82.5625 98.6179 82.5625V82.5625ZM24.1279 83.3425C24.3879 84.6425 23.8679 85.2925 22.9579 85.5525V84.9026C23.3479 84.9026 23.3479 84.3825 23.3479 84.1225C23.8679 84.1225 23.7379 83.4725 24.1279 83.3425ZM24.9079 84.1225C25.0379 82.5625 24.5179 86.3325 24.9079 84.1225V84.1225ZM74.3079 89.7125H74.6979V89.3226C74.3079 89.3226 74.3079 89.4525 74.3079 89.7125ZM93.4179 89.3226C93.6779 89.8425 93.8079 89.3226 93.4179 89.3226V89.3226ZM93.0279 90.4925C92.8979 90.3626 93.2879 90.7525 93.0279 90.4925V90.4925ZM90.0379 93.8726C90.2979 94.3926 90.4279 93.7426 90.0379 93.8726V93.8726ZM47.0079 96.8626V97.6425C47.3979 97.5126 47.3979 96.8626 47.0079 96.8626ZM45.4479 101.283C45.9679 102.843 45.9679 99.8525 45.4479 101.283V101.283ZM83.6679 101.023V101.673C84.0579 101.673 83.9279 101.283 84.0579 101.023H83.6679ZM83.2779 102.063C83.6679 102.193 83.6679 101.933 83.6679 101.673C83.4079 101.673 83.2779 101.803 83.2779 102.063ZM45.0579 102.453H45.4479C45.4479 102.063 45.0579 102.193 45.0579 102.453ZM12.1679 104.273C10.9979 104.403 12.5579 105.833 12.1679 104.273V104.273ZM78.4679 108.433C78.7279 108.563 78.7279 108.303 78.8579 108.043C78.4679 108.043 78.4679 108.173 78.4679 108.433ZM50.7779 117.793C50.5179 117.663 50.9079 118.053 50.7779 117.793V117.793ZM50.7779 118.573C50.5179 118.443 50.9079 118.833 50.7779 118.573V118.573ZM35.0479 126.763C35.5679 126.503 34.9179 126.373 35.0479 126.763V126.763ZM49.9979 145.093C49.9979 145.613 49.8679 145.743 49.6079 145.873C49.6079 146.133 49.4779 146.393 49.2179 146.263V147.043C50.2579 147.043 50.1279 144.833 51.0379 145.873V145.483C51.0379 145.093 50.3879 145.223 49.9979 145.093ZM51.0379 145.873C51.1679 146.263 51.4279 146.133 51.4279 145.873H51.0379ZM49.9979 148.083C50.7779 148.083 50.7779 147.173 51.0379 146.653C50.1279 146.523 50.1279 147.433 49.9979 148.083ZM49.6079 148.083V148.863C49.9979 148.863 49.8679 148.473 49.9979 148.083H49.6079ZM49.2179 149.253C49.4779 149.383 49.6079 149.123 49.6079 148.863C49.2179 148.863 49.2179 148.993 49.2179 149.253ZM48.8279 149.643C49.2179 149.643 49.2179 149.513 49.2179 149.253C48.9579 149.123 48.8279 149.383 48.8279 149.643ZM48.4379 149.643C48.3079 149.903 48.0479 150.293 48.0479 150.813C48.5679 150.553 48.8279 150.293 48.8279 149.643H48.4379ZM47.6579 150.813V151.463C48.0479 151.463 48.0479 151.073 48.0479 150.813H47.6579ZM24.9079 154.063C25.1679 154.713 25.2979 154.063 24.9079 154.063V154.063ZM43.2379 157.833C43.2379 158.223 43.1079 158.223 42.8479 158.223C42.8479 158.483 42.8479 158.743 42.4579 158.613C42.4579 158.873 42.4579 159.393 42.0679 159.393V160.173C42.8479 159.653 43.3679 158.873 43.6279 157.833H43.2379ZM36.8679 169.533C37.1279 169.663 36.7379 169.273 36.8679 169.533V169.533ZM19.9679 191.243C18.0179 190.723 19.5779 192.283 19.9679 191.243V191.243ZM21.9179 191.243C21.6579 192.543 22.5679 192.543 22.3079 191.243H21.9179ZM4.23791 191.893C4.36791 192.413 4.62791 192.153 4.62791 191.893H4.23791ZM5.40791 191.893V192.673C5.79791 192.673 5.66791 192.283 5.79791 191.893H5.40791ZM5.40791 192.673C4.10791 193.323 6.57791 193.843 5.40791 192.673V192.673ZM8.00791 194.233C8.26791 194.493 7.87791 193.973 8.00791 194.233V194.233ZM11.7779 193.843C10.6079 193.843 12.1679 195.403 11.7779 193.843V193.843ZM13.3379 194.233C13.4679 194.753 13.7279 194.103 13.3379 194.233V194.233ZM13.9879 195.273C13.8579 195.143 14.2479 195.533 13.9879 195.273V195.273Z" fill="#C4D600"/>
</svg>
