<svg width="32" height="32" viewBox="0 0 32 32" fill="none" xmlns="http://www.w3.org/2000/svg">
<path d="M10.3361 7.252L24.3468 15.4253C24.4472 15.4841 24.5305 15.5681 24.5883 15.6691C24.6462 15.77 24.6767 15.8843 24.6767 16.0007C24.6767 16.117 24.6462 16.2313 24.5883 16.3323C24.5305 16.4332 24.4472 16.5172 24.3468 16.576L10.3361 24.7493C10.2346 24.8086 10.1192 24.8399 10.0017 24.8402C9.88419 24.8405 9.76867 24.8097 9.66688 24.7509C9.56508 24.6922 9.48063 24.6076 9.42208 24.5057C9.36352 24.4038 9.33295 24.2882 9.33345 24.1707V7.828C9.33342 7.71069 9.36434 7.59546 9.42308 7.49393C9.48183 7.39239 9.56632 7.30816 9.66804 7.24973C9.76975 7.1913 9.88508 7.16074 10.0024 7.16114C10.1197 7.16153 10.2348 7.19288 10.3361 7.252Z" fill="#101820"/>
</svg>
