<svg width="138" height="124" viewBox="0 0 138 124" fill="none" xmlns="http://www.w3.org/2000/svg">
<path d="M71.0158 1.56692C70.444 -1.10157 69.3004 2.71056 67.5849 0.995097C62.2479 9.95361 57.2921 19.1027 51.1927 27.4894C41.6624 26.3457 31.9415 32.4452 25.8421 25.7739C24.3172 26.727 23.1736 25.5833 22.03 26.3457V27.4894C22.6018 27.4894 24.5078 28.8236 23.1736 29.0142C22.6018 29.0142 22.6018 28.633 22.03 28.4424C22.03 28.8236 21.6488 29.2048 21.4581 28.4424C16.5024 29.9673 5.63781 30.7297 0.110229 31.8733C0.300836 33.7794 0.682048 37.2103 2.39751 37.2103C4.49418 44.0721 5.63781 55.5085 19.9333 51.5058C22.6018 58.7488 28.1294 63.1328 30.7979 70.1852C26.6045 81.431 23.3642 93.4392 18.2178 103.732C18.7897 103.541 19.1709 103.732 19.3615 104.304C17.2648 104.494 17.646 107.735 15.5493 106.4C15.9306 108.116 12.309 110.213 13.8339 112.5C14.7869 111.166 14.7869 112.5 14.4057 113.643C16.8836 113.262 16.3118 116.121 18.2178 116.312C21.6488 117.456 21.8394 120.887 26.4139 121.84C36.3254 115.74 43.9497 107.353 53.8612 101.445C58.4358 108.306 63.3915 114.597 69.3003 120.124C70.444 118.409 70.8252 121.84 72.5407 121.268V120.696C72.3501 120.696 71.9688 120.315 72.5407 120.124V120.696C75.3998 122.03 74.8279 121.84 74.8279 120.124C78.0682 120.887 78.2588 121.268 81.8804 121.268C82.071 120.315 80.9273 119.933 81.8804 119.552C83.5958 120.505 84.3582 120.505 86.8361 119.552C86.6455 120.505 87.9798 122.793 88.5516 121.268C86.8361 118.027 92.5543 120.505 93.5074 118.599C91.9825 116.693 92.1731 114.787 91.7919 113.072C91.2201 113.072 91.4107 112.309 91.7919 113.072C93.1261 114.597 93.8886 115.74 93.5074 118.027C94.651 118.599 94.651 117.646 95.604 119.171C95.4134 117.837 96.7477 118.218 96.7477 117.456C93.8886 115.74 96.5571 109.831 94.0792 106.972C94.0792 107.735 93.1261 107.353 94.0792 106.972C94.651 103.16 92.3637 101.826 93.5074 98.7762C90.2671 98.7762 93.1261 93.2486 91.7919 91.7237C91.6013 92.1049 91.7919 92.6768 91.2201 92.6768C91.4107 92.2956 91.2201 91.7237 91.7919 91.7237C91.9825 87.1492 88.9328 83.1465 91.2201 79.5249C90.4576 79.5249 89.6952 79.7155 89.6952 78.9531C91.4107 78.0001 89.6952 78.1907 89.6952 76.2846C104.181 64.6576 118.096 55.3179 132.391 43.8815C133.916 43.5003 133.916 44.644 135.25 44.4534C136.013 42.5473 133.344 44.0721 133.535 42.7379C136.966 43.3097 137.537 41.0224 135.25 41.213C136.394 40.8318 136.966 40.0694 137.347 38.9258C134.869 38.9258 135.25 37.5915 136.203 36.2573C135.06 35.8761 132.582 36.8291 132.391 35.6855C132.391 34.1606 135.822 36.0667 135.631 34.5418C133.916 34.923 134.869 33.3982 135.25 32.8264C134.107 32.0639 132.963 33.2076 131.819 31.8733C132.772 31.6827 133.916 32.0639 134.107 31.3015C131.629 30.7297 131.247 31.3015 130.294 30.7297C129.723 29.3955 134.488 30.7297 132.391 29.5861C128.96 29.7767 132.01 27.1082 131.819 25.7739C122.289 21.7712 99.7974 26.727 88.5516 24.0585C87.9798 18.5309 90.6483 10.3348 89.1234 3.28238C86.6455 3.66359 86.0737 2.71056 85.1207 4.80723C85.1207 3.66359 84.7395 2.51995 83.5958 2.13874C83.024 4.23541 81.8804 1.94813 80.3555 2.13874C80.1649 3.09177 81.1179 3.66359 80.3555 3.8542C77.1152 1.37632 74.8279 1.56692 71.0158 1.56692C70.8252 2.32935 70.8252 2.90117 69.8722 2.71056C69.8722 2.13874 70.444 1.75752 71.0158 1.56692ZM86.2643 7.66633C86.2643 8.23815 85.6925 8.04753 85.1207 8.23815C85.3113 7.66633 85.8831 7.85693 86.2643 7.66633ZM86.8361 12.0503C85.6925 13.9563 85.1207 8.80996 85.6925 8.80996C87.408 8.61936 85.3113 12.0503 86.8361 12.0503ZM80.7367 10.3348C79.2119 10.3348 81.3086 8.04753 80.7367 10.3348C81.4992 10.3348 81.4992 11.8597 80.7367 12.0503V12.6221C81.4992 12.6221 81.4991 13.3845 81.3085 14.1469C81.6898 15.2906 83.024 13.3845 82.4522 15.8624C83.024 15.8624 83.024 15.1 83.024 14.1469C84.3583 14.7188 82.8334 17.9591 84.1676 18.5309C86.0737 17.3873 82.8334 13.7657 85.1207 13.7657C85.3113 11.6691 87.0267 14.9094 86.8361 13.1939C87.7892 16.6248 87.9798 20.8182 87.9798 25.2021C83.5958 24.6303 83.7864 24.8209 80.3555 25.2021C80.1649 24.2491 80.3555 23.4867 80.7367 23.1054C79.0213 22.343 80.3555 24.8209 78.6401 24.0585C78.4495 22.9148 78.8307 21.9618 79.7837 21.9618C79.7837 21.1994 79.4025 20.6276 79.2119 20.2463C78.4495 20.2463 78.8307 19.4839 79.2119 20.2463C81.4992 18.5309 79.9743 14.7188 80.7367 12.6221C80.5461 12.6221 80.1649 12.0503 80.7367 12.0503C80.5461 11.2878 80.1649 11.0972 80.7367 10.3348ZM78.6401 12.6221C78.4495 12.4315 79.0213 13.0033 78.6401 12.6221V12.6221ZM79.2119 13.7657C79.7837 11.4784 79.7837 15.8624 79.2119 13.7657V13.7657ZM61.6761 15.8624C62.0573 16.2436 61.2949 15.6718 61.6761 15.8624V15.8624ZM79.2119 16.4342C79.7837 14.3376 79.7837 18.5309 79.2119 16.4342V16.4342ZM61.1043 17.006C60.9137 16.8154 61.4855 17.3872 61.1043 17.006V17.006ZM67.0131 18.1497C66.6319 15.8624 68.7285 17.9591 67.0131 18.1497C67.2037 19.1027 66.4413 19.2933 66.6319 20.2463H67.0131C67.0131 19.6745 67.9661 19.8651 67.0131 20.2463C67.0131 20.6276 66.6319 20.8182 66.6319 20.2463C66.06 20.2463 65.8694 20.6276 65.4882 20.8182V21.9618C66.2506 22.1524 66.8225 22.7242 67.5849 23.1054C67.5849 22.343 68.5379 22.7242 67.5849 23.1054C68.5379 24.8209 67.5849 26.1551 65.4882 26.3457C66.06 25.5833 66.4412 24.6303 67.0131 24.0585C66.8225 23.1054 64.9164 23.6773 65.4882 21.9618C64.7258 21.9618 64.9164 23.1054 64.3446 23.4867H63.7728C63.7728 24.2491 63.0103 23.8679 63.7728 23.4867C63.7728 22.1524 64.7258 21.7712 64.9164 20.8182H65.4882C65.2976 19.4839 66.2506 19.1027 66.6319 18.1497H67.0131ZM62.6291 18.1497C62.6291 17.3872 63.5822 17.7685 62.6291 18.1497C62.8197 18.7215 61.8667 18.3403 62.6291 18.1497ZM76.9246 18.5309C76.734 18.3403 77.3058 18.9121 76.9246 18.5309V18.5309ZM63.2009 19.1027C63.0103 18.9121 63.5822 19.4839 63.2009 19.1027V19.1027ZM64.9164 19.1027C64.9164 18.5309 65.6788 18.9121 64.9164 19.1027C64.7258 19.6745 64.9164 20.2463 64.3446 20.2463C64.3446 21.0088 63.5821 20.6276 64.3446 20.2463C64.5352 19.8651 64.3446 19.1027 64.9164 19.1027ZM75.3997 19.1027C75.9716 17.006 75.9716 21.39 75.3997 19.1027V19.1027ZM58.817 20.8182C58.2452 18.5309 60.5325 20.6276 58.817 20.8182C59.0076 21.39 58.0546 21.1994 58.817 20.8182ZM62.6291 20.2463C62.4385 20.0557 63.0103 20.6276 62.6291 20.2463V20.2463ZM74.2561 20.2463C73.4937 20.2463 73.8749 19.4839 74.2561 20.2463C74.8279 20.2463 74.6373 21.0088 74.2561 20.2463ZM77.4964 24.6303C76.5434 26.1551 77.1152 21.7712 76.9246 20.8182C77.8776 19.2933 77.4964 23.6773 77.4964 24.6303ZM63.2009 21.9618C63.0103 21.7712 63.5822 22.343 63.2009 21.9618V21.9618ZM67.0131 21.9618C66.8225 21.7712 67.3943 22.343 67.0131 21.9618V21.9618ZM78.0682 21.9618C77.8776 21.7712 78.4495 22.343 78.0682 21.9618V21.9618ZM57.2921 23.4867C57.1015 22.9148 58.0546 23.2961 57.2921 23.4867C57.6734 25.7739 55.5767 23.6773 57.2921 23.4867ZM62.2479 23.4867C62.4385 23.8679 61.8667 23.2961 62.2479 23.4867V23.4867ZM73.6843 23.4867C73.4937 23.2961 74.0655 23.8679 73.6843 23.4867V23.4867ZM61.6761 24.6303C62.0573 25.0115 61.2949 24.4397 61.6761 24.6303V24.6303ZM65.4882 24.6303C65.2976 25.3927 64.9164 24.6303 64.3446 24.6303C64.5352 24.0585 65.4882 24.0585 65.4882 24.6303ZM74.2561 24.6303C76.1622 23.2961 72.9219 26.5364 74.2561 24.6303V24.6303ZM75.3997 24.6303C75.781 25.0115 75.0185 24.4397 75.3997 24.6303V24.6303ZM61.1043 25.7739C60.9137 25.5833 61.4855 26.1551 61.1043 25.7739V25.7739ZM63.7728 25.7739C63.5822 25.5833 64.154 26.1551 63.7728 25.7739V25.7739ZM79.2119 25.7739C79.0213 25.5833 79.5931 26.1551 79.2119 25.7739V25.7739ZM62.2479 26.3457C62.4385 26.727 61.8667 26.1551 62.2479 26.3457V26.3457ZM55.0049 26.9176C54.8143 26.5364 55.3861 27.2988 55.0049 26.9176V26.9176ZM23.1736 27.4894C22.983 27.1082 23.5548 27.68 23.1736 27.4894V27.4894ZM130.294 27.4894C129.913 27.1082 130.676 27.68 130.294 27.4894V27.4894ZM114.283 27.8706C114.093 27.68 114.665 28.2518 114.283 27.8706V27.8706ZM92.9355 29.5861C92.7449 29.3955 93.3168 29.9673 92.9355 29.5861V29.5861ZM128.579 30.7297C128.388 30.5391 128.96 31.1109 128.579 30.7297V30.7297ZM1.25387 32.2545C1.06326 32.0639 1.63508 32.6358 1.25387 32.2545V32.2545ZM92.9355 32.2545C93.5074 30.1579 93.5074 34.5418 92.9355 32.2545V32.2545ZM110.471 31.8733C110.471 32.2546 109.709 32.2545 109.328 32.2545C109.328 31.8733 110.09 31.8733 110.471 31.8733ZM113.14 32.2545C112.949 32.0639 113.521 32.6358 113.14 32.2545V32.2545ZM129.723 31.8733C129.532 32.4452 128.77 32.2545 128.007 32.2545C128.198 31.6827 128.96 31.8733 129.723 31.8733ZM87.408 32.8264C87.2173 32.6358 87.7892 33.2076 87.408 32.8264V32.8264ZM100.56 32.8264C100.369 32.6358 100.941 33.2076 100.56 32.8264V32.8264ZM82.4522 33.3982C82.2616 33.2076 82.8334 33.7794 82.4522 33.3982V33.3982ZM95.604 34.5418C95.4134 34.3512 95.9852 34.923 95.604 34.5418V34.5418ZM132.963 34.5418C132.772 34.3512 133.344 34.923 132.963 34.5418V34.5418ZM109.328 35.1136C109.137 34.923 109.709 35.4949 109.328 35.1136V35.1136ZM91.7919 35.6855C91.2201 35.6855 91.4107 34.923 91.7919 35.6855C94.0792 37.4009 95.7946 34.5418 97.3195 35.6855C97.7007 37.4009 91.4107 37.4009 91.7919 35.6855ZM109.328 35.6855C107.612 37.5915 107.612 33.97 109.328 35.6855V35.6855ZM113.14 36.2573V35.1136H114.283V36.2573H113.14ZM119.239 35.6855C119.811 33.3982 119.811 37.7821 119.239 35.6855V35.6855ZM125.339 35.6855C125.148 35.4949 125.72 36.0667 125.339 35.6855V35.6855ZM129.723 35.6855C129.532 35.4949 130.104 36.0667 129.723 35.6855V35.6855ZM130.866 35.6855C131.057 36.0667 130.485 35.4949 130.866 35.6855V35.6855ZM90.0764 36.2573C89.8858 35.8761 90.4576 36.6385 90.0764 36.2573V36.2573ZM100.56 36.2573C103.038 34.1606 102.656 37.7821 100.56 36.2573V36.2573ZM104.372 36.2573C104.181 35.8761 104.753 36.6385 104.372 36.2573V36.2573ZM107.231 35.6855C107.04 36.2573 106.087 36.0667 105.516 36.2573C105.706 35.4949 106.469 35.6855 107.231 35.6855ZM111.615 35.6855C111.615 36.2573 110.853 36.0667 110.471 36.2573C110.471 35.6855 111.043 35.6855 111.615 35.6855ZM115.427 38.354C115.236 38.1634 115.808 38.7352 115.427 38.354V38.354ZM96.7477 38.354C96.7477 38.9258 95.9852 38.7352 95.604 38.9258C95.604 38.354 96.3665 38.5446 96.7477 38.354ZM100.56 38.9258C100.369 38.7352 100.941 39.307 100.56 38.9258V38.9258ZM104.944 38.9258C104.753 38.7352 105.325 39.307 104.944 38.9258V38.9258ZM106.659 38.9258C106.469 38.7352 107.04 39.307 106.659 38.9258V38.9258ZM109.9 38.9258C109.709 38.7352 110.281 39.307 109.9 38.9258V38.9258ZM101.703 40.0694C102.275 37.7821 102.275 42.1661 101.703 40.0694V40.0694ZM96.1759 40.6412C95.9852 40.26 96.5571 41.0224 96.1759 40.6412V40.6412ZM112.187 40.6412C112.377 41.0224 111.806 40.26 112.187 40.6412V40.6412ZM128.579 40.6412C129.151 38.354 129.151 42.7379 128.579 40.6412V40.6412ZM90.6483 41.5943C90.4576 41.4037 91.0295 41.9755 90.6483 41.5943V41.5943ZM92.9355 42.1661C91.4107 40.8318 93.8886 40.8318 94.4604 41.5943C94.4604 42.3567 93.698 42.3567 92.9355 42.1661C92.1731 42.5473 92.9355 42.9285 92.9355 42.1661ZM102.847 41.5943C103.419 39.4976 103.419 43.8815 102.847 41.5943V41.5943ZM114.855 43.3097C115.427 41.213 115.427 45.4064 114.855 43.3097V43.3097ZM117.143 43.3097C117.714 41.213 117.714 45.4064 117.143 43.3097V43.3097ZM125.91 42.7379C125.91 43.3097 125.148 43.1191 124.767 43.3097C124.767 42.7379 125.339 42.9285 125.91 42.7379ZM129.151 42.7379C129.151 43.3097 128.388 43.1191 128.007 43.3097C128.007 42.7379 128.77 42.9285 129.151 42.7379ZM130.866 43.3097C131.057 43.6909 130.485 43.1191 130.866 43.3097V43.3097ZM99.988 43.8815C99.7974 43.6909 100.369 44.2627 99.988 43.8815V43.8815ZM101.703 43.8815C101.513 43.6909 102.085 44.2627 101.703 43.8815V43.8815ZM102.847 43.8815C103.228 44.2627 102.466 43.6909 102.847 43.8815V43.8815ZM103.8 43.8815C103.609 43.6909 104.181 44.2627 103.8 43.8815V43.8815ZM88.5516 43.8815C88.361 44.4534 87.5986 44.2627 86.8361 44.4534C87.0267 43.6909 87.7892 43.8815 88.5516 43.8815ZM90.6483 43.8815C90.6483 44.4534 90.0764 44.2627 89.6952 44.4534C89.6952 43.8815 90.267 44.0721 90.6483 43.8815ZM89.6952 54.9367C88.5516 51.1246 89.1234 45.9782 91.7919 43.8815C93.1261 43.8815 91.9825 45.7876 91.7919 45.9782C96.557 45.7876 98.8443 46.7406 101.703 46.55C101.894 46.1688 102.085 45.9782 102.847 45.9782C102.656 45.2158 103.419 44.644 103.419 45.9782H105.516C99.988 49.9809 95.0322 54.3649 89.6952 57.0334C89.6952 55.8897 91.0295 55.8897 91.2201 54.9367C90.4576 54.5555 90.267 54.1743 89.6952 54.9367C88.7422 55.1273 89.6952 55.5085 89.6952 54.9367ZM121.526 44.4534C121.717 44.8346 121.145 44.2627 121.526 44.4534V44.4534ZM123.051 44.4534C122.861 44.2627 123.433 44.8346 123.051 44.4534V44.4534ZM126.863 44.4534C126.673 44.2627 127.245 44.8346 126.863 44.4534V44.4534ZM103.8 45.0252C103.609 44.644 104.181 45.4064 103.8 45.0252V45.0252ZM106.659 45.0252C106.659 43.3097 108.946 45.4064 106.659 45.0252C106.659 45.597 105.897 45.2158 106.659 45.0252ZM115.427 45.0252C115.236 44.644 115.808 45.4064 115.427 45.0252V45.0252ZM68.1567 45.0252C68.1567 45.597 67.2037 45.4064 66.6319 45.597C66.6319 44.8346 67.5849 45.0252 68.1567 45.0252ZM95.604 45.0252C95.604 45.597 94.651 45.4064 94.0792 45.597C94.0792 44.8346 95.0322 45.0252 95.604 45.0252ZM96.7477 45.597C96.5571 45.2158 97.1289 45.7876 96.7477 45.597V45.597ZM125.339 45.597C125.339 45.0252 126.292 44.8346 126.292 45.597C126.673 45.597 127.054 45.9782 126.292 45.9782C126.292 46.3594 126.292 46.7406 125.91 46.55C125.339 47.5031 124.957 48.2655 123.623 48.2655C123.433 49.4091 122.098 49.4091 121.526 49.9809C121.145 50.5528 120.764 51.1246 119.811 50.934C119.62 51.6964 118.096 53.6025 117.524 52.0776H116.571C116.38 52.4588 116.38 52.84 115.999 52.6494V53.2213C116.571 53.2213 116.38 53.9837 115.999 53.2213C115.618 53.0306 114.855 53.2213 114.855 52.6494H113.14C113.14 53.4119 111.996 53.0306 111.615 52.6494C111.615 53.6025 111.043 53.9837 109.9 53.7931V54.3649C112.187 54.1743 109.9 55.1273 109.9 55.8897C109.518 55.8897 109.328 55.5085 109.328 54.9367H108.184C108.184 55.1273 108.184 55.5085 107.803 55.3179C107.803 56.0803 106.85 55.6991 107.803 55.3179C107.803 55.1273 107.803 54.7461 108.184 54.9367C108.375 54.3649 108.756 54.1743 109.328 54.3649C109.328 53.9837 109.518 53.6025 109.9 53.7931C110.09 53.0306 110.662 52.6494 111.615 52.6494C111.615 52.0776 111.996 52.0776 112.187 51.5058C111.806 51.5058 111.424 51.1246 112.187 50.934C112.187 50.7434 112.568 50.3622 112.568 50.934H113.712C113.902 50.3622 114.474 49.7903 115.427 49.9809C115.236 49.4091 114.855 49.2185 114.283 49.4091C114.283 48.8373 114.665 48.6467 114.855 48.2655H113.712C113.902 46.7406 115.236 46.3594 116.571 45.9782C116.38 45.4064 117.333 45.7876 116.571 45.9782C116.38 46.9312 115.618 46.9312 115.427 47.6937C116.38 47.6937 116.571 48.0749 115.999 48.8373C116.952 48.8373 117.333 48.4561 117.524 47.6937C117.333 47.6937 116.952 47.3125 117.524 47.1219C117.524 46.55 118.096 46.55 118.096 45.9782C118.667 46.1688 118.858 46.55 118.667 47.1219C119.811 47.1219 119.43 45.597 120.955 45.9782C120.955 45.7876 121.336 45.4064 121.526 45.9782C123.051 46.9312 120.192 47.6937 119.811 48.2655C120.573 49.9809 121.145 47.1218 122.48 47.6937C122.48 47.3125 122.67 47.1219 123.051 47.1219C123.242 46.55 123.814 45.9782 124.767 45.9782C124.767 45.7876 124.767 45.4064 125.339 45.597ZM81.3085 45.9782C81.1179 45.7876 81.6898 46.3594 81.3085 45.9782V45.9782ZM111.615 45.9782C111.424 45.4064 112.377 45.7876 111.615 45.9782C111.615 46.55 111.043 46.7406 111.043 47.1219H112.187C112.187 46.7406 112.568 46.55 113.14 46.55C113.33 45.9782 113.33 45.4064 114.283 45.597V46.55H113.14C113.14 47.1219 112.759 47.3125 112.187 47.1219C111.234 49.0279 109.137 49.7903 107.803 50.934C107.803 51.5058 108.184 51.6964 108.756 51.5058C108.184 52.4588 107.612 53.7931 106.087 53.7931C106.469 53.2213 107.422 51.6964 105.516 52.0776C105.516 52.6494 104.563 52.84 104.372 52.0776C101.513 52.4588 101.132 54.9367 98.4631 55.3179C98.2725 57.6052 95.9852 55.3179 98.4631 55.3179C98.4631 54.9367 98.8443 54.7461 98.8443 54.3649H96.7477C97.3195 53.4119 98.2725 53.0306 98.8443 53.7931C98.8443 53.4119 99.4162 53.2213 99.4162 53.7931C101.322 53.9837 100.369 51.3152 102.847 52.0776C101.513 50.934 103.8 50.7434 104.372 49.9809V49.4091C103.419 49.4091 103.038 48.6467 104.372 48.8373C104.372 48.4561 104.563 48.0749 104.944 48.2655C105.134 47.5031 105.706 47.1219 106.659 47.1219V47.6937C107.231 47.5031 107.422 47.1219 107.803 46.55C108.565 46.7406 108.184 48.0749 109.328 47.6937C109.9 46.9312 110.281 45.9782 111.615 45.9782ZM62.2479 52.0776C62.8197 49.9809 64.7258 48.8373 64.9164 45.9782H67.5849C68.9191 52.4588 67.9661 61.2267 68.1567 68.6604C67.3943 69.0416 66.06 69.0416 66.06 70.1852H65.4882C64.9164 70.5664 62.6291 73.2349 62.6291 70.757C61.8667 70.9476 62.2479 72.0913 62.2479 73.0443C61.1043 72.0913 59.9606 70.1852 59.3888 72.4725C55.7673 67.5167 55.5767 64.0858 58.817 59.3207C56.9109 57.7958 61.1043 57.9864 59.9606 55.3179C61.6761 56.8428 61.1043 53.0306 62.2479 52.0776C61.8667 51.3152 61.4855 52.0776 62.2479 52.0776ZM81.8804 50.934C80.7367 50.5528 81.6898 47.8843 81.3085 46.55C83.024 47.6937 81.8804 48.8373 81.8804 50.934ZM83.5958 48.8373C83.7864 47.8843 83.024 45.9782 84.7395 46.55C84.7395 47.5031 84.5489 48.2655 84.1676 48.8373H83.5958C81.6898 49.7903 85.3113 50.5528 83.5958 48.8373ZM86.2643 53.2213C86.8361 51.887 87.408 49.4091 85.1207 49.4091C84.7395 47.8843 86.0737 47.8843 85.6925 46.55C86.2643 46.7406 86.4549 47.1218 86.2643 47.6937C87.2173 47.5031 86.8361 45.9782 88.5516 46.55C89.1234 49.9809 87.4079 52.6494 88.5516 54.9367C87.5986 54.7461 87.2173 55.3179 87.408 56.4616C85.8831 56.0803 86.8361 55.6991 86.8361 54.3649H85.6925C85.6925 54.7461 85.6925 55.3179 85.1207 55.3179C85.3113 56.0803 84.3582 55.6991 85.1207 55.3179C85.3113 54.9367 85.3113 54.3649 85.6925 54.3649V53.2213C85.1207 53.2213 85.5019 52.4588 85.6925 53.2213H86.2643ZM63.2009 47.6937C63.0103 47.5031 63.5822 48.0749 63.2009 47.6937V47.6937ZM61.1043 47.6937C61.1043 48.2655 60.3418 48.0749 59.9606 48.2655C59.9606 47.6937 60.7231 47.8843 61.1043 47.6937ZM62.6291 48.8373C62.4385 48.6467 63.0103 49.2185 62.6291 48.8373V48.8373ZM112.568 48.8373C112.568 48.0749 113.521 48.4561 112.568 48.8373C112.187 49.5997 111.806 50.5528 110.471 50.5528C110.853 49.5997 111.234 48.6467 112.568 48.8373ZM59.3888 50.5528C58.817 48.2655 61.1043 50.3622 59.3888 50.5528C59.1982 50.934 59.3888 51.5058 58.817 51.5058C59.3888 53.7931 57.2921 51.6964 58.817 51.5058C59.0076 51.1246 58.817 50.5528 59.3888 50.5528ZM62.2479 49.9809C62.4385 50.3622 61.8667 49.5997 62.2479 49.9809V49.9809ZM46.237 50.5528C46.0464 50.1716 46.6182 50.7434 46.237 50.5528V50.5528ZM35.7536 52.6494C35.1818 52.4588 34.61 51.887 34.8006 50.934C35.3724 51.3152 35.7536 51.6964 35.7536 52.6494C36.1348 52.6494 36.516 52.6494 36.3254 53.2213C37.0879 53.2213 36.7067 53.9837 36.3254 53.2213C35.9442 53.2213 35.7536 53.0306 35.7536 52.6494ZM85.6925 51.5058C85.5019 51.3152 86.0737 51.887 85.6925 51.5058V51.5058ZM99.988 51.5058C101.894 50.1715 98.6537 53.4119 99.988 51.5058V51.5058ZM109.328 51.5058C109.137 51.3152 109.709 51.887 109.328 51.5058V51.5058ZM26.4139 52.0776C27.1763 49.9809 27.1763 54.3649 26.4139 52.0776V52.0776ZM81.3085 52.0776C81.1179 51.887 81.6898 52.4588 81.3085 52.0776V52.0776ZM110.471 52.0776C110.281 51.887 110.853 52.4588 110.471 52.0776V52.0776ZM57.6734 53.7931C57.4828 53.6025 58.0546 54.1743 57.6734 53.7931V53.7931ZM60.5325 53.7931C60.3418 53.6025 60.9137 54.1743 60.5325 53.7931V53.7931ZM81.3085 53.7931C83.7864 53.9837 80.7367 56.8428 81.3085 53.7931V53.7931ZM101.703 54.9367C101.894 54.1743 102.466 53.7931 103.419 53.7931C103.038 54.3649 102.656 54.9367 101.703 54.9367ZM113.712 54.3649C113.712 53.6025 114.474 53.9837 113.712 54.3649C113.712 54.5555 113.712 54.9367 113.14 54.9367C113.14 56.4616 110.853 54.3649 113.14 54.9367C113.33 54.5555 113.33 54.1743 113.712 54.3649ZM57.2921 55.3179C56.7203 53.0306 58.817 55.3179 57.2921 55.3179C57.6734 57.6052 55.5767 55.5085 57.2921 55.3179ZM103.8 55.3179C103.8 53.0306 106.087 55.3179 103.8 55.3179C103.8 57.0334 101.513 54.9367 103.8 55.3179ZM114.855 54.9367C114.665 54.5555 115.236 55.1273 114.855 54.9367V54.9367ZM99.988 55.8897C100.179 53.7931 102.466 56.0803 99.988 55.8897C99.988 56.2709 99.988 56.6522 99.4162 56.4616C99.4162 56.8428 99.0349 57.224 98.4631 57.0334C98.4631 57.7958 97.5101 57.4146 98.4631 57.0334C98.4631 56.6522 98.8443 56.4616 99.4162 56.4616C99.6068 56.0803 99.6068 55.8897 99.988 55.8897ZM96.1759 55.8897C96.1759 55.3179 96.9383 55.6991 96.1759 55.8897C96.1759 56.2709 96.1759 56.6522 95.604 56.4616C95.9852 57.9864 94.4604 57.6052 94.0792 58.177C93.698 58.9394 93.1261 59.5113 92.3637 59.7019C92.1731 60.4643 91.6013 60.8455 90.6483 60.8455C90.8389 60.2737 91.4107 59.7019 92.3637 59.7019V58.7488C91.6013 58.7488 91.9825 57.9864 92.3637 58.7488C93.3167 58.3676 92.7449 57.0334 94.0792 58.177C93.8886 57.0334 94.651 57.0334 95.0322 56.4616H95.604C95.604 56.0803 95.7946 55.8897 96.1759 55.8897ZM104.944 55.8897C104.944 55.3179 105.706 55.6991 104.944 55.8897C104.944 56.2709 104.944 56.6522 104.372 56.4616C105.134 58.7488 103.228 58.5582 103.419 60.2737C102.466 60.2737 102.847 58.9394 102.847 58.177H101.703C101.513 59.7019 99.4162 57.6052 101.703 58.177C101.703 57.6052 102.085 57.4146 102.275 57.0334C99.988 57.6052 102.085 55.3179 102.275 57.0334C102.656 57.224 102.847 57.4146 102.847 58.177C103.8 58.177 103.991 57.6052 103.8 56.4616H104.372C104.372 56.0803 104.563 55.8897 104.944 55.8897ZM94.0792 56.4616C94.2698 56.8428 93.698 56.2709 94.0792 56.4616V56.4616ZM106.087 56.4616C106.659 54.3649 106.659 58.7488 106.087 56.4616V56.4616ZM109.9 57.6052C109.137 57.6052 109.137 58.3676 108.184 58.177C108.375 56.8428 109.9 56.8428 110.471 55.8897C111.234 55.8897 111.043 56.8428 111.615 57.0334C111.615 55.3179 113.902 57.6052 111.615 57.0334C111.424 57.7958 110.662 57.9864 110.471 58.7488C110.09 58.5582 109.9 58.177 109.9 57.6052ZM56.7203 58.7488C56.5297 58.3676 57.1015 59.13 56.7203 58.7488V58.7488ZM86.2643 59.3207C86.4549 58.5582 87.0267 58.177 87.9798 58.177C87.7892 58.7488 87.2173 59.3207 86.2643 59.3207C85.5019 59.5113 86.4549 59.8925 86.2643 59.3207ZM95.604 59.3207C95.7946 57.0334 98.0819 59.3207 95.604 59.3207C95.604 59.7019 95.2228 59.8925 95.0322 60.2737C95.9852 60.2737 96.3664 61.0361 95.0322 60.8455C95.0322 61.2267 95.0322 61.6079 94.4604 61.4173C94.651 62.1797 93.698 61.7985 94.4604 61.4173C94.651 61.0361 94.651 60.8455 95.0322 60.8455V60.2737H94.0792C93.8886 61.4173 92.5543 61.4173 92.3637 62.561C91.0295 61.9891 92.7449 60.0831 94.0792 60.2737C94.2698 59.7019 94.651 59.1301 95.604 59.3207ZM106.659 59.3207C106.659 58.5582 107.422 58.9394 106.659 59.3207C106.469 60.0831 105.706 60.0831 105.516 60.8455C104.181 60.6549 105.516 58.7488 106.659 59.3207ZM55.0049 60.2737C54.433 57.9864 56.7203 60.2737 55.0049 60.2737C55.5767 62.561 53.2894 60.4643 55.0049 60.2737ZM101.132 60.2737C100.941 60.0831 101.513 60.6549 101.132 60.2737V60.2737ZM100.56 60.8455C100.56 61.4173 99.988 61.2267 99.4162 61.4173C99.4162 60.8455 100.179 61.0361 100.56 60.8455ZM103.8 61.4173C104.563 59.3206 104.563 63.514 103.8 61.4173V61.4173ZM96.1759 61.9891C96.1759 61.4173 96.9383 61.6079 96.1759 61.9891C96.1759 62.561 95.4134 62.3704 96.1759 61.9891ZM53.8612 62.561C54.6237 60.2737 54.6237 64.6576 53.8612 62.561V62.561ZM97.3195 62.561C97.1289 62.3704 97.7007 62.9422 97.3195 62.561V62.561ZM101.703 62.561C103.038 60.4643 102.466 64.2764 101.703 62.561V62.561ZM86.8361 63.7046C86.6455 63.3234 87.2173 64.0858 86.8361 63.7046V63.7046ZM92.9355 64.2764C93.1261 63.514 93.698 63.1328 94.4604 63.1328C94.2698 63.7046 93.8886 64.2764 92.9355 64.2764C92.9355 64.467 92.7449 64.8482 92.3637 64.6576C92.3637 65.4201 91.6013 65.0388 92.3637 64.6576C92.3637 64.467 92.3637 64.0858 92.9355 64.2764ZM96.1759 63.7046C96.1759 62.9422 96.9383 63.3234 96.1759 63.7046C96.1759 64.2764 95.4134 63.8952 96.1759 63.7046ZM101.703 64.2764C101.703 63.514 102.466 63.8952 101.703 64.2764C101.703 64.8482 100.941 64.467 101.703 64.2764ZM94.0792 65.2295C93.8886 64.6576 94.8416 64.8482 94.0792 65.2295C93.8886 66.9449 91.7919 64.8482 94.0792 65.2295ZM98.4631 65.2295C98.2725 64.6576 99.2255 64.8482 98.4631 65.2295C98.4631 65.9919 97.5101 65.6107 98.4631 65.2295ZM96.7477 66.3731C96.7477 65.8013 97.5101 65.9919 96.7477 66.3731C96.7477 67.1355 95.9852 66.7543 96.7477 66.3731ZM97.8913 66.9449C97.7007 66.1825 98.6537 66.5637 97.8913 66.9449C97.8913 67.5167 97.1289 67.3261 97.8913 66.9449ZM93.5074 68.6604C93.1261 68.2792 93.8886 68.851 93.5074 68.6604V68.6604ZM55.5767 71.9007C55.3861 71.7101 55.9579 72.2819 55.5767 71.9007V71.9007ZM65.4882 73.4255C65.4882 72.0913 67.5849 72.6631 67.5849 71.3289C69.3004 72.2819 66.6319 73.6161 65.4882 73.4255ZM63.2009 73.4255C63.0103 73.2349 63.5822 73.8067 63.2009 73.4255V73.4255ZM63.2009 75.141C63.3915 74.3786 63.9634 73.9973 64.9164 73.9973C64.7258 74.7598 64.154 75.141 63.2009 75.141C62.4385 75.5222 63.3915 75.9034 63.2009 75.141ZM66.6319 77.4283C66.8225 77.8095 66.2506 77.047 66.6319 77.4283V77.4283ZM87.408 78.0001C86.8361 78.0001 87.0267 77.047 87.408 78.0001C88.1704 78.0001 87.7892 79.1437 87.408 79.5249C86.6455 79.3343 87.0267 78.3813 87.408 78.0001ZM86.8361 80.0968C87.4079 80.0968 87.7892 79.9061 87.9798 79.5249C89.8858 80.478 86.4549 80.478 87.408 82.384C86.6455 82.1934 87.0267 80.8592 86.8361 80.0968ZM89.1234 82.384C88.9328 81.6216 89.8858 82.0028 89.1234 82.384C89.5046 84.4807 87.4079 82.384 89.1234 82.384ZM88.5516 85.0525C88.361 84.2901 89.314 84.6713 88.5516 85.0525C89.1234 87.5304 85.8831 84.4807 88.5516 85.0525ZM82.4522 85.6243C82.2616 85.4337 82.8334 86.0055 82.4522 85.6243V85.6243ZM87.408 87.1492C87.2173 86.9586 87.7892 87.5304 87.408 87.1492V87.1492ZM90.6483 87.1492C90.4576 86.9586 91.0295 87.5304 90.6483 87.1492V87.1492ZM89.1234 87.721C89.5046 88.1022 88.7422 87.5304 89.1234 87.721V87.721ZM89.1234 88.8646C89.5046 89.2459 88.7422 88.674 89.1234 88.8646V88.8646ZM83.024 90.0083C82.8334 89.8177 83.4052 90.3895 83.024 90.0083V90.0083ZM68.1567 91.1519C67.5849 91.1519 67.7755 90.1989 68.1567 91.1519C68.9191 90.9613 68.5379 91.9143 68.1567 91.1519ZM89.1234 91.1519C88.7422 90.7707 89.5046 91.5331 89.1234 91.1519V91.1519ZM89.6952 92.6768C89.8858 93.058 89.314 92.4862 89.6952 92.6768V92.6768ZM69.3003 93.2486C69.1097 93.058 69.6816 93.6298 69.3003 93.2486V93.2486ZM89.6952 95.5359C89.8858 95.9171 89.314 95.1547 89.6952 95.5359V95.5359ZM67.5849 98.2044C67.0131 98.2044 67.3943 97.4419 67.5849 98.2044C69.8722 98.395 67.5849 100.682 67.5849 98.2044ZM69.3003 103.16C69.1097 102.97 69.6816 103.541 69.3003 103.16V103.16ZM84.7395 103.16C84.9301 103.541 84.3583 102.97 84.7395 103.16V103.16ZM91.2201 105.447C91.0295 105.066 91.6013 105.638 91.2201 105.447V105.447ZM91.2201 106.4C91.7919 104.304 91.7919 108.688 91.2201 106.4V106.4ZM91.7919 110.213C92.5543 108.497 93.1261 112.5 91.7919 110.213V110.213ZM88.5516 110.784C88.361 110.594 88.9328 111.166 88.5516 110.784V110.784ZM92.3637 111.928C92.1731 111.737 92.7449 112.309 92.3637 111.928V111.928ZM86.8361 114.596C86.6455 114.406 87.2173 114.978 86.8361 114.596V114.596ZM87.9798 119.171C87.7892 118.79 88.361 119.362 87.9798 119.171V119.171ZM89.6952 3.8542C89.314 3.47298 89.8858 4.23541 89.6952 3.8542V3.8542ZM85.1207 13.7657V21.9618C85.8831 19.4839 86.6455 14.9094 85.1207 13.7657ZM81.3085 16.4342C81.6898 18.1497 80.7367 23.8679 81.8804 23.1054C81.6898 21.1994 82.4522 15.4812 81.3085 16.4342ZM82.4522 17.5779C82.071 20.8182 82.8334 15.2906 82.4522 17.5779V17.5779ZM84.1676 18.5309V19.1027C83.7864 19.1027 83.4052 18.7215 84.1676 18.5309ZM84.1676 19.1027V20.2463C84.7395 20.0557 84.7395 19.1027 84.1676 19.1027ZM84.1676 20.2463C83.4052 20.4369 83.7864 20.8182 84.1676 20.8182V20.2463ZM84.1676 20.8182C84.3582 21.5806 84.7395 20.8182 84.1676 20.8182V20.8182ZM79.7837 21.9618C79.5931 22.343 79.9743 22.343 80.3555 22.5336C80.3555 21.9618 79.9743 21.9618 79.7837 21.9618ZM84.1676 23.1054C84.7395 25.2021 84.7395 20.8182 84.1676 23.1054V23.1054ZM85.6925 23.4867C85.5019 23.2961 86.0737 23.8679 85.6925 23.4867V23.4867ZM22.03 27.4894C20.6957 27.2988 21.4581 27.8706 21.4581 28.4424H22.03V27.4894ZM132.391 27.8706C132.2 27.68 132.772 28.2518 132.391 27.8706V27.8706ZM131.247 29.0142C131.057 28.8236 131.629 29.3955 131.247 29.0142V29.0142ZM125.339 45.597H126.292V45.9782C125.91 45.9782 125.91 46.3594 125.91 46.55C125.148 46.7406 124.767 46.55 124.767 45.9782C125.148 45.9782 125.339 45.9782 125.339 45.597ZM102.847 45.9782C102.847 46.7406 103.419 46.3594 103.419 45.9782H102.847ZM120.955 45.9782H121.526C121.526 46.3594 120.955 46.7406 120.955 45.9782ZM66.06 47.1219C65.6788 46.9312 66.4413 47.5031 66.06 47.1219V47.1219ZM101.703 46.55C101.894 46.55 102.275 47.1219 101.703 47.1219V46.55ZM110.471 47.6937C110.471 47.3125 110.471 47.1219 111.043 47.1219C111.043 47.6937 110.853 47.6937 110.471 47.6937ZM117.524 47.6937C118.286 47.6937 117.905 47.1219 117.524 47.1219V47.6937ZM123.051 47.1219C124.195 47.1219 124.195 47.5031 123.623 48.2655H122.48V47.6937C122.861 47.6937 123.242 47.6937 123.051 47.1219ZM97.8913 48.2655C97.7007 48.0749 98.2725 48.6467 97.8913 48.2655V48.2655ZM100.56 48.2655C101.322 47.8843 100.56 47.6937 100.56 48.2655V48.2655ZM106.087 48.2655C106.087 47.8843 106.087 47.6937 106.659 47.6937V48.2655H106.087ZM109.328 47.6937H110.471C110.281 48.4561 109.709 48.8373 108.756 48.8373C108.756 48.2655 109.328 48.0749 109.328 47.6937ZM114.855 48.2655C115.236 48.4561 115.427 48.0749 115.427 47.6937C114.855 47.6937 114.855 47.8843 114.855 48.2655ZM99.988 48.8373C100.56 48.8373 100.56 48.6467 100.56 48.2655C100.179 48.0749 99.988 48.4561 99.988 48.8373ZM104.944 48.2655H106.087C105.897 48.6467 105.516 48.8373 105.516 49.4091H104.372V48.8373C104.753 48.8373 105.134 48.6467 104.944 48.2655ZM106.659 48.2655C106.659 48.8373 107.231 48.6467 107.803 48.8373C107.612 48.2655 107.04 48.4561 106.659 48.2655ZM122.48 48.2655C121.717 48.6467 122.67 48.8373 122.48 48.2655V48.2655ZM99.988 48.8373C97.7007 48.6467 99.7974 50.934 99.988 48.8373V48.8373ZM107.803 48.8373C107.612 49.5997 106.659 49.5997 106.659 50.5528C107.993 50.5528 108.375 49.5997 108.756 48.8373H107.803ZM118.096 50.934C118.286 50.3622 119.049 50.1716 119.239 49.4091C118.858 48.0749 116.38 49.4091 117.143 50.934H118.096ZM95.604 49.9809C97.8913 50.3622 95.7946 48.2655 95.604 49.9809V49.9809ZM105.516 49.4091C105.897 50.1716 106.278 49.2185 105.516 49.4091V49.4091ZM121.526 49.9809V49.4091C120.764 49.4091 121.145 49.9809 121.526 49.9809ZM95.0322 50.5528C95.604 50.5528 95.604 50.1716 95.604 49.9809C95.2228 49.7903 95.0322 50.1716 95.0322 50.5528ZM97.3195 50.5528C99.6068 50.934 97.3195 48.8373 97.3195 50.5528V50.5528ZM104.372 49.9809C104.753 50.7434 105.134 49.7903 104.372 49.9809V49.9809ZM119.811 50.5528C120.573 50.1716 119.811 49.7903 119.811 50.5528V50.5528ZM95.0322 50.5528C94.2698 50.7434 95.2228 51.1246 95.0322 50.5528V50.5528ZM96.7477 50.934C97.1289 51.1246 97.3195 50.7434 97.3195 50.5528C96.7477 50.3622 96.7477 50.7434 96.7477 50.934ZM106.659 50.5528C105.325 50.3622 104.944 51.3152 104.372 52.0776H105.516C105.706 51.3152 106.469 51.3152 106.659 50.5528ZM114.855 50.934C115.618 50.7434 114.855 50.3622 114.855 50.934V50.934ZM119.811 50.5528C119.239 50.5528 119.43 50.934 119.811 50.934V50.5528ZM93.5074 50.934C92.7449 52.2682 90.6483 52.2682 90.0764 53.7931C91.4107 53.4119 95.0322 52.4588 93.5074 50.934ZM96.7477 50.934C95.9852 51.3152 96.7477 51.6964 96.7477 50.934V50.934ZM112.187 51.5058C112.377 51.5058 112.759 51.5058 112.568 50.934H112.187V51.5058ZM113.712 51.5058C114.474 51.6964 114.665 51.5058 114.855 50.934H113.712V51.5058ZM117.143 50.934C115.618 50.934 115.427 51.887 114.855 52.6494H115.999C115.999 52.2682 115.999 52.0776 116.571 52.0776C116.571 51.5058 116.952 51.5058 117.143 50.934ZM118.096 51.5058C118.858 51.5058 118.477 50.934 118.096 50.934V51.5058ZM95.0322 52.0776C95.9852 51.6964 95.0322 51.5058 95.0322 52.0776V52.0776ZM113.14 52.0776C113.712 52.2682 113.712 51.887 113.712 51.5058C113.33 51.5058 113.33 51.6964 113.14 52.0776ZM117.524 52.0776C118.096 52.2682 118.096 51.887 118.096 51.5058C117.714 51.5058 117.714 51.6964 117.524 52.0776ZM94.4604 52.6494C95.0322 52.84 95.0322 52.4588 95.0322 52.0776C94.651 52.0776 94.651 52.2682 94.4604 52.6494ZM113.14 52.0776C112.568 52.2682 112.949 52.6494 113.14 52.6494V52.0776ZM94.0792 53.2213C94.4604 53.2213 94.4604 53.0306 94.4604 52.6494C94.0792 52.4588 94.0792 52.84 94.0792 53.2213ZM86.2643 53.2213C87.0267 53.2213 86.6455 53.9837 86.2643 53.2213V53.2213ZM94.0792 53.2213C93.1261 53.6025 94.0792 53.7931 94.0792 53.2213V53.2213ZM91.7919 54.3649H92.9355C92.7449 53.6025 91.7919 53.7931 91.7919 54.3649ZM98.8443 54.3649C99.4162 54.3649 99.4162 54.1743 99.4162 53.7931H98.8443V54.3649ZM91.2201 54.9367C91.7919 54.9367 91.7919 54.5555 91.7919 54.3649C91.4107 54.1743 91.2201 54.5555 91.2201 54.9367ZM109.328 54.9367C109.709 54.7461 110.09 54.7461 109.9 54.3649H109.328V54.9367ZM109.9 57.6052C110.662 57.224 109.9 56.8428 109.9 57.6052V57.6052ZM58.817 59.3207H59.3888C59.3888 58.5582 58.817 58.9394 58.817 59.3207ZM66.06 66.9449C66.8225 66.5637 65.8694 66.1825 66.06 66.9449V66.9449ZM66.06 66.9449C65.107 67.3261 66.06 67.5167 66.06 66.9449V66.9449ZM64.9164 69.0416C64.5352 68.2791 64.154 69.2322 64.9164 69.0416V69.0416ZM62.2479 69.6134C61.8667 69.4228 62.4385 69.9946 62.2479 69.6134V69.6134ZM64.9164 69.0416C64.7258 69.804 65.107 70.1852 65.4882 70.1852C65.4882 69.6134 65.2976 69.2322 64.9164 69.0416ZM61.1043 70.1852C61.8667 69.804 60.9137 69.6134 61.1043 70.1852V70.1852ZM61.1043 70.1852C60.3418 70.5664 61.1043 70.9476 61.1043 70.1852V70.1852ZM92.3637 94.964C92.9355 97.0607 92.9355 92.6768 92.3637 94.964V94.964ZM18.2178 103.732C17.4554 104.113 18.2178 104.304 18.2178 103.732V103.732ZM96.1759 111.356C96.7477 113.643 96.7477 109.26 96.1759 111.356V111.356ZM40.7094 112.5C40.5188 112.309 41.0906 112.881 40.7094 112.5V112.5ZM97.3195 115.74C97.1289 115.55 97.7007 116.121 97.3195 115.74V115.74ZM18.2178 116.312C17.4554 116.693 18.2178 117.074 18.2178 116.312V116.312ZM69.3003 120.124C69.1097 120.696 69.4909 120.696 69.8722 120.696C69.8722 120.315 69.6816 120.124 69.3003 120.124ZM69.8722 120.696C70.2534 121.458 70.444 120.696 69.8722 120.696V120.696ZM72.5407 121.268C72.5407 121.649 72.7313 121.84 73.1125 121.84C73.3031 121.268 72.9219 121.268 72.5407 121.268ZM76.3528 121.84C76.1622 121.649 76.734 122.221 76.3528 121.84V121.84ZM73.1125 121.84C73.1125 122.221 73.3031 122.411 73.6843 122.411C73.8749 121.84 73.4937 121.84 73.1125 121.84ZM80.7367 122.411C80.5461 122.221 81.1179 122.793 80.7367 122.411V122.411ZM73.6843 122.411C74.0655 123.174 74.2561 122.221 73.6843 122.411V122.411ZM78.0682 122.983C78.4495 123.364 77.8776 122.602 78.0682 122.983V122.983Z" fill="#FFFF00"/>
</svg>
